<svg width="396" height="173" viewBox="0 0 396 173" fill="none" xmlns="http://www.w3.org/2000/svg">
<rect width="457" height="173" rx="4" fill="#14121A"/>
<path d="M31.8556 34L29.242 25.53H30.7908L32.7631 32.4754L34.7233 25.53H36.26L33.6585 34H31.8556ZM37.2415 34V32.7537H39.4074V26.7763H37.2415V25.53H43.0253V26.7763H40.8594V32.7537H43.0253V34H37.2415ZM46.7898 34V26.7521H44.1883V25.53H50.8433V26.7521H48.2418V34H46.7898ZM52.1032 34V25.53H57.8628V26.7521H53.5673V29.039H57.3788V30.2248H53.5673V32.7779H57.8628V34H52.1032ZM68.9008 34L66.4445 27.9016H67.594L69.5905 33.0925L71.587 27.9016H72.7244L70.2681 34H68.9008ZM75.412 34L79.0178 26.4617H74.0084V25.53H80.0947V26.6553L76.6099 34H75.412ZM83.7261 34V32.548H85.1297V34H83.7261ZM88.8095 34V33.0804H91.2779V28.0589H89.3177V27.1272H90.9754C91.1448 27.1272 91.2779 26.9941 91.2779 26.8368V25.53H92.3669V33.0804H94.8232V34H88.8095ZM98.491 34V32.548H99.8946V34H98.491ZM106.539 34.1815C104.712 34.1815 103.611 33.1288 103.586 31.58H104.712C104.772 32.2818 105.172 33.2256 106.527 33.2256C107.652 33.2256 108.414 32.4875 108.414 31.2533C108.414 30.1401 107.688 29.281 106.539 29.281C105.45 29.281 105.002 29.8981 104.833 30.2006H103.768L104.446 25.53H109.116V26.4617H105.377L105.014 28.9664C105.498 28.5671 106.103 28.3977 106.769 28.3977C108.354 28.3977 109.564 29.5472 109.564 31.2291C109.564 32.9231 108.463 34.1815 106.539 34.1815ZM47.782 71.2377L47.0923 70.5601L49.2582 68.3821H44.0189V67.3899H49.2582L47.0923 65.224L47.782 64.5343L51.1337 67.886L47.782 71.2377ZM236.809 148V139.53H237.886V142.821C238.273 142.144 239.059 141.744 239.931 141.744C241.25 141.744 242.169 142.579 242.169 144.201V148H241.104V144.261C241.104 143.196 240.499 142.64 239.616 142.64C238.66 142.64 237.886 143.402 237.886 144.479V148H236.809ZM243.865 148V141.902H244.893V142.422C245.135 141.986 245.595 141.744 246.091 141.744C246.708 141.744 247.071 142.119 247.192 142.47C247.543 141.889 248.063 141.744 248.547 141.744C249.334 141.744 249.866 142.337 249.866 143.341V148H248.838V143.535C248.838 142.954 248.632 142.676 248.257 142.676C247.785 142.676 247.374 143.112 247.374 143.85V148H246.357V143.535C246.357 142.954 246.139 142.676 245.764 142.676C245.292 142.676 244.893 143.112 244.893 143.85V148H243.865ZM252.36 148V141.902H253.461V142.93C253.848 142.252 254.514 141.902 255.204 141.902H256.668V142.93H255.119C254.151 142.93 253.461 143.559 253.461 144.781V148H252.36ZM268.577 148.157C267.258 148.157 266.338 147.322 266.338 145.701V141.902H267.415V145.64C267.415 146.705 268.008 147.262 268.904 147.262C269.847 147.262 270.634 146.5 270.634 145.423V141.902H271.699V148H270.634V147.08C270.235 147.758 269.46 148.157 268.577 148.157ZM273.588 150.009V141.902H274.653V142.821C275.149 142.095 275.838 141.744 276.697 141.744C278.149 141.744 279.347 143.051 279.347 144.975C279.347 146.887 278.149 148.157 276.697 148.157C275.838 148.157 275.088 147.794 274.653 147.092V150.009H273.588ZM276.431 147.262C277.569 147.262 278.234 146.306 278.234 144.975C278.234 143.632 277.569 142.64 276.431 142.64C275.282 142.64 274.604 143.632 274.604 144.963C274.604 146.282 275.282 147.262 276.431 147.262ZM283.427 148.157C281.962 148.157 280.777 146.85 280.777 144.927C280.777 143.015 281.962 141.744 283.427 141.744C284.286 141.744 285.024 142.107 285.459 142.809V139.53H286.536V148H285.459V147.08C284.975 147.806 284.286 148.157 283.427 148.157ZM283.693 147.262C284.842 147.262 285.52 146.27 285.52 144.939C285.52 143.62 284.842 142.64 283.693 142.64C282.555 142.64 281.89 143.596 281.89 144.927C281.89 146.27 282.555 147.262 283.693 147.262ZM290.264 148.157C289.03 148.157 288.22 147.431 288.22 146.354C288.22 144.939 289.454 144.6 290.446 144.479L291.753 144.309C292.249 144.249 292.334 143.959 292.334 143.68V143.668C292.334 143.075 291.934 142.615 291.015 142.615C290.131 142.615 289.611 143.027 289.514 143.777H288.437C288.57 142.543 289.551 141.744 291.003 141.744C292.624 141.744 293.398 142.555 293.398 143.922V146.875C293.398 147.02 293.507 147.117 293.652 147.117H294.028V148H293.302C292.709 148 292.406 147.697 292.406 147.25V147.105C291.874 147.891 291.027 148.157 290.264 148.157ZM290.543 147.286C291.62 147.286 292.334 146.487 292.334 145.302V144.878C292.14 144.975 291.934 145.023 291.716 145.06L290.652 145.217C289.732 145.362 289.333 145.689 289.333 146.306C289.333 146.923 289.805 147.286 290.543 147.286ZM298.917 148C297.877 148 297.381 147.576 297.381 146.56V142.785H295.566V141.902H297.102C297.272 141.902 297.381 141.793 297.381 141.635V139.881H298.445V141.902H300.853V142.785H298.445V146.415C298.445 146.85 298.627 147.105 299.171 147.105H301.12V148H298.917ZM305.997 148.157C304.206 148.157 303.081 146.79 303.081 144.951C303.081 143.124 304.206 141.744 305.997 141.744C307.51 141.744 308.841 142.603 308.696 145.229H304.182C304.267 146.354 304.787 147.274 305.997 147.274C306.808 147.274 307.34 146.778 307.522 146.209H308.587C308.417 147.226 307.461 148.157 305.997 148.157ZM304.206 144.418H307.655C307.57 143.196 307.002 142.628 305.997 142.628C304.896 142.628 304.352 143.426 304.206 144.418Z" fill="#C880FF"/>
<path d="M126.859 34V27.9016H127.96V28.9301C128.347 28.2525 129.013 27.9016 129.703 27.9016H131.167V28.9301H129.618C128.65 28.9301 127.96 29.5593 127.96 30.7814V34H126.859ZM136.202 34.1573C134.411 34.1573 133.286 32.79 133.286 30.9508C133.286 29.1237 134.411 27.7443 136.202 27.7443C137.714 27.7443 139.045 28.6034 138.9 31.2291H134.387C134.471 32.3544 134.992 33.274 136.202 33.274C137.012 33.274 137.545 32.7779 137.726 32.2092H138.791C138.622 33.2256 137.666 34.1573 136.202 34.1573ZM134.411 30.4184H137.859C137.775 29.1963 137.206 28.6276 136.202 28.6276C135.101 28.6276 134.556 29.4262 134.411 30.4184ZM142.616 34.1573C141.382 34.1573 140.571 33.4313 140.571 32.3544C140.571 30.9387 141.805 30.5999 142.798 30.4789L144.104 30.3095C144.6 30.249 144.685 29.9586 144.685 29.6803V29.6682C144.685 29.0753 144.286 28.6155 143.366 28.6155C142.483 28.6155 141.963 29.0269 141.866 29.7771H140.789C140.922 28.5429 141.902 27.7443 143.354 27.7443C144.976 27.7443 145.75 28.555 145.75 29.9223V32.8747C145.75 33.0199 145.859 33.1167 146.004 33.1167H146.379V34H145.653C145.06 34 144.758 33.6975 144.758 33.2498V33.1046C144.225 33.8911 143.378 34.1573 142.616 34.1573ZM142.894 33.2861C143.971 33.2861 144.685 32.4875 144.685 31.3017V30.8782C144.492 30.975 144.286 31.0234 144.068 31.0597L143.003 31.217C142.084 31.3622 141.684 31.6889 141.684 32.306C141.684 32.9231 142.156 33.2861 142.894 33.2861ZM150.543 34.1573C149.079 34.1573 147.893 32.8505 147.893 30.9266C147.893 29.0148 149.079 27.7443 150.543 27.7443C151.402 27.7443 152.14 28.1073 152.576 28.8091V25.53H153.653V34H152.576V33.0804C152.092 33.8064 151.402 34.1573 150.543 34.1573ZM150.809 33.2619C151.959 33.2619 152.636 32.2697 152.636 30.9387C152.636 29.6198 151.959 28.6397 150.809 28.6397C149.672 28.6397 149.006 29.5956 149.006 30.9266C149.006 32.2697 149.672 33.2619 150.809 33.2619ZM155.747 36.0086V35.1374H156.788C157.175 35.1374 157.369 35.0527 157.502 34.7018L157.792 33.8911L155.348 27.9016H156.498L158.325 32.5117L160.031 27.9016H161.156L158.409 35.0648C158.107 35.8513 157.659 36.0086 156.945 36.0086H155.747ZM170.198 34V33.0925H172.472V28.8091H170.44V27.9016H173.574V33.0925H175.836V34H170.198ZM172.424 26.861V25.53H173.634V26.861H172.424ZM177.749 34V27.9016H178.826V28.8212C179.214 28.1436 180 27.7443 180.871 27.7443C182.19 27.7443 183.11 28.5792 183.11 30.2006V34H182.045V30.2611C182.045 29.1963 181.44 28.6397 180.557 28.6397C179.601 28.6397 178.826 29.402 178.826 30.4789V34H177.749ZM221.717 34V27.9016H222.746V28.4219C222.988 27.9863 223.448 27.7443 223.944 27.7443C224.561 27.7443 224.924 28.1194 225.045 28.4703C225.396 27.8895 225.916 27.7443 226.4 27.7443C227.186 27.7443 227.719 28.3372 227.719 29.3415V34H226.69V29.5351C226.69 28.9543 226.485 28.676 226.11 28.676C225.638 28.676 225.226 29.1116 225.226 29.8497V34H224.21V29.5351C224.21 28.9543 223.992 28.676 223.617 28.676C223.145 28.676 222.746 29.1116 222.746 29.8497V34H221.717ZM232.197 34.1573C230.6 34.1573 229.608 33.3829 229.499 32.0882H230.588C230.733 32.8989 231.278 33.2861 232.221 33.2861C233.044 33.2861 233.552 32.911 233.552 32.3302C233.552 31.8825 233.226 31.5679 232.597 31.459L231.399 31.217C230.527 31.0476 229.668 30.6362 229.668 29.523C229.668 28.5066 230.624 27.7443 232.052 27.7443C233.431 27.7443 234.436 28.3251 234.557 29.6561H233.468C233.359 28.9785 232.851 28.6155 232.04 28.6155C231.266 28.6155 230.745 28.9785 230.745 29.4867C230.745 29.9707 231.169 30.2006 231.653 30.2974L232.923 30.5394C233.782 30.7088 234.654 31.1807 234.654 32.2697C234.654 33.4071 233.649 34.1573 232.197 34.1573ZM66.6865 91V82.53H68.2716L71.2482 88.6526V82.53H72.6397V91H71.0546L68.078 84.8774V91H66.6865ZM77.1181 91.1573C75.3031 91.1573 74.1536 89.79 74.1536 87.9508C74.1536 86.1237 75.3031 84.7443 77.1181 84.7443C78.7153 84.7443 80.0221 85.6639 79.9253 88.3017H75.5451C75.654 89.3423 76.138 90.0562 77.1302 90.0562C77.8199 90.0562 78.2797 89.6569 78.4491 89.1729H79.8285C79.6712 90.2014 78.7153 91.1573 77.1181 91.1573ZM75.5693 87.3579H78.5459C78.4612 86.281 77.9409 85.8333 77.1181 85.8333C76.1864 85.8333 75.7266 86.4988 75.5693 87.3579ZM84.8514 91C83.7503 91 83.1695 90.4797 83.1695 89.4149V86.0511H81.3787V84.9016H82.8912C83.0485 84.9016 83.1695 84.7806 83.1695 84.6233V82.8809H84.5731V84.9016H86.8721V86.0511H84.5731V89.1971C84.5731 89.6206 84.7667 89.8505 85.2628 89.8505H87.1504V91H84.8514ZM89.4871 91L88.3618 84.9016H89.6928L90.3825 89.5117L91.2779 86.4383H92.3548L93.2381 89.4754L93.9399 84.9016H95.2588L94.1456 91H92.6936L91.8224 87.9266L90.927 91H89.4871ZM99.1928 91.1573C97.2931 91.1573 96.2041 89.79 96.2041 87.9508C96.2041 86.1237 97.2931 84.7443 99.1928 84.7443C101.092 84.7443 102.194 86.1237 102.194 87.9508C102.194 89.79 101.092 91.1573 99.1928 91.1573ZM99.1928 90.0199C100.318 90.0199 100.754 89.0398 100.754 87.9387C100.754 86.8497 100.318 85.8817 99.1928 85.8817C98.0675 85.8817 97.6319 86.8497 97.6319 87.9387C97.6319 89.0398 98.0675 90.0199 99.1928 90.0199ZM104.47 91V84.9016H105.898V85.9422C106.297 85.2404 106.914 84.9016 107.652 84.9016H109.128V86.1963H107.495C106.527 86.1963 105.898 86.8376 105.898 87.9629V91H104.47ZM111.344 91V82.53H112.735V87.6725L115.192 84.9016H116.862L114.72 87.2369L117.249 91H115.615L113.8 88.2291L112.735 89.3544V91H111.344ZM120.517 91V89.306H122.163V91H120.517ZM120.517 86.886V85.192H122.163V86.886H120.517ZM135.693 91.1573C134.375 91.1573 133.455 90.3224 133.455 88.701V84.9016H134.532V88.6405C134.532 89.7053 135.125 90.2619 136.02 90.2619C136.964 90.2619 137.75 89.4996 137.75 88.4227V84.9016H138.815V91H137.75V90.0804C137.351 90.758 136.577 91.1573 135.693 91.1573ZM143.608 91.1573C142.011 91.1573 141.019 90.3829 140.91 89.0882H141.999C142.144 89.8989 142.689 90.2861 143.632 90.2861C144.455 90.2861 144.963 89.911 144.963 89.3302C144.963 88.8825 144.637 88.5679 144.008 88.459L142.81 88.217C141.938 88.0476 141.079 87.6362 141.079 86.523C141.079 85.5066 142.035 84.7443 143.463 84.7443C144.842 84.7443 145.847 85.3251 145.968 86.6561H144.879C144.77 85.9785 144.262 85.6155 143.451 85.6155C142.677 85.6155 142.156 85.9785 142.156 86.4867C142.156 86.9707 142.58 87.2006 143.064 87.2974L144.334 87.5394C145.193 87.7088 146.065 88.1807 146.065 89.2697C146.065 90.4071 145.06 91.1573 143.608 91.1573ZM150.966 91.1573C149.176 91.1573 148.05 89.79 148.05 87.9508C148.05 86.1237 149.176 84.7443 150.966 84.7443C152.479 84.7443 153.81 85.6034 153.665 88.2291H149.151C149.236 89.3544 149.756 90.274 150.966 90.274C151.777 90.274 152.31 89.7779 152.491 89.2092H153.556C153.386 90.2256 152.431 91.1573 150.966 91.1573ZM149.176 87.4184H152.624C152.539 86.1963 151.971 85.6276 150.966 85.6276C149.865 85.6276 149.321 86.4262 149.176 87.4184ZM217.711 91C216.67 91 216.174 90.5765 216.174 89.5601V85.7849H214.359V84.9016H215.896C216.065 84.9016 216.174 84.7927 216.174 84.6354V82.8809H217.239V84.9016H219.647V85.7849H217.239V89.4149C217.239 89.8505 217.42 90.1046 217.965 90.1046H219.913V91H217.711ZM224.694 91.1573C222.843 91.1573 221.754 89.7779 221.754 87.9508C221.754 86.1358 222.843 84.7443 224.694 84.7443C226.545 84.7443 227.634 86.1358 227.634 87.9508C227.634 89.7779 226.545 91.1573 224.694 91.1573ZM224.694 90.2619C226.025 90.2619 226.533 89.1245 226.533 87.9387C226.533 86.765 226.025 85.6397 224.694 85.6397C223.363 85.6397 222.855 86.765 222.855 87.9387C222.855 89.1245 223.363 90.2619 224.694 90.2619ZM239.556 91.1573C237.765 91.1573 236.639 89.79 236.639 87.9508C236.639 86.1237 237.765 84.7443 239.556 84.7443C241.068 84.7443 242.399 85.6034 242.254 88.2291H237.741C237.825 89.3544 238.346 90.274 239.556 90.274C240.366 90.274 240.899 89.7779 241.08 89.2092H242.145C241.976 90.2256 241.02 91.1573 239.556 91.1573ZM237.765 87.4184H241.213C241.129 86.1963 240.56 85.6276 239.556 85.6276C238.454 85.6276 237.91 86.4262 237.765 87.4184ZM244.046 91L246.188 87.8298L244.215 84.9016H245.413L246.865 87.0917L248.317 84.9016H249.515L247.507 87.854L249.636 91H248.426L246.841 88.5921L245.256 91H244.046ZM251.441 93.0086V84.9016H252.505V85.8212C253.001 85.0952 253.691 84.7443 254.55 84.7443C256.002 84.7443 257.2 86.0511 257.2 87.975C257.2 89.8868 256.002 91.1573 254.55 91.1573C253.691 91.1573 252.941 90.7943 252.505 90.0925V93.0086H251.441ZM254.284 90.2619C255.421 90.2619 256.087 89.306 256.087 87.975C256.087 86.6319 255.421 85.6397 254.284 85.6397C253.135 85.6397 252.457 86.6319 252.457 87.9629C252.457 89.2818 253.135 90.2619 254.284 90.2619ZM261.606 91.1573C259.755 91.1573 258.666 89.7779 258.666 87.9508C258.666 86.1358 259.755 84.7443 261.606 84.7443C263.457 84.7443 264.546 86.1358 264.546 87.9508C264.546 89.7779 263.457 91.1573 261.606 91.1573ZM261.606 90.2619C262.937 90.2619 263.445 89.1245 263.445 87.9387C263.445 86.765 262.937 85.6397 261.606 85.6397C260.275 85.6397 259.767 86.765 259.767 87.9387C259.767 89.1245 260.275 90.2619 261.606 90.2619ZM269.109 91.1573C267.512 91.1573 266.52 90.3829 266.411 89.0882H267.5C267.645 89.8989 268.19 90.2861 269.134 90.2861C269.956 90.2861 270.465 89.911 270.465 89.3302C270.465 88.8825 270.138 88.5679 269.509 88.459L268.311 88.217C267.44 88.0476 266.58 87.6362 266.58 86.523C266.58 85.5066 267.536 84.7443 268.964 84.7443C270.344 84.7443 271.348 85.3251 271.469 86.6561H270.38C270.271 85.9785 269.763 85.6155 268.952 85.6155C268.178 85.6155 267.657 85.9785 267.657 86.4867C267.657 86.9707 268.081 87.2006 268.565 87.2974L269.835 87.5394C270.694 87.7088 271.566 88.1807 271.566 89.2697C271.566 90.4071 270.561 91.1573 269.109 91.1573ZM276.468 91.1573C274.677 91.1573 273.551 89.79 273.551 87.9508C273.551 86.1237 274.677 84.7443 276.468 84.7443C277.98 84.7443 279.311 85.6034 279.166 88.2291H274.653C274.737 89.3544 275.258 90.274 276.468 90.274C277.278 90.274 277.811 89.7779 277.992 89.2092H279.057C278.888 90.2256 277.932 91.1573 276.468 91.1573ZM274.677 87.4184H278.125C278.041 86.1963 277.472 85.6276 276.468 85.6276C275.366 85.6276 274.822 86.4262 274.677 87.4184ZM66.8801 112.009V103.902H67.9449V104.821C68.441 104.095 69.1307 103.744 69.9898 103.744C71.4418 103.744 72.6397 105.051 72.6397 106.975C72.6397 108.887 71.4418 110.157 69.9898 110.157C69.1307 110.157 68.3805 109.794 67.9449 109.092V112.009H66.8801ZM69.7236 109.262C70.861 109.262 71.5265 108.306 71.5265 106.975C71.5265 105.632 70.861 104.64 69.7236 104.64C68.5741 104.64 67.8965 105.632 67.8965 106.963C67.8965 108.282 68.5741 109.262 69.7236 109.262ZM75.1821 110V103.902H76.2832V104.93C76.6704 104.252 77.3359 103.902 78.0256 103.902H79.4897V104.93H77.9409C76.9729 104.93 76.2832 105.559 76.2832 106.781V110H75.1821ZM84.5247 110.157C82.7339 110.157 81.6086 108.79 81.6086 106.951C81.6086 105.124 82.7339 103.744 84.5247 103.744C86.0372 103.744 87.3682 104.603 87.223 107.229H82.7097C82.7944 108.354 83.3147 109.274 84.5247 109.274C85.3354 109.274 85.8678 108.778 86.0493 108.209H87.1141C86.9447 109.226 85.9888 110.157 84.5247 110.157ZM82.7339 106.418H86.1824C86.0977 105.196 85.529 104.628 84.5247 104.628C83.4236 104.628 82.8791 105.426 82.7339 106.418ZM91.9313 110.157C90.3341 110.157 89.3419 109.383 89.233 108.088H90.322C90.4672 108.899 91.0117 109.286 91.9555 109.286C92.7783 109.286 93.2865 108.911 93.2865 108.33C93.2865 107.882 92.9598 107.568 92.3306 107.459L91.1327 107.217C90.2615 107.048 89.4024 106.636 89.4024 105.523C89.4024 104.507 90.3583 103.744 91.7861 103.744C93.1655 103.744 94.1698 104.325 94.2908 105.656H93.2018C93.0929 104.978 92.5847 104.615 91.774 104.615C90.9996 104.615 90.4793 104.978 90.4793 105.487C90.4793 105.971 90.9028 106.201 91.3868 106.297L92.6573 106.539C93.5164 106.709 94.3876 107.181 94.3876 108.27C94.3876 109.407 93.3833 110.157 91.9313 110.157ZM99.3138 110.157C97.7166 110.157 96.7244 109.383 96.6155 108.088H97.7045C97.8497 108.899 98.3942 109.286 99.338 109.286C100.161 109.286 100.669 108.911 100.669 108.33C100.669 107.882 100.342 107.568 99.7131 107.459L98.5152 107.217C97.644 107.048 96.7849 106.636 96.7849 105.523C96.7849 104.507 97.7408 103.744 99.1686 103.744C100.548 103.744 101.552 104.325 101.673 105.656H100.584C100.475 104.978 99.9672 104.615 99.1565 104.615C98.3821 104.615 97.8618 104.978 97.8618 105.487C97.8618 105.971 98.2853 106.201 98.7693 106.297L100.04 106.539C100.899 106.709 101.77 107.181 101.77 108.27C101.77 109.407 100.766 110.157 99.3138 110.157ZM188.181 110C187.14 110 186.644 109.576 186.644 108.56V104.785H184.829V103.902H186.366C186.535 103.902 186.644 103.793 186.644 103.635V101.881H187.709V103.902H190.117V104.785H187.709V108.415C187.709 108.85 187.891 109.105 188.435 109.105H190.383V110H188.181ZM195.164 110.157C193.313 110.157 192.224 108.778 192.224 106.951C192.224 105.136 193.313 103.744 195.164 103.744C197.015 103.744 198.104 105.136 198.104 106.951C198.104 108.778 197.015 110.157 195.164 110.157ZM195.164 109.262C196.495 109.262 197.003 108.124 197.003 106.939C197.003 105.765 196.495 104.64 195.164 104.64C193.833 104.64 193.325 105.765 193.325 106.939C193.325 108.124 193.833 109.262 195.164 109.262ZM210.05 110.157C208.453 110.157 207.461 109.383 207.352 108.088H208.441C208.586 108.899 209.13 109.286 210.074 109.286C210.897 109.286 211.405 108.911 211.405 108.33C211.405 107.882 211.079 107.568 210.449 107.459L209.251 107.217C208.38 107.048 207.521 106.636 207.521 105.523C207.521 104.507 208.477 103.744 209.905 103.744C211.284 103.744 212.289 104.325 212.41 105.656H211.321C211.212 104.978 210.703 104.615 209.893 104.615C209.118 104.615 208.598 104.978 208.598 105.487C208.598 105.971 209.022 106.201 209.506 106.297L210.776 106.539C211.635 106.709 212.506 107.181 212.506 108.27C212.506 109.407 211.502 110.157 210.05 110.157ZM214.662 110V101.53H215.738V104.821C216.126 104.144 216.912 103.744 217.783 103.744C219.102 103.744 220.022 104.579 220.022 106.201V110H218.957V106.261C218.957 105.196 218.352 104.64 217.469 104.64C216.513 104.64 215.738 105.402 215.738 106.479V110H214.662ZM224.694 110.157C222.843 110.157 221.754 108.778 221.754 106.951C221.754 105.136 222.843 103.744 224.694 103.744C226.545 103.744 227.634 105.136 227.634 106.951C227.634 108.778 226.545 110.157 224.694 110.157ZM224.694 109.262C226.025 109.262 226.533 108.124 226.533 106.939C226.533 105.765 226.025 104.64 224.694 104.64C223.363 104.64 222.855 105.765 222.855 106.939C222.855 108.124 223.363 109.262 224.694 109.262ZM229.838 110L228.712 103.902H229.729L230.527 108.935L231.58 105.62H232.584L233.625 108.899L234.436 103.902H235.452L234.327 110H233.117L232.088 106.83L231.048 110H229.838ZM244.191 110V101.53H245.268V104.821C245.655 104.144 246.442 103.744 247.313 103.744C248.632 103.744 249.552 104.579 249.552 106.201V110H248.487V106.261C248.487 105.196 247.882 104.64 246.998 104.64C246.043 104.64 245.268 105.402 245.268 106.479V110H244.191ZM254.32 110.157C252.53 110.157 251.404 108.79 251.404 106.951C251.404 105.124 252.53 103.744 254.32 103.744C255.833 103.744 257.164 104.603 257.019 107.229H252.505C252.59 108.354 253.11 109.274 254.32 109.274C255.131 109.274 255.663 108.778 255.845 108.209H256.91C256.74 109.226 255.784 110.157 254.32 110.157ZM252.53 106.418H255.978C255.893 105.196 255.325 104.628 254.32 104.628C253.219 104.628 252.675 105.426 252.53 106.418ZM258.714 110V109.117H261.074V102.413H259.15V101.53H262.15V109.117H264.498V110H258.714ZM266.205 112.009V103.902H267.27V104.821C267.766 104.095 268.456 103.744 269.315 103.744C270.767 103.744 271.965 105.051 271.965 106.975C271.965 108.887 270.767 110.157 269.315 110.157C268.456 110.157 267.706 109.794 267.27 109.092V112.009H266.205ZM269.049 109.262C270.186 109.262 270.852 108.306 270.852 106.975C270.852 105.632 270.186 104.64 269.049 104.64C267.899 104.64 267.222 105.632 267.222 106.963C267.222 108.282 267.899 109.262 269.049 109.262ZM29.7502 148V147.08H32.2186V142.059H30.2584V141.127H31.9161C32.0855 141.127 32.2186 140.994 32.2186 140.837V139.53H33.3076V147.08H35.7639V148H29.7502ZM37.1326 148V147.08H39.601V142.059H37.6408V141.127H39.2985C39.4679 141.127 39.601 140.994 39.601 140.837V139.53H40.69V147.08H43.1463V148H37.1326ZM46.814 148V146.548H48.2176V148H46.814ZM46.814 143.789V142.337H48.2176V143.789H46.814ZM52.0064 147.685C52.0064 146.197 53.0591 145.314 54.1481 144.527C55.3218 143.692 56.556 142.978 56.556 141.817C56.556 140.861 55.8784 140.316 54.9225 140.316C53.8214 140.316 53.2164 140.994 53.2285 141.998H52.1032C52.0306 140.401 53.2527 139.348 54.9709 139.348C56.5802 139.348 57.7055 140.341 57.7055 141.756C57.7055 142.773 57.0884 143.523 56.3261 144.164C55.0556 145.193 53.4342 145.943 53.2527 147.08H57.8023V148H52.0064V147.685ZM62.2686 148.157C60.2963 148.157 59.05 146.512 59.05 143.765C59.05 141.006 60.2963 139.385 62.2686 139.385C64.253 139.385 65.4993 141.006 65.4993 143.765C65.4993 146.512 64.253 148.157 62.2686 148.157ZM62.2686 147.213C63.6722 147.213 64.3498 145.943 64.3498 143.765C64.3498 141.575 63.6722 140.329 62.2686 140.329C60.8771 140.329 60.1874 141.575 60.1874 143.765C60.1874 145.943 60.8771 147.213 62.2686 147.213ZM68.9613 148V146.548H70.3649V148H68.9613ZM68.9613 143.789V142.337H70.3649V143.789H68.9613ZM77.0818 148.182C74.928 148.182 74.0931 146.971 74.0205 145.386H75.1458C75.2063 146.306 75.6661 147.238 77.0092 147.238C78.1466 147.238 78.921 146.754 78.921 145.653C78.921 144.697 78.2676 144.067 77.2633 144.067H76.4889V143.172H77.227C78.1466 143.172 78.7395 142.494 78.7395 141.635C78.7395 140.8 78.1708 140.28 77.1302 140.28C75.8355 140.28 75.3031 141.176 75.2668 142.035H74.1657C74.1778 140.728 75.0853 139.348 77.1786 139.348C78.8847 139.348 79.8527 140.22 79.8527 141.539C79.8527 142.543 79.2477 143.281 78.4249 143.559C79.1509 143.729 80.0705 144.37 80.0705 145.677C80.0705 147.056 78.9694 148.182 77.0818 148.182ZM84.3916 148.182C82.5645 148.182 81.4634 147.129 81.4392 145.58H82.5645C82.625 146.282 83.0243 147.226 84.3795 147.226C85.5048 147.226 86.2671 146.487 86.2671 145.253C86.2671 144.14 85.5411 143.281 84.3916 143.281C83.3026 143.281 82.8549 143.898 82.6855 144.201H81.6207L82.2983 139.53H86.9689V140.462H83.23L82.867 142.966C83.351 142.567 83.956 142.398 84.6215 142.398C86.2066 142.398 87.4166 143.547 87.4166 145.229C87.4166 146.923 86.3155 148.182 84.3916 148.182ZM96.4098 150.009V141.902H97.4746V142.821C97.9707 142.095 98.6604 141.744 99.5195 141.744C100.971 141.744 102.169 143.051 102.169 144.975C102.169 146.887 100.971 148.157 99.5195 148.157C98.6604 148.157 97.9102 147.794 97.4746 147.092V150.009H96.4098ZM99.2533 147.262C100.391 147.262 101.056 146.306 101.056 144.975C101.056 143.632 100.391 142.64 99.2533 142.64C98.1038 142.64 97.4262 143.632 97.4262 144.963C97.4262 146.282 98.1038 147.262 99.2533 147.262ZM103.599 148V141.902H104.627V142.422C104.869 141.986 105.329 141.744 105.825 141.744C106.442 141.744 106.805 142.119 106.926 142.47C107.277 141.889 107.797 141.744 108.281 141.744C109.068 141.744 109.6 142.337 109.6 143.341V148H108.572V143.535C108.572 142.954 108.366 142.676 107.991 142.676C107.519 142.676 107.108 143.112 107.108 143.85V148H106.091V143.535C106.091 142.954 105.873 142.676 105.498 142.676C105.026 142.676 104.627 143.112 104.627 143.85V148H103.599ZM318.27 149.186L321.996 139.53H323.049L319.322 149.186H318.27ZM328.169 148.157C326.572 148.157 325.579 147.383 325.47 146.088H326.559C326.705 146.899 327.249 147.286 328.193 147.286C329.016 147.286 329.524 146.911 329.524 146.33C329.524 145.882 329.197 145.568 328.568 145.459L327.37 145.217C326.499 145.048 325.64 144.636 325.64 143.523C325.64 142.507 326.596 141.744 328.024 141.744C329.403 141.744 330.407 142.325 330.528 143.656H329.439C329.33 142.978 328.822 142.615 328.011 142.615C327.237 142.615 326.717 142.978 326.717 143.487C326.717 143.971 327.14 144.201 327.624 144.297L328.895 144.539C329.754 144.709 330.625 145.181 330.625 146.27C330.625 147.407 329.621 148.157 328.169 148.157ZM333.567 148V141.902H334.668V142.93C335.055 142.252 335.721 141.902 336.41 141.902H337.874V142.93H336.326C335.358 142.93 334.668 143.559 334.668 144.781V148H333.567ZM342.97 148.157C341.191 148.157 340.03 146.778 340.03 144.951C340.03 143.136 341.191 141.744 342.982 141.744C344.373 141.744 345.402 142.591 345.596 143.995H344.507C344.337 143.136 343.744 142.64 342.97 142.64C341.699 142.64 341.143 143.729 341.143 144.939C341.143 146.161 341.699 147.262 342.97 147.262C343.756 147.262 344.289 146.85 344.507 146.064H345.583C345.354 147.31 344.422 148.157 342.97 148.157ZM347.799 149.186L351.526 139.53H352.579L348.852 149.186H347.799ZM354.71 148V139.53H355.811V143.16H359.344V139.53H360.445V148H359.344V144.092H355.811V148H354.71ZM365.057 148.157C363.266 148.157 362.141 146.79 362.141 144.951C362.141 143.124 363.266 141.744 365.057 141.744C366.569 141.744 367.9 142.603 367.755 145.229H363.242C363.326 146.354 363.847 147.274 365.057 147.274C365.867 147.274 366.4 146.778 366.581 146.209H367.646C367.477 147.226 366.521 148.157 365.057 148.157ZM363.266 144.418H366.714C366.63 143.196 366.061 142.628 365.057 142.628C363.956 142.628 363.411 143.426 363.266 144.418ZM371.471 148.157C370.237 148.157 369.426 147.431 369.426 146.354C369.426 144.939 370.66 144.6 371.653 144.479L372.959 144.309C373.455 144.249 373.54 143.959 373.54 143.68V143.668C373.54 143.075 373.141 142.615 372.221 142.615C371.338 142.615 370.818 143.027 370.721 143.777H369.644C369.777 142.543 370.757 141.744 372.209 141.744C373.831 141.744 374.605 142.555 374.605 143.922V146.875C374.605 147.02 374.714 147.117 374.859 147.117H375.234V148H374.508C373.915 148 373.613 147.697 373.613 147.25V147.105C373.08 147.891 372.233 148.157 371.471 148.157ZM371.749 147.286C372.826 147.286 373.54 146.487 373.54 145.302V144.878C373.347 144.975 373.141 145.023 372.923 145.06L371.858 145.217C370.939 145.362 370.539 145.689 370.539 146.306C370.539 146.923 371.011 147.286 371.749 147.286ZM379.398 148.157C377.934 148.157 376.748 146.85 376.748 144.927C376.748 143.015 377.934 141.744 379.398 141.744C380.257 141.744 380.995 142.107 381.431 142.809V139.53H382.508V148H381.431V147.08C380.947 147.806 380.257 148.157 379.398 148.157ZM379.664 147.262C380.814 147.262 381.491 146.27 381.491 144.939C381.491 143.62 380.814 142.64 379.664 142.64C378.527 142.64 377.861 143.596 377.861 144.927C377.861 146.27 378.527 147.262 379.664 147.262ZM387.204 148.157C385.413 148.157 384.288 146.79 384.288 144.951C384.288 143.124 385.413 141.744 387.204 141.744C388.716 141.744 390.047 142.603 389.902 145.229H385.389C385.474 146.354 385.994 147.274 387.204 147.274C388.015 147.274 388.547 146.778 388.728 146.209H389.793C389.624 147.226 388.668 148.157 387.204 148.157ZM385.413 144.418H388.862C388.777 143.196 388.208 142.628 387.204 142.628C386.103 142.628 385.558 143.426 385.413 144.418ZM392.626 148V141.902H393.727V142.93C394.114 142.252 394.78 141.902 395.47 141.902H396.934V142.93H395.385C394.417 142.93 393.727 143.559 393.727 144.781V148H392.626ZM401.17 148V146.548H402.574V148H401.17ZM408.492 148L406.036 141.902H407.185L409.182 147.092L411.178 141.902H412.316L409.859 148H408.492ZM416.225 148.157C414.906 148.157 413.987 147.322 413.987 145.701V141.902H415.064V145.64C415.064 146.705 415.657 147.262 416.552 147.262C417.496 147.262 418.282 146.5 418.282 145.423V141.902H419.347V148H418.282V147.08C417.883 147.758 417.109 148.157 416.225 148.157ZM424.116 148.157C422.325 148.157 421.2 146.79 421.2 144.951C421.2 143.124 422.325 141.744 424.116 141.744C425.628 141.744 426.959 142.603 426.814 145.229H422.301C422.386 146.354 422.906 147.274 424.116 147.274C424.927 147.274 425.459 146.778 425.641 146.209H426.705C426.536 147.226 425.58 148.157 424.116 148.157ZM422.325 144.418H425.774C425.689 143.196 425.12 142.628 424.116 142.628C423.015 142.628 422.47 143.426 422.325 144.418Z" fill="#F4F3EC" fill-opacity="0.5"/>
<path d="M192.079 34V32.7779H194.45V28.3251H192.551V27.0909H194.111C194.317 27.0909 194.45 26.9457 194.45 26.7521V25.53H195.914V32.7779H198.238V34H192.079ZM202.51 34.1815C200.574 34.1815 199.449 33.1046 199.425 31.5437H200.913C200.998 32.2213 201.421 32.9352 202.522 32.9352C203.478 32.9352 204.156 32.306 204.156 31.1807C204.168 30.1522 203.515 29.4262 202.522 29.4262C201.591 29.4262 201.167 29.9586 200.998 30.249H199.57L200.272 25.53H205.184V26.7521H201.482L201.155 28.9301C201.615 28.555 202.196 28.3614 202.898 28.3614C204.41 28.3614 205.668 29.4141 205.668 31.1565C205.668 32.9352 204.483 34.1815 202.51 34.1815ZM209.699 34.1815C207.993 34.1815 206.965 33.0804 206.928 31.8462H208.38C208.501 32.6085 209.058 32.9836 209.76 32.9836C210.849 32.9836 211.623 32.0398 211.623 30.0675C211.163 30.8298 210.34 31.1081 209.578 31.1081C208.066 31.1081 206.735 30.0917 206.735 28.313C206.735 26.5222 207.993 25.3485 209.856 25.3485C211.732 25.3485 213.123 26.6069 213.123 29.7529C213.123 32.7537 211.659 34.1815 209.699 34.1815ZM209.844 29.9344C210.752 29.9344 211.466 29.2689 211.466 28.2525C211.466 27.2361 210.752 26.5706 209.844 26.5706C208.949 26.5706 208.223 27.2361 208.223 28.2525C208.223 29.2689 208.949 29.9344 209.844 29.9344ZM67.0253 72V63.53H68.4773V70.7779H72.5187V72H67.0253ZM77.0455 72.1573C75.1458 72.1573 74.0568 70.79 74.0568 68.9508C74.0568 67.1237 75.1458 65.7443 77.0455 65.7443C78.9452 65.7443 80.0463 67.1237 80.0463 68.9508C80.0463 70.79 78.9452 72.1573 77.0455 72.1573ZM77.0455 71.0199C78.1708 71.0199 78.6064 70.0398 78.6064 68.9387C78.6064 67.8497 78.1708 66.8817 77.0455 66.8817C75.9202 66.8817 75.4846 67.8497 75.4846 68.9387C75.4846 70.0398 75.9202 71.0199 77.0455 71.0199ZM84.561 72.1573C82.7218 72.1573 81.5602 70.79 81.5602 68.9508C81.5602 67.1237 82.7218 65.7443 84.561 65.7443C86.0735 65.7443 87.102 66.6034 87.2835 68.0796H85.8678C85.7226 67.3173 85.2265 66.8817 84.5489 66.8817C83.4962 66.8817 83.0001 67.8255 83.0001 68.9387C83.0001 70.064 83.4962 71.0199 84.5489 71.0199C85.2386 71.0199 85.6863 70.669 85.8799 69.9551H87.2835C87.0899 71.2619 86.1461 72.1573 84.561 72.1573ZM90.7939 72.1573C89.5839 72.1573 88.8095 71.4555 88.8095 70.3907C88.8095 68.9629 90.0437 68.612 91.0722 68.4547L92.2459 68.2853C92.6936 68.2248 92.8025 67.9828 92.8025 67.7045V67.6924C92.8025 67.1963 92.4637 66.8091 91.7256 66.8091C90.9875 66.8091 90.5156 67.1479 90.4309 67.8134H89.0273C89.1967 66.4582 90.2736 65.7443 91.7377 65.7443C93.3833 65.7443 94.194 66.5308 94.194 68.007V70.6206C94.194 70.79 94.315 70.8989 94.4844 70.8989H94.8111V72H93.9157C93.2986 72 92.9114 71.6975 92.9114 71.2256V71.0925C92.379 71.8669 91.5804 72.1573 90.7939 72.1573ZM91.2416 71.0925C92.2096 71.0925 92.8025 70.2939 92.8025 69.2896V68.9629C92.6331 69.0597 92.4516 69.096 92.2459 69.1444L91.3384 69.3017C90.5761 69.4348 90.2373 69.7252 90.2373 70.2455C90.2373 70.79 90.6366 71.0925 91.2416 71.0925ZM96.2888 72V70.8505H98.5273V64.6795H96.6639V63.53H99.943V70.8505H102.097V72H96.2888ZM105.752 72V70.306H107.398V72H105.752ZM105.752 67.886V66.192H107.398V67.886H105.752ZM163.904 88.0234V86.7892H167.365V88.0234H163.904ZM171.287 88.0234V86.7892H174.747V88.0234H171.287ZM177.628 91V82.53H179.032V85.8212C179.443 85.1315 180.23 84.7443 181.053 84.7443C182.42 84.7443 183.231 85.6276 183.231 87.1764V91H181.815V87.3458C181.815 86.4262 181.319 85.918 180.545 85.918C179.685 85.918 179.032 86.6198 179.032 87.5636V91H177.628ZM187.782 91.1573C185.882 91.1573 184.793 89.79 184.793 87.9508C184.793 86.1237 185.882 84.7443 187.782 84.7443C189.681 84.7443 190.783 86.1237 190.783 87.9508C190.783 89.79 189.681 91.1573 187.782 91.1573ZM187.782 90.0199C188.907 90.0199 189.343 89.0398 189.343 87.9387C189.343 86.8497 188.907 85.8817 187.782 85.8817C186.656 85.8817 186.221 86.8497 186.221 87.9387C186.221 89.0398 186.656 90.0199 187.782 90.0199ZM195.237 91.1573C193.567 91.1573 192.575 90.3587 192.478 89.0882H193.894C194.027 89.7658 194.499 90.0804 195.273 90.0804C195.963 90.0804 196.41 89.7779 196.41 89.306C196.41 88.9309 196.132 88.6889 195.612 88.58L194.402 88.338C193.494 88.1444 192.659 87.6967 192.659 86.6077C192.659 85.4945 193.676 84.7443 195.14 84.7443C196.58 84.7443 197.596 85.3493 197.729 86.6803H196.314C196.217 86.1116 195.805 85.8091 195.128 85.8091C194.487 85.8091 194.051 86.1116 194.051 86.5351C194.051 86.9465 194.39 87.1401 194.825 87.2248L196.132 87.4789C196.943 87.6362 197.826 88.1081 197.826 89.2213C197.826 90.4434 196.737 91.1573 195.237 91.1573ZM202.97 91C201.869 91 201.288 90.4797 201.288 89.4149V86.0511H199.497V84.9016H201.01C201.167 84.9016 201.288 84.7806 201.288 84.6233V82.8809H202.692V84.9016H204.991V86.0511H202.692V89.1971C202.692 89.6206 202.885 89.8505 203.382 89.8505H205.269V91H202.97ZM111.187 110V101.53H112.59V104.821C113.002 104.131 113.788 103.744 114.611 103.744C115.978 103.744 116.789 104.628 116.789 106.176V110H115.373V106.346C115.373 105.426 114.877 104.918 114.103 104.918C113.244 104.918 112.59 105.62 112.59 106.564V110H111.187ZM128.117 109.02V107.023H126.133V105.825H128.117V103.829H129.315V105.825H131.312V107.023H129.315V109.02H128.117ZM143.56 110.157C141.745 110.157 140.595 108.79 140.595 106.951C140.595 105.124 141.745 103.744 143.56 103.744C145.157 103.744 146.464 104.664 146.367 107.302H141.987C142.096 108.342 142.58 109.056 143.572 109.056C144.262 109.056 144.721 108.657 144.891 108.173H146.27C146.113 109.201 145.157 110.157 143.56 110.157ZM142.011 106.358H144.988C144.903 105.281 144.383 104.833 143.56 104.833C142.628 104.833 142.168 105.499 142.011 106.358ZM148.099 110V103.902H149.502V104.821C149.914 104.131 150.7 103.744 151.523 103.744C152.89 103.744 153.701 104.628 153.701 106.176V110H152.285V106.346C152.285 105.426 151.789 104.918 151.015 104.918C150.156 104.918 149.502 105.62 149.502 106.564V110H148.099ZM158.676 110C157.575 110 156.994 109.48 156.994 108.415V105.051H155.203V103.902H156.715C156.873 103.902 156.994 103.781 156.994 103.623V101.881H158.397V103.902H160.696V105.051H158.397V108.197C158.397 108.621 158.591 108.85 159.087 108.85H160.975V110H158.676ZM165.707 110.157C163.892 110.157 162.743 108.79 162.743 106.951C162.743 105.124 163.892 103.744 165.707 103.744C167.304 103.744 168.611 104.664 168.514 107.302H164.134C164.243 108.342 164.727 109.056 165.719 109.056C166.409 109.056 166.869 108.657 167.038 108.173H168.418C168.26 109.201 167.304 110.157 165.707 110.157ZM164.158 106.358H167.135C167.05 105.281 166.53 104.833 165.707 104.833C164.775 104.833 164.316 105.499 164.158 106.358ZM170.912 110V103.902H172.339V104.942C172.739 104.24 173.356 103.902 174.094 103.902H175.57V105.196H173.937C172.969 105.196 172.339 105.838 172.339 106.963V110H170.912Z" fill="#F4F3EC"/>
<path d="M133.455 72V63.53H134.532V66.8212C134.919 66.1436 135.706 65.7443 136.577 65.7443C137.896 65.7443 138.815 66.5792 138.815 68.2006V72H137.75V68.2611C137.75 67.1963 137.145 66.6397 136.262 66.6397C135.306 66.6397 134.532 67.402 134.532 68.4789V72H133.455ZM143.887 72C142.846 72 142.35 71.5765 142.35 70.5601V66.7849H140.535V65.9016H142.072C142.241 65.9016 142.35 65.7927 142.35 65.6354V63.8809H143.415V65.9016H145.823V66.7849H143.415V70.4149C143.415 70.8505 143.596 71.1046 144.141 71.1046H146.089V72H143.887ZM151.269 72C150.228 72 149.732 71.5765 149.732 70.5601V66.7849H147.917V65.9016H149.454C149.623 65.9016 149.732 65.7927 149.732 65.6354V63.8809H150.797V65.9016H153.205V66.7849H150.797V70.4149C150.797 70.8505 150.979 71.1046 151.523 71.1046H153.471V72H151.269ZM155.469 74.0086V65.9016H156.534V66.8212C157.03 66.0952 157.72 65.7443 158.579 65.7443C160.031 65.7443 161.229 67.0511 161.229 68.975C161.229 70.8868 160.031 72.1573 158.579 72.1573C157.72 72.1573 156.97 71.7943 156.534 71.0925V74.0086H155.469ZM158.313 71.2619C159.45 71.2619 160.116 70.306 160.116 68.975C160.116 67.6319 159.45 66.6397 158.313 66.6397C157.163 66.6397 156.486 67.6319 156.486 68.9629C156.486 70.2818 157.163 71.2619 158.313 71.2619ZM164.933 72V70.548H166.336V72H164.933ZM164.933 67.7892V66.3372H166.336V67.7892H164.933ZM170.621 73.1858L174.348 63.53H175.401L171.674 73.1858H170.621ZM178.004 73.1858L181.73 63.53H182.783L179.056 73.1858H178.004ZM184.89 72V71.1167H187.249V64.4133H185.325V63.53H188.326V71.1167H190.674V72H184.89ZM195.164 72.1573C193.313 72.1573 192.224 70.7779 192.224 68.9508C192.224 67.1358 193.313 65.7443 195.164 65.7443C197.015 65.7443 198.104 67.1358 198.104 68.9508C198.104 70.7779 197.015 72.1573 195.164 72.1573ZM195.164 71.2619C196.495 71.2619 197.003 70.1245 197.003 68.9387C197.003 67.765 196.495 66.6397 195.164 66.6397C193.833 66.6397 193.325 67.765 193.325 68.9387C193.325 70.1245 193.833 71.2619 195.164 71.2619ZM202.704 72.1573C200.925 72.1573 199.764 70.7779 199.764 68.9508C199.764 67.1358 200.925 65.7443 202.716 65.7443C204.108 65.7443 205.136 66.5913 205.33 67.9949H204.241C204.071 67.1358 203.478 66.6397 202.704 66.6397C201.433 66.6397 200.877 67.7287 200.877 68.9387C200.877 70.1608 201.433 71.2619 202.704 71.2619C203.49 71.2619 204.023 70.8505 204.241 70.064H205.318C205.088 71.3103 204.156 72.1573 202.704 72.1573ZM209.058 72.1573C207.824 72.1573 207.013 71.4313 207.013 70.3544C207.013 68.9387 208.247 68.5999 209.239 68.4789L210.546 68.3095C211.042 68.249 211.127 67.9586 211.127 67.6803V67.6682C211.127 67.0753 210.728 66.6155 209.808 66.6155C208.925 66.6155 208.404 67.0269 208.308 67.7771H207.231C207.364 66.5429 208.344 65.7443 209.796 65.7443C211.417 65.7443 212.192 66.555 212.192 67.9223V70.8747C212.192 71.0199 212.301 71.1167 212.446 71.1167H212.821V72H212.095C211.502 72 211.2 71.6975 211.2 71.2498V71.1046C210.667 71.8911 209.82 72.1573 209.058 72.1573ZM209.336 71.2861C210.413 71.2861 211.127 70.4875 211.127 69.3017V68.8782C210.933 68.975 210.728 69.0234 210.51 69.0597L209.445 69.217C208.525 69.3622 208.126 69.6889 208.126 70.306C208.126 70.9231 208.598 71.2861 209.336 71.2861ZM214.42 72V71.1167H216.779V64.4133H214.855V63.53H217.856V71.1167H220.203V72H214.42ZM222.044 72V63.53H223.121V66.8212C223.508 66.1436 224.295 65.7443 225.166 65.7443C226.485 65.7443 227.404 66.5792 227.404 68.2006V72H226.339V68.2611C226.339 67.1963 225.734 66.6397 224.851 66.6397C223.895 66.6397 223.121 67.402 223.121 68.4789V72H222.044ZM232.076 72.1573C230.225 72.1573 229.136 70.7779 229.136 68.9508C229.136 67.1358 230.225 65.7443 232.076 65.7443C233.928 65.7443 235.017 67.1358 235.017 68.9508C235.017 70.7779 233.928 72.1573 232.076 72.1573ZM232.076 71.2619C233.407 71.2619 233.915 70.1245 233.915 68.9387C233.915 67.765 233.407 66.6397 232.076 66.6397C230.745 66.6397 230.237 67.765 230.237 68.9387C230.237 70.1245 230.745 71.2619 232.076 71.2619ZM239.58 72.1573C237.983 72.1573 236.99 71.3829 236.881 70.0882H237.97C238.116 70.8989 238.66 71.2861 239.604 71.2861C240.427 71.2861 240.935 70.911 240.935 70.3302C240.935 69.8825 240.608 69.5679 239.979 69.459L238.781 69.217C237.91 69.0476 237.051 68.6362 237.051 67.523C237.051 66.5066 238.007 65.7443 239.435 65.7443C240.814 65.7443 241.818 66.3251 241.939 67.6561H240.85C240.741 66.9785 240.233 66.6155 239.422 66.6155C238.648 66.6155 238.128 66.9785 238.128 67.4867C238.128 67.9707 238.551 68.2006 239.035 68.2974L240.306 68.5394C241.165 68.7088 242.036 69.1807 242.036 70.2697C242.036 71.4071 241.032 72.1573 239.58 72.1573ZM247.24 72C246.2 72 245.704 71.5765 245.704 70.5601V66.7849H243.889V65.9016H245.425C245.595 65.9016 245.704 65.7927 245.704 65.6354V63.8809H246.769V65.9016H249.176V66.7849H246.769V70.4149C246.769 70.8505 246.95 71.1046 247.495 71.1046H249.443V72H247.24ZM253.522 72V70.548H254.925V72H253.522ZM253.522 67.7892V66.3372H254.925V67.7892H253.522ZM261.57 72.1815C259.743 72.1815 258.641 71.1288 258.617 69.58H259.743C259.803 70.2818 260.202 71.2256 261.558 71.2256C262.683 71.2256 263.445 70.4875 263.445 69.2533C263.445 68.1401 262.719 67.281 261.57 67.281C260.481 67.281 260.033 67.8981 259.864 68.2006H258.799L259.476 63.53H264.147V64.4617H260.408L260.045 66.9664C260.529 66.5671 261.134 66.3977 261.8 66.3977C263.385 66.3977 264.595 67.5472 264.595 69.2291C264.595 70.9231 263.494 72.1815 261.57 72.1815ZM265.988 72V71.0804H268.456V66.0589H266.496V65.1272H268.153C268.323 65.1272 268.456 64.9941 268.456 64.8368V63.53H269.545V71.0804H272.001V72H265.988ZM274.737 72L278.343 64.4617H273.334V63.53H279.42V64.6553L275.935 72H274.737ZM283.79 72.1815C281.636 72.1815 280.801 70.9715 280.728 69.3864H281.854C281.914 70.306 282.374 71.2377 283.717 71.2377C284.854 71.2377 285.629 70.7537 285.629 69.6526C285.629 68.6967 284.975 68.0675 283.971 68.0675H283.197V67.1721H283.935C284.854 67.1721 285.447 66.4945 285.447 65.6354C285.447 64.8005 284.879 64.2802 283.838 64.2802C282.543 64.2802 282.011 65.1756 281.975 66.0347H280.873C280.886 64.7279 281.793 63.3485 283.886 63.3485C285.592 63.3485 286.56 64.2197 286.56 65.5386C286.56 66.5429 285.955 67.281 285.133 67.5593C285.859 67.7287 286.778 68.37 286.778 69.6768C286.778 71.0562 285.677 72.1815 283.79 72.1815ZM288.74 73.1858L292.467 63.53H293.519L289.793 73.1858H288.74ZM119.573 150.009V138.32H123.651V139.433H120.904V148.895H123.651V150.009H119.573ZM127.827 148L125.431 141.902H126.932L128.674 146.705L130.404 141.902H131.917L129.509 148H127.827ZM133.249 148V146.826H135.439V143.075H133.491V141.902H136.867V146.826H138.96V148H133.249ZM135.403 140.994V139.53H136.903V140.994H135.403ZM143.911 148C142.81 148 142.229 147.48 142.229 146.415V143.051H140.438V141.902H141.951C142.108 141.902 142.229 141.781 142.229 141.623V139.881H143.632V141.902H145.931V143.051H143.632V146.197C143.632 146.621 143.826 146.85 144.322 146.85H146.21V148H143.911ZM150.942 148.157C149.127 148.157 147.978 146.79 147.978 144.951C147.978 143.124 149.127 141.744 150.942 141.744C152.539 141.744 153.846 142.664 153.749 145.302H149.369C149.478 146.342 149.962 147.056 150.954 147.056C151.644 147.056 152.104 146.657 152.273 146.173H153.653C153.495 147.201 152.539 148.157 150.942 148.157ZM149.393 144.358H152.37C152.285 143.281 151.765 142.833 150.942 142.833C150.011 142.833 149.551 143.499 149.393 144.358ZM160.019 150.009H155.941V148.895H158.688V139.433H155.941V138.32H160.019V150.009Z" fill="#56C2C9"/>
<path d="M47.782 90.2377L47.0923 89.5601L49.2582 87.3821H44.0189V86.3899H49.2582L47.0923 84.224L47.782 83.5343L51.1337 86.886L47.782 90.2377ZM47.782 109.238L47.0923 108.56L49.2582 106.382H44.0189V105.39H49.2582L47.0923 103.224L47.782 102.534L51.1337 105.886L47.782 109.238Z" fill="#C880FF" fill-opacity="0.5"/>
<path d="M173.961 150.009C172.485 148.157 171.819 146.318 171.819 144.188C171.819 142.01 172.485 140.159 173.961 138.32H174.832C173.513 140.437 172.981 142.119 172.981 144.188C172.981 146.233 173.501 147.903 174.832 150.009H173.961ZM180.557 148.157C178.778 148.157 177.616 146.778 177.616 144.951C177.616 143.136 178.778 141.744 180.569 141.744C181.96 141.744 182.989 142.591 183.182 143.995H182.093C181.924 143.136 181.331 142.64 180.557 142.64C179.286 142.64 178.73 143.729 178.73 144.939C178.73 146.161 179.286 147.262 180.557 147.262C181.343 147.262 181.876 146.85 182.093 146.064H183.17C182.94 147.31 182.009 148.157 180.557 148.157ZM184.89 148V147.117H187.249V140.413H185.325V139.53H188.326V147.117H190.674V148H184.89ZM192.345 148V147.092H194.62V142.809H192.587V141.902H195.721V147.092H197.983V148H192.345ZM194.571 140.861V139.53H195.781V140.861H194.571ZM202.643 148.157C200.853 148.157 199.727 146.79 199.727 144.951C199.727 143.124 200.853 141.744 202.643 141.744C204.156 141.744 205.487 142.603 205.342 145.229H200.828C200.913 146.354 201.433 147.274 202.643 147.274C203.454 147.274 203.987 146.778 204.168 146.209H205.233C205.063 147.226 204.108 148.157 202.643 148.157ZM200.853 144.418H204.301C204.216 143.196 203.648 142.628 202.643 142.628C201.542 142.628 200.998 143.426 200.853 144.418ZM207.279 148V141.902H208.356V142.821C208.743 142.144 209.53 141.744 210.401 141.744C211.72 141.744 212.639 142.579 212.639 144.201V148H211.575V144.261C211.575 143.196 210.97 142.64 210.086 142.64C209.13 142.64 208.356 143.402 208.356 144.479V148H207.279ZM217.711 148C216.67 148 216.174 147.576 216.174 146.56V142.785H214.359V141.902H215.896C216.065 141.902 216.174 141.793 216.174 141.635V139.881H217.239V141.902H219.647V142.785H217.239V146.415C217.239 146.85 217.42 147.105 217.965 147.105H219.913V148H217.711ZM222.879 150.009C224.21 147.903 224.73 146.233 224.73 144.188C224.73 142.119 224.198 140.437 222.879 138.32H223.75C225.226 140.159 225.892 142.01 225.892 144.188C225.892 146.318 225.226 148.157 223.75 150.009H222.879Z" fill="#F4F3EC" fill-opacity="0.3"/>
</svg>
