<svg width="57" height="57" viewBox="0 0 57 57" fill="none" xmlns="http://www.w3.org/2000/svg">
<g clip-path="url(#clip0_4268_4409)">
<path fill-rule="evenodd" clip-rule="evenodd" d="M0 0H57V56.9748H0V0Z" fill="white"/>
<path fill-rule="evenodd" clip-rule="evenodd" d="M0 0H35.7667C38.6381 0 41.5347 0 44.4061 0C43.6001 0.805654 42.7941 1.61131 41.9881 2.41696C42.3155 2.74426 42.6429 3.07155 42.9452 3.39885C43.6756 2.89532 44.5068 2.49249 45.3884 2.41696C46.1944 2.34143 47.0004 2.54284 47.7561 2.87014C48.0331 2.99602 48.3102 3.17226 48.6125 3.22261C48.9147 3.19744 49.1666 2.92049 49.2673 2.64355C49.3681 2.44214 49.2673 2.21555 49.1162 2.08966C48.411 1.38472 47.7309 0.704947 47.0256 0C50.3756 0 53.7004 0 57 0C57 3.22261 57 6.47041 57 9.69302C56.3199 9.01325 55.665 8.33348 54.985 7.67889C54.8087 7.50265 54.5064 7.40194 54.2545 7.50265C54.1034 7.57818 53.9271 7.70406 53.8767 7.8803C53.776 8.23277 53.9523 8.56007 54.0782 8.88737C54.5064 9.76855 54.6827 10.7756 54.5568 11.7575C54.4812 12.4121 54.2293 13.0667 53.8767 13.6458C53.776 13.7716 53.7004 13.9227 53.5996 14.0738C53.9523 14.3759 54.2293 14.7284 54.582 15.0305C55.3628 14.2248 56.194 13.4192 57 12.6135C57 18.0265 57 23.4143 57 28.8273C56.8489 28.8776 56.6726 28.9784 56.5214 28.9028C56.2947 28.7769 56.1436 28.5504 55.9673 28.3993C54.0278 26.4607 52.1136 24.5221 50.1489 22.6087C49.3681 23.3891 48.6125 24.1696 47.8316 24.9249C48.2346 25.4033 48.7132 25.8061 49.1414 26.2593C50.703 27.8202 52.2647 29.3812 53.8263 30.917C53.9523 31.0428 54.1034 31.1687 54.179 31.345C54.2042 31.5464 54.053 31.6974 54.0026 31.8988C53.9271 32.1003 54.1034 32.352 54.3049 32.3772C54.5064 32.4024 54.6575 32.2765 54.7835 32.1506C55.5139 31.4205 56.2444 30.6904 56.9748 29.9602V57.0252H29.9231C30.6284 56.3202 31.3084 55.6405 32.0137 54.9607C29.646 52.5941 27.2784 50.2526 24.9359 47.886C24.1551 48.6162 23.4247 49.3966 22.6438 50.1519C22.4927 50.3282 22.2912 50.4792 22.2156 50.7058C22.1905 50.9324 22.392 51.1338 22.5935 51.159C22.795 51.1338 22.9461 51.0079 23.1476 50.9576C23.3239 50.9576 23.4498 51.0835 23.5758 51.1842C24.9863 52.5941 26.3716 54.004 27.7821 55.4139C28.1348 55.7915 28.5126 56.1188 28.84 56.4965C28.9912 56.6727 28.8904 56.8741 28.8148 57.0504H12.5939C13.8785 55.7663 15.1379 54.5075 16.4224 53.2235C16.6491 52.9969 16.901 52.7451 16.9514 52.3927C17.0018 51.9898 16.5988 51.587 16.1958 51.6625C15.8683 51.7381 15.5912 51.9898 15.2386 51.9898C15.0119 51.9647 14.8608 51.8136 14.7097 51.6625C11.662 48.6162 8.61423 45.5698 5.59169 42.5486C5.39019 42.3472 5.13831 42.1458 5.06275 41.8436C5.06275 41.4912 5.28944 41.2142 5.39019 40.8869C5.51613 40.4841 5.13831 40.0561 4.71012 40.0813C4.43305 40.1064 4.18118 40.2575 3.97967 40.4589C2.66991 41.7429 1.30977 43.0521 0 44.3865C0 29.6078 0 14.8039 0 0Z" fill="#F96302"/>
<path fill-rule="evenodd" clip-rule="evenodd" d="M41.132 3.29796C41.1823 3.24761 41.2831 3.17208 41.3335 3.27278C45.5146 7.42694 49.6706 11.6063 53.8518 15.7856C52.3909 17.2458 50.93 18.7061 49.4691 20.1663C49.2676 20.3426 49.0409 20.4936 48.789 20.5188C48.4364 20.544 48.0586 20.2167 48.0838 19.839C48.0838 19.4866 48.4112 19.1844 48.4112 18.832C48.4112 18.6054 48.2349 18.4291 48.0838 18.2529C44.9857 15.1562 41.8876 12.0846 38.8147 8.98789C38.6384 8.81165 38.462 8.61024 38.185 8.63542C37.8072 8.63542 37.5049 8.98789 37.1019 8.96271C36.8752 8.96271 36.6989 8.78648 36.573 8.61024C36.4218 8.28294 36.573 7.90529 36.7996 7.65353C38.2354 6.19328 39.6711 4.73303 41.132 3.29796ZM47.1266 4.50644C47.2526 4.27985 47.4793 4.07844 47.7312 4.12879C48.0334 4.15397 48.2349 4.40573 48.4364 4.60715C49.6454 5.81563 50.8293 6.99893 52.0383 8.20741C52.265 8.434 52.542 8.63542 52.5924 8.96271C52.6176 9.31519 52.3153 9.61731 51.9879 9.64248C51.7108 9.64248 51.459 9.49142 51.2323 9.36554C50.7285 9.06342 50.1492 8.83683 49.5447 8.86201C49.2424 8.86201 48.9402 8.98789 48.6631 9.11377C48.3357 8.7613 47.9578 8.434 47.6556 8.08153C47.7563 7.80459 47.8823 7.55282 47.9075 7.27588C47.9578 6.62128 47.6808 5.99187 47.3533 5.46316C47.1518 5.13586 47.0259 4.80856 47.1266 4.50644ZM20.755 7.6787C21.4099 6.99893 22.09 6.34434 22.7197 5.68975C23.3242 6.29399 23.9287 6.89823 24.5332 7.50247C24.7347 7.70388 24.5584 8.006 24.3317 8.10671C24.1554 8.13188 23.9791 8.006 23.8279 7.95565C23.173 7.62835 22.367 7.60317 21.7373 7.95565C21.561 8.03118 21.4351 8.18224 21.2588 8.20741C21.0573 8.006 20.9061 7.82976 20.755 7.6787ZM20.352 8.05635C21.2336 8.91236 22.09 9.79354 22.9464 10.6496C24.3065 12.0091 25.6666 13.3686 27.0268 14.7282C26.246 15.5087 25.4651 16.2891 24.6843 17.0696C24.5332 17.2458 24.2057 17.3214 24.0546 17.0948C23.8531 16.8934 24.0798 16.6416 24.1302 16.4402C24.2057 16.2891 24.0798 16.1381 23.9791 16.0374C22.3922 14.4512 20.8306 12.8903 19.2689 11.3293C19.1178 11.2034 19.0171 11.0272 18.8407 10.9517C18.6141 10.9013 18.4125 11.1027 18.1859 11.1279C18.0095 11.1027 17.8332 10.9265 17.8584 10.7503C17.8584 10.5992 17.9592 10.4733 18.0599 10.3726C18.8156 9.59213 19.5712 8.83683 20.352 8.05635ZM23.4753 9.01307C23.3997 8.81165 23.5257 8.58506 23.7524 8.53471C23.9035 8.50953 24.0294 8.63542 24.1302 8.73612C24.7851 9.39072 25.4148 10.0453 26.0696 10.6747C26.1956 10.8006 26.3467 10.9265 26.3467 11.1027C26.3719 11.279 26.1956 11.4804 25.9941 11.4552C25.7422 11.4552 25.5407 11.2538 25.314 11.1783C24.9866 11.0272 24.5836 11.002 24.2309 11.1783C24.0546 11.002 23.8783 10.8258 23.702 10.6747C23.7776 10.423 23.8531 10.1208 23.7776 9.8439C23.7776 9.54178 23.576 9.29001 23.4753 9.01307ZM34.9357 9.49142C35.0869 9.34036 35.2884 9.21448 35.5403 9.1893C35.9433 9.13895 36.3715 9.5166 36.2707 9.91943C36.2203 10.2719 35.9181 10.574 35.9433 10.9517C35.9936 11.2034 36.2203 11.4049 36.3966 11.5811C39.4444 14.6275 42.5173 17.6738 45.565 20.7454C45.7413 20.8965 45.8924 21.0979 46.1443 21.0979C46.497 21.0979 46.774 20.8209 47.1266 20.7706C47.5297 20.695 47.9075 21.0979 47.8571 21.5007C47.8319 21.7776 47.6808 22.0042 47.4793 22.1805C45.9428 23.7162 44.4064 25.252 42.8699 26.7878C42.6684 26.9892 42.4165 27.1655 42.1395 27.1655C41.812 27.1906 41.5098 26.9137 41.4594 26.5864C41.409 26.1584 41.812 25.8563 41.7868 25.4283C41.7616 25.2268 41.6357 25.0758 41.5098 24.9247C38.8147 22.256 36.1448 19.5621 33.4497 16.8682C35.6662 20.9972 37.9079 25.101 40.1244 29.2299C40.1496 29.2803 40.2 29.3558 40.2252 29.4314C40.0741 29.5824 39.8977 29.7335 39.7466 29.9097C35.2884 27.7193 30.8553 25.5038 26.4223 23.3134C25.717 22.9609 25.0369 22.5581 24.2309 22.4574C23.9791 22.4322 23.7776 22.6337 23.6012 22.7847C23.3997 22.9358 23.1479 23.0365 22.896 22.9609C22.5937 22.8351 22.3922 22.4826 22.493 22.1553C22.5434 21.9287 22.6945 21.7525 22.8456 21.6014C24.2813 20.1663 25.717 18.7313 27.1527 17.3214C29.3944 18.404 31.6361 19.4866 33.8779 20.5943C33.9534 20.6447 34.029 20.695 34.1046 20.7706C34.1297 20.7202 34.1801 20.695 34.2053 20.6447H34.1297C32.9459 18.404 31.7117 16.1884 30.5279 13.9477C31.9888 12.4371 33.4497 10.9517 34.9357 9.49142ZM27.0772 10.4985C27.1779 10.2971 27.4802 10.2719 27.6313 10.4481C28.2358 11.0524 28.8403 11.6566 29.47 12.286C28.7899 12.9658 28.1099 13.6456 27.4046 14.3505C27.2535 14.1743 27.0268 14.0232 26.926 13.8218C27.1275 13.4945 27.329 13.142 27.3794 12.7392C27.4802 12.1853 27.3794 11.6314 27.1527 11.1279C27.0772 10.9013 26.9512 10.6747 27.0772 10.4985ZM17.0272 11.3797C17.1532 11.2538 17.2791 11.1279 17.4554 11.0776C17.6317 11.0524 17.8332 11.1531 17.8584 11.3293C17.9088 11.5307 17.7325 11.707 17.7073 11.9084C17.6821 12.0594 17.808 12.1853 17.9088 12.286C19.4956 13.8722 21.1076 15.4835 22.6945 17.0696C22.7952 17.1703 22.9212 17.2962 23.0723 17.3214C23.2738 17.2962 23.4249 17.1703 23.6012 17.1451C23.8279 17.12 24.0294 17.3717 23.9539 17.5731C23.9287 17.7242 23.8027 17.8501 23.702 17.976C22.9212 18.7564 22.1403 19.5369 21.3595 20.2922C21.2336 20.4181 21.0321 20.5692 20.8306 20.5188C20.7046 20.4685 20.6291 20.3929 20.5787 20.267C20.5283 20.0153 20.8054 19.7887 20.7298 19.5369C20.6795 19.4362 20.5787 19.3607 20.5031 19.2852C19.7727 18.555 19.0422 17.8249 18.3118 17.0948C18.0599 17.3465 17.808 17.6235 17.531 17.8753C17.3547 17.699 17.1783 17.5228 17.002 17.3465C17.2539 17.0948 17.531 16.8178 17.7829 16.5661C17.128 15.9367 16.4983 15.2821 15.8434 14.6526C15.7175 14.5268 15.5915 14.3757 15.4152 14.275C15.1129 14.1743 14.8359 14.6023 14.5588 14.3757C14.3321 14.2246 14.4077 13.8973 14.584 13.7211C15.4404 12.9658 16.2464 12.1853 17.0272 11.3797Z" fill="white"/>
<path fill-rule="evenodd" clip-rule="evenodd" d="M13.954 14.5018C14.1304 14.3759 14.4074 14.4514 14.483 14.6529C14.5586 14.9046 14.3571 15.106 14.3319 15.3578C14.3319 15.4837 14.4326 15.5844 14.5082 15.6599C16.1706 17.3216 17.8078 18.9832 19.4702 20.6197C19.7724 20.947 20.1502 20.3931 20.4777 20.6197C20.6792 20.796 20.6036 21.1233 20.4273 21.2743C19.6465 22.0548 18.8657 22.8353 18.0848 23.6157C17.9589 23.7416 17.833 23.8675 17.6567 23.943C17.4552 23.9934 17.2285 23.8675 17.2033 23.6661C17.1781 23.4395 17.3796 23.2381 17.3796 23.0115C17.3544 22.9108 17.2788 22.8353 17.2033 22.7597C15.6668 21.1736 14.1052 19.6127 12.5435 18.0517C12.3924 17.9258 12.2665 17.7496 12.065 17.6741C11.8383 17.6741 11.662 17.8251 11.4605 17.8503C11.2841 17.8503 11.133 17.6992 11.1078 17.523C11.0826 17.3468 11.2338 17.1957 11.3597 17.0698C12.1405 16.2893 12.9213 15.5089 13.677 14.7284C13.7777 14.6277 13.8533 14.5521 13.954 14.5018ZM9.62175 18.7818C9.97437 18.4294 10.327 18.0769 10.6796 17.7244C11.3093 18.3286 11.9138 18.9581 12.5435 19.5875C12.6443 19.7134 12.7954 19.8141 12.8458 19.9651C12.9213 20.2673 12.5939 20.5694 12.2917 20.4435C11.9894 20.3176 11.7627 20.091 11.4856 19.9148C11.0071 19.6127 10.4529 19.4364 9.89881 19.5119C9.74768 19.3357 9.54618 19.1847 9.42024 19.0084C9.47062 18.9077 9.54618 18.8322 9.62175 18.7818ZM7.0274 21.375C7.70747 20.7204 8.36236 20.0407 9.01724 19.3861C10.2766 20.6449 11.536 21.9037 12.7954 23.1626C13.5007 23.8423 14.1556 24.5473 14.8608 25.2271C15.0623 25.4536 15.3142 25.2522 15.5409 25.1767C15.7676 25.076 16.0194 25.2774 15.9943 25.504C15.9943 25.6551 15.8935 25.7809 15.7928 25.9068C14.9867 26.7125 14.1807 27.5181 13.3747 28.3238C13.2488 28.4497 13.1229 28.5504 12.9465 28.5504C12.7702 28.5756 12.5687 28.3993 12.5939 28.1979C12.5939 27.9965 12.745 27.8454 12.745 27.6692C12.745 27.5181 12.6191 27.4174 12.5183 27.2915C10.6041 25.4033 8.71498 23.4899 6.80071 21.6016C6.90146 21.5261 6.95184 21.4506 7.0274 21.375ZM51.9373 20.796C52.6677 21.5261 53.4233 22.2562 54.1538 23.0115C54.3805 23.2381 54.2293 23.6661 53.9019 23.7165C53.6248 23.7668 53.3981 23.5402 53.1715 23.3892C52.5669 22.9863 51.8869 22.6087 51.1312 22.7346C50.9297 22.5583 50.7534 22.3821 50.5771 22.1555C51.0557 21.7023 51.4839 21.2491 51.9373 20.796ZM6.39771 22.0044C6.6244 22.08 6.75034 22.3317 6.92665 22.4828C6.8259 23.1877 7.15334 23.8172 7.55635 24.371C7.68228 24.5473 7.80822 24.6983 7.88379 24.8998C7.95935 25.1515 7.70747 25.4285 7.43041 25.4033C7.27928 25.4033 7.17853 25.2774 7.07778 25.1767C6.42289 24.5221 5.76801 23.8675 5.11313 23.2129C5.56651 22.8353 5.96951 22.4073 6.39771 22.0044ZM19.7221 25.3781C20.9059 25.0005 22.2156 24.9501 23.4247 25.2019C25.5152 25.6551 27.354 26.8635 28.8149 28.3741C30.2506 29.8344 31.4092 31.6723 31.787 33.7116C32.0137 34.8194 31.9633 36.0027 31.6359 37.1104C31.3084 38.193 30.7543 39.2001 30.0239 40.0561C29.7216 39.7288 29.369 39.4267 29.0667 39.0742C29.0667 38.9232 29.1675 38.7721 29.1927 38.621C29.3438 38.0923 29.1927 37.5133 28.7897 37.1104C25.8427 34.1396 22.8705 31.1939 19.8984 28.2231C19.6213 27.9461 19.2939 27.7195 18.8909 27.6944C18.5634 27.644 18.2612 27.7699 17.9589 27.8706C17.833 27.9461 17.7574 27.7951 17.6818 27.7195C17.43 27.4678 17.1781 27.2412 16.9514 26.9642C16.9514 26.9391 16.9514 26.9139 16.9514 26.8887C17.7826 26.2341 18.7145 25.7054 19.7221 25.3781ZM27.8073 25.0508C28.0844 25.1515 28.3363 25.2774 28.5882 25.4033C29.5453 25.8816 30.5024 26.36 31.4848 26.8384C31.5603 26.8887 31.6359 26.9391 31.7114 27.0146C32.5175 27.8454 33.3487 28.6511 34.1547 29.4819C34.608 29.9603 35.1622 30.3127 35.7667 30.5393C36.1949 30.6904 36.6734 30.6904 37.1016 30.5393C37.3283 30.4638 37.555 30.3883 37.7817 30.4638C38.0084 30.5645 38.1847 30.7911 38.1847 31.0177C38.1595 31.345 37.958 31.6219 37.7313 31.8485C37.0009 32.5786 36.2704 33.3339 35.5148 34.0641C35.3133 34.2403 35.0866 34.4165 34.8095 34.4669C34.4065 34.5173 34.0287 34.1144 34.1547 33.7368C34.2806 33.3591 34.4317 32.9563 34.3562 32.5535C34.2554 31.8737 33.8776 31.2695 33.4494 30.7407C31.8374 29.1043 30.2002 27.493 28.563 25.8565C28.3111 25.5795 28.034 25.3278 27.8073 25.0508ZM46.0433 26.6873C46.4967 26.2341 46.9501 25.7809 47.4034 25.3278C47.6049 25.4788 47.7813 25.6802 47.9576 25.8565C47.882 26.4607 48.0835 27.0398 48.3858 27.5433C48.5369 27.8203 48.7888 28.072 48.9147 28.3741C48.9903 28.5252 48.9399 28.6763 48.8895 28.8273C49.6452 29.3309 50.3 29.9854 50.829 30.7156C51.4335 31.5716 51.8617 32.5786 51.8365 33.6612C51.8365 34.6683 51.4083 35.6502 50.7534 36.4055C50.5771 36.2293 50.3756 36.053 50.2245 35.8516C50.2497 35.625 50.3504 35.4236 50.3 35.197C50.2497 34.9201 50.023 34.7187 49.8215 34.5173C48.2346 32.9563 46.673 31.3702 45.0862 29.784C44.935 29.633 44.7335 29.4819 44.532 29.4567C44.3305 29.4316 44.1038 29.4819 43.9275 29.5574C43.7512 29.3812 43.5497 29.205 43.3734 29.0287C44.1794 28.349 45.2121 27.921 46.27 27.9713C46.673 27.9713 47.076 28.0468 47.479 28.1476C47.0256 27.6692 46.5219 27.1908 46.0433 26.6873ZM14.7349 30.1869C15.0623 29.2805 15.5913 28.4245 16.1958 27.6944C16.498 27.9965 16.8255 28.2986 17.1277 28.6259C17.1781 28.8273 17.027 29.0036 17.0018 29.1798C16.8506 29.6833 17.0521 30.2624 17.43 30.64C20.3266 33.5605 23.2483 36.4559 26.1701 39.3763C26.4472 39.6785 26.7998 39.9806 27.228 40.0309C27.6058 40.0813 27.9837 39.9554 28.3363 39.8295C28.6637 40.1568 28.9912 40.4589 29.2934 40.7862C28.5882 41.3905 27.757 41.894 26.9006 42.2213C25.5908 42.7248 24.1047 42.8256 22.7194 42.4983C20.6288 42.0451 18.7649 40.7862 17.2788 39.2253C15.9187 37.7902 14.8104 36.053 14.4326 34.0892C14.1807 32.8052 14.2563 31.4457 14.7349 30.1869ZM41.9377 31.9241C42.0133 31.0177 42.4163 30.1365 43.0208 29.4567C43.1971 29.633 43.3734 29.8092 43.5497 29.9854C43.4741 30.212 43.3734 30.4386 43.449 30.6652C43.4742 30.8666 43.6253 31.0429 43.7764 31.1688C45.3632 32.7549 46.9249 34.3158 48.5117 35.902C48.688 36.0782 48.8643 36.3048 49.1414 36.3803C49.3933 36.4559 49.62 36.3552 49.8719 36.2796C50.0482 36.4559 50.2497 36.6321 50.4008 36.8335C49.6452 37.4629 48.7132 37.8909 47.7057 37.8909C46.7486 37.9413 45.7914 37.5888 44.9854 37.0853C44.4061 36.7076 43.8772 36.2544 43.4238 35.7509C43.6253 36.4559 43.5749 37.2363 43.2475 37.8909C42.92 38.5455 42.4163 39.0742 41.9125 39.5778C41.7362 39.4015 41.5599 39.2001 41.3584 39.0239C41.5095 38.7721 41.6103 38.47 41.5095 38.1679C41.3836 37.8658 41.1569 37.6643 40.9302 37.4377C40.4768 36.9846 40.0486 36.5314 39.5952 36.1034C39.3433 35.8516 39.0411 35.5747 38.6633 35.5495C38.4366 35.5243 38.2351 35.6502 38.0588 35.7509C37.8825 35.5747 37.7061 35.3984 37.5046 35.197C38.2351 34.4669 39.0411 33.7368 40.099 33.5857C40.9554 33.4347 41.8369 33.8123 42.4415 34.4165C42.0888 33.6612 41.8621 32.7801 41.9377 31.9241ZM10.3774 34.0137C10.5537 33.8375 10.7804 33.7116 11.0323 33.6864C11.4353 33.6612 11.8131 34.0892 11.7123 34.4921C11.6116 34.7942 11.4101 35.0711 11.3849 35.3984C11.4101 35.6754 11.6368 35.8768 11.8383 36.0782C14.9112 39.1498 17.9841 42.2213 21.057 45.2929C21.2081 45.4188 21.3593 45.5698 21.5608 45.595C21.9134 45.595 22.1653 45.3432 22.5179 45.2677C22.9209 45.1922 23.2987 45.5446 23.2987 45.9475C23.2987 46.2244 23.1476 46.451 22.9461 46.6524C21.4096 48.1882 19.848 49.7491 18.3115 51.2849C18.11 51.4863 17.8582 51.6626 17.5559 51.6626C17.2033 51.6626 16.8506 51.3353 16.901 50.9576C16.9262 50.6051 17.2285 50.303 17.2536 49.9506C17.2536 49.724 17.0773 49.5729 16.9262 49.3967C15.5409 48.0119 14.1556 46.6524 12.7954 45.2677C12.745 45.2173 12.6695 45.1166 12.5939 45.1922C12.1153 45.6453 11.662 46.1489 11.1834 46.6021C10.8559 46.2748 10.5285 45.9475 10.2263 45.6202C10.6796 45.1418 11.1582 44.6635 11.662 44.1851C11.662 44.1599 11.662 44.1096 11.662 44.0844C10.3522 42.8004 9.0928 41.5164 7.78304 40.2324C7.58153 40.0561 7.40522 39.8044 7.12815 39.754C6.75034 39.7288 6.44808 40.0309 6.09545 40.0813C5.64207 40.1568 5.23907 39.6533 5.39019 39.2253C5.46576 38.9232 5.71764 38.7218 5.91914 38.4952C7.38003 37.0097 8.8913 35.5243 10.3774 34.0137ZM37.1016 35.625C37.8321 36.3048 38.487 37.0097 39.1922 37.6895C40.5272 39.0239 41.8873 40.3834 43.2223 41.7178C43.323 41.7933 43.3986 41.894 43.5245 41.9192C43.7764 41.9444 43.9779 41.6926 44.255 41.743C44.4061 41.7933 44.5572 41.9444 44.532 42.1206C44.532 42.3472 44.3305 42.5234 44.1794 42.6745C43.323 43.5053 42.4918 44.3613 41.6606 45.1922C41.4843 45.3936 41.1317 45.2929 41.0057 45.0663C40.8294 44.7893 41.2828 44.4872 41.0561 44.2354C39.3182 42.4983 37.5802 40.7611 35.8422 39.0239C35.7163 38.898 35.6156 38.7721 35.4644 38.6966C35.2126 38.621 35.011 38.8476 34.7592 38.8728C34.5829 38.8476 34.4065 38.6966 34.4065 38.4952C34.3814 38.2938 34.5325 38.1175 34.6836 37.9916C35.5148 37.2112 36.3208 36.4055 37.1016 35.625ZM31.7618 40.9625C32.4671 40.2575 33.1723 39.5274 33.9028 38.8476C34.5325 39.5022 35.1874 40.1317 35.8422 40.7862C36.0689 40.9877 35.8422 41.315 35.6156 41.4157C35.4644 41.4408 35.3133 41.3401 35.1874 41.2898C34.6332 41.0128 34.0035 40.887 33.399 41.038C33.0212 41.1135 32.6686 41.3401 32.3411 41.5164C32.1396 41.315 31.9633 41.1387 31.7618 40.9625ZM28.8652 43.883C29.6964 43.0521 30.5276 42.2213 31.3588 41.3905C32.6938 42.7248 34.0287 44.0592 35.3637 45.3936C36.3964 46.4258 37.4039 47.4581 38.4366 48.4651C37.6306 49.296 36.7994 50.1016 36.0186 50.9073C35.8926 51.0331 35.7415 51.1087 35.5904 51.159C35.4392 51.1087 35.2629 51.0583 35.2126 50.8821C35.1118 50.6051 35.4141 50.3786 35.3889 50.1016C35.2629 49.875 35.0614 49.6988 34.8851 49.5225C33.4242 48.0623 31.9885 46.6021 30.5276 45.167C30.2757 44.9404 30.0491 44.6383 29.7468 44.462C29.4445 44.4117 29.1675 44.7893 28.8652 44.5879C28.5882 44.4117 28.6637 44.0592 28.8652 43.883ZM34.6584 42.3976C34.5577 42.1458 34.7844 41.8688 35.0362 41.9192C35.1622 41.9444 35.2377 42.0199 35.3385 42.1206C35.9682 42.75 36.5979 43.3794 37.2276 44.0089C37.4291 44.2103 37.7061 44.3865 37.7817 44.6886C37.7061 44.8145 37.6306 44.9908 37.4291 45.0159C37.1268 45.0411 36.9253 44.8145 36.6483 44.7138C36.2956 44.5376 35.8422 44.5376 35.4896 44.7138C35.2881 44.5124 35.1118 44.3362 34.9103 44.1347C35.0362 43.8578 35.1118 43.5305 35.011 43.2284C34.9607 42.9263 34.7592 42.6745 34.6584 42.3976ZM38.5122 43.9585C38.6381 43.7571 38.9403 43.7319 39.0915 43.9082C39.7464 44.5627 40.4012 45.2173 41.0309 45.8719C40.3005 46.6021 39.5952 47.3322 38.8396 48.0371C38.6633 47.8609 38.487 47.6847 38.3107 47.4832C38.9403 46.7028 39.0411 45.5446 38.6129 44.6383C38.5373 44.4369 38.361 44.1599 38.5122 43.9585Z" fill="white"/>
<path fill-rule="evenodd" clip-rule="evenodd" d="M0 46.3251C0.22669 46.2244 0.478568 46.0733 0.730446 46.0733C1.05789 46.1237 1.2342 46.4258 1.46089 46.6272C4.48343 49.6232 7.48078 52.6192 10.4781 55.6153C10.6544 55.7915 10.8559 55.9929 10.8811 56.2447C10.8811 56.4964 10.73 56.723 10.6293 56.9496C7.07777 56.9496 3.52629 56.9496 0 56.9496C0 53.4249 0 49.875 0 46.3251Z" fill="#F96302"/>
<path fill-rule="evenodd" clip-rule="evenodd" d="M27.8586 46.1741C28.9165 46.0734 29.9744 46.4763 30.856 47.0553C31.536 47.5085 32.1909 48.0372 32.6695 48.717C33.2488 49.4975 33.6266 50.4542 33.6266 51.4361C33.6518 52.569 33.1984 53.702 32.3924 54.4824C32.2161 54.3062 32.0146 54.13 31.8383 53.9286C31.939 53.7271 32.065 53.5006 32.0398 53.274C31.9894 52.9215 31.7375 52.6194 31.4857 52.3676C30.1507 51.0332 28.7906 49.6737 27.4556 48.3393C27.1786 48.0624 26.8763 47.7855 26.4733 47.7351C26.2466 47.7099 26.0451 47.8358 25.8688 47.9365C25.6925 47.7351 25.4658 47.6092 25.3398 47.3574C26.0199 46.7029 26.9267 46.2245 27.8586 46.1741ZM52.0641 53.6013C52.0641 52.5187 52.9457 51.7382 53.9532 51.7382C54.9607 51.7382 55.8423 52.5187 55.8423 53.6013C55.8423 54.6839 54.9607 55.4643 53.9532 55.4643C52.9457 55.4895 52.0641 54.6839 52.0641 53.6013ZM53.9532 55.1622C54.8096 55.1622 55.4645 54.5076 55.4645 53.6013C55.4645 52.7201 54.7844 52.0403 53.9532 52.0403C53.0968 52.0403 52.4167 52.7201 52.4167 53.6013C52.4419 54.5076 53.0968 55.1622 53.9532 55.1622ZM53.5754 54.6839H53.2479V52.5187H54.0791C54.5829 52.5187 54.8348 52.6949 54.8348 53.1229C54.8348 53.5006 54.5829 53.6768 54.2806 53.7271L54.8851 54.6839H54.5073L53.928 53.7523H53.5502V54.6839H53.5754ZM53.9532 53.4754C54.2303 53.4754 54.4821 53.4502 54.4821 53.1229C54.4821 52.846 54.2303 52.7956 54.0036 52.7956H53.5502V53.4754H53.9532Z" fill="white"/>
</g>
<defs>
<clipPath id="clip0_4268_4409">
<rect width="57" height="57" fill="white"/>
</clipPath>
</defs>
</svg>
