<svg width="148" height="28" viewBox="0 0 148 28" fill="none" xmlns="http://www.w3.org/2000/svg">
<path d="M147.532 18.2703C146.884 21.102 144.772 22.8298 141.604 22.8298C137.693 22.8298 135.365 20.2381 135.365 16.2305C135.365 12.3189 137.645 9.72717 141.556 9.72717C144.964 9.72717 147.604 11.8389 147.628 16.9264H138.365C138.581 19.3262 139.973 20.526 141.652 20.526C143.068 20.526 144.1 19.7341 144.532 18.2703H147.532ZM144.508 14.8866C144.124 13.2068 143.164 12.0309 141.58 12.0309C139.877 12.0309 138.773 13.0868 138.437 14.8866H144.508Z" fill="#0D0D0D"/>
<path d="M123.005 22.4217V5.5755H125.981V14.7665L130.349 10.231H134.116L130.493 14.1186L135.076 22.3977H131.765L128.453 16.0624L125.981 18.6541V22.4217H123.005Z" fill="#0D0D0D"/>
<path d="M113.389 22.8537C110.941 22.8537 109.069 21.2938 109.069 19.0381C109.069 13.3267 117.444 16.5423 117.444 13.3747C117.444 12.3428 116.365 12.0068 115.381 12.0068C114.397 12.0068 113.005 12.3908 112.573 14.0226H109.429C110.077 10.399 113.437 9.75105 115.429 9.75105C117.66 9.75105 120.348 10.495 120.348 13.4227V22.3737H117.492V20.5019H117.42C116.629 22.1337 115.357 22.8537 113.389 22.8537ZM113.989 20.6459C115.693 20.6459 117.42 19.566 117.42 16.9023V16.1584H117.349C116.101 17.8382 112.093 16.6623 112.093 19.0141C112.093 19.95 112.765 20.6459 113.989 20.6459Z" fill="#0D0D0D"/>
<path d="M95.8881 22.3977V5.5755H98.8398V12.3668H98.9118C99.6077 10.519 101.048 9.70306 102.823 9.70306C105.415 9.70306 107.167 11.5029 107.167 14.4066V22.3977H104.095V15.0305C104.095 13.3027 103.135 12.3188 101.719 12.3188C99.9437 12.3188 98.9598 14.0226 98.9598 15.7744V22.3977H95.8881Z" fill="#0D0D0D"/>
<path d="M88.3688 22.7337C86.0171 22.7337 82.9934 22.1098 82.5134 18.2702H85.2971C85.7051 20.166 87.2409 20.502 88.4408 20.502C89.9527 20.502 90.9126 19.902 90.9126 18.9181C90.9126 18.2702 90.5046 17.6943 88.9448 17.4063L87.097 17.0943C85.2971 16.7584 82.9934 15.7985 82.9934 13.4227C83.0174 10.735 85.8251 9.75111 88.0329 9.75111C90.4806 9.72711 93.2643 10.567 93.7443 14.0706H90.8406C90.5046 12.6548 89.6167 11.8629 88.0569 11.8629C87.001 11.8629 85.9691 12.3428 85.9691 13.3267C85.9691 13.9267 86.329 14.5026 87.9369 14.8146L90.1926 15.2225C92.3524 15.6305 93.7683 16.6384 93.7923 18.8701C93.7203 21.7258 91.1285 22.7337 88.3688 22.7337Z" fill="#0D0D0D"/>
<path d="M73.8064 22.8537C71.3587 22.8537 69.4869 21.2938 69.4869 19.0381C69.4869 13.3267 77.862 16.5423 77.862 13.3747C77.862 12.3428 76.7821 12.0068 75.7982 12.0068C74.8143 12.0068 73.4225 12.3908 72.9905 14.0226H69.8468C70.4948 10.399 73.8544 9.75105 75.8462 9.75105C78.078 9.75105 80.7657 10.495 80.7657 13.4227V22.3737H77.91V20.5019H77.838C77.0461 22.1337 75.7742 22.8537 73.8064 22.8537ZM74.4064 20.6459C76.1102 20.6459 77.838 19.566 77.838 16.9023V16.1584H77.766C76.5181 17.8382 72.5106 16.6623 72.5106 19.0141C72.5106 19.95 73.1825 20.6459 74.4064 20.6459Z" fill="#0D0D0D"/>
<path d="M65.3019 22.4218C63.4541 22.4218 62.3262 22.0858 62.3262 19.974V12.7508H60.1184V10.0871H62.3502V6.31949H65.3499V10.0871H67.8216V12.7508H65.3019V19.6141H67.7256V22.4218H65.3019Z" fill="#0D0D0D"/>
<path d="M51.661 22.8537C49.2133 22.8537 47.3415 21.2938 47.3415 19.0381C47.3415 13.3267 55.7166 16.5423 55.7166 13.3747C55.7166 12.3428 54.6367 12.0068 53.6528 12.0068C52.6689 12.0068 51.2771 12.3908 50.8451 14.0226H47.7015C48.3494 10.399 51.709 9.75105 53.7008 9.75105C55.9326 9.75105 58.6203 10.495 58.6203 13.4227V22.3737H55.7646V20.5019H55.6926C54.9007 22.1337 53.6288 22.8537 51.661 22.8537ZM52.261 20.6459C53.9648 20.6459 55.6926 19.566 55.6926 16.9023V16.1584H55.6206C54.3728 17.8382 50.3652 16.6623 50.3652 19.0141C50.3652 19.95 51.0371 20.6459 52.261 20.6459Z" fill="#0D0D0D"/>
<path d="M39.2845 20.358C41.3963 20.358 42.3562 18.4862 42.3562 16.2544C42.3562 13.9986 41.2763 12.1988 39.2365 12.1988C37.3407 12.1988 36.2608 13.8067 36.2608 16.2544C36.2608 18.7021 37.3407 20.358 39.2845 20.358ZM45.3798 22.3977H42.4282V20.6699H42.2842C41.5162 22.0618 40.2444 22.8537 38.4446 22.8537C35.2049 22.8537 33.1651 20.07 33.1651 16.2544C33.1651 12.2468 35.2289 9.75109 38.4206 9.75109C40.1964 9.75109 41.5882 10.567 42.3562 11.9349H42.4282V5.47954H45.3798V22.3977Z" fill="#0D0D0D"/>
<path d="M18.6304 0H14.6705V7.81303H18.6304V0Z" fill="#3FE844"/>
<path d="M26.8893 10.4685L25.6014 6.61615L19.3744 8.71152L20.6623 12.5639L26.8893 10.4685Z" fill="#3FE844"/>
<path d="M18.7553 17.0969H14.7953V28.0086H18.7553V17.0969Z" fill="#3FE844"/>
<path d="M11.3507 14.5378L10.6022 10.5936L0.000336396 12.6186L0.748802 16.5627L11.3507 14.5378Z" fill="#3FE844"/>
<path d="M14.3407 17.4597L11.2552 14.9028L2.80166 25.1701L5.8872 27.7271L14.3407 17.4597Z" fill="#3FE844"/>
<path d="M21.2515 13.1566L18.5371 16.0823L24.2859 21.4507L27.0003 18.5251L21.2515 13.1566Z" fill="#3FE844"/>
<path d="M4.68568 1.13842L2.46883 4.43037L11.4713 10.5322L13.6881 7.24021L4.68568 1.13842Z" fill="#3FE844"/>
</svg>
