<svg width="130" height="865" viewBox="0 0 130 865" fill="none" xmlns="http://www.w3.org/2000/svg">
<g clip-path="url(#clip0_6016_2674)">
<mask id="mask0_6016_2674" style="mask-type:alpha" maskUnits="userSpaceOnUse" x="0" y="-880" width="130" height="1745">
<path d="M5.63003e-05 -879.5L130 -879.5L130 865L9.359e-05 865L5.63003e-05 -879.5Z" fill="#D9D9D9"/>
</mask>
<g mask="url(#mask0_6016_2674)">
<line y1="-0.25" x2="846.56" y2="-0.25" transform="matrix(0.568707 -0.82254 0.187123 0.982337 -181.108 12.6753)" stroke="#D9D9D9" stroke-width="0.5"/>
<line y1="-0.25" x2="846.56" y2="-0.25" transform="matrix(0.568707 -0.82254 0.187123 0.982337 -178.626 33.4883)" stroke="#D9D9D9" stroke-width="0.5"/>
<line y1="-0.25" x2="846.56" y2="-0.25" transform="matrix(0.568707 -0.82254 0.187123 0.982337 -176.136 54.2891)" stroke="#D9D9D9" stroke-width="0.5"/>
<line y1="-0.25" x2="846.56" y2="-0.25" transform="matrix(0.568707 -0.82254 0.187123 0.982337 -173.653 75.0996)" stroke="#D9D9D9" stroke-width="0.5"/>
<line y1="-0.25" x2="846.56" y2="-0.25" transform="matrix(0.568707 -0.82254 0.187123 0.982337 -171.163 95.9126)" stroke="#D9D9D9" stroke-width="0.5"/>
<line y1="-0.25" x2="846.56" y2="-0.25" transform="matrix(0.568707 -0.82254 0.187123 0.982337 -168.665 116.714)" stroke="#D9D9D9" stroke-width="0.5"/>
<line y1="-0.25" x2="846.56" y2="-0.25" transform="matrix(0.568707 -0.82254 0.187123 0.982337 -166.183 137.524)" stroke="#D9D9D9" stroke-width="0.5"/>
<line y1="-0.25" x2="846.56" y2="-0.25" transform="matrix(0.568707 -0.82254 0.187123 0.982337 -163.692 158.335)" stroke="#D9D9D9" stroke-width="0.5"/>
<line y1="-0.25" x2="846.56" y2="-0.25" transform="matrix(0.568707 -0.82254 0.187123 0.982337 -161.21 179.138)" stroke="#D9D9D9" stroke-width="0.5"/>
<line y1="-0.25" x2="846.56" y2="-0.25" transform="matrix(0.568707 -0.82254 0.187123 0.982337 -158.723 199.949)" stroke="#D9D9D9" stroke-width="0.5"/>
<line y1="-0.25" x2="846.56" y2="-0.25" transform="matrix(0.568707 -0.82254 0.187123 0.982337 -156.237 220.76)" stroke="#D9D9D9" stroke-width="0.5"/>
<line y1="-0.25" x2="846.56" y2="-0.25" transform="matrix(0.568707 -0.82254 0.187123 0.982337 -153.75 241.563)" stroke="#D9D9D9" stroke-width="0.5"/>
<line y1="-0.25" x2="846.56" y2="-0.25" transform="matrix(0.568707 -0.82254 0.187123 0.982337 -151.264 262.374)" stroke="#D9D9D9" stroke-width="0.5"/>
<line y1="-0.25" x2="846.56" y2="-0.25" transform="matrix(0.568707 -0.82254 0.187123 0.982337 -148.766 283.175)" stroke="#D9D9D9" stroke-width="0.5"/>
<line y1="-0.25" x2="846.56" y2="-0.25" transform="matrix(0.568707 -0.82254 0.187123 0.982337 -146.28 303.985)" stroke="#D9D9D9" stroke-width="0.5"/>
<line y1="-0.25" x2="846.56" y2="-0.25" transform="matrix(0.568707 -0.82254 0.187123 0.982337 -143.797 324.798)" stroke="#D9D9D9" stroke-width="0.5"/>
<line y1="-0.25" x2="846.56" y2="-0.25" transform="matrix(0.568707 -0.82254 0.187123 0.982337 -141.307 345.599)" stroke="#D9D9D9" stroke-width="0.5"/>
<line y1="-0.25" x2="846.56" y2="-0.25" transform="matrix(0.568707 -0.82254 0.187123 0.982337 -138.825 366.41)" stroke="#D9D9D9" stroke-width="0.5"/>
<line y1="-0.25" x2="846.56" y2="-0.25" transform="matrix(0.568707 -0.82254 0.187123 0.982337 -136.338 387.223)" stroke="#D9D9D9" stroke-width="0.5"/>
<line y1="-0.25" x2="846.56" y2="-0.25" transform="matrix(0.568707 -0.82254 0.187123 0.982337 -133.852 408.024)" stroke="#D9D9D9" stroke-width="0.5"/>
<line y1="-0.25" x2="846.56" y2="-0.25" transform="matrix(0.568707 -0.82254 0.187123 0.982337 -131.365 428.835)" stroke="#D9D9D9" stroke-width="0.5"/>
<line y1="-0.25" x2="846.56" y2="-0.25" transform="matrix(0.568707 -0.82254 0.187123 0.982337 -128.872 449.646)" stroke="#D9D9D9" stroke-width="0.5"/>
<line y1="-0.25" x2="846.56" y2="-0.25" transform="matrix(0.568707 -0.82254 0.187123 0.982337 -126.381 470.449)" stroke="#D9D9D9" stroke-width="0.5"/>
<line y1="-0.25" x2="846.56" y2="-0.25" transform="matrix(0.568707 -0.82254 0.187123 0.982337 -123.899 491.26)" stroke="#D9D9D9" stroke-width="0.5"/>
<line y1="-0.25" x2="846.56" y2="-0.25" transform="matrix(0.568707 -0.82254 0.187123 0.982337 -121.408 512.061)" stroke="#D9D9D9" stroke-width="0.5"/>
<line y1="-0.25" x2="846.56" y2="-0.25" transform="matrix(0.568707 -0.82254 0.187123 0.982337 -118.926 532.873)" stroke="#D9D9D9" stroke-width="0.5"/>
<line y1="-0.25" x2="846.56" y2="-0.25" transform="matrix(0.568707 -0.82254 0.187123 0.982337 -116.436 553.684)" stroke="#D9D9D9" stroke-width="0.5"/>
<line y1="-0.25" x2="846.56" y2="-0.25" transform="matrix(0.568707 -0.82254 0.187123 0.982337 -113.953 574.485)" stroke="#D9D9D9" stroke-width="0.5"/>
<line y1="-0.25" x2="846.56" y2="-0.25" transform="matrix(0.568707 -0.82254 0.187123 0.982337 -111.463 595.296)" stroke="#D9D9D9" stroke-width="0.5"/>
<line y1="-0.25" x2="846.56" y2="-0.25" transform="matrix(0.568707 -0.82254 0.187123 0.982337 -108.969 616.109)" stroke="#D9D9D9" stroke-width="0.5"/>
<line y1="-0.25" x2="846.56" y2="-0.25" transform="matrix(0.568707 -0.82254 0.187123 0.982337 -106.483 636.91)" stroke="#D9D9D9" stroke-width="0.5"/>
<line y1="-0.25" x2="846.56" y2="-0.25" transform="matrix(0.568707 -0.82254 0.187123 0.982337 -103.996 657.721)" stroke="#D9D9D9" stroke-width="0.5"/>
<line y1="-0.25" x2="846.56" y2="-0.25" transform="matrix(0.568707 -0.82254 0.187123 0.982337 -101.51 678.533)" stroke="#D9D9D9" stroke-width="0.5"/>
<line y1="-0.25" x2="846.56" y2="-0.25" transform="matrix(0.568707 -0.82254 0.187123 0.982337 -99.0234 699.334)" stroke="#D9D9D9" stroke-width="0.5"/>
<line y1="-0.25" x2="846.56" y2="-0.25" transform="matrix(0.568707 -0.82254 0.187123 0.982337 -96.5371 720.145)" stroke="#D9D9D9" stroke-width="0.5"/>
<line y1="-0.25" x2="846.56" y2="-0.25" transform="matrix(0.568707 -0.82254 0.187123 0.982337 -94.0505 740.948)" stroke="#D9D9D9" stroke-width="0.5"/>
<line y1="-0.25" x2="846.56" y2="-0.25" transform="matrix(0.568707 -0.82254 0.187123 0.982337 -91.5642 761.759)" stroke="#D9D9D9" stroke-width="0.5"/>
<line y1="-0.25" x2="846.56" y2="-0.25" transform="matrix(0.568707 -0.82254 0.187123 0.982337 -89.0703 782.57)" stroke="#D9D9D9" stroke-width="0.5"/>
<line y1="-0.25" x2="846.56" y2="-0.25" transform="matrix(0.568707 -0.82254 0.187123 0.982337 -86.58 803.371)" stroke="#D9D9D9" stroke-width="0.5"/>
<line y1="-0.25" x2="846.56" y2="-0.25" transform="matrix(0.568707 -0.82254 0.187123 0.982337 -84.0974 824.184)" stroke="#D9D9D9" stroke-width="0.5"/>
<line y1="-0.25" x2="846.56" y2="-0.25" transform="matrix(0.568707 -0.82254 0.187123 0.982337 -81.6074 844.995)" stroke="#D9D9D9" stroke-width="0.5"/>
<line y1="-0.25" x2="846.56" y2="-0.25" transform="matrix(0.568707 -0.82254 0.187123 0.982337 -79.1247 865.795)" stroke="#D9D9D9" stroke-width="0.5"/>
<line y1="-0.25" x2="846.56" y2="-0.25" transform="matrix(0.568707 -0.82254 0.187123 0.982337 -76.6345 886.608)" stroke="#D9D9D9" stroke-width="0.5"/>
<line y1="-0.25" x2="846.56" y2="-0.25" transform="matrix(0.568707 -0.82254 0.187123 0.982337 -74.1518 907.413)" stroke="#D9D9D9" stroke-width="0.5"/>
<line y1="-0.25" x2="846.56" y2="-0.25" transform="matrix(0.568707 -0.82254 0.187123 0.982337 -71.6616 928.22)" stroke="#D9D9D9" stroke-width="0.5"/>
<line y1="-0.25" x2="846.56" y2="-0.25" transform="matrix(0.568707 -0.82254 0.187123 0.982337 -69.1677 949.031)" stroke="#D9D9D9" stroke-width="0.5"/>
<line y1="-0.25" x2="846.56" y2="-0.25" transform="matrix(0.568707 -0.82254 0.187123 0.982337 -66.6813 969.838)" stroke="#D9D9D9" stroke-width="0.5"/>
<line y1="-0.25" x2="846.56" y2="-0.25" transform="matrix(0.568707 -0.82254 0.187123 0.982337 -64.195 990.645)" stroke="#D9D9D9" stroke-width="0.5"/>
<line y1="-0.25" x2="846.56" y2="-0.25" transform="matrix(0.568707 -0.82254 0.187123 0.982337 -61.7084 1011.46)" stroke="#D9D9D9" stroke-width="0.5"/>
<line y1="-0.25" x2="846.56" y2="-0.25" transform="matrix(0.568707 -0.82254 0.187123 0.982337 -59.2221 1032.26)" stroke="#D9D9D9" stroke-width="0.5"/>
<line y1="-0.25" x2="846.56" y2="-0.25" transform="matrix(0.568707 -0.82254 0.187123 0.982337 -56.7358 1053.07)" stroke="#D9D9D9" stroke-width="0.5"/>
<line y1="-0.25" x2="846.56" y2="-0.25" transform="matrix(0.568707 -0.82254 0.187123 0.982337 -54.2531 1073.88)" stroke="#D9D9D9" stroke-width="0.5"/>
<line y1="-0.25" x2="846.56" y2="-0.25" transform="matrix(0.568707 -0.82254 0.187123 0.982337 -51.7629 1094.69)" stroke="#D9D9D9" stroke-width="0.5"/>
<line y1="-0.25" x2="846.56" y2="-0.25" transform="matrix(0.568707 -0.82254 0.187123 0.982337 -49.269 1115.49)" stroke="#D9D9D9" stroke-width="0.5"/>
<line y1="-0.25" x2="846.56" y2="-0.25" transform="matrix(0.568707 -0.82254 0.187123 0.982337 -46.7827 1136.3)" stroke="#D9D9D9" stroke-width="0.5"/>
<line y1="-0.25" x2="846.56" y2="-0.25" transform="matrix(0.568707 -0.82254 0.187123 0.982337 -44.2961 1157.11)" stroke="#D9D9D9" stroke-width="0.5"/>
<line y1="-0.25" x2="846.56" y2="-0.25" transform="matrix(0.568707 -0.82254 0.187123 0.982337 -41.8098 1177.92)" stroke="#D9D9D9" stroke-width="0.5"/>
<line y1="-0.25" x2="846.56" y2="-0.25" transform="matrix(0.568707 -0.82254 0.187123 0.982337 -39.3234 1198.72)" stroke="#D9D9D9" stroke-width="0.5"/>
<line y1="-0.25" x2="846.56" y2="-0.25" transform="matrix(0.568707 -0.82254 0.187123 0.982337 -36.8371 1219.53)" stroke="#D9D9D9" stroke-width="0.5"/>
<line y1="-0.25" x2="846.56" y2="-0.25" transform="matrix(0.568707 -0.82254 0.187123 0.982337 -34.3505 1240.34)" stroke="#D9D9D9" stroke-width="0.5"/>
<line y1="-0.25" x2="846.56" y2="-0.25" transform="matrix(0.568707 -0.82254 0.187123 0.982337 -31.8679 1261.15)" stroke="#D9D9D9" stroke-width="0.5"/>
</g>
</g>
<defs>
<clipPath id="clip0_6016_2674">
<rect width="865" height="130" fill="white" transform="translate(5.63003e-05 865) rotate(-90)"/>
</clipPath>
</defs>
</svg>
