<svg width="1416" height="168" viewBox="0 0 1416 168" fill="none" xmlns="http://www.w3.org/2000/svg">
<rect y="122.5" width="12" height="20" fill="#3FE844" fill-opacity="0.2"/>
<rect y="146.5" width="12" height="38" fill="#3FE844" fill-opacity="0.2"/>
<rect x="16" y="105.5" width="12" height="25" fill="#3FE844" fill-opacity="0.05"/>
<rect x="16" y="134.5" width="12" height="25" fill="#3FE844" fill-opacity="0.05"/>
<rect x="16" y="163.5" width="12" height="15" fill="#3FE844" fill-opacity="0.2"/>
<rect x="32" y="47" width="12" height="15" fill="#3FE844" fill-opacity="0.05"/>
<rect x="32" y="66" width="12" height="38" fill="#3FE844" fill-opacity="0.05"/>
<rect x="32" y="108" width="12" height="25" fill="#3FE844" fill-opacity="0.05"/>
<rect x="32" y="137" width="12" height="38" fill="#3FE844" fill-opacity="0.05"/>
<rect x="48" y="69" width="12" height="25" fill="#3FE844" fill-opacity="0.05"/>
<rect x="48" y="98" width="12" height="25" fill="#3FE844" fill-opacity="0.2"/>
<rect x="48" y="127" width="12" height="25" fill="#3FE844" fill-opacity="0.05"/>
<rect x="48" y="156" width="12" height="38" fill="#3FE844" fill-opacity="0.05"/>
<rect x="64" y="49.5" width="12" height="15" fill="#3FE844" fill-opacity="0.2"/>
<rect x="64" y="68.5" width="12" height="20" fill="#3FE844" fill-opacity="0.05"/>
<rect x="64" y="92.5" width="12" height="15" fill="#3FE844" fill-opacity="0.05"/>
<rect x="64" y="111.5" width="12" height="20" fill="#3FE844" fill-opacity="0.05"/>
<rect x="64" y="135.5" width="12" height="38" fill="#3FE844" fill-opacity="0.05"/>
<rect x="80" width="12" height="15" fill="#3FE844" fill-opacity="0.05"/>
<rect x="80" y="19" width="12" height="20" fill="#3FE844" fill-opacity="0.2"/>
<rect x="80" y="43" width="12" height="15" fill="#3FE844" fill-opacity="0.05"/>
<rect x="80" y="62" width="12" height="38" fill="#3FE844" fill-opacity="0.05"/>
<rect x="80" y="104" width="12" height="15" fill="#3FE844" fill-opacity="0.1"/>
<rect x="80" y="123" width="12" height="15" fill="#3FE844" fill-opacity="0.05"/>
<rect x="80" y="142" width="12" height="15" fill="#3FE844" fill-opacity="0.05"/>
<rect x="80" y="161" width="12" height="38" fill="#3FE844" fill-opacity="0.05"/>
<rect x="96" y="128.5" width="12" height="20" fill="#3FE844" fill-opacity="0.05"/>
<rect x="96" y="152.5" width="12" height="25" fill="#3FE844" fill-opacity="0.2"/>
<rect x="112" y="121" width="12" height="38" fill="#3FE844" fill-opacity="0.1"/>
<rect x="112" y="163" width="12" height="38" fill="#3FE844" fill-opacity="0.05"/>
<rect x="128" y="56" width="12" height="15" fill="#3FE844" fill-opacity="0.05"/>
<rect x="128" y="75" width="12" height="20" fill="#3FE844" fill-opacity="0.2"/>
<rect x="128" y="99" width="12" height="20" fill="#3FE844" fill-opacity="0.05"/>
<rect x="128" y="123" width="12" height="20" fill="#3FE844" fill-opacity="0.05"/>
<rect x="128" y="147" width="12" height="38" fill="#3FE844" fill-opacity="0.1"/>
<rect x="144" y="36.5" width="12" height="38" fill="#3FE844" fill-opacity="0.2"/>
<rect x="144" y="78.5" width="12" height="25" fill="#3FE844" fill-opacity="0.05"/>
<rect x="144" y="107.5" width="12" height="25" fill="#3FE844" fill-opacity="0.05"/>
<rect x="144" y="136.5" width="12" height="25" fill="#3FE844" fill-opacity="0.05"/>
<rect x="144" y="165.5" width="12" height="20" fill="#3FE844" fill-opacity="0.2"/>
<rect x="160" y="0.5" width="12" height="38" fill="#3FE844" fill-opacity="0.2"/>
<rect x="160" y="42.5" width="12" height="38" fill="#3FE844" fill-opacity="0.1"/>
<rect x="160" y="84.5" width="12" height="20" fill="#3FE844" fill-opacity="0.1"/>
<rect x="160" y="108.5" width="12" height="38" fill="#3FE844" fill-opacity="0.2"/>
<rect x="160" y="150.5" width="12" height="38" fill="#3FE844" fill-opacity="0.05"/>
<rect x="176" y="105" width="12" height="38" fill="#3FE844" fill-opacity="0.1"/>
<rect x="176" y="147" width="12" height="20" fill="#3FE844" fill-opacity="0.2"/>
<rect x="192" y="69.5" width="12" height="25" fill="#3FE844" fill-opacity="0.1"/>
<rect x="192" y="98.5" width="12" height="25" fill="#3FE844" fill-opacity="0.05"/>
<rect x="192" y="127.5" width="12" height="15" fill="#3FE844" fill-opacity="0.05"/>
<rect x="192" y="146.5" width="12" height="38" fill="#3FE844" fill-opacity="0.05"/>
<rect x="208" y="135" width="12" height="25" fill="#3FE844" fill-opacity="0.2"/>
<rect x="208" y="164" width="12" height="15" fill="#3FE844" fill-opacity="0.05"/>
<rect x="224" y="103" width="12" height="15" fill="#3FE844" fill-opacity="0.1"/>
<rect x="224" y="122" width="12" height="15" fill="#3FE844" fill-opacity="0.1"/>
<rect x="224" y="141" width="12" height="38" fill="#3FE844" fill-opacity="0.05"/>
<rect x="240" y="44.5" width="12" height="15" fill="#3FE844" fill-opacity="0.05"/>
<rect x="240" y="63.5" width="12" height="25" fill="#3FE844" fill-opacity="0.1"/>
<rect x="240" y="92.5" width="12" height="38" fill="#3FE844" fill-opacity="0.05"/>
<rect x="240" y="134.5" width="12" height="15" fill="#3FE844" fill-opacity="0.05"/>
<rect x="240" y="153.5" width="12" height="38" fill="#3FE844" fill-opacity="0.05"/>
<rect x="256" y="147.5" width="12" height="38" fill="#3FE844" fill-opacity="0.05"/>
<rect x="272" y="25" width="12" height="15" fill="#3FE844" fill-opacity="0.05"/>
<rect x="272" y="44" width="12" height="38" fill="#3FE844" fill-opacity="0.05"/>
<rect x="272" y="86" width="12" height="38" fill="#3FE844" fill-opacity="0.05"/>
<rect x="272" y="128" width="12" height="15" fill="#3FE844" fill-opacity="0.05"/>
<rect x="272" y="147" width="12" height="25" fill="#3FE844" fill-opacity="0.05"/>
<rect x="288" y="126.5" width="12" height="20" fill="#3FE844" fill-opacity="0.05"/>
<rect x="288" y="150.5" width="12" height="25" fill="#3FE844" fill-opacity="0.1"/>
<rect x="304" y="44.5" width="12" height="20" fill="#3FE844" fill-opacity="0.05"/>
<rect x="304" y="68.5" width="12" height="38" fill="#3FE844" fill-opacity="0.05"/>
<rect x="304" y="110.5" width="12" height="38" fill="#3FE844" fill-opacity="0.05"/>
<rect x="304" y="152.5" width="12" height="25" fill="#3FE844" fill-opacity="0.05"/>
<rect x="320" y="20.5" width="12" height="15" fill="#3FE844" fill-opacity="0.05"/>
<rect x="320" y="39.5" width="12" height="25" fill="#3FE844" fill-opacity="0.2"/>
<rect x="320" y="68.5" width="12" height="25" fill="#3FE844" fill-opacity="0.05"/>
<rect x="320" y="97.5" width="12" height="38" fill="#3FE844" fill-opacity="0.05"/>
<rect x="320" y="139.5" width="12" height="20" fill="#3FE844" fill-opacity="0.05"/>
<rect x="320" y="163.5" width="12" height="15" fill="#3FE844" fill-opacity="0.05"/>
<rect x="336" y="70" width="12" height="25" fill="#3FE844" fill-opacity="0.05"/>
<rect x="336" y="99" width="12" height="20" fill="#3FE844" fill-opacity="0.05"/>
<rect x="336" y="123" width="12" height="20" fill="#3FE844" fill-opacity="0.2"/>
<rect x="336" y="147" width="12" height="38" fill="#3FE844" fill-opacity="0.05"/>
<rect x="352" y="56" width="12" height="15" fill="#3FE844" fill-opacity="0.2"/>
<rect x="352" y="75" width="12" height="38" fill="#3FE844" fill-opacity="0.1"/>
<rect x="352" y="117" width="12" height="25" fill="#3FE844" fill-opacity="0.05"/>
<rect x="352" y="146" width="12" height="15" fill="#3FE844" fill-opacity="0.2"/>
<rect x="352" y="165" width="12" height="20" fill="#3FE844" fill-opacity="0.05"/>
<rect x="368" y="113.5" width="12" height="15" fill="#3FE844" fill-opacity="0.05"/>
<rect x="368" y="132.5" width="12" height="15" fill="#3FE844" fill-opacity="0.1"/>
<rect x="368" y="151.5" width="12" height="20" fill="#3FE844" fill-opacity="0.1"/>
<rect x="384" y="143" width="12" height="15" fill="#3FE844" fill-opacity="0.05"/>
<rect x="384" y="162" width="12" height="25" fill="#3FE844" fill-opacity="0.05"/>
<rect x="400" y="89" width="12" height="15" fill="#3FE844" fill-opacity="0.2"/>
<rect x="400" y="108" width="12" height="38" fill="#3FE844" fill-opacity="0.05"/>
<rect x="400" y="150" width="12" height="25" fill="#3FE844" fill-opacity="0.05"/>
<rect x="416" y="55" width="12" height="38" fill="#3FE844" fill-opacity="0.05"/>
<rect x="416" y="97" width="12" height="20" fill="#3FE844" fill-opacity="0.05"/>
<rect x="416" y="121" width="12" height="15" fill="#3FE844" fill-opacity="0.05"/>
<rect x="416" y="140" width="12" height="25" fill="#3FE844" fill-opacity="0.2"/>
<rect x="432" y="98" width="12" height="15" fill="#3FE844" fill-opacity="0.05"/>
<rect x="432" y="117" width="12" height="25" fill="#3FE844" fill-opacity="0.05"/>
<rect x="432" y="146" width="12" height="38" fill="#3FE844" fill-opacity="0.2"/>
<rect x="448" y="64.5" width="12" height="25" fill="#3FE844" fill-opacity="0.2"/>
<rect x="448" y="93.5" width="12" height="15" fill="#3FE844" fill-opacity="0.05"/>
<rect x="448" y="112.5" width="12" height="38" fill="#3FE844" fill-opacity="0.05"/>
<rect x="448" y="154.5" width="12" height="15" fill="#3FE844" fill-opacity="0.2"/>
<rect x="464" y="48" width="12" height="38" fill="#3FE844" fill-opacity="0.05"/>
<rect x="464" y="90" width="12" height="38" fill="#3FE844" fill-opacity="0.05"/>
<rect x="464" y="132" width="12" height="15" fill="#3FE844" fill-opacity="0.1"/>
<rect x="464" y="151" width="12" height="38" fill="#3FE844" fill-opacity="0.05"/>
<rect x="480" y="91" width="12" height="20" fill="#3FE844" fill-opacity="0.2"/>
<rect x="480" y="115" width="12" height="38" fill="#3FE844" fill-opacity="0.05"/>
<rect x="480" y="157" width="12" height="25" fill="#3FE844" fill-opacity="0.05"/>
<rect x="496" y="120" width="12" height="38" fill="#3FE844" fill-opacity="0.2"/>
<rect x="496" y="162" width="12" height="20" fill="#3FE844" fill-opacity="0.1"/>
<rect x="512" y="51" width="12" height="25" fill="#3FE844" fill-opacity="0.05"/>
<rect x="512" y="80" width="12" height="15" fill="#3FE844" fill-opacity="0.05"/>
<rect x="512" y="99" width="12" height="25" fill="#3FE844" fill-opacity="0.1"/>
<rect x="512" y="128" width="12" height="25" fill="#3FE844" fill-opacity="0.05"/>
<rect x="512" y="157" width="12" height="15" fill="#3FE844" fill-opacity="0.1"/>
<rect x="528" y="111" width="12" height="38" fill="#3FE844" fill-opacity="0.05"/>
<rect x="528" y="153" width="12" height="25" fill="#3FE844" fill-opacity="0.05"/>
<rect x="544" y="86.5" width="12" height="25" fill="#3FE844" fill-opacity="0.1"/>
<rect x="544" y="115.5" width="12" height="20" fill="#3FE844" fill-opacity="0.05"/>
<rect x="544" y="139.5" width="12" height="38" fill="#3FE844" fill-opacity="0.05"/>
<rect x="560" y="155" width="12" height="15" fill="#3FE844" fill-opacity="0.05"/>
<rect x="576" y="49.5" width="12" height="25" fill="#3FE844" fill-opacity="0.05"/>
<rect x="576" y="78.5" width="12" height="38" fill="#3FE844" fill-opacity="0.2"/>
<rect x="576" y="120.5" width="12" height="15" fill="#3FE844" fill-opacity="0.2"/>
<rect x="576" y="139.5" width="12" height="38" fill="#3FE844" fill-opacity="0.05"/>
<rect x="592" y="56" width="12" height="38" fill="#3FE844" fill-opacity="0.05"/>
<rect x="592" y="98" width="12" height="25" fill="#3FE844" fill-opacity="0.05"/>
<rect x="592" y="127" width="12" height="20" fill="#3FE844" fill-opacity="0.05"/>
<rect x="592" y="151" width="12" height="20" fill="#3FE844" fill-opacity="0.05"/>
<rect x="608" y="94.5" width="12" height="38" fill="#3FE844" fill-opacity="0.05"/>
<rect x="608" y="136.5" width="12" height="38" fill="#3FE844" fill-opacity="0.1"/>
<rect x="624" y="110.5" width="12" height="38" fill="#3FE844" fill-opacity="0.05"/>
<rect x="624" y="152.5" width="12" height="38" fill="#3FE844" fill-opacity="0.05"/>
<rect x="640" y="137" width="12" height="15" fill="#3FE844" fill-opacity="0.2"/>
<rect x="640" y="156" width="12" height="38" fill="#3FE844" fill-opacity="0.2"/>
<rect x="656" y="146.5" width="12" height="38" fill="#3FE844" fill-opacity="0.2"/>
<rect x="672" y="137.5" width="12" height="25" fill="#3FE844" fill-opacity="0.05"/>
<rect x="672" y="166.5" width="12" height="20" fill="#3FE844" fill-opacity="0.05"/>
<rect x="688" y="85.5" width="12" height="38" fill="#3FE844" fill-opacity="0.05"/>
<rect x="688" y="127.5" width="12" height="15" fill="#3FE844" fill-opacity="0.1"/>
<rect x="688" y="146.5" width="12" height="38" fill="#3FE844" fill-opacity="0.1"/>
<rect x="704" y="137.5" width="12" height="15" fill="#3FE844" fill-opacity="0.05"/>
<rect x="704" y="156.5" width="12" height="25" fill="#3FE844" fill-opacity="0.2"/>
<rect x="720" y="136.5" width="12" height="38" fill="#3FE844" fill-opacity="0.1"/>
<rect x="736" y="94" width="12" height="15" fill="#3FE844" fill-opacity="0.05"/>
<rect x="736" y="113" width="12" height="38" fill="#3FE844" fill-opacity="0.1"/>
<rect x="736" y="155" width="12" height="38" fill="#3FE844" fill-opacity="0.05"/>
<rect x="752" y="69" width="12" height="38" fill="#3FE844" fill-opacity="0.05"/>
<rect x="752" y="111" width="12" height="20" fill="#3FE844" fill-opacity="0.1"/>
<rect x="752" y="135" width="12" height="20" fill="#3FE844" fill-opacity="0.05"/>
<rect x="752" y="159" width="12" height="38" fill="#3FE844" fill-opacity="0.05"/>
<rect x="768" y="84.5" width="12" height="20" fill="#3FE844" fill-opacity="0.05"/>
<rect x="768" y="108.5" width="12" height="15" fill="#3FE844" fill-opacity="0.1"/>
<rect x="768" y="127.5" width="12" height="15" fill="#3FE844" fill-opacity="0.05"/>
<rect x="768" y="146.5" width="12" height="20" fill="#3FE844" fill-opacity="0.05"/>
<rect x="784" y="105" width="12" height="15" fill="#3FE844" fill-opacity="0.2"/>
<rect x="784" y="124" width="12" height="15" fill="#3FE844" fill-opacity="0.05"/>
<rect x="784" y="143" width="12" height="38" fill="#3FE844" fill-opacity="0.1"/>
<rect x="800" y="136" width="12" height="38" fill="#3FE844" fill-opacity="0.2"/>
<rect x="816" y="72.5" width="12" height="38" fill="#3FE844" fill-opacity="0.2"/>
<rect x="816" y="114.5" width="12" height="25" fill="#3FE844" fill-opacity="0.1"/>
<rect x="816" y="143.5" width="12" height="38" fill="#3FE844" fill-opacity="0.2"/>
<rect x="832" y="129" width="12" height="38" fill="#3FE844" fill-opacity="0.2"/>
<rect x="848" y="40.5" width="12" height="15" fill="#3FE844" fill-opacity="0.1"/>
<rect x="848" y="59.5" width="12" height="38" fill="#3FE844" fill-opacity="0.05"/>
<rect x="848" y="101.5" width="12" height="38" fill="#3FE844" fill-opacity="0.1"/>
<rect x="848" y="143.5" width="12" height="25" fill="#3FE844" fill-opacity="0.2"/>
<rect x="864" y="82.5" width="12" height="15" fill="#3FE844" fill-opacity="0.2"/>
<rect x="864" y="101.5" width="12" height="38" fill="#3FE844" fill-opacity="0.05"/>
<rect x="864" y="143.5" width="12" height="38" fill="#3FE844" fill-opacity="0.1"/>
<rect x="880" y="159.5" width="12" height="15" fill="#3FE844" fill-opacity="0.05"/>
<rect x="896" y="128.5" width="12" height="25" fill="#3FE844" fill-opacity="0.2"/>
<rect x="896" y="157.5" width="12" height="38" fill="#3FE844" fill-opacity="0.1"/>
<rect x="912" y="62" width="12" height="38" fill="#3FE844" fill-opacity="0.05"/>
<rect x="912" y="104" width="12" height="38" fill="#3FE844" fill-opacity="0.2"/>
<rect x="912" y="146" width="12" height="15" fill="#3FE844" fill-opacity="0.05"/>
<rect x="912" y="165" width="12" height="38" fill="#3FE844" fill-opacity="0.05"/>
<rect x="928" y="93" width="12" height="25" fill="#3FE844" fill-opacity="0.05"/>
<rect x="928" y="122" width="12" height="15" fill="#3FE844" fill-opacity="0.1"/>
<rect x="928" y="141" width="12" height="38" fill="#3FE844" fill-opacity="0.05"/>
<rect x="944" y="133" width="12" height="15" fill="#3FE844" fill-opacity="0.05"/>
<rect x="944" y="152" width="12" height="25" fill="#3FE844" fill-opacity="0.1"/>
<rect x="960" y="95" width="12" height="38" fill="#3FE844" fill-opacity="0.05"/>
<rect x="960" y="137" width="12" height="38" fill="#3FE844" fill-opacity="0.05"/>
<rect x="976" y="85" width="12" height="20" fill="#3FE844" fill-opacity="0.05"/>
<rect x="976" y="109" width="12" height="15" fill="#3FE844" fill-opacity="0.1"/>
<rect x="976" y="128" width="12" height="15" fill="#3FE844" fill-opacity="0.05"/>
<rect x="976" y="147" width="12" height="15" fill="#3FE844" fill-opacity="0.2"/>
<rect x="976" y="166" width="12" height="38" fill="#3FE844" fill-opacity="0.1"/>
<rect x="992" y="148.5" width="12" height="15" fill="#3FE844" fill-opacity="0.05"/>
<rect x="992" y="167.5" width="12" height="38" fill="#3FE844" fill-opacity="0.05"/>
<rect x="1008" y="32" width="12" height="25" fill="#3FE844" fill-opacity="0.2"/>
<rect x="1008" y="61" width="12" height="20" fill="#3FE844" fill-opacity="0.05"/>
<rect x="1008" y="85" width="12" height="38" fill="#3FE844" fill-opacity="0.05"/>
<rect x="1008" y="127" width="12" height="20" fill="#3FE844" fill-opacity="0.05"/>
<rect x="1008" y="151" width="12" height="20" fill="#3FE844" fill-opacity="0.05"/>
<rect x="1024" y="13.5" width="12" height="15" fill="#3FE844" fill-opacity="0.05"/>
<rect x="1024" y="32.5" width="12" height="25" fill="#3FE844" fill-opacity="0.2"/>
<rect x="1024" y="61.5" width="12" height="38" fill="#3FE844" fill-opacity="0.2"/>
<rect x="1024" y="103.5" width="12" height="38" fill="#3FE844" fill-opacity="0.05"/>
<rect x="1024" y="145.5" width="12" height="38" fill="#3FE844" fill-opacity="0.05"/>
<rect x="1040" y="46.5" width="12" height="20" fill="#3FE844" fill-opacity="0.05"/>
<rect x="1040" y="70.5" width="12" height="38" fill="#3FE844" fill-opacity="0.1"/>
<rect x="1040" y="112.5" width="12" height="38" fill="#3FE844" fill-opacity="0.1"/>
<rect x="1040" y="154.5" width="12" height="38" fill="#3FE844" fill-opacity="0.05"/>
<rect x="1056" y="110.5" width="12" height="38" fill="#3FE844" fill-opacity="0.1"/>
<rect x="1056" y="152.5" width="12" height="38" fill="#3FE844" fill-opacity="0.05"/>
<rect x="1072" y="14" width="12" height="38" fill="#3FE844" fill-opacity="0.05"/>
<rect x="1072" y="56" width="12" height="38" fill="#3FE844" fill-opacity="0.05"/>
<rect x="1072" y="98" width="12" height="15" fill="#3FE844" fill-opacity="0.05"/>
<rect x="1072" y="117" width="12" height="25" fill="#3FE844" fill-opacity="0.05"/>
<rect x="1072" y="146" width="12" height="38" fill="#3FE844" fill-opacity="0.05"/>
<rect x="1088" y="140.5" width="12" height="25" fill="#3FE844" fill-opacity="0.05"/>
<rect x="1104" y="81" width="12" height="25" fill="#3FE844" fill-opacity="0.05"/>
<rect x="1104" y="110" width="12" height="15" fill="#3FE844" fill-opacity="0.05"/>
<rect x="1104" y="129" width="12" height="25" fill="#3FE844" fill-opacity="0.2"/>
<rect x="1104" y="158" width="12" height="15" fill="#3FE844" fill-opacity="0.05"/>
<rect x="1120" y="86.5" width="12" height="25" fill="#3FE844" fill-opacity="0.2"/>
<rect x="1120" y="115.5" width="12" height="38" fill="#3FE844" fill-opacity="0.1"/>
<rect x="1120" y="157.5" width="12" height="15" fill="#3FE844" fill-opacity="0.05"/>
<rect x="1136" y="109" width="12" height="38" fill="#3FE844" fill-opacity="0.05"/>
<rect x="1136" y="151" width="12" height="38" fill="#3FE844" fill-opacity="0.1"/>
<rect x="1152" y="45.5" width="12" height="15" fill="#3FE844" fill-opacity="0.05"/>
<rect x="1152" y="64.5" width="12" height="15" fill="#3FE844" fill-opacity="0.2"/>
<rect x="1152" y="83.5" width="12" height="38" fill="#3FE844" fill-opacity="0.05"/>
<rect x="1152" y="125.5" width="12" height="15" fill="#3FE844" fill-opacity="0.1"/>
<rect x="1152" y="144.5" width="12" height="38" fill="#3FE844" fill-opacity="0.05"/>
<rect x="1168" y="78.5" width="12" height="15" fill="#3FE844" fill-opacity="0.05"/>
<rect x="1168" y="97.5" width="12" height="25" fill="#3FE844" fill-opacity="0.05"/>
<rect x="1168" y="126.5" width="12" height="15" fill="#3FE844" fill-opacity="0.2"/>
<rect x="1168" y="145.5" width="12" height="25" fill="#3FE844" fill-opacity="0.05"/>
<rect x="1184" y="38.5" width="12" height="15" fill="#3FE844" fill-opacity="0.2"/>
<rect x="1184" y="57.5" width="12" height="15" fill="#3FE844" fill-opacity="0.05"/>
<rect x="1184" y="76.5" width="12" height="38" fill="#3FE844" fill-opacity="0.2"/>
<rect x="1184" y="118.5" width="12" height="38" fill="#3FE844" fill-opacity="0.05"/>
<rect x="1184" y="160.5" width="12" height="38" fill="#3FE844" fill-opacity="0.2"/>
<rect x="1200" y="70.5" width="12" height="38" fill="#3FE844" fill-opacity="0.05"/>
<rect x="1200" y="112.5" width="12" height="15" fill="#3FE844" fill-opacity="0.1"/>
<rect x="1200" y="131.5" width="12" height="20" fill="#3FE844" fill-opacity="0.05"/>
<rect x="1200" y="155.5" width="12" height="25" fill="#3FE844" fill-opacity="0.05"/>
<rect x="1216" y="90.5" width="12" height="25" fill="#3FE844" fill-opacity="0.1"/>
<rect x="1216" y="119.5" width="12" height="25" fill="#3FE844" fill-opacity="0.1"/>
<rect x="1216" y="148.5" width="12" height="15" fill="#3FE844" fill-opacity="0.05"/>
<rect x="1216" y="167.5" width="12" height="38" fill="#3FE844" fill-opacity="0.2"/>
<rect x="1232" y="114" width="12" height="20" fill="#3FE844" fill-opacity="0.2"/>
<rect x="1232" y="138" width="12" height="25" fill="#3FE844" fill-opacity="0.05"/>
<rect x="1232" y="167" width="12" height="25" fill="#3FE844" fill-opacity="0.05"/>
<rect x="1248" y="15" width="12" height="38" fill="#3FE844" fill-opacity="0.05"/>
<rect x="1248" y="57" width="12" height="38" fill="#3FE844" fill-opacity="0.05"/>
<rect x="1248" y="99" width="12" height="38" fill="#3FE844" fill-opacity="0.05"/>
<rect x="1248" y="141" width="12" height="38" fill="#3FE844" fill-opacity="0.05"/>
<rect x="1264" y="119" width="12" height="20" fill="#3FE844" fill-opacity="0.2"/>
<rect x="1264" y="143" width="12" height="38" fill="#3FE844" fill-opacity="0.05"/>
<rect x="1280" y="101.5" width="12" height="15" fill="#3FE844" fill-opacity="0.1"/>
<rect x="1280" y="120.5" width="12" height="38" fill="#3FE844" fill-opacity="0.05"/>
<rect x="1280" y="162.5" width="12" height="15" fill="#3FE844" fill-opacity="0.2"/>
<rect x="1296" y="129" width="12" height="15" fill="#3FE844" fill-opacity="0.2"/>
<rect x="1296" y="148" width="12" height="15" fill="#3FE844" fill-opacity="0.2"/>
<rect x="1296" y="167" width="12" height="25" fill="#3FE844" fill-opacity="0.05"/>
<rect x="1312" y="60" width="12" height="38" fill="#3FE844" fill-opacity="0.05"/>
<rect x="1312" y="102" width="12" height="25" fill="#3FE844" fill-opacity="0.05"/>
<rect x="1312" y="131" width="12" height="38" fill="#3FE844" fill-opacity="0.05"/>
<rect x="1328" y="96.5" width="12" height="38" fill="#3FE844" fill-opacity="0.05"/>
<rect x="1328" y="138.5" width="12" height="15" fill="#3FE844" fill-opacity="0.2"/>
<rect x="1328" y="157.5" width="12" height="38" fill="#3FE844" fill-opacity="0.05"/>
<rect x="1344" y="95.5" width="12" height="25" fill="#3FE844" fill-opacity="0.2"/>
<rect x="1344" y="124.5" width="12" height="38" fill="#3FE844" fill-opacity="0.05"/>
<rect x="1344" y="166.5" width="12" height="15" fill="#3FE844" fill-opacity="0.05"/>
<rect x="1360" y="72.5" width="12" height="15" fill="#3FE844" fill-opacity="0.2"/>
<rect x="1360" y="91.5" width="12" height="15" fill="#3FE844" fill-opacity="0.05"/>
<rect x="1360" y="110.5" width="12" height="38" fill="#3FE844" fill-opacity="0.05"/>
<rect x="1360" y="152.5" width="12" height="25" fill="#3FE844" fill-opacity="0.1"/>
<rect x="1376" y="40.5" width="12" height="38" fill="#3FE844" fill-opacity="0.05"/>
<rect x="1376" y="82.5" width="12" height="38" fill="#3FE844" fill-opacity="0.05"/>
<rect x="1376" y="124.5" width="12" height="20" fill="#3FE844" fill-opacity="0.05"/>
<rect x="1376" y="148.5" width="12" height="38" fill="#3FE844" fill-opacity="0.2"/>
<rect x="1392" y="40" width="12" height="38" fill="#3FE844" fill-opacity="0.05"/>
<rect x="1392" y="82" width="12" height="38" fill="#3FE844" fill-opacity="0.05"/>
<rect x="1392" y="124" width="12" height="38" fill="#3FE844" fill-opacity="0.05"/>
<rect x="1392" y="166" width="12" height="38" fill="#3FE844" fill-opacity="0.05"/>
</svg>
