<svg width="441" height="300" viewBox="0 0 441 300" fill="none" xmlns="http://www.w3.org/2000/svg">
<rect width="440" height="300" transform="translate(0.286316)" fill="#FAFAFA"/>
<path d="M30.334 173.645L0.286316 194.537V299H315.286V159.934L279.73 144.264L247.679 141L212.623 177.562L189.587 173.645L153.53 201.719L135 182.132L103.45 159.934L62.8857 182.132L30.334 173.645Z" fill="#3981FF" fill-opacity="0.05"/>
<path d="M0.286316 194.785L30.334 173.796L62.8857 182.323L103.45 160.022L135 182.323L153.53 202L189.587 173.796L212.623 177.731L247.679 141L279.73 144.28L315.286 160.022" stroke="#3981FF"/>
<path d="M315.286 160L368.075 74.6161L405.924 70.0536L440.286 14" stroke="#3FE844" stroke-dasharray="6 6"/>
<path d="M368.075 74.726L315.286 160.265V300H440.286V14L405.924 70.1553L368.075 74.726Z" fill="#3FE844" fill-opacity="0.05"/>
<rect x="27.2863" y="37.5" width="9" height="9" fill="#3981FF"/>
<path d="M53.7125 30.5H52.4795C52.4066 30.1454 52.279 29.8338 52.0967 29.5653C51.9177 29.2969 51.699 29.0715 51.4404 28.8892C51.1852 28.7036 50.9018 28.5644 50.5903 28.4716C50.2787 28.3788 49.9539 28.3324 49.6159 28.3324C48.9994 28.3324 48.4409 28.4882 47.9404 28.7997C47.4433 29.1113 47.0472 29.5703 46.7522 30.1768C46.4606 30.7834 46.3147 31.5275 46.3147 32.4091C46.3147 33.2907 46.4606 34.0348 46.7522 34.6413C47.0472 35.2479 47.4433 35.7069 47.9404 36.0185C48.4409 36.33 48.9994 36.4858 49.6159 36.4858C49.9539 36.4858 50.2787 36.4394 50.5903 36.3466C50.9018 36.2538 51.1852 36.1162 51.4404 35.9339C51.699 35.7483 51.9177 35.5213 52.0967 35.2528C52.279 34.9811 52.4066 34.6695 52.4795 34.3182H53.7125C53.6196 34.8385 53.4506 35.3042 53.2054 35.7152C52.9601 36.1262 52.6552 36.4759 52.2906 36.7642C51.926 37.0492 51.5167 37.2663 51.0626 37.4155C50.6118 37.5646 50.1296 37.6392 49.6159 37.6392C48.7475 37.6392 47.9752 37.4271 47.2991 37.0028C46.623 36.5786 46.091 35.9754 45.7032 35.1932C45.3154 34.411 45.1215 33.483 45.1215 32.4091C45.1215 31.3352 45.3154 30.4072 45.7032 29.625C46.091 28.8428 46.623 28.2396 47.2991 27.8153C47.9752 27.3911 48.7475 27.179 49.6159 27.179C50.1296 27.179 50.6118 27.2536 51.0626 27.4027C51.5167 27.5518 51.926 27.7706 52.2906 28.0589C52.6552 28.344 52.9601 28.692 53.2054 29.103C53.4506 29.5107 53.6196 29.9763 53.7125 30.5ZM60.1482 34.3778V29.8636H61.3215V37.5H60.1482V36.2074H60.0687C59.8897 36.5952 59.6113 36.925 59.2335 37.1967C58.8556 37.4652 58.3783 37.5994 57.8016 37.5994C57.3244 37.5994 56.9001 37.495 56.5289 37.2862C56.1577 37.0741 55.866 36.7559 55.6539 36.3317C55.4418 35.9041 55.3357 35.3655 55.3357 34.7159V29.8636H56.509V34.6364C56.509 35.1932 56.6648 35.6373 56.9764 35.9688C57.2912 36.3002 57.6923 36.4659 58.1795 36.4659C58.4711 36.4659 58.7678 36.3913 59.0694 36.2422C59.3743 36.093 59.6295 35.8643 59.835 35.5561C60.0438 35.2479 60.1482 34.8551 60.1482 34.3778ZM63.2605 37.5V29.8636H64.394V31.017H64.4736C64.6128 30.6392 64.8647 30.3326 65.2292 30.0973C65.5938 29.862 66.0048 29.7443 66.4622 29.7443C66.5484 29.7443 66.6561 29.746 66.7854 29.7493C66.9146 29.7526 67.0124 29.7576 67.0787 29.7642V30.9574C67.0389 30.9474 66.9478 30.9325 66.8052 30.9126C66.666 30.8894 66.5185 30.8778 66.3628 30.8778C65.9916 30.8778 65.6601 30.9557 65.3684 31.1115C65.0801 31.264 64.8514 31.4761 64.6824 31.7479C64.5166 32.0163 64.4338 32.3229 64.4338 32.6676V37.5H63.2605ZM68.2595 37.5V29.8636H69.393V31.017H69.4725C69.6118 30.6392 69.8636 30.3326 70.2282 30.0973C70.5928 29.862 71.0038 29.7443 71.4612 29.7443C71.5474 29.7443 71.6551 29.746 71.7843 29.7493C71.9136 29.7526 72.0114 29.7576 72.0777 29.7642V30.9574C72.0379 30.9474 71.9467 30.9325 71.8042 30.9126C71.665 30.8894 71.5175 30.8778 71.3618 30.8778C70.9905 30.8778 70.6591 30.9557 70.3674 31.1115C70.0791 31.264 69.8504 31.4761 69.6814 31.7479C69.5156 32.0163 69.4328 32.3229 69.4328 32.6676V37.5H68.2595ZM76.2277 37.6591C75.4919 37.6591 74.8572 37.4967 74.3236 37.1719C73.7933 36.8438 73.384 36.3864 73.0956 35.7997C72.8106 35.2098 72.6681 34.5237 72.6681 33.7415C72.6681 32.9593 72.8106 32.2699 73.0956 31.6733C73.384 31.0734 73.785 30.6061 74.2988 30.2713C74.8158 29.9332 75.419 29.7642 76.1084 29.7642C76.5062 29.7642 76.8989 29.8305 77.2867 29.9631C77.6745 30.0956 78.0275 30.3111 78.3456 30.6094C78.6638 30.9044 78.9174 31.2955 79.1063 31.7827C79.2952 32.2699 79.3897 32.8698 79.3897 33.5824V34.0795H73.5033V33.0653H78.1965C78.1965 32.6345 78.1103 32.25 77.938 31.9119C77.7689 31.5739 77.527 31.3071 77.2121 31.1115C76.9006 30.916 76.5327 30.8182 76.1084 30.8182C75.6411 30.8182 75.2367 30.9342 74.8954 31.1662C74.5573 31.3949 74.2971 31.6932 74.1148 32.0611C73.9325 32.429 73.8414 32.8234 73.8414 33.2443V33.9205C73.8414 34.4972 73.9408 34.986 74.1397 35.3871C74.3419 35.7848 74.6219 36.0881 74.9799 36.2969C75.3378 36.5024 75.7538 36.6051 76.2277 36.6051C76.536 36.6051 76.8144 36.562 77.063 36.4759C77.3149 36.3864 77.532 36.2538 77.7142 36.0781C77.8965 35.8991 78.0374 35.6771 78.1368 35.4119L79.2704 35.7301C79.151 36.1146 78.9505 36.4527 78.6688 36.7443C78.3871 37.0327 78.0391 37.258 77.6248 37.4205C77.2105 37.5795 76.7448 37.6591 76.2277 37.6591ZM82.1378 32.9062V37.5H80.9645V29.8636H82.098V31.0568H82.1974C82.3764 30.669 82.6482 30.3575 83.0128 30.1222C83.3774 29.8835 83.848 29.7642 84.4247 29.7642C84.9418 29.7642 85.3942 29.8703 85.7819 30.0824C86.1697 30.2912 86.4713 30.6094 86.6868 31.0369C86.9022 31.4612 87.0099 31.9981 87.0099 32.6477V37.5H85.8366V32.7273C85.8366 32.1274 85.6809 31.66 85.3693 31.3253C85.0578 30.9872 84.6302 30.8182 84.0866 30.8182C83.7121 30.8182 83.3774 30.8994 83.0824 31.0618C82.7907 31.2242 82.5604 31.4612 82.3913 31.7727C82.2223 32.0843 82.1378 32.4621 82.1378 32.9062ZM92.265 29.8636V30.858H88.3076V29.8636H92.265ZM89.461 28.0341H90.6343V35.3125C90.6343 35.6439 90.6823 35.8925 90.7784 36.0582C90.8779 36.2206 91.0038 36.33 91.1563 36.3864C91.3121 36.4394 91.4761 36.4659 91.6485 36.4659C91.7777 36.4659 91.8838 36.4593 91.9667 36.446C92.0495 36.4295 92.1158 36.4162 92.1655 36.4062L92.4042 37.4602C92.3246 37.4901 92.2136 37.5199 92.0711 37.5497C91.9285 37.5829 91.7479 37.5994 91.5292 37.5994C91.1977 37.5994 90.8729 37.5282 90.5547 37.3857C90.2399 37.2431 89.978 37.026 89.7692 36.7344C89.5637 36.4427 89.461 36.0748 89.461 35.6307V28.0341Z" fill="black"/>
<path d="M47.9852 57.6193C47.4 57.6193 46.8829 57.5156 46.434 57.3082C45.988 57.098 45.64 56.8097 45.39 56.4432C45.14 56.0739 45.0164 55.6534 45.0193 55.1818C45.0164 54.8125 45.0889 54.4716 45.2366 54.1591C45.3843 53.8437 45.586 53.581 45.8417 53.3707C46.1002 53.1577 46.3886 53.0227 46.7068 52.9659V52.9148C46.2892 52.8068 45.9568 52.5724 45.7096 52.2116C45.4625 51.848 45.3403 51.4347 45.3431 50.9716C45.3403 50.5284 45.4525 50.1321 45.6798 49.7827C45.9071 49.4332 46.2196 49.1577 46.6173 48.956C47.0179 48.7543 47.4738 48.6534 47.9852 48.6534C48.4909 48.6534 48.9426 48.7543 49.3403 48.956C49.738 49.1577 50.0505 49.4332 50.2778 49.7827C50.5079 50.1321 50.6244 50.5284 50.6272 50.9716C50.6244 51.4347 50.498 51.848 50.248 52.2116C50.0008 52.5724 49.6727 52.8068 49.2636 52.9148V52.9659C49.5789 53.0227 49.863 53.1577 50.1159 53.3707C50.3687 53.581 50.5704 53.8437 50.721 54.1591C50.8715 54.4716 50.9482 54.8125 50.9511 55.1818C50.9482 55.6534 50.8204 56.0739 50.5676 56.4432C50.3176 56.8097 49.9696 57.098 49.5235 57.3082C49.0804 57.5156 48.5676 57.6193 47.9852 57.6193ZM47.9852 56.6818C48.3801 56.6818 48.721 56.6179 49.0079 56.4901C49.2948 56.3622 49.5164 56.1818 49.6727 55.9489C49.8289 55.7159 49.9085 55.4432 49.9113 55.1307C49.9085 54.8011 49.8232 54.5099 49.6556 54.2571C49.488 54.0043 49.2593 53.8054 48.9696 53.6605C48.6826 53.5156 48.3545 53.4432 47.9852 53.4432C47.613 53.4432 47.2806 53.5156 46.988 53.6605C46.6982 53.8054 46.4696 54.0043 46.3019 54.2571C46.1372 54.5099 46.0562 54.8011 46.059 55.1307C46.0562 55.4432 46.1315 55.7159 46.2849 55.9489C46.4411 56.1818 46.6642 56.3622 46.9539 56.4901C47.2437 56.6179 47.5875 56.6818 47.9852 56.6818ZM47.9852 52.5398C48.2977 52.5398 48.5747 52.4773 48.8161 52.3523C49.0605 52.2273 49.2522 52.0526 49.3914 51.8281C49.5306 51.6037 49.6017 51.3409 49.6045 51.0398C49.6017 50.7443 49.5321 50.4872 49.3957 50.2685C49.2593 50.0469 49.0704 49.8764 48.8289 49.7571C48.5875 49.6349 48.3062 49.5739 47.9852 49.5739C47.6585 49.5739 47.373 49.6349 47.1286 49.7571C46.8843 49.8764 46.6954 50.0469 46.5619 50.2685C46.4284 50.4872 46.363 50.7443 46.3659 51.0398C46.363 51.3409 46.4298 51.6037 46.5661 51.8281C46.7054 52.0526 46.8971 52.2273 47.1414 52.3523C47.3857 52.4773 47.667 52.5398 47.9852 52.5398ZM55.1827 48.6534C55.5406 48.6562 55.8986 48.7244 56.2565 48.858C56.6145 48.9915 56.9412 49.2131 57.2366 49.5227C57.5321 49.8295 57.7693 50.2486 57.9483 50.7798C58.1273 51.3111 58.2168 51.9773 58.2168 52.7784C58.2168 53.554 58.1429 54.2429 57.9952 54.8452C57.8503 55.4446 57.6401 55.9503 57.3645 56.3622C57.0918 56.7741 56.7594 57.0866 56.3673 57.2997C55.9781 57.5128 55.5378 57.6193 55.0463 57.6193C54.5577 57.6193 54.1216 57.5227 53.7381 57.3295C53.3574 57.1335 53.0449 56.8622 52.8006 56.5156C52.5591 56.1662 52.4043 55.7614 52.3361 55.3011H53.3758C53.4696 55.7017 53.6557 56.0327 53.9341 56.294C54.2153 56.5526 54.5861 56.6818 55.0463 56.6818C55.7196 56.6818 56.2508 56.3878 56.6401 55.7997C57.0321 55.2116 57.2281 54.3807 57.2281 53.3068H57.1599C57.0008 53.5455 56.8119 53.7514 56.5932 53.9247C56.3744 54.098 56.1315 54.2315 55.8645 54.3253C55.5974 54.419 55.3133 54.4659 55.0122 54.4659C54.5122 54.4659 54.0534 54.3423 53.6358 54.0952C53.221 53.8452 52.8886 53.5028 52.6386 53.0682C52.3915 52.6307 52.2679 52.1307 52.2679 51.5682C52.2679 51.0341 52.3872 50.5455 52.6258 50.1023C52.8673 49.6562 53.2054 49.3011 53.6401 49.0369C54.0776 48.7727 54.5918 48.6449 55.1827 48.6534ZM55.1827 49.5909C54.8247 49.5909 54.5023 49.6804 54.2153 49.8594C53.9312 50.0355 53.7054 50.2741 53.5378 50.5753C53.373 50.8736 53.2906 51.2045 53.2906 51.5682C53.2906 51.9318 53.3702 52.2628 53.5293 52.5611C53.6912 52.8565 53.9114 53.0923 54.1898 53.2685C54.471 53.4418 54.7906 53.5284 55.1486 53.5284C55.4185 53.5284 55.6699 53.4759 55.9028 53.3707C56.1358 53.2628 56.3389 53.1165 56.5122 52.9318C56.6883 52.7443 56.8261 52.5327 56.9256 52.2969C57.025 52.0582 57.0747 51.8097 57.0747 51.5511C57.0747 51.2102 56.9923 50.8906 56.8276 50.5923C56.6656 50.294 56.4412 50.0526 56.1543 49.8679C55.8702 49.6832 55.5463 49.5909 55.1827 49.5909ZM60.9249 56.3068L60.8567 56.767C60.8084 57.0909 60.7346 57.4375 60.6351 57.8068C60.5385 58.1761 60.4377 58.5241 60.3326 58.8509C60.2275 59.1776 60.1408 59.4375 60.0726 59.6307H59.3056C59.3425 59.4489 59.3908 59.2088 59.4505 58.9105C59.5101 58.6122 59.5698 58.2784 59.6294 57.9091C59.6919 57.5426 59.7431 57.1676 59.7829 56.7841L59.834 56.3068H60.9249ZM65.2119 57.6193C64.6494 57.6193 64.1479 57.5227 63.7076 57.3295C63.2701 57.1364 62.9221 56.8679 62.6636 56.5241C62.4079 56.1776 62.2687 55.7756 62.246 55.3182H63.3198C63.3426 55.5994 63.4391 55.8423 63.6096 56.0469C63.7801 56.2486 64.0031 56.4048 64.2786 56.5156C64.5542 56.6264 64.8596 56.6818 65.1948 56.6818C65.5698 56.6818 65.9022 56.6165 66.192 56.4858C66.4818 56.3551 66.709 56.1733 66.8738 55.9403C67.0386 55.7074 67.121 55.4375 67.121 55.1307C67.121 54.8097 67.0414 54.527 66.8823 54.2827C66.7232 54.0355 66.4903 53.8423 66.1835 53.7031C65.8766 53.5639 65.5016 53.4943 65.0585 53.4943H64.3596V52.5568H65.0585C65.4051 52.5568 65.709 52.4943 65.9704 52.3693C66.2346 52.2443 66.4406 52.0682 66.5883 51.8409C66.7389 51.6136 66.8141 51.3466 66.8141 51.0398C66.8141 50.7443 66.7488 50.4872 66.6181 50.2685C66.4874 50.0497 66.3028 49.8793 66.0641 49.7571C65.8283 49.6349 65.5499 49.5739 65.2289 49.5739C64.9278 49.5739 64.6437 49.6293 64.3766 49.7401C64.1124 49.848 63.8965 50.0057 63.7289 50.2131C63.5613 50.4176 63.4704 50.6648 63.4562 50.9545H62.4335C62.4505 50.4972 62.5883 50.0966 62.8468 49.7528C63.1053 49.4062 63.4434 49.1364 63.861 48.9432C64.2815 48.75 64.7431 48.6534 65.246 48.6534C65.7857 48.6534 66.2488 48.7628 66.6352 48.9815C67.0215 49.1974 67.3184 49.483 67.5258 49.8381C67.7332 50.1932 67.8369 50.5767 67.8369 50.9886C67.8369 51.4801 67.7076 51.8991 67.4491 52.2457C67.1934 52.5923 66.8454 52.8324 66.4051 52.9659V53.0341C66.9562 53.125 67.3866 53.3594 67.6962 53.7372C68.0059 54.1122 68.1607 54.5767 68.1607 55.1307C68.1607 55.6051 68.0315 56.0312 67.7729 56.4091C67.5173 56.7841 67.1678 57.0795 66.7247 57.2955C66.2815 57.5114 65.7772 57.6193 65.2119 57.6193ZM72.502 48.6534C72.86 48.6562 73.218 48.7244 73.5759 48.858C73.9339 48.9915 74.2606 49.2131 74.556 49.5227C74.8515 49.8295 75.0887 50.2486 75.2677 50.7798C75.4466 51.3111 75.5361 51.9773 75.5361 52.7784C75.5361 53.554 75.4623 54.2429 75.3145 54.8452C75.1697 55.4446 74.9594 55.9503 74.6839 56.3622C74.4111 56.7741 74.0787 57.0866 73.6867 57.2997C73.2975 57.5128 72.8572 57.6193 72.3657 57.6193C71.877 57.6193 71.441 57.5227 71.0574 57.3295C70.6768 57.1335 70.3643 56.8622 70.1199 56.5156C69.8785 56.1662 69.7236 55.7614 69.6555 55.3011H70.6952C70.789 55.7017 70.9751 56.0327 71.2535 56.294C71.5347 56.5526 71.9055 56.6818 72.3657 56.6818C73.039 56.6818 73.5702 56.3878 73.9594 55.7997C74.3515 55.2116 74.5475 54.3807 74.5475 53.3068H74.4793C74.3202 53.5455 74.1313 53.7514 73.9126 53.9247C73.6938 54.098 73.4509 54.2315 73.1839 54.3253C72.9168 54.419 72.6327 54.4659 72.3316 54.4659C71.8316 54.4659 71.3728 54.3423 70.9552 54.0952C70.5404 53.8452 70.208 53.5028 69.958 53.0682C69.7108 52.6307 69.5873 52.1307 69.5873 51.5682C69.5873 51.0341 69.7066 50.5455 69.9452 50.1023C70.1867 49.6562 70.5248 49.3011 70.9594 49.0369C71.3969 48.7727 71.9111 48.6449 72.502 48.6534ZM72.502 49.5909C72.1441 49.5909 71.8216 49.6804 71.5347 49.8594C71.2506 50.0355 71.0248 50.2741 70.8572 50.5753C70.6924 50.8736 70.61 51.2045 70.61 51.5682C70.61 51.9318 70.6895 52.2628 70.8486 52.5611C71.0106 52.8565 71.2307 53.0923 71.5091 53.2685C71.7904 53.4418 72.11 53.5284 72.468 53.5284C72.7378 53.5284 72.9893 53.4759 73.2222 53.3707C73.4552 53.2628 73.6583 53.1165 73.8316 52.9318C74.0077 52.7443 74.1455 52.5327 74.2449 52.2969C74.3444 52.0582 74.3941 51.8097 74.3941 51.5511C74.3941 51.2102 74.3117 50.8906 74.1469 50.5923C73.985 50.294 73.7606 50.0526 73.4736 49.8679C73.1895 49.6832 72.8657 49.5909 72.502 49.5909ZM76.8274 55.7102V54.8409L80.6626 48.7727H81.2933V50.1193H80.8671L77.9694 54.7045V54.7727H83.1342V55.7102H76.8274ZM80.9353 57.5V55.446V55.0412V48.7727H81.941V57.5H80.9353ZM87.3466 57.6193C86.7614 57.6193 86.2443 57.5156 85.7954 57.3082C85.3494 57.098 85.0014 56.8097 84.7514 56.4432C84.5014 56.0739 84.3778 55.6534 84.3807 55.1818C84.3778 54.8125 84.4503 54.4716 84.598 54.1591C84.7457 53.8437 84.9474 53.581 85.2031 53.3707C85.4616 53.1577 85.75 53.0227 86.0682 52.9659V52.9148C85.6506 52.8068 85.3182 52.5724 85.071 52.2116C84.8239 51.848 84.7017 51.4347 84.7045 50.9716C84.7017 50.5284 84.8139 50.1321 85.0412 49.7827C85.2685 49.4332 85.581 49.1577 85.9787 48.956C86.3793 48.7543 86.8352 48.6534 87.3466 48.6534C87.8523 48.6534 88.304 48.7543 88.7017 48.956C89.0994 49.1577 89.4119 49.4332 89.6392 49.7827C89.8693 50.1321 89.9858 50.5284 89.9886 50.9716C89.9858 51.4347 89.8594 51.848 89.6094 52.2116C89.3622 52.5724 89.0341 52.8068 88.625 52.9148V52.9659C88.9403 53.0227 89.2244 53.1577 89.4773 53.3707C89.7301 53.581 89.9318 53.8437 90.0824 54.1591C90.2329 54.4716 90.3097 54.8125 90.3125 55.1818C90.3097 55.6534 90.1818 56.0739 89.929 56.4432C89.679 56.8097 89.331 57.098 88.8849 57.3082C88.4418 57.5156 87.929 57.6193 87.3466 57.6193ZM87.3466 56.6818C87.7415 56.6818 88.0824 56.6179 88.3693 56.4901C88.6562 56.3622 88.8778 56.1818 89.0341 55.9489C89.1903 55.7159 89.2699 55.4432 89.2727 55.1307C89.2699 54.8011 89.1847 54.5099 89.017 54.2571C88.8494 54.0043 88.6207 53.8054 88.331 53.6605C88.044 53.5156 87.7159 53.4432 87.3466 53.4432C86.9744 53.4432 86.642 53.5156 86.3494 53.6605C86.0597 53.8054 85.831 54.0043 85.6633 54.2571C85.4986 54.5099 85.4176 54.8011 85.4204 55.1307C85.4176 55.4432 85.4929 55.7159 85.6463 55.9489C85.8025 56.1818 86.0256 56.3622 86.3153 56.4901C86.6051 56.6179 86.9489 56.6818 87.3466 56.6818ZM87.3466 52.5398C87.6591 52.5398 87.9361 52.4773 88.1776 52.3523C88.4219 52.2273 88.6136 52.0526 88.7528 51.8281C88.892 51.6037 88.9631 51.3409 88.9659 51.0398C88.9631 50.7443 88.8935 50.4872 88.7571 50.2685C88.6207 50.0469 88.4318 49.8764 88.1903 49.7571C87.9489 49.6349 87.6676 49.5739 87.3466 49.5739C87.0199 49.5739 86.7344 49.6349 86.49 49.7571C86.2457 49.8764 86.0568 50.0469 85.9233 50.2685C85.7898 50.4872 85.7244 50.7443 85.7273 51.0398C85.7244 51.3409 85.7912 51.6037 85.9275 51.8281C86.0668 52.0526 86.2585 52.2273 86.5028 52.3523C86.7472 52.4773 87.0284 52.5398 87.3466 52.5398ZM94.9777 57.5V50.9545H95.9834V57.5H94.9777ZM95.4891 49.8636C95.2931 49.8636 95.124 49.7969 94.982 49.6634C94.8428 49.5298 94.7732 49.3693 94.7732 49.1818C94.7732 48.9943 94.8428 48.8338 94.982 48.7003C95.124 48.5668 95.2931 48.5 95.4891 48.5C95.6851 48.5 95.8527 48.5668 95.9919 48.7003C96.134 48.8338 96.205 48.9943 96.205 49.1818C96.205 49.3693 96.134 49.5298 95.9919 49.6634C95.8527 49.7969 95.6851 49.8636 95.4891 49.8636ZM98.651 53.5625V57.5H97.6454V50.9545H98.617V51.9773H98.7022C98.8556 51.6449 99.0885 51.3778 99.401 51.1761C99.7135 50.9716 100.117 50.8693 100.611 50.8693C101.054 50.8693 101.442 50.9602 101.775 51.142C102.107 51.321 102.366 51.5938 102.55 51.9602C102.735 52.3239 102.827 52.7841 102.827 53.3409V57.5H101.822V53.4091C101.822 52.8949 101.688 52.4943 101.421 52.2074C101.154 51.9176 100.787 51.7727 100.322 51.7727C100 51.7727 99.7135 51.8423 99.4607 51.9815C99.2107 52.1207 99.0133 52.3239 98.8684 52.5909C98.7235 52.858 98.651 53.1818 98.651 53.5625ZM113.032 50.9545L110.612 57.5H109.589L107.169 50.9545H108.259L110.066 56.1705H110.134L111.941 50.9545H113.032ZM116.604 57.6364C116.013 57.6364 115.495 57.4957 115.049 57.2145C114.606 56.9332 114.259 56.5398 114.009 56.0341C113.762 55.5284 113.638 54.9375 113.638 54.2614C113.638 53.5795 113.762 52.9844 114.009 52.4759C114.259 51.9673 114.606 51.5724 115.049 51.2912C115.495 51.0099 116.013 50.8693 116.604 50.8693C117.195 50.8693 117.712 51.0099 118.155 51.2912C118.601 51.5724 118.948 51.9673 119.195 52.4759C119.445 52.9844 119.57 53.5795 119.57 54.2614C119.57 54.9375 119.445 55.5284 119.195 56.0341C118.948 56.5398 118.601 56.9332 118.155 57.2145C117.712 57.4957 117.195 57.6364 116.604 57.6364ZM116.604 56.733C117.053 56.733 117.422 56.6179 117.712 56.3878C118.002 56.1577 118.217 55.8551 118.356 55.4801C118.495 55.1051 118.565 54.6989 118.565 54.2614C118.565 53.8239 118.495 53.4162 118.356 53.0384C118.217 52.6605 118.002 52.3551 117.712 52.1222C117.422 51.8892 117.053 51.7727 116.604 51.7727C116.155 51.7727 115.786 51.8892 115.496 52.1222C115.207 52.3551 114.992 52.6605 114.853 53.0384C114.714 53.4162 114.644 53.8239 114.644 54.2614C114.644 54.6989 114.714 55.1051 114.853 55.4801C114.992 55.8551 115.207 56.1577 115.496 56.3878C115.786 56.6179 116.155 56.733 116.604 56.733ZM121.931 48.7727V57.5H120.925V48.7727H121.931ZM127.718 54.8239V50.9545H128.724V57.5H127.718V56.392H127.65C127.496 56.7244 127.258 57.0071 126.934 57.2401C126.61 57.4702 126.201 57.5852 125.707 57.5852C125.298 57.5852 124.934 57.4957 124.616 57.3168C124.298 57.1349 124.048 56.8622 123.866 56.4986C123.684 56.1321 123.593 55.6705 123.593 55.1136V50.9545H124.599V55.0455C124.599 55.5227 124.732 55.9034 124.999 56.1875C125.269 56.4716 125.613 56.6136 126.031 56.6136C126.281 56.6136 126.535 56.5497 126.793 56.4219C127.055 56.294 127.273 56.098 127.45 55.8338C127.629 55.5696 127.718 55.233 127.718 54.8239ZM130.386 57.5V50.9545H131.357V51.9773H131.442C131.579 51.6278 131.799 51.3565 132.103 51.1634C132.407 50.9673 132.772 50.8693 133.198 50.8693C133.63 50.8693 133.989 50.9673 134.276 51.1634C134.566 51.3565 134.792 51.6278 134.954 51.9773H135.022C135.19 51.6392 135.441 51.3707 135.776 51.1719C136.112 50.9702 136.514 50.8693 136.982 50.8693C137.567 50.8693 138.046 51.0526 138.418 51.419C138.791 51.7827 138.977 52.3494 138.977 53.1193V57.5H137.971V53.1193C137.971 52.6364 137.839 52.2912 137.575 52.0838C137.31 51.8764 136.999 51.7727 136.641 51.7727C136.181 51.7727 135.825 51.9119 135.572 52.1903C135.319 52.4659 135.192 52.8153 135.192 53.2386V57.5H134.17V53.017C134.17 52.6449 134.049 52.3452 133.808 52.1179C133.566 51.8878 133.255 51.7727 132.874 51.7727C132.613 51.7727 132.369 51.8423 132.141 51.9815C131.917 52.1207 131.735 52.3139 131.596 52.5611C131.46 52.8054 131.391 53.0881 131.391 53.4091V57.5H130.386ZM143.38 57.6364C142.749 57.6364 142.205 57.4972 141.748 57.2188C141.293 56.9375 140.942 56.5455 140.695 56.0426C140.451 55.5369 140.329 54.9489 140.329 54.2784C140.329 53.608 140.451 53.017 140.695 52.5057C140.942 51.9915 141.286 51.5909 141.726 51.304C142.169 51.0142 142.687 50.8693 143.277 50.8693C143.618 50.8693 143.955 50.9261 144.287 51.0398C144.62 51.1534 144.922 51.3381 145.195 51.5938C145.468 51.8466 145.685 52.1818 145.847 52.5994C146.009 53.017 146.09 53.5312 146.09 54.142V54.5682H141.044V53.6989H145.067C145.067 53.3295 144.993 53 144.846 52.7102C144.701 52.4205 144.493 52.1918 144.223 52.0241C143.956 51.8565 143.641 51.7727 143.277 51.7727C142.877 51.7727 142.53 51.8722 142.238 52.071C141.948 52.267 141.725 52.5227 141.569 52.8381C141.412 53.1534 141.334 53.4915 141.334 53.8523V54.4318C141.334 54.9261 141.419 55.3452 141.59 55.6889C141.763 56.0298 142.003 56.2898 142.31 56.4688C142.617 56.6449 142.973 56.733 143.38 56.733C143.644 56.733 143.883 56.696 144.096 56.6222C144.312 56.5455 144.498 56.4318 144.654 56.2812C144.81 56.1278 144.931 55.9375 145.016 55.7102L145.988 55.983C145.885 56.3125 145.713 56.6023 145.472 56.8523C145.231 57.0994 144.932 57.2926 144.577 57.4318C144.222 57.5682 143.823 57.6364 143.38 57.6364Z" fill="black" fill-opacity="0.6"/>
<rect x="27.2863" y="86.5" width="9" height="9" fill="#3FE844"/>
<path d="M45.5193 86.5V76.3182H48.9596C49.7584 76.3182 50.4113 76.4624 50.9184 76.7507C51.4288 77.0357 51.8067 77.4219 52.0519 77.9091C52.2972 78.3963 52.4198 78.9399 52.4198 79.5398C52.4198 80.1397 52.2972 80.6849 52.0519 81.1754C51.81 81.666 51.4355 82.0571 50.9284 82.3487C50.4213 82.6371 49.7716 82.7812 48.9795 82.7812H46.5136V81.6875H48.9397C49.4866 81.6875 49.9258 81.593 50.2572 81.4041C50.5886 81.2152 50.8289 80.96 50.9781 80.6385C51.1305 80.3137 51.2068 79.9474 51.2068 79.5398C51.2068 79.1321 51.1305 78.7675 50.9781 78.446C50.8289 78.1245 50.587 77.8726 50.2522 77.6903C49.9175 77.5047 49.4733 77.4119 48.9198 77.4119H46.7522V86.5H45.5193ZM54.0369 86.5V78.8636H55.1704V80.017H55.25C55.3892 79.6392 55.6411 79.3326 56.0056 79.0973C56.3702 78.862 56.7812 78.7443 57.2386 78.7443C57.3248 78.7443 57.4325 78.746 57.5618 78.7493C57.691 78.7526 57.7888 78.7576 57.8551 78.7642V79.9574C57.8153 79.9474 57.7242 79.9325 57.5816 79.9126C57.4424 79.8894 57.2949 79.8778 57.1392 79.8778C56.768 79.8778 56.4365 79.9557 56.1449 80.1115C55.8565 80.264 55.6278 80.4761 55.4588 80.7479C55.2931 81.0163 55.2102 81.3229 55.2102 81.6676V86.5H54.0369ZM62.0052 86.6591C61.2694 86.6591 60.6347 86.4967 60.101 86.1719C59.5707 85.8438 59.1614 85.3864 58.8731 84.7997C58.588 84.2098 58.4455 83.5237 58.4455 82.7415C58.4455 81.9593 58.588 81.2699 58.8731 80.6733C59.1614 80.0734 59.5625 79.6061 60.0762 79.2713C60.5932 78.9332 61.1965 78.7642 61.8858 78.7642C62.2836 78.7642 62.6763 78.8305 63.0641 78.9631C63.4519 79.0956 63.8049 79.3111 64.1231 79.6094C64.4412 79.9044 64.6948 80.2955 64.8837 80.7827C65.0726 81.2699 65.1671 81.8698 65.1671 82.5824V83.0795H59.2807V82.0653H63.9739C63.9739 81.6345 63.8877 81.25 63.7154 80.9119C63.5464 80.5739 63.3044 80.3071 62.9895 80.1115C62.678 79.916 62.3101 79.8182 61.8858 79.8182C61.4185 79.8182 61.0142 79.9342 60.6728 80.1662C60.3347 80.3949 60.0745 80.6932 59.8922 81.0611C59.7099 81.429 59.6188 81.8234 59.6188 82.2443V82.9205C59.6188 83.4972 59.7182 83.986 59.9171 84.3871C60.1193 84.7848 60.3993 85.0881 60.7573 85.2969C61.1153 85.5024 61.5312 85.6051 62.0052 85.6051C62.3134 85.6051 62.5918 85.562 62.8404 85.4759C63.0923 85.3864 63.3094 85.2538 63.4917 85.0781C63.674 84.8991 63.8148 84.6771 63.9143 84.4119L65.0478 84.7301C64.9285 85.1146 64.7279 85.4527 64.4462 85.7443C64.1645 86.0327 63.8165 86.258 63.4022 86.4205C62.9879 86.5795 62.5222 86.6591 62.0052 86.6591ZM69.6254 86.6591C68.9891 86.6591 68.4273 86.4983 67.9401 86.1768C67.4528 85.852 67.0717 85.3946 66.7966 84.8047C66.5215 84.2114 66.3839 83.5104 66.3839 82.7017C66.3839 81.8996 66.5215 81.2036 66.7966 80.6136C67.0717 80.0237 67.4545 79.5679 67.945 79.2464C68.4356 78.925 69.0023 78.7642 69.6453 78.7642C70.1425 78.7642 70.5352 78.8471 70.8236 79.0128C71.1152 79.1752 71.3373 79.3608 71.4898 79.5696C71.6455 79.7751 71.7665 79.9441 71.8527 80.0767H71.9521V76.3182H73.1254V86.5H71.9919V85.3267H71.8527C71.7665 85.4659 71.6439 85.6416 71.4848 85.8537C71.3257 86.0625 71.0987 86.2498 70.8037 86.4155C70.5087 86.5779 70.116 86.6591 69.6254 86.6591ZM69.7845 85.6051C70.2552 85.6051 70.6529 85.4825 70.9777 85.2372C71.3025 84.9886 71.5494 84.6456 71.7185 84.2081C71.8875 83.7673 71.972 83.2585 71.972 82.6818C71.972 82.1117 71.8892 81.6129 71.7234 81.1854C71.5577 80.7545 71.3124 80.4197 70.9876 80.1811C70.6628 79.9392 70.2618 79.8182 69.7845 79.8182C69.2874 79.8182 68.8731 79.9458 68.5416 80.201C68.2135 80.4529 67.9666 80.7959 67.8008 81.2301C67.6384 81.661 67.5572 82.1449 67.5572 82.6818C67.5572 83.2254 67.6401 83.7192 67.8058 84.1634C67.9749 84.6042 68.2234 84.9555 68.5516 85.2173C68.883 85.4759 69.294 85.6051 69.7845 85.6051ZM75.2272 86.5V78.8636H76.4005V86.5H75.2272ZM75.8238 77.5909C75.5951 77.5909 75.3979 77.513 75.2322 77.3572C75.0698 77.2015 74.9886 77.0142 74.9886 76.7955C74.9886 76.5767 75.0698 76.3894 75.2322 76.2337C75.3979 76.0779 75.5951 76 75.8238 76C76.0525 76 76.248 76.0779 76.4104 76.2337C76.5762 76.3894 76.659 76.5767 76.659 76.7955C76.659 77.0142 76.5762 77.2015 76.4104 77.3572C76.248 77.513 76.0525 77.5909 75.8238 77.5909ZM81.4418 86.6591C80.7258 86.6591 80.1094 86.4901 79.5923 86.152C79.0753 85.8139 78.6775 85.3482 78.3991 84.755C78.1207 84.1617 77.9815 83.4839 77.9815 82.7216C77.9815 81.946 78.124 81.2616 78.4091 80.6683C78.6974 80.0717 79.0985 79.6061 79.6122 79.2713C80.1293 78.9332 80.7325 78.7642 81.4219 78.7642C81.9588 78.7642 82.4427 78.8636 82.8736 79.0625C83.3044 79.2614 83.6574 79.5398 83.9325 79.8977C84.2076 80.2557 84.3783 80.6733 84.4446 81.1506H83.2713C83.1818 80.8026 82.9829 80.4943 82.6747 80.2259C82.3698 79.9541 81.9588 79.8182 81.4418 79.8182C80.9844 79.8182 80.5833 79.9375 80.2386 80.1761C79.8972 80.4115 79.6304 80.7446 79.4382 81.1754C79.2493 81.603 79.1548 82.1051 79.1548 82.6818C79.1548 83.2718 79.2476 83.7855 79.4332 84.223C79.6221 84.6605 79.8873 85.0002 80.2287 85.2422C80.5734 85.4841 80.9777 85.6051 81.4418 85.6051C81.7467 85.6051 82.0234 85.5521 82.272 85.446C82.5206 85.34 82.731 85.1875 82.9034 84.9886C83.0757 84.7898 83.1984 84.5511 83.2713 84.2727H84.4446C84.3783 84.7235 84.2142 85.1295 83.9524 85.4908C83.6939 85.8487 83.3508 86.1338 82.9233 86.3459C82.499 86.5547 82.0052 86.6591 81.4418 86.6591ZM89.2708 78.8636V79.858H85.3134V78.8636H89.2708ZM86.4668 77.0341H87.6401V84.3125C87.6401 84.6439 87.6882 84.8925 87.7843 85.0582C87.8837 85.2206 88.0097 85.33 88.1621 85.3864C88.3179 85.4394 88.482 85.4659 88.6543 85.4659C88.7836 85.4659 88.8897 85.4593 88.9725 85.446C89.0554 85.4295 89.1217 85.4162 89.1714 85.4062L89.41 86.4602C89.3305 86.4901 89.2194 86.5199 89.0769 86.5497C88.9344 86.5829 88.7538 86.5994 88.535 86.5994C88.2036 86.5994 87.8788 86.5282 87.5606 86.3857C87.2457 86.2431 86.9839 86.026 86.7751 85.7344C86.5696 85.4427 86.4668 85.0748 86.4668 84.6307V77.0341ZM93.9454 86.6591C93.2096 86.6591 92.5749 86.4967 92.0413 86.1719C91.511 85.8438 91.1016 85.3864 90.8133 84.7997C90.5283 84.2098 90.3857 83.5237 90.3857 82.7415C90.3857 81.9593 90.5283 81.2699 90.8133 80.6733C91.1016 80.0734 91.5027 79.6061 92.0164 79.2713C92.5335 78.9332 93.1367 78.7642 93.8261 78.7642C94.2238 78.7642 94.6166 78.8305 95.0043 78.9631C95.3921 79.0956 95.7451 79.3111 96.0633 79.6094C96.3815 79.9044 96.635 80.2955 96.824 80.7827C97.0129 81.2699 97.1073 81.8698 97.1073 82.5824V83.0795H91.221V82.0653H95.9141C95.9141 81.6345 95.828 81.25 95.6556 80.9119C95.4866 80.5739 95.2446 80.3071 94.9298 80.1115C94.6182 79.916 94.2503 79.8182 93.8261 79.8182C93.3588 79.8182 92.9544 79.9342 92.613 80.1662C92.2749 80.3949 92.0148 80.6932 91.8325 81.0611C91.6502 81.429 91.559 81.8234 91.559 82.2443V82.9205C91.559 83.4972 91.6585 83.986 91.8573 84.3871C92.0595 84.7848 92.3396 85.0881 92.6975 85.2969C93.0555 85.5024 93.4714 85.6051 93.9454 85.6051C94.2536 85.6051 94.532 85.562 94.7806 85.4759C95.0325 85.3864 95.2496 85.2538 95.4319 85.0781C95.6142 84.8991 95.7551 84.6771 95.8545 84.4119L96.988 84.7301C96.8687 85.1146 96.6682 85.4527 96.3864 85.7443C96.1047 86.0327 95.7567 86.258 95.3424 86.4205C94.9281 86.5795 94.4624 86.6591 93.9454 86.6591ZM101.566 86.6591C100.929 86.6591 100.368 86.4983 99.8803 86.1768C99.3931 85.852 99.0119 85.3946 98.7368 84.8047C98.4617 84.2114 98.3242 83.5104 98.3242 82.7017C98.3242 81.8996 98.4617 81.2036 98.7368 80.6136C99.0119 80.0237 99.3947 79.5679 99.8853 79.2464C100.376 78.925 100.943 78.7642 101.586 78.7642C102.083 78.7642 102.475 78.8471 102.764 79.0128C103.055 79.1752 103.278 79.3608 103.43 79.5696C103.586 79.7751 103.707 79.9441 103.793 80.0767H103.892V76.3182H105.066V86.5H103.932V85.3267H103.793C103.707 85.4659 103.584 85.6416 103.425 85.8537C103.266 86.0625 103.039 86.2498 102.744 86.4155C102.449 86.5779 102.056 86.6591 101.566 86.6591ZM101.725 85.6051C102.195 85.6051 102.593 85.4825 102.918 85.2372C103.243 84.9886 103.49 84.6456 103.659 84.2081C103.828 83.7673 103.912 83.2585 103.912 82.6818C103.912 82.1117 103.829 81.6129 103.664 81.1854C103.498 80.7545 103.253 80.4197 102.928 80.1811C102.603 79.9392 102.202 79.8182 101.725 79.8182C101.228 79.8182 100.813 79.9458 100.482 80.201C100.154 80.4529 99.9068 80.7959 99.7411 81.2301C99.5787 81.661 99.4975 82.1449 99.4975 82.6818C99.4975 83.2254 99.5803 83.7192 99.7461 84.1634C99.9151 84.6042 100.164 84.9555 100.492 85.2173C100.823 85.4759 101.234 85.6051 101.725 85.6051Z" fill="black"/>
<path d="M45.1897 106.5V105.733L48.0704 102.58C48.4085 102.21 48.6869 101.889 48.9056 101.616C49.1244 101.341 49.2863 101.082 49.3914 100.841C49.4994 100.597 49.5534 100.341 49.5534 100.074C49.5534 99.767 49.4795 99.5014 49.3318 99.277C49.1869 99.0526 48.988 98.8793 48.7352 98.7571C48.4823 98.6349 48.1982 98.5739 47.8829 98.5739C47.5477 98.5739 47.2551 98.6435 47.0051 98.7827C46.7579 98.919 46.5661 99.1108 46.4298 99.358C46.2963 99.6051 46.2295 99.8949 46.2295 100.227H45.2238C45.2238 99.7159 45.3417 99.267 45.5775 98.8807C45.8133 98.4943 46.1343 98.1932 46.5406 97.9773C46.9497 97.7614 47.4085 97.6534 47.917 97.6534C48.4284 97.6534 48.8815 97.7614 49.2764 97.9773C49.6713 98.1932 49.9809 98.4844 50.2054 98.8509C50.4298 99.2173 50.542 99.625 50.542 100.074C50.542 100.395 50.4838 100.709 50.3673 101.016C50.2536 101.32 50.0548 101.659 49.7707 102.034C49.4894 102.406 49.0988 102.861 48.5988 103.398L46.6386 105.494V105.562H50.6954V106.5H45.1897ZM55.0538 97.6534C55.4117 97.6562 55.7697 97.7244 56.1276 97.858C56.4856 97.9915 56.8123 98.2131 57.1077 98.5227C57.4032 98.8295 57.6404 99.2486 57.8194 99.7798C57.9984 100.311 58.0879 100.977 58.0879 101.778C58.0879 102.554 58.014 103.243 57.8663 103.845C57.7214 104.445 57.5111 104.95 57.2356 105.362C56.9629 105.774 56.6305 106.087 56.2384 106.3C55.8492 106.513 55.4089 106.619 54.9174 106.619C54.4288 106.619 53.9927 106.523 53.6092 106.33C53.2285 106.134 52.916 105.862 52.6717 105.516C52.4302 105.166 52.2754 104.761 52.2072 104.301H53.2469C53.3407 104.702 53.5268 105.033 53.8052 105.294C54.0864 105.553 54.4572 105.682 54.9174 105.682C55.5907 105.682 56.1219 105.388 56.5111 104.8C56.9032 104.212 57.0992 103.381 57.0992 102.307H57.031C56.8719 102.545 56.683 102.751 56.4643 102.925C56.2455 103.098 56.0026 103.232 55.7356 103.325C55.4685 103.419 55.1844 103.466 54.8833 103.466C54.3833 103.466 53.9245 103.342 53.5069 103.095C53.0921 102.845 52.7597 102.503 52.5097 102.068C52.2626 101.631 52.139 101.131 52.139 100.568C52.139 100.034 52.2583 99.5455 52.4969 99.1023C52.7384 98.6562 53.0765 98.3011 53.5111 98.0369C53.9486 97.7727 54.4629 97.6449 55.0538 97.6534ZM55.0538 98.5909C54.6958 98.5909 54.3734 98.6804 54.0864 98.8594C53.8023 99.0355 53.5765 99.2741 53.4089 99.5753C53.2441 99.8736 53.1617 100.205 53.1617 100.568C53.1617 100.932 53.2413 101.263 53.4004 101.561C53.5623 101.857 53.7825 102.092 54.0609 102.268C54.3421 102.442 54.6617 102.528 55.0197 102.528C55.2896 102.528 55.541 102.476 55.7739 102.371C56.0069 102.263 56.21 102.116 56.3833 101.932C56.5594 101.744 56.6972 101.533 56.7967 101.297C56.8961 101.058 56.9458 100.81 56.9458 100.551C56.9458 100.21 56.8634 99.8906 56.6986 99.5923C56.5367 99.294 56.3123 99.0526 56.0254 98.8679C55.7413 98.6832 55.4174 98.5909 55.0538 98.5909ZM62.5325 106.619C61.97 106.619 61.4686 106.523 61.0282 106.33C60.5907 106.136 60.2427 105.868 59.9842 105.524C59.7285 105.178 59.5893 104.776 59.5666 104.318H60.6404C60.6632 104.599 60.7598 104.842 60.9302 105.047C61.1007 105.249 61.3237 105.405 61.5993 105.516C61.8748 105.626 62.1802 105.682 62.5154 105.682C62.8904 105.682 63.2228 105.616 63.5126 105.486C63.8024 105.355 64.0297 105.173 64.1944 104.94C64.3592 104.707 64.4416 104.438 64.4416 104.131C64.4416 103.81 64.362 103.527 64.2029 103.283C64.0439 103.036 63.8109 102.842 63.5041 102.703C63.1973 102.564 62.8223 102.494 62.3791 102.494H61.6802V101.557H62.3791C62.7257 101.557 63.0297 101.494 63.291 101.369C63.5552 101.244 63.7612 101.068 63.9089 100.841C64.0595 100.614 64.1348 100.347 64.1348 100.04C64.1348 99.7443 64.0694 99.4872 63.9387 99.2685C63.8081 99.0497 63.6234 98.8793 63.3848 98.7571C63.149 98.6349 62.8706 98.5739 62.5495 98.5739C62.2484 98.5739 61.9643 98.6293 61.6973 98.7401C61.4331 98.848 61.2172 99.0057 61.0495 99.2131C60.8819 99.4176 60.791 99.6648 60.7768 99.9545H59.7541C59.7711 99.4972 59.9089 99.0966 60.1674 98.7528C60.426 98.4062 60.764 98.1364 61.1816 97.9432C61.6021 97.75 62.0637 97.6534 62.5666 97.6534C63.1064 97.6534 63.5694 97.7628 63.9558 97.9815C64.3422 98.1974 64.639 98.483 64.8464 98.8381C65.0538 99.1932 65.1575 99.5767 65.1575 99.9886C65.1575 100.48 65.0282 100.899 64.7697 101.246C64.514 101.592 64.166 101.832 63.7257 101.966V102.034C64.2768 102.125 64.7072 102.359 65.0169 102.737C65.3265 103.112 65.4814 103.577 65.4814 104.131C65.4814 104.605 65.3521 105.031 65.0936 105.409C64.8379 105.784 64.4885 106.08 64.0453 106.295C63.6021 106.511 63.0978 106.619 62.5325 106.619ZM68.2918 105.307L68.2236 105.767C68.1753 106.091 68.1014 106.438 68.002 106.807C67.9054 107.176 67.8046 107.524 67.6994 107.851C67.5943 108.178 67.5077 108.438 67.4395 108.631H66.6725C66.7094 108.449 66.7577 108.209 66.8173 107.911C66.877 107.612 66.9367 107.278 66.9963 106.909C67.0588 106.543 67.11 106.168 67.1497 105.784L67.2009 105.307H68.2918ZM69.7535 104.71V103.841L73.5887 97.7727H74.2194V99.1193H73.7932L70.8955 103.705V103.773H76.0603V104.71H69.7535ZM73.8614 106.5V104.446V104.041V97.7727H74.8671V106.5H73.8614ZM80.2727 106.619C79.6875 106.619 79.1704 106.516 78.7215 106.308C78.2755 106.098 77.9275 105.81 77.6775 105.443C77.4275 105.074 77.3039 104.653 77.3068 104.182C77.3039 103.812 77.3764 103.472 77.5241 103.159C77.6718 102.844 77.8735 102.581 78.1292 102.371C78.3877 102.158 78.6761 102.023 78.9943 101.966V101.915C78.5767 101.807 78.2443 101.572 77.9971 101.212C77.75 100.848 77.6278 100.435 77.6306 99.9716C77.6278 99.5284 77.74 99.1321 77.9673 98.7827C78.1946 98.4332 78.5071 98.1577 78.9048 97.956C79.3053 97.7543 79.7613 97.6534 80.2727 97.6534C80.7784 97.6534 81.2301 97.7543 81.6278 97.956C82.0255 98.1577 82.338 98.4332 82.5653 98.7827C82.7954 99.1321 82.9119 99.5284 82.9147 99.9716C82.9119 100.435 82.7855 100.848 82.5355 101.212C82.2883 101.572 81.9602 101.807 81.5511 101.915V101.966C81.8664 102.023 82.1505 102.158 82.4034 102.371C82.6562 102.581 82.8579 102.844 83.0085 103.159C83.159 103.472 83.2357 103.812 83.2386 104.182C83.2357 104.653 83.1079 105.074 82.8551 105.443C82.6051 105.81 82.2571 106.098 81.811 106.308C81.3678 106.516 80.8551 106.619 80.2727 106.619ZM80.2727 105.682C80.6676 105.682 81.0085 105.618 81.2954 105.49C81.5823 105.362 81.8039 105.182 81.9602 104.949C82.1164 104.716 82.196 104.443 82.1988 104.131C82.196 103.801 82.1107 103.51 81.9431 103.257C81.7755 103.004 81.5468 102.805 81.2571 102.661C80.9701 102.516 80.642 102.443 80.2727 102.443C79.9005 102.443 79.5681 102.516 79.2755 102.661C78.9857 102.805 78.7571 103.004 78.5894 103.257C78.4247 103.51 78.3437 103.801 78.3465 104.131C78.3437 104.443 78.419 104.716 78.5724 104.949C78.7286 105.182 78.9517 105.362 79.2414 105.49C79.5312 105.618 79.875 105.682 80.2727 105.682ZM80.2727 101.54C80.5852 101.54 80.8622 101.477 81.1036 101.352C81.348 101.227 81.5397 101.053 81.6789 100.828C81.8181 100.604 81.8892 100.341 81.892 100.04C81.8892 99.7443 81.8196 99.4872 81.6832 99.2685C81.5468 99.0469 81.3579 98.8764 81.1164 98.7571C80.875 98.6349 80.5937 98.5739 80.2727 98.5739C79.946 98.5739 79.6605 98.6349 79.4161 98.7571C79.1718 98.8764 78.9829 99.0469 78.8494 99.2685C78.7159 99.4872 78.6505 99.7443 78.6534 100.04C78.6505 100.341 78.7173 100.604 78.8536 100.828C78.9928 101.053 79.1846 101.227 79.4289 101.352C79.6732 101.477 79.9545 101.54 80.2727 101.54ZM87.4872 106.619C86.902 106.619 86.3849 106.516 85.9361 106.308C85.49 106.098 85.142 105.81 84.892 105.443C84.642 105.074 84.5185 104.653 84.5213 104.182C84.5185 103.812 84.5909 103.472 84.7386 103.159C84.8864 102.844 85.0881 102.581 85.3437 102.371C85.6023 102.158 85.8906 102.023 86.2088 101.966V101.915C85.7912 101.807 85.4588 101.572 85.2116 101.212C84.9645 100.848 84.8423 100.435 84.8452 99.9716C84.8423 99.5284 84.9545 99.1321 85.1818 98.7827C85.4091 98.4332 85.7216 98.1577 86.1193 97.956C86.5199 97.7543 86.9758 97.6534 87.4872 97.6534C87.9929 97.6534 88.4446 97.7543 88.8423 97.956C89.24 98.1577 89.5525 98.4332 89.7798 98.7827C90.0099 99.1321 90.1264 99.5284 90.1293 99.9716C90.1264 100.435 90 100.848 89.75 101.212C89.5028 101.572 89.1747 101.807 88.7656 101.915V101.966C89.081 102.023 89.365 102.158 89.6179 102.371C89.8707 102.581 90.0724 102.844 90.223 103.159C90.3736 103.472 90.4503 103.812 90.4531 104.182C90.4503 104.653 90.3224 105.074 90.0696 105.443C89.8196 105.81 89.4716 106.098 89.0256 106.308C88.5824 106.516 88.0696 106.619 87.4872 106.619ZM87.4872 105.682C87.8821 105.682 88.223 105.618 88.5099 105.49C88.7969 105.362 89.0185 105.182 89.1747 104.949C89.331 104.716 89.4105 104.443 89.4133 104.131C89.4105 103.801 89.3253 103.51 89.1577 103.257C88.9901 103.004 88.7614 102.805 88.4716 102.661C88.1847 102.516 87.8565 102.443 87.4872 102.443C87.115 102.443 86.7827 102.516 86.49 102.661C86.2003 102.805 85.9716 103.004 85.804 103.257C85.6392 103.51 85.5582 103.801 85.5611 104.131C85.5582 104.443 85.6335 104.716 85.7869 104.949C85.9432 105.182 86.1662 105.362 86.456 105.49C86.7457 105.618 87.0895 105.682 87.4872 105.682ZM87.4872 101.54C87.7997 101.54 88.0767 101.477 88.3182 101.352C88.5625 101.227 88.7543 101.053 88.8935 100.828C89.0327 100.604 89.1037 100.341 89.1065 100.04C89.1037 99.7443 89.0341 99.4872 88.8977 99.2685C88.7614 99.0469 88.5724 98.8764 88.331 98.7571C88.0895 98.6349 87.8082 98.5739 87.4872 98.5739C87.1605 98.5739 86.875 98.6349 86.6307 98.7571C86.3864 98.8764 86.1974 99.0469 86.0639 99.2685C85.9304 99.4872 85.865 99.7443 85.8679 100.04C85.865 100.341 85.9318 100.604 86.0682 100.828C86.2074 101.053 86.3991 101.227 86.6435 101.352C86.8878 101.477 87.169 101.54 87.4872 101.54ZM95.1183 106.5V99.9545H96.124V106.5H95.1183ZM95.6297 98.8636C95.4337 98.8636 95.2646 98.7969 95.1226 98.6634C94.9834 98.5298 94.9138 98.3693 94.9138 98.1818C94.9138 97.9943 94.9834 97.8338 95.1226 97.7003C95.2646 97.5668 95.4337 97.5 95.6297 97.5C95.8257 97.5 95.9933 97.5668 96.1325 97.7003C96.2746 97.8338 96.3456 97.9943 96.3456 98.1818C96.3456 98.3693 96.2746 98.5298 96.1325 98.6634C95.9933 98.7969 95.8257 98.8636 95.6297 98.8636ZM98.7917 102.562V106.5H97.786V99.9545H98.7576V100.977H98.8428C98.9962 100.645 99.2292 100.378 99.5417 100.176C99.8542 99.9716 100.258 99.8693 100.752 99.8693C101.195 99.8693 101.583 99.9602 101.915 100.142C102.248 100.321 102.506 100.594 102.691 100.96C102.875 101.324 102.968 101.784 102.968 102.341V106.5H101.962V102.409C101.962 101.895 101.829 101.494 101.562 101.207C101.295 100.918 100.928 100.773 100.462 100.773C100.141 100.773 99.8542 100.842 99.6013 100.982C99.3513 101.121 99.1539 101.324 99.009 101.591C98.8641 101.858 98.7917 102.182 98.7917 102.562ZM113.173 99.9545L110.752 106.5H109.73L107.309 99.9545H108.4L110.207 105.17H110.275L112.082 99.9545H113.173ZM116.745 106.636C116.154 106.636 115.636 106.496 115.19 106.214C114.746 105.933 114.4 105.54 114.15 105.034C113.903 104.528 113.779 103.937 113.779 103.261C113.779 102.58 113.903 101.984 114.15 101.476C114.4 100.967 114.746 100.572 115.19 100.291C115.636 100.01 116.154 99.8693 116.745 99.8693C117.336 99.8693 117.853 100.01 118.296 100.291C118.742 100.572 119.089 100.967 119.336 101.476C119.586 101.984 119.711 102.58 119.711 103.261C119.711 103.937 119.586 104.528 119.336 105.034C119.089 105.54 118.742 105.933 118.296 106.214C117.853 106.496 117.336 106.636 116.745 106.636ZM116.745 105.733C117.194 105.733 117.563 105.618 117.853 105.388C118.143 105.158 118.357 104.855 118.496 104.48C118.636 104.105 118.705 103.699 118.705 103.261C118.705 102.824 118.636 102.416 118.496 102.038C118.357 101.661 118.143 101.355 117.853 101.122C117.563 100.889 117.194 100.773 116.745 100.773C116.296 100.773 115.927 100.889 115.637 101.122C115.347 101.355 115.133 101.661 114.993 102.038C114.854 102.416 114.785 102.824 114.785 103.261C114.785 103.699 114.854 104.105 114.993 104.48C115.133 104.855 115.347 105.158 115.637 105.388C115.927 105.618 116.296 105.733 116.745 105.733ZM122.072 97.7727V106.5H121.066V97.7727H122.072ZM127.859 103.824V99.9545H128.864V106.5H127.859V105.392H127.79C127.637 105.724 127.398 106.007 127.075 106.24C126.751 106.47 126.342 106.585 125.847 106.585C125.438 106.585 125.075 106.496 124.756 106.317C124.438 106.135 124.188 105.862 124.006 105.499C123.825 105.132 123.734 104.67 123.734 104.114V99.9545H124.739V104.045C124.739 104.523 124.873 104.903 125.14 105.188C125.41 105.472 125.754 105.614 126.171 105.614C126.421 105.614 126.675 105.55 126.934 105.422C127.195 105.294 127.414 105.098 127.59 104.834C127.769 104.57 127.859 104.233 127.859 103.824ZM130.526 106.5V99.9545H131.498V100.977H131.583C131.719 100.628 131.94 100.357 132.244 100.163C132.548 99.9673 132.913 99.8693 133.339 99.8693C133.771 99.8693 134.13 99.9673 134.417 100.163C134.707 100.357 134.933 100.628 135.094 100.977H135.163C135.33 100.639 135.582 100.371 135.917 100.172C136.252 99.9702 136.654 99.8693 137.123 99.8693C137.708 99.8693 138.187 100.053 138.559 100.419C138.931 100.783 139.117 101.349 139.117 102.119V106.5H138.112V102.119C138.112 101.636 137.979 101.291 137.715 101.084C137.451 100.876 137.14 100.773 136.782 100.773C136.322 100.773 135.965 100.912 135.712 101.19C135.46 101.466 135.333 101.815 135.333 102.239V106.5H134.31V102.017C134.31 101.645 134.19 101.345 133.948 101.118C133.707 100.888 133.396 100.773 133.015 100.773C132.754 100.773 132.509 100.842 132.282 100.982C132.058 101.121 131.876 101.314 131.737 101.561C131.6 101.805 131.532 102.088 131.532 102.409V106.5H130.526ZM143.52 106.636C142.89 106.636 142.346 106.497 141.888 106.219C141.434 105.938 141.083 105.545 140.836 105.043C140.591 104.537 140.469 103.949 140.469 103.278C140.469 102.608 140.591 102.017 140.836 101.506C141.083 100.991 141.427 100.591 141.867 100.304C142.31 100.014 142.827 99.8693 143.418 99.8693C143.759 99.8693 144.096 99.9261 144.428 100.04C144.76 100.153 145.063 100.338 145.336 100.594C145.608 100.847 145.826 101.182 145.988 101.599C146.15 102.017 146.231 102.531 146.231 103.142V103.568H141.185V102.699H145.208C145.208 102.33 145.134 102 144.986 101.71C144.841 101.42 144.634 101.192 144.364 101.024C144.097 100.857 143.782 100.773 143.418 100.773C143.017 100.773 142.671 100.872 142.378 101.071C142.088 101.267 141.865 101.523 141.709 101.838C141.553 102.153 141.475 102.491 141.475 102.852V103.432C141.475 103.926 141.56 104.345 141.731 104.689C141.904 105.03 142.144 105.29 142.451 105.469C142.758 105.645 143.114 105.733 143.52 105.733C143.785 105.733 144.023 105.696 144.236 105.622C144.452 105.545 144.638 105.432 144.794 105.281C144.951 105.128 145.071 104.937 145.157 104.71L146.128 104.983C146.026 105.312 145.854 105.602 145.613 105.852C145.371 106.099 145.073 106.293 144.718 106.432C144.363 106.568 143.963 106.636 143.52 106.636Z" fill="black" fill-opacity="0.6"/>
<g filter="url(#filter0_d_4268_7846)">
<circle cx="314.286" cy="159" r="4" fill="#3981FF"/>
</g>
<defs>
<filter id="filter0_d_4268_7846" x="307.286" y="152" width="14" height="14" filterUnits="userSpaceOnUse" color-interpolation-filters="sRGB">
<feFlood flood-opacity="0" result="BackgroundImageFix"/>
<feColorMatrix in="SourceAlpha" type="matrix" values="0 0 0 0 0 0 0 0 0 0 0 0 0 0 0 0 0 0 127 0" result="hardAlpha"/>
<feMorphology radius="3" operator="dilate" in="SourceAlpha" result="effect1_dropShadow_4268_7846"/>
<feOffset/>
<feComposite in2="hardAlpha" operator="out"/>
<feColorMatrix type="matrix" values="0 0 0 0 0.223529 0 0 0 0 0.505882 0 0 0 0 1 0 0 0 0.25 0"/>
<feBlend mode="normal" in2="BackgroundImageFix" result="effect1_dropShadow_4268_7846"/>
<feBlend mode="normal" in="SourceGraphic" in2="effect1_dropShadow_4268_7846" result="shape"/>
</filter>
</defs>
</svg>
