<svg width="167" height="498" viewBox="0 0 167 498" fill="none" xmlns="http://www.w3.org/2000/svg">
<rect x="78" y="2" width="12" height="15" transform="rotate(90 78 2)" fill="#FFD521" fill-opacity="0.2"/>
<rect x="59" y="2" width="12" height="38" transform="rotate(90 59 2)" fill="#FFD521" fill-opacity="0.05"/>
<rect x="17" y="2" width="12" height="25" transform="rotate(90 17 2)" fill="#FFD521" fill-opacity="0.05"/>
<rect x="112" y="18" width="12" height="38" transform="rotate(90 112 18)" fill="#FFD521" fill-opacity="0.05"/>
<rect x="70" y="18" width="12" height="20" transform="rotate(90 70 18)" fill="#FFD521" fill-opacity="0.05"/>
<rect x="46" y="18" width="12" height="15" transform="rotate(90 46 18)" fill="#FFD521" fill-opacity="0.05"/>
<rect x="27" y="18" width="12" height="25" transform="rotate(90 27 18)" fill="#FFD521" fill-opacity="0.2"/>
<rect x="69" y="34" width="12" height="15" transform="rotate(90 69 34)" fill="#FFD521" fill-opacity="0.05"/>
<rect x="50" y="34" width="12" height="25" transform="rotate(90 50 34)" fill="#FFD521" fill-opacity="0.05"/>
<rect x="21" y="34" width="12" height="38" transform="rotate(90 21 34)" fill="#FFD521" fill-opacity="0.2"/>
<rect x="102.5" y="50" width="12" height="25" transform="rotate(90 102.5 50)" fill="#FFD521" fill-opacity="0.2"/>
<rect x="73.5" y="50" width="12" height="15" transform="rotate(90 73.5 50)" fill="#FFD521" fill-opacity="0.05"/>
<rect x="54.5" y="50" width="12" height="38" transform="rotate(90 54.5 50)" fill="#FFD521" fill-opacity="0.05"/>
<rect x="12.5" y="50" width="12" height="15" transform="rotate(90 12.5 50)" fill="#FFD521" fill-opacity="0.2"/>
<rect x="119" y="66" width="12" height="38" transform="rotate(90 119 66)" fill="#FFD521" fill-opacity="0.05"/>
<rect x="77" y="66" width="12" height="38" transform="rotate(90 77 66)" fill="#FFD521" fill-opacity="0.05"/>
<rect x="35" y="66" width="12" height="15" transform="rotate(90 35 66)" fill="#FFD521" fill-opacity="0.1"/>
<rect x="16" y="66" width="12" height="38" transform="rotate(90 16 66)" fill="#FFD521" fill-opacity="0.05"/>
<rect x="76" y="82" width="12" height="20" transform="rotate(90 76 82)" fill="#FFD521" fill-opacity="0.2"/>
<rect x="52" y="82" width="12" height="38" transform="rotate(90 52 82)" fill="#FFD521" fill-opacity="0.05"/>
<rect x="10" y="82" width="12" height="25" transform="rotate(90 10 82)" fill="#FFD521" fill-opacity="0.05"/>
<rect x="47" y="98" width="12" height="38" transform="rotate(90 47 98)" fill="#FFD521" fill-opacity="0.2"/>
<rect x="5.00005" y="98" width="12" height="20" transform="rotate(90 5.00005 98)" fill="#FFD521" fill-opacity="0.1"/>
<rect x="116" y="114" width="12" height="25" transform="rotate(90 116 114)" fill="#FFD521" fill-opacity="0.05"/>
<rect x="87" y="114" width="12" height="15" transform="rotate(90 87 114)" fill="#FFD521" fill-opacity="0.05"/>
<rect x="68" y="114" width="12" height="25" transform="rotate(90 68 114)" fill="#FFD521" fill-opacity="0.1"/>
<rect x="39" y="114" width="12" height="25" transform="rotate(90 39 114)" fill="#FFD521" fill-opacity="0.05"/>
<rect x="10" y="114" width="12" height="15" transform="rotate(90 10 114)" fill="#FFD521" fill-opacity="0.1"/>
<rect x="56" y="130" width="12" height="38" transform="rotate(90 56 130)" fill="#FFD521" fill-opacity="0.05"/>
<rect x="14" y="130" width="12" height="25" transform="rotate(90 14 130)" fill="#FFD521" fill-opacity="0.05"/>
<rect x="80.5" y="146" width="12" height="25" transform="rotate(90 80.5 146)" fill="#FFD521" fill-opacity="0.1"/>
<rect x="51.5" y="146" width="12" height="20" transform="rotate(90 51.5 146)" fill="#FFD521" fill-opacity="0.05"/>
<rect x="27.5" y="146" width="12" height="38" transform="rotate(90 27.5 146)" fill="#FFD521" fill-opacity="0.05"/>
<rect x="12" y="162" width="12" height="15" transform="rotate(90 12 162)" fill="#FFD521" fill-opacity="0.05"/>
<rect x="117.5" y="178" width="12" height="25" transform="rotate(90 117.5 178)" fill="#FFD521" fill-opacity="0.05"/>
<rect x="88.5" y="178" width="12" height="38" transform="rotate(90 88.5 178)" fill="#FFD521" fill-opacity="0.2"/>
<rect x="46.5" y="178" width="12" height="15" transform="rotate(90 46.5 178)" fill="#FFD521" fill-opacity="0.2"/>
<rect x="27.5" y="178" width="12" height="38" transform="rotate(90 27.5 178)" fill="#FFD521" fill-opacity="0.05"/>
<rect x="111" y="194" width="12" height="38" transform="rotate(90 111 194)" fill="#FFD521" fill-opacity="0.05"/>
<rect x="69" y="194" width="12" height="25" transform="rotate(90 69 194)" fill="#FFD521" fill-opacity="0.05"/>
<rect x="40" y="194" width="12" height="20" transform="rotate(90 40 194)" fill="#FFD521" fill-opacity="0.05"/>
<rect x="16" y="194" width="12" height="20" transform="rotate(90 16 194)" fill="#FFD521" fill-opacity="0.05"/>
<rect x="72.5" y="210" width="12" height="38" transform="rotate(90 72.5 210)" fill="#FFD521" fill-opacity="0.05"/>
<rect x="30.5" y="210" width="12" height="38" transform="rotate(90 30.5 210)" fill="#FFD521" fill-opacity="0.1"/>
<rect x="56.5" y="226" width="12" height="38" transform="rotate(90 56.5 226)" fill="#FFD521" fill-opacity="0.05"/>
<rect x="14.5" y="226" width="12" height="38" transform="rotate(90 14.5 226)" fill="#FFD521" fill-opacity="0.05"/>
<rect x="30" y="242" width="12" height="15" transform="rotate(90 30 242)" fill="#FFD521" fill-opacity="0.2"/>
<rect x="11" y="242" width="12" height="38" transform="rotate(90 11 242)" fill="#FFD521" fill-opacity="0.2"/>
<rect x="20.5" y="258" width="12" height="38" transform="rotate(90 20.5 258)" fill="#FFD521" fill-opacity="0.2"/>
<rect x="29.5" y="274" width="12" height="25" transform="rotate(90 29.5 274)" fill="#FFD521" fill-opacity="0.05"/>
<rect x="0.500038" y="274" width="12" height="20" transform="rotate(90 0.500038 274)" fill="#FFD521" fill-opacity="0.05"/>
<rect x="81.5" y="290" width="12" height="38" transform="rotate(90 81.5 290)" fill="#FFD521" fill-opacity="0.05"/>
<rect x="39.5" y="290" width="12" height="15" transform="rotate(90 39.5 290)" fill="#FFD521" fill-opacity="0.1"/>
<rect x="20.5" y="290" width="12" height="38" transform="rotate(90 20.5 290)" fill="#FFD521" fill-opacity="0.1"/>
<rect x="29.5" y="306" width="12" height="15" transform="rotate(90 29.5 306)" fill="#FFD521" fill-opacity="0.05"/>
<rect x="10.5" y="306" width="12" height="25" transform="rotate(90 10.5 306)" fill="#FFD521" fill-opacity="0.2"/>
<rect x="30.5" y="322" width="12" height="38" transform="rotate(90 30.5 322)" fill="#FFD521" fill-opacity="0.1"/>
<rect x="73" y="338" width="12" height="15" transform="rotate(90 73 338)" fill="#FFD521" fill-opacity="0.05"/>
<rect x="54" y="338" width="12" height="38" transform="rotate(90 54 338)" fill="#FFD521" fill-opacity="0.1"/>
<rect x="12" y="338" width="12" height="38" transform="rotate(90 12 338)" fill="#FFD521" fill-opacity="0.05"/>
<rect x="98" y="354" width="12" height="38" transform="rotate(90 98 354)" fill="#FFD521" fill-opacity="0.05"/>
<rect x="56" y="354" width="12" height="20" transform="rotate(90 56 354)" fill="#FFD521" fill-opacity="0.1"/>
<rect x="32" y="354" width="12" height="20" transform="rotate(90 32 354)" fill="#FFD521" fill-opacity="0.05"/>
<rect x="8.00003" y="354" width="12" height="38" transform="rotate(90 8.00003 354)" fill="#FFD521" fill-opacity="0.05"/>
<rect x="82.5" y="370" width="12" height="20" transform="rotate(90 82.5 370)" fill="#FFD521" fill-opacity="0.05"/>
<rect x="58.5" y="370" width="12" height="15" transform="rotate(90 58.5 370)" fill="#FFD521" fill-opacity="0.1"/>
<rect x="39.5" y="370" width="12" height="15" transform="rotate(90 39.5 370)" fill="#FFD521" fill-opacity="0.05"/>
<rect x="20.5" y="370" width="12" height="20" transform="rotate(90 20.5 370)" fill="#FFD521" fill-opacity="0.05"/>
<rect x="62" y="386" width="12" height="15" transform="rotate(90 62 386)" fill="#FFD521" fill-opacity="0.2"/>
<rect x="43" y="386" width="12" height="15" transform="rotate(90 43 386)" fill="#FFD521" fill-opacity="0.05"/>
<rect x="24" y="386" width="12" height="38" transform="rotate(90 24 386)" fill="#FFD521" fill-opacity="0.1"/>
<rect x="31" y="402" width="12" height="38" transform="rotate(90 31 402)" fill="#FFD521" fill-opacity="0.2"/>
<rect x="94.5" y="418" width="12" height="38" transform="rotate(90 94.5 418)" fill="#FFD521" fill-opacity="0.2"/>
<rect x="52.5" y="418" width="12" height="25" transform="rotate(90 52.5 418)" fill="#FFD521" fill-opacity="0.1"/>
<rect x="23.5" y="418" width="12" height="38" transform="rotate(90 23.5 418)" fill="#FFD521" fill-opacity="0.2"/>
<rect x="38" y="434" width="12" height="38" transform="rotate(90 38 434)" fill="#FFD521" fill-opacity="0.2"/>
<rect x="126.5" y="450" width="12" height="15" transform="rotate(90 126.5 450)" fill="#FFD521" fill-opacity="0.1"/>
<rect x="107.5" y="450" width="12" height="38" transform="rotate(90 107.5 450)" fill="#FFD521" fill-opacity="0.05"/>
<rect x="65.5" y="450" width="12" height="38" transform="rotate(90 65.5 450)" fill="#FFD521" fill-opacity="0.1"/>
<rect x="23.5" y="450" width="12" height="25" transform="rotate(90 23.5 450)" fill="#FFD521" fill-opacity="0.2"/>
<rect x="84.5" y="466" width="12" height="15" transform="rotate(90 84.5 466)" fill="#FFD521" fill-opacity="0.2"/>
<rect x="65.5" y="466" width="12" height="38" transform="rotate(90 65.5 466)" fill="#FFD521" fill-opacity="0.05"/>
<rect x="23.5" y="466" width="12" height="38" transform="rotate(90 23.5 466)" fill="#FFD521" fill-opacity="0.1"/>
<rect x="7.50003" y="482" width="12" height="15" transform="rotate(90 7.50003 482)" fill="#FFD521" fill-opacity="0.05"/>
</svg>
