<svg width="440" height="300" viewBox="0 0 440 300" fill="none" xmlns="http://www.w3.org/2000/svg">
<g clip-path="url(#clip0_4268_7992)">
<rect width="440" height="300" fill="#FAFAFA"/>
<rect x="-4" y="-14.5" width="12" height="38" fill="black" fill-opacity="0.04"/>
<rect x="-3.75" y="107.75" width="11.5" height="19.5" fill="#F50000" fill-opacity="0.2" stroke="#F50000" stroke-width="0.5"/>
<rect x="-4" y="150.5" width="12" height="20" fill="black" fill-opacity="0.04"/>
<rect x="-4" y="174.5" width="12" height="38" fill="black" fill-opacity="0.04"/>
<rect x="-3.75" y="216.75" width="11.5" height="37.5" fill="#F50000" fill-opacity="0.2" stroke="#F50000" stroke-width="0.5"/>
<rect x="12" y="72" width="12" height="38" fill="black" fill-opacity="0.02"/>
<rect x="12" y="143" width="12" height="38" fill="black" fill-opacity="0.02"/>
<rect x="28" y="44.5" width="12" height="38" fill="black" fill-opacity="0.04"/>
<rect x="28" y="86.5" width="12" height="38" fill="black" fill-opacity="0.04"/>
<rect x="28" y="170.5" width="12" height="38" fill="black" fill-opacity="0.04"/>
<rect x="28" y="212.5" width="12" height="38" fill="black" fill-opacity="0.04"/>
<rect x="28" y="254.5" width="12" height="38" fill="black" fill-opacity="0.02"/>
<rect x="44" y="151.5" width="12" height="20" fill="black" fill-opacity="0.02"/>
<rect x="44" y="204.5" width="12" height="38" fill="black" fill-opacity="0.02"/>
<rect x="44" y="265.5" width="12" height="38" fill="black" fill-opacity="0.02"/>
<rect x="60" y="-17" width="12" height="38" fill="black" fill-opacity="0.04"/>
<rect x="60" y="105" width="12" height="38" fill="black" fill-opacity="0.04"/>
<rect x="60" y="147" width="12" height="38" fill="black" fill-opacity="0.04"/>
<rect x="60.25" y="189.25" width="11.5" height="14.5" fill="#F50000" fill-opacity="0.2" stroke="#F50000" stroke-width="0.5"/>
<rect x="60" y="208" width="12" height="38" fill="black" fill-opacity="0.04"/>
<rect x="60" y="250" width="12" height="38" fill="black" fill-opacity="0.02"/>
<rect x="76" y="56" width="12" height="38" fill="#3FE844" fill-opacity="0.1"/>
<rect x="76" y="140" width="12" height="25" fill="black" fill-opacity="0.04"/>
<rect x="76" y="169" width="12" height="38" fill="black" fill-opacity="0.04"/>
<rect x="76" y="211" width="12" height="38" fill="black" fill-opacity="0.02"/>
<rect x="76" y="295" width="12" height="25" fill="black" fill-opacity="0.04"/>
<rect x="92" y="17.5" width="12" height="20" fill="black" fill-opacity="0.04"/>
<rect x="92" y="41.5" width="12" height="38" fill="black" fill-opacity="0.04"/>
<rect x="92" y="144.5" width="12" height="38" fill="black" fill-opacity="0.04"/>
<rect x="92" y="215.5" width="12" height="38" fill="black" fill-opacity="0.04"/>
<rect x="92" y="299.5" width="12" height="20" fill="black" fill-opacity="0.02"/>
<rect x="108" y="58.5" width="12" height="15" fill="black" fill-opacity="0.04"/>
<rect x="108.25" y="161.75" width="11.5" height="19.5" fill="#F50000" fill-opacity="0.2" stroke="#F50000" stroke-width="0.5"/>
<rect x="108" y="185.5" width="12" height="38" fill="black" fill-opacity="0.02"/>
<rect x="108" y="227.5" width="12" height="38" fill="black" fill-opacity="0.02"/>
<rect x="124" y="116" width="12" height="38" fill="black" fill-opacity="0.02"/>
<rect x="124" y="158" width="12" height="15" fill="black" fill-opacity="0.02"/>
<rect x="124" y="280" width="12" height="20" fill="black" fill-opacity="0.02"/>
<rect x="140" y="-7" width="12" height="25" fill="black" fill-opacity="0.04"/>
<rect x="140" y="93" width="12" height="38" fill="black" fill-opacity="0.04"/>
<rect x="140" y="244" width="12" height="15" fill="black" fill-opacity="0.02"/>
<rect x="140" y="263" width="12" height="38" fill="black" fill-opacity="0.02"/>
<rect x="156.25" y="30.75" width="11.5" height="37.5" fill="#FFD521" fill-opacity="0.2" stroke="#FFD521" stroke-width="0.5"/>
<rect x="156" y="133.5" width="12" height="38" fill="black" fill-opacity="0.04"/>
<rect x="156" y="175.5" width="12" height="20" fill="black" fill-opacity="0.02"/>
<rect x="156" y="199.5" width="12" height="38" fill="black" fill-opacity="0.04"/>
<rect x="156.25" y="241.75" width="11.5" height="24.5" fill="#F50000" fill-opacity="0.2" stroke="#F50000" stroke-width="0.5"/>
<rect x="156" y="270.5" width="12" height="38" fill="black" fill-opacity="0.02"/>
<rect x="172" y="-1" width="12" height="15" fill="black" fill-opacity="0.02"/>
<rect x="172" y="98" width="12" height="38" fill="black" fill-opacity="0.04"/>
<rect x="172" y="182" width="12" height="20" fill="black" fill-opacity="0.02"/>
<rect x="188" y="47.5" width="12" height="25" fill="black" fill-opacity="0.04"/>
<rect x="188" y="138.5" width="12" height="15" fill="black" fill-opacity="0.04"/>
<rect x="188" y="157.5" width="12" height="15" fill="black" fill-opacity="0.04"/>
<rect x="188" y="176.5" width="12" height="15" fill="black" fill-opacity="0.04"/>
<rect x="188" y="237.5" width="12" height="15" fill="black" fill-opacity="0.02"/>
<rect x="188" y="256.5" width="12" height="38" fill="black" fill-opacity="0.02"/>
<rect x="188" y="298.5" width="12" height="15" fill="black" fill-opacity="0.04"/>
<rect x="204" y="16" width="12" height="38" fill="black" fill-opacity="0.02"/>
<rect x="204" y="138" width="12" height="15" fill="black" fill-opacity="0.04"/>
<rect x="204" y="157" width="12" height="20" fill="black" fill-opacity="0.04"/>
<rect x="204" y="239" width="12" height="25" fill="black" fill-opacity="0.02"/>
<rect x="204" y="268" width="12" height="15" fill="black" fill-opacity="0.02"/>
<rect x="220" y="42" width="12" height="38" fill="black" fill-opacity="0.02"/>
<rect x="220" y="84" width="12" height="38" fill="black" fill-opacity="0.02"/>
<rect x="220" y="126" width="12" height="15" fill="black" fill-opacity="0.04"/>
<rect x="220" y="164" width="12" height="38" fill="black" fill-opacity="0.02"/>
<rect x="220.25" y="235.25" width="11.5" height="37.5" fill="#FFD521" fill-opacity="0.2" stroke="#FFD521" stroke-width="0.5"/>
<rect x="220" y="277" width="12" height="38" fill="black" fill-opacity="0.02"/>
<rect x="236" y="60.5" width="12" height="20" fill="#3FE844" fill-opacity="0.1"/>
<rect x="236" y="216.5" width="12" height="38" fill="black" fill-opacity="0.04"/>
<rect x="236" y="277.5" width="12" height="15" fill="black" fill-opacity="0.02"/>
<rect x="236" y="296.5" width="12" height="38" fill="black" fill-opacity="0.04"/>
<rect x="252" y="3.5" width="12" height="38" fill="black" fill-opacity="0.04"/>
<rect x="252" y="87.5" width="12" height="38" fill="black" fill-opacity="0.02"/>
<rect x="252" y="129.5" width="12" height="38" fill="black" fill-opacity="0.04"/>
<rect x="252" y="242.5" width="12" height="25" fill="black" fill-opacity="0.04"/>
<rect x="268" width="12" height="38" fill="black" fill-opacity="0.02"/>
<rect x="268" y="42" width="12" height="20" fill="black" fill-opacity="0.04"/>
<rect x="268" y="66" width="12" height="38" fill="black" fill-opacity="0.04"/>
<rect x="268" y="150" width="12" height="25" fill="black" fill-opacity="0.04"/>
<rect x="268" y="179" width="12" height="38" fill="black" fill-opacity="0.02"/>
<rect x="268.25" y="259.25" width="11.5" height="24.5" fill="#FFD521" fill-opacity="0.2" stroke="#FFD521" stroke-width="0.5"/>
<rect x="284" y="83.5" width="12" height="38" fill="black" fill-opacity="0.02"/>
<rect x="284" y="231.5" width="12" height="15" fill="black" fill-opacity="0.02"/>
<rect x="284" y="250.5" width="12" height="38" fill="black" fill-opacity="0.02"/>
<rect x="300" y="30" width="12" height="25" fill="black" fill-opacity="0.04"/>
<rect x="300" y="139" width="12" height="25" fill="black" fill-opacity="0.02"/>
<rect x="300" y="168" width="12" height="25" fill="black" fill-opacity="0.04"/>
<rect x="300" y="269" width="12" height="38" fill="black" fill-opacity="0.02"/>
<rect x="316" y="-2" width="12" height="15" fill="black" fill-opacity="0.02"/>
<rect x="316" y="17" width="12" height="15" fill="black" fill-opacity="0.02"/>
<rect x="316" y="78" width="12" height="38" fill="#3FE844" fill-opacity="0.1"/>
<rect x="316" y="242" width="12" height="25" fill="black" fill-opacity="0.04"/>
<rect x="316" y="271" width="12" height="20" fill="black" fill-opacity="0.04"/>
<rect x="316" y="295" width="12" height="25" fill="black" fill-opacity="0.04"/>
<rect x="332.25" y="29.75" width="11.5" height="14.5" fill="#FFD521" fill-opacity="0.2" stroke="#FFD521" stroke-width="0.5"/>
<rect x="332" y="90.5" width="12" height="38" fill="black" fill-opacity="0.02"/>
<rect x="332" y="288.5" width="12" height="38" fill="black" fill-opacity="0.04"/>
<rect x="348" y="84.5" width="12" height="15" fill="black" fill-opacity="0.02"/>
<rect x="348" y="103.5" width="12" height="20" fill="black" fill-opacity="0.02"/>
<rect x="348" y="127.5" width="12" height="25" fill="black" fill-opacity="0.04"/>
<rect x="348" y="256.5" width="12" height="38" fill="black" fill-opacity="0.04"/>
<rect x="364" y="193" width="12" height="15" fill="black" fill-opacity="0.04"/>
<rect x="364" y="212" width="12" height="25" fill="black" fill-opacity="0.02"/>
<rect x="364.25" y="265.25" width="11.5" height="37.5" fill="#F50000" fill-opacity="0.2" stroke="#F50000" stroke-width="0.5"/>
<rect x="380" y="45.5" width="12" height="25" fill="black" fill-opacity="0.02"/>
<rect x="380" y="135.5" width="12" height="38" fill="black" fill-opacity="0.04"/>
<rect x="380" y="290.5" width="12" height="25" fill="#3FE844" fill-opacity="0.1"/>
<rect x="396.25" y="5.75" width="11.5" height="37.5" fill="#FFD521" fill-opacity="0.2" stroke="#FFD521" stroke-width="0.5"/>
<rect x="396" y="76.5" width="12" height="38" fill="black" fill-opacity="0.04"/>
<rect x="396" y="118.5" width="12" height="15" fill="black" fill-opacity="0.04"/>
<rect x="396" y="179.5" width="12" height="20" fill="black" fill-opacity="0.02"/>
<rect x="396" y="288.5" width="12" height="38" fill="black" fill-opacity="0.02"/>
<rect x="412" y="77.5" width="12" height="38" fill="black" fill-opacity="0.04"/>
<rect x="412" y="119.5" width="12" height="15" fill="black" fill-opacity="0.02"/>
<rect x="412" y="270.5" width="12" height="25" fill="black" fill-opacity="0.02"/>
<rect x="412" y="299.5" width="12" height="38" fill="black" fill-opacity="0.04"/>
<rect x="428" y="18" width="12" height="20" fill="black" fill-opacity="0.04"/>
<rect x="428" y="84" width="12" height="25" fill="black" fill-opacity="0.02"/>
<rect x="428" y="113" width="12" height="38" fill="black" fill-opacity="0.04"/>
<rect x="428" y="216" width="12" height="15" fill="black" fill-opacity="0.02"/>
<rect x="428" y="235" width="12" height="15" fill="black" fill-opacity="0.02"/>
<rect x="428" y="296" width="12" height="38" fill="black" fill-opacity="0.04"/>
<rect x="142.131" y="129.5" width="155.739" height="41" fill="white"/>
<rect x="142.381" y="129.75" width="155.239" height="40.5" stroke="black" stroke-opacity="0.15" stroke-width="0.5" stroke-dasharray="6 6"/>
<path d="M175.751 139.762H172.856V145.474H175.751V139.762Z" fill="#3FE844"/>
<path d="M181.789 147.415L180.847 144.599L176.295 146.131L177.236 148.947L181.789 147.415Z" fill="#3FE844"/>
<path d="M175.842 152.261H172.947V160.238H175.842V152.261Z" fill="#3FE844"/>
<path d="M170.429 150.39L169.881 147.507L162.131 148.987L162.678 151.871L170.429 150.39Z" fill="#3FE844"/>
<path d="M172.615 152.526L170.36 150.657L164.18 158.163L166.436 160.032L172.615 152.526Z" fill="#3FE844"/>
<path d="M177.667 149.38L175.683 151.519L179.885 155.444L181.87 153.305L177.667 149.38Z" fill="#3FE844"/>
<path d="M165.557 140.594L163.936 143.001L170.517 147.462L172.138 145.055L165.557 140.594Z" fill="#3FE844"/>
<path d="M201.982 146.92C201.921 146.383 201.671 145.966 201.232 145.67C200.793 145.371 200.24 145.222 199.573 145.222C199.096 145.222 198.683 145.297 198.334 145.449C197.986 145.597 197.715 145.801 197.522 146.062C197.332 146.32 197.238 146.614 197.238 146.943C197.238 147.22 197.302 147.458 197.431 147.659C197.563 147.86 197.736 148.028 197.948 148.165C198.164 148.297 198.395 148.409 198.641 148.5C198.887 148.587 199.124 148.659 199.351 148.716L200.488 149.011C200.859 149.102 201.24 149.225 201.63 149.381C202.02 149.536 202.382 149.741 202.715 149.994C203.048 150.248 203.317 150.562 203.522 150.938C203.73 151.312 203.834 151.761 203.834 152.284C203.834 152.943 203.664 153.528 203.323 154.04C202.986 154.551 202.495 154.955 201.851 155.25C201.211 155.545 200.437 155.693 199.527 155.693C198.656 155.693 197.902 155.555 197.266 155.278C196.63 155.002 196.132 154.61 195.772 154.102C195.412 153.591 195.213 152.985 195.175 152.284H196.937C196.971 152.705 197.107 153.055 197.346 153.335C197.588 153.612 197.897 153.818 198.272 153.955C198.651 154.087 199.065 154.153 199.516 154.153C200.012 154.153 200.454 154.076 200.84 153.92C201.23 153.761 201.537 153.542 201.76 153.261C201.984 152.977 202.096 152.646 202.096 152.267C202.096 151.922 201.997 151.64 201.8 151.42C201.607 151.201 201.344 151.019 201.01 150.875C200.681 150.731 200.308 150.604 199.891 150.494L198.516 150.119C197.584 149.866 196.846 149.492 196.3 149C195.759 148.508 195.488 147.856 195.488 147.045C195.488 146.375 195.669 145.79 196.033 145.29C196.397 144.79 196.889 144.402 197.51 144.125C198.132 143.845 198.832 143.705 199.613 143.705C200.401 143.705 201.096 143.843 201.698 144.119C202.304 144.396 202.781 144.777 203.13 145.261C203.478 145.742 203.66 146.295 203.675 146.92H201.982ZM209.312 155.676C208.467 155.676 207.74 155.485 207.13 155.102C206.524 154.716 206.058 154.184 205.733 153.506C205.407 152.828 205.244 152.051 205.244 151.176C205.244 150.29 205.411 149.508 205.744 148.83C206.077 148.148 206.547 147.616 207.153 147.233C207.759 146.85 208.473 146.659 209.295 146.659C209.958 146.659 210.549 146.782 211.068 147.028C211.587 147.271 212.005 147.612 212.323 148.051C212.645 148.491 212.837 149.004 212.897 149.591H211.244C211.153 149.182 210.945 148.83 210.619 148.534C210.297 148.239 209.865 148.091 209.323 148.091C208.85 148.091 208.435 148.216 208.079 148.466C207.727 148.712 207.452 149.064 207.255 149.523C207.058 149.977 206.96 150.515 206.96 151.136C206.96 151.773 207.056 152.322 207.25 152.784C207.443 153.246 207.715 153.604 208.068 153.858C208.424 154.112 208.842 154.239 209.323 154.239C209.645 154.239 209.937 154.18 210.198 154.062C210.464 153.941 210.685 153.769 210.863 153.545C211.045 153.322 211.172 153.053 211.244 152.739H212.897C212.837 153.303 212.653 153.807 212.346 154.25C212.039 154.693 211.628 155.042 211.113 155.295C210.602 155.549 210.001 155.676 209.312 155.676ZM217.094 155.693C216.541 155.693 216.041 155.591 215.594 155.386C215.147 155.178 214.793 154.877 214.531 154.483C214.274 154.089 214.145 153.606 214.145 153.034C214.145 152.542 214.24 152.136 214.429 151.818C214.618 151.5 214.874 151.248 215.196 151.062C215.518 150.877 215.878 150.737 216.276 150.642C216.673 150.547 217.079 150.475 217.492 150.426C218.014 150.366 218.439 150.316 218.764 150.278C219.09 150.237 219.327 150.17 219.474 150.08C219.622 149.989 219.696 149.841 219.696 149.636V149.597C219.696 149.1 219.556 148.716 219.276 148.443C218.999 148.17 218.586 148.034 218.037 148.034C217.465 148.034 217.014 148.161 216.685 148.415C216.359 148.665 216.134 148.943 216.009 149.25L214.412 148.886C214.601 148.356 214.878 147.928 215.242 147.602C215.609 147.273 216.031 147.034 216.509 146.886C216.986 146.735 217.488 146.659 218.014 146.659C218.363 146.659 218.732 146.701 219.122 146.784C219.516 146.864 219.884 147.011 220.224 147.227C220.569 147.443 220.851 147.752 221.071 148.153C221.291 148.551 221.401 149.068 221.401 149.705V155.5H219.742V154.307H219.673C219.564 154.527 219.399 154.742 219.179 154.955C218.959 155.167 218.677 155.343 218.332 155.483C217.988 155.623 217.575 155.693 217.094 155.693ZM217.463 154.33C217.933 154.33 218.334 154.237 218.668 154.051C219.005 153.866 219.26 153.623 219.435 153.324C219.613 153.021 219.702 152.697 219.702 152.352V151.227C219.641 151.288 219.524 151.345 219.349 151.398C219.179 151.447 218.984 151.491 218.764 151.528C218.545 151.562 218.331 151.595 218.122 151.625C217.914 151.652 217.74 151.674 217.599 151.693C217.27 151.735 216.969 151.805 216.696 151.903C216.427 152.002 216.211 152.144 216.048 152.33C215.889 152.511 215.81 152.754 215.81 153.057C215.81 153.477 215.965 153.795 216.276 154.011C216.586 154.223 216.982 154.33 217.463 154.33ZM225.202 150.318V155.5H223.503V146.773H225.134V148.193H225.242C225.443 147.731 225.757 147.36 226.185 147.08C226.617 146.799 227.161 146.659 227.816 146.659C228.411 146.659 228.931 146.784 229.378 147.034C229.825 147.28 230.172 147.648 230.418 148.136C230.664 148.625 230.788 149.229 230.788 149.949V155.5H229.089V150.153C229.089 149.521 228.924 149.027 228.594 148.67C228.265 148.311 227.812 148.131 227.236 148.131C226.842 148.131 226.492 148.216 226.185 148.386C225.882 148.557 225.642 148.807 225.464 149.136C225.289 149.462 225.202 149.856 225.202 150.318ZM234.605 150.318V155.5H232.906V146.773H234.537V148.193H234.645C234.845 147.731 235.16 147.36 235.588 147.08C236.02 146.799 236.563 146.659 237.218 146.659C237.813 146.659 238.334 146.784 238.781 147.034C239.228 147.28 239.574 147.648 239.821 148.136C240.067 148.625 240.19 149.229 240.19 149.949V155.5H238.491V150.153C238.491 149.521 238.326 149.027 237.997 148.67C237.667 148.311 237.215 148.131 236.639 148.131C236.245 148.131 235.895 148.216 235.588 148.386C235.285 148.557 235.044 148.807 234.866 149.136C234.692 149.462 234.605 149.856 234.605 150.318ZM242.308 155.5V146.773H244.007V155.5H242.308ZM243.166 145.426C242.871 145.426 242.617 145.328 242.405 145.131C242.197 144.93 242.093 144.691 242.093 144.415C242.093 144.134 242.197 143.896 242.405 143.699C242.617 143.498 242.871 143.398 243.166 143.398C243.462 143.398 243.714 143.498 243.922 143.699C244.134 143.896 244.24 144.134 244.24 144.415C244.24 144.691 244.134 144.93 243.922 145.131C243.714 145.328 243.462 145.426 243.166 145.426ZM247.832 150.318V155.5H246.133V146.773H247.763V148.193H247.871C248.072 147.731 248.387 147.36 248.815 147.08C249.246 146.799 249.79 146.659 250.445 146.659C251.04 146.659 251.561 146.784 252.008 147.034C252.455 147.28 252.801 147.648 253.048 148.136C253.294 148.625 253.417 149.229 253.417 149.949V155.5H251.718V150.153C251.718 149.521 251.553 149.027 251.224 148.67C250.894 148.311 250.441 148.131 249.866 148.131C249.472 148.131 249.121 148.216 248.815 148.386C248.512 148.557 248.271 148.807 248.093 149.136C247.919 149.462 247.832 149.856 247.832 150.318ZM259.194 158.955C258.501 158.955 257.905 158.864 257.405 158.682C256.908 158.5 256.503 158.259 256.189 157.96C255.874 157.661 255.639 157.333 255.484 156.977L256.944 156.375C257.047 156.542 257.183 156.718 257.353 156.903C257.528 157.093 257.763 157.254 258.058 157.386C258.357 157.519 258.742 157.585 259.211 157.585C259.855 157.585 260.388 157.428 260.808 157.114C261.228 156.803 261.439 156.307 261.439 155.625V153.909H261.331C261.228 154.095 261.081 154.301 260.888 154.528C260.698 154.756 260.437 154.953 260.103 155.119C259.77 155.286 259.336 155.369 258.802 155.369C258.113 155.369 257.492 155.208 256.939 154.886C256.389 154.561 255.954 154.081 255.632 153.449C255.314 152.812 255.155 152.03 255.155 151.102C255.155 150.174 255.312 149.379 255.626 148.716C255.944 148.053 256.38 147.545 256.933 147.193C257.486 146.837 258.113 146.659 258.814 146.659C259.355 146.659 259.793 146.75 260.126 146.932C260.46 147.11 260.719 147.318 260.905 147.557C261.094 147.795 261.24 148.006 261.342 148.188H261.467V146.773H263.132V155.693C263.132 156.443 262.958 157.059 262.609 157.54C262.261 158.021 261.789 158.377 261.194 158.608C260.603 158.839 259.937 158.955 259.194 158.955ZM259.177 153.96C259.666 153.96 260.079 153.847 260.416 153.619C260.757 153.388 261.014 153.059 261.189 152.631C261.367 152.199 261.456 151.682 261.456 151.08C261.456 150.492 261.369 149.975 261.194 149.528C261.02 149.081 260.764 148.733 260.427 148.483C260.09 148.229 259.674 148.102 259.177 148.102C258.666 148.102 258.24 148.235 257.899 148.5C257.558 148.761 257.3 149.117 257.126 149.568C256.956 150.019 256.871 150.523 256.871 151.08C256.871 151.652 256.958 152.153 257.132 152.585C257.306 153.017 257.564 153.354 257.905 153.597C258.249 153.839 258.674 153.96 259.177 153.96ZM266.37 155.608C266.059 155.608 265.792 155.498 265.568 155.278C265.345 155.055 265.233 154.786 265.233 154.472C265.233 154.161 265.345 153.896 265.568 153.676C265.792 153.453 266.059 153.341 266.37 153.341C266.68 153.341 266.947 153.453 267.171 153.676C267.394 153.896 267.506 154.161 267.506 154.472C267.506 154.68 267.453 154.871 267.347 155.045C267.245 155.216 267.108 155.352 266.938 155.455C266.767 155.557 266.578 155.608 266.37 155.608ZM270.741 155.608C270.43 155.608 270.163 155.498 269.94 155.278C269.716 155.055 269.604 154.786 269.604 154.472C269.604 154.161 269.716 153.896 269.94 153.676C270.163 153.453 270.43 153.341 270.741 153.341C271.051 153.341 271.319 153.453 271.542 153.676C271.765 153.896 271.877 154.161 271.877 154.472C271.877 154.68 271.824 154.871 271.718 155.045C271.616 155.216 271.479 155.352 271.309 155.455C271.139 155.557 270.949 155.608 270.741 155.608ZM275.112 155.608C274.801 155.608 274.534 155.498 274.311 155.278C274.087 155.055 273.976 154.786 273.976 154.472C273.976 154.161 274.087 153.896 274.311 153.676C274.534 153.453 274.801 153.341 275.112 153.341C275.423 153.341 275.69 153.453 275.913 153.676C276.137 153.896 276.248 154.161 276.248 154.472C276.248 154.68 276.195 154.871 276.089 155.045C275.987 155.216 275.851 155.352 275.68 155.455C275.51 155.557 275.32 155.608 275.112 155.608Z" fill="#023106"/>
</g>
<defs>
<clipPath id="clip0_4268_7992">
<rect width="440" height="300" fill="white"/>
</clipPath>
</defs>
</svg>
