<svg width="440" height="300" viewBox="0 0 440 300" fill="none" xmlns="http://www.w3.org/2000/svg">
<rect width="440" height="300" fill="#FAFAFA"/>
<rect x="315" y="17" width="101" height="29" fill="white"/>
<rect x="315.25" y="17.25" width="100.5" height="28.5" stroke="black" stroke-opacity="0.15" stroke-width="0.5" stroke-dasharray="6 6"/>
<path d="M327.395 37H324.173V26.8182H327.514C328.509 26.8182 329.36 27.022 330.07 27.4297C330.779 27.834 331.322 28.4157 331.7 29.1747C332.078 29.9304 332.267 30.8352 332.267 31.8892C332.267 32.9498 332.076 33.8629 331.695 34.6286C331.314 35.3909 330.761 35.9775 330.035 36.3885C329.309 36.7962 328.429 37 327.395 37ZM325.56 35.782H327.315C328.121 35.782 328.79 35.6278 329.324 35.3196C329.857 35.0114 330.255 34.5672 330.517 33.9872C330.782 33.4072 330.915 32.7079 330.915 31.8892C330.915 31.0805 330.784 30.3894 330.522 29.8161C330.263 29.2393 329.876 28.7985 329.359 28.4936C328.842 28.1887 328.199 28.0362 327.43 28.0362H325.56V35.782ZM337.152 37.1591C336.406 37.1591 335.765 36.9967 335.228 36.6719C334.691 36.3438 334.276 35.8864 333.985 35.2997C333.696 34.7098 333.552 34.022 333.552 33.2365C333.552 32.4543 333.696 31.7649 333.985 31.1683C334.276 30.5684 334.682 30.1011 335.203 29.7663C335.726 29.4316 336.338 29.2642 337.037 29.2642C337.452 29.2642 337.856 29.3338 338.25 29.473C338.648 29.6089 339.006 29.8277 339.324 30.1293C339.646 30.4276 339.899 30.8203 340.085 31.3075C340.274 31.7947 340.368 32.3897 340.368 33.0923V33.6044H334.387V32.5405H339.041C339.041 32.1295 338.958 31.7649 338.792 31.4467C338.63 31.1252 338.398 30.8717 338.096 30.6861C337.798 30.5005 337.447 30.4077 337.042 30.4077C336.598 30.4077 336.214 30.5154 335.889 30.7308C335.567 30.9463 335.319 31.228 335.143 31.576C334.967 31.924 334.88 32.2985 334.88 32.6996V33.4702C334.88 34.0137 334.974 34.4761 335.163 34.8572C335.355 35.2351 335.622 35.5234 335.963 35.7223C336.305 35.9179 336.703 36.0156 337.157 36.0156C337.452 36.0156 337.72 35.9742 337.962 35.8913C338.204 35.8052 338.411 35.6776 338.584 35.5085C338.759 35.3395 338.895 35.1274 338.991 34.8722L340.264 35.1605C340.148 35.5582 339.946 35.9079 339.657 36.2095C339.372 36.5078 339.016 36.7415 338.588 36.9105C338.164 37.0762 337.685 37.1591 337.152 37.1591ZM344.117 37.174C343.633 37.174 343.194 37.0829 342.799 36.9006C342.408 36.7183 342.097 36.4548 341.865 36.1101C341.636 35.7621 341.522 35.3378 341.522 34.8374C341.522 34.4032 341.606 34.0485 341.775 33.7734C341.948 33.495 342.176 33.2763 342.461 33.1172C342.746 32.9581 343.063 32.8388 343.411 32.7592C343.759 32.6797 344.112 32.6184 344.47 32.5753C344.931 32.5156 345.303 32.4692 345.589 32.4361C345.877 32.4029 346.087 32.3482 346.22 32.272C346.352 32.1958 346.419 32.0649 346.419 31.8793V31.8395C346.419 31.3788 346.291 31.0208 346.036 30.7656C345.781 30.5104 345.398 30.3828 344.888 30.3828C344.357 30.3828 343.941 30.4988 343.64 30.7308C343.338 30.9628 343.126 31.2164 343.003 31.4915L341.75 31.1335C341.933 30.6695 342.186 30.3016 342.511 30.0298C342.839 29.7547 343.205 29.5592 343.61 29.4432C344.018 29.3239 344.433 29.2642 344.858 29.2642C345.133 29.2642 345.436 29.2973 345.767 29.3636C346.099 29.4266 346.414 29.5509 346.712 29.7365C347.014 29.9188 347.262 30.1889 347.458 30.5469C347.653 30.9015 347.751 31.3688 347.751 31.9489V37H346.439V35.9609H346.379C346.293 36.1399 346.155 36.3239 345.966 36.5128C345.777 36.6984 345.531 36.8558 345.226 36.9851C344.921 37.111 344.551 37.174 344.117 37.174ZM344.366 36.0504C344.806 36.0504 345.179 35.9643 345.484 35.7919C345.789 35.6196 346.021 35.3958 346.18 35.1207C346.343 34.8456 346.424 34.5523 346.424 34.2408V33.2116C346.371 33.268 346.265 33.3194 346.106 33.3658C345.946 33.4122 345.764 33.4519 345.559 33.4851C345.357 33.5182 345.158 33.5481 344.962 33.5746C344.77 33.5978 344.611 33.6177 344.485 33.6342C344.19 33.674 343.916 33.737 343.665 33.8232C343.416 33.9093 343.215 34.0369 343.063 34.206C342.914 34.3717 342.839 34.5954 342.839 34.8771C342.839 35.2649 342.983 35.5582 343.272 35.7571C343.56 35.9527 343.925 36.0504 344.366 36.0504ZM350.932 26.8182V37H349.599V26.8182H350.932ZM358.362 31.1534L357.159 31.4219C357.099 31.2462 357.006 31.0788 356.88 30.9197C356.758 30.7573 356.59 30.6231 356.378 30.517C356.166 30.411 355.898 30.358 355.573 30.358C355.129 30.358 354.757 30.459 354.459 30.6612C354.164 30.8634 354.017 31.1203 354.017 31.4318C354.017 31.7036 354.118 31.9207 354.32 32.0831C354.522 32.2455 354.84 32.3797 355.275 32.4858L356.448 32.7642C357.141 32.9266 357.656 33.1785 357.994 33.5199C358.335 33.858 358.506 34.2955 358.506 34.8324C358.506 35.2798 358.377 35.6792 358.118 36.0305C357.863 36.3786 357.507 36.6536 357.049 36.8558C356.592 37.058 356.06 37.1591 355.454 37.1591C354.635 37.1591 353.964 36.9834 353.44 36.6321C352.916 36.2775 352.588 35.7687 352.456 35.1058L353.733 34.8572C353.833 35.2517 354.025 35.5483 354.31 35.7472C354.598 35.9427 354.975 36.0405 355.439 36.0405C355.956 36.0405 356.367 35.9311 356.672 35.7124C356.98 35.4936 357.136 35.2285 357.139 34.9169C357.136 34.665 357.043 34.4545 356.86 34.2855C356.681 34.1132 356.405 33.9839 356.03 33.8977L354.748 33.6044C354.042 33.442 353.521 33.1851 353.186 32.8338C352.855 32.4792 352.689 32.035 352.689 31.5014C352.689 31.0606 352.812 30.6728 353.057 30.3381C353.306 30 353.647 29.7365 354.081 29.5476C354.516 29.3587 355.011 29.2642 355.568 29.2642C356.357 29.2642 356.978 29.4366 357.432 29.7812C357.886 30.1259 358.196 30.5833 358.362 31.1534ZM372.079 30.0646H370.687C370.62 29.7232 370.501 29.4216 370.329 29.1598C370.16 28.898 369.951 28.6776 369.702 28.4986C369.457 28.3196 369.183 28.1854 368.882 28.0959C368.58 28.0031 368.265 27.9567 367.937 27.9567C367.334 27.9567 366.792 28.1091 366.312 28.4141C365.831 28.7157 365.45 29.1615 365.168 29.7514C364.89 30.3381 364.75 31.0573 364.75 31.9091C364.75 32.7642 364.89 33.4867 365.168 34.0767C365.45 34.6634 365.831 35.1075 366.312 35.4091C366.792 35.7107 367.332 35.8615 367.932 35.8615C368.264 35.8615 368.579 35.8168 368.877 35.7273C369.179 35.6345 369.452 35.5002 369.697 35.3246C369.946 35.1456 370.155 34.9268 370.324 34.6683C370.496 34.4065 370.617 34.1065 370.687 33.7685H372.079C371.992 34.2822 371.828 34.7462 371.586 35.1605C371.344 35.5748 371.04 35.9295 370.672 36.2244C370.307 36.5194 369.893 36.7464 369.429 36.9055C368.965 37.0613 368.464 37.1392 367.927 37.1392C367.052 37.1392 366.273 36.9287 365.591 36.5078C364.908 36.0836 364.371 35.482 363.98 34.7031C363.589 33.9209 363.393 32.9896 363.393 31.9091C363.393 30.8286 363.589 29.8973 363.98 29.1151C364.374 28.3329 364.913 27.7313 365.596 27.3104C366.278 26.8894 367.056 26.679 367.927 26.679C368.454 26.679 368.948 26.7552 369.409 26.9077C369.87 27.0601 370.284 27.2822 370.652 27.5739C371.023 27.8655 371.331 28.2202 371.576 28.6378C371.822 29.0554 371.989 29.531 372.079 30.0646ZM374.975 26.8182V37H373.642V26.8182H374.975ZM379.998 37.1591C379.296 37.1591 378.681 36.995 378.154 36.6669C377.627 36.3355 377.218 35.8748 376.926 35.2848C376.634 34.6948 376.489 34.0071 376.489 33.2216C376.489 32.4261 376.634 31.7318 376.926 31.1385C377.218 30.5452 377.627 30.0845 378.154 29.7564C378.681 29.4283 379.296 29.2642 379.998 29.2642C380.701 29.2642 381.316 29.4283 381.843 29.7564C382.37 30.0845 382.779 30.5452 383.071 31.1385C383.363 31.7318 383.508 32.4261 383.508 33.2216C383.508 34.0071 383.363 34.6948 383.071 35.2848C382.779 35.8748 382.37 36.3355 381.843 36.6669C381.316 36.995 380.701 37.1591 379.998 37.1591ZM379.998 36.0057C380.496 36.0057 380.903 35.8781 381.221 35.6229C381.543 35.3643 381.782 35.0246 381.937 34.6037C382.093 34.1795 382.171 33.7171 382.171 33.2166C382.171 32.7195 382.093 32.2588 381.937 31.8345C381.782 31.407 381.543 31.0639 381.221 30.8054C380.903 30.5436 380.496 30.4126 379.998 30.4126C379.505 30.4126 379.097 30.5436 378.775 30.8054C378.454 31.0639 378.215 31.407 378.06 31.8345C377.904 32.2588 377.826 32.7195 377.826 33.2166C377.826 33.7171 377.904 34.1795 378.06 34.6037C378.215 35.0246 378.454 35.3643 378.775 35.6229C379.097 35.8781 379.505 36.0057 379.998 36.0057ZM390.589 31.1534L389.386 31.4219C389.326 31.2462 389.234 31.0788 389.108 30.9197C388.985 30.7573 388.818 30.6231 388.606 30.517C388.393 30.411 388.125 30.358 387.8 30.358C387.356 30.358 386.985 30.459 386.687 30.6612C386.392 30.8634 386.244 31.1203 386.244 31.4318C386.244 31.7036 386.345 31.9207 386.547 32.0831C386.75 32.2455 387.068 32.3797 387.502 32.4858L388.675 32.7642C389.368 32.9266 389.883 33.1785 390.221 33.5199C390.563 33.858 390.733 34.2955 390.733 34.8324C390.733 35.2798 390.604 35.6792 390.346 36.0305C390.09 36.3786 389.734 36.6536 389.277 36.8558C388.819 37.058 388.287 37.1591 387.681 37.1591C386.862 37.1591 386.191 36.9834 385.667 36.6321C385.144 36.2775 384.816 35.7687 384.683 35.1058L385.961 34.8572C386.06 35.2517 386.252 35.5483 386.537 35.7472C386.826 35.9427 387.202 36.0405 387.666 36.0405C388.183 36.0405 388.594 35.9311 388.899 35.7124C389.207 35.4936 389.363 35.2285 389.366 34.9169C389.363 34.665 389.27 34.4545 389.088 34.2855C388.909 34.1132 388.632 33.9839 388.258 33.8977L386.975 33.6044C386.269 33.442 385.749 33.1851 385.414 32.8338C385.082 32.4792 384.917 32.035 384.917 31.5014C384.917 31.0606 385.039 30.6728 385.285 30.3381C385.533 30 385.875 29.7365 386.309 29.5476C386.743 29.3587 387.238 29.2642 387.795 29.2642C388.584 29.2642 389.205 29.4366 389.66 29.7812C390.114 30.1259 390.424 30.5833 390.589 31.1534ZM395.473 37.1591C394.727 37.1591 394.086 36.9967 393.549 36.6719C393.012 36.3438 392.597 35.8864 392.306 35.2997C392.017 34.7098 391.873 34.022 391.873 33.2365C391.873 32.4543 392.017 31.7649 392.306 31.1683C392.597 30.5684 393.003 30.1011 393.524 29.7663C394.047 29.4316 394.659 29.2642 395.358 29.2642C395.773 29.2642 396.177 29.3338 396.571 29.473C396.969 29.6089 397.327 29.8277 397.645 30.1293C397.967 30.4276 398.22 30.8203 398.406 31.3075C398.595 31.7947 398.689 32.3897 398.689 33.0923V33.6044H392.708V32.5405H397.362C397.362 32.1295 397.279 31.7649 397.113 31.4467C396.951 31.1252 396.719 30.8717 396.417 30.6861C396.119 30.5005 395.768 30.4077 395.363 30.4077C394.919 30.4077 394.535 30.5154 394.21 30.7308C393.888 30.9463 393.64 31.228 393.464 31.576C393.288 31.924 393.201 32.2985 393.201 32.6996V33.4702C393.201 34.0137 393.295 34.4761 393.484 34.8572C393.676 35.2351 393.943 35.5234 394.284 35.7223C394.626 35.9179 395.024 36.0156 395.478 36.0156C395.773 36.0156 396.041 35.9742 396.283 35.8913C396.525 35.8052 396.732 35.6776 396.904 35.5085C397.08 35.3395 397.216 35.1274 397.312 34.8722L398.585 35.1605C398.469 35.5582 398.267 35.9079 397.978 36.2095C397.693 36.5078 397.337 36.7415 396.909 36.9105C396.485 37.0762 396.006 37.1591 395.473 37.1591ZM403.074 37.1541C402.448 37.1541 401.893 36.995 401.409 36.6768C400.925 36.3554 400.545 35.8996 400.27 35.3097C399.995 34.7197 399.858 34.017 399.858 33.2017C399.858 32.3864 399.995 31.6854 400.27 31.0987C400.545 30.5088 400.927 30.0563 401.414 29.7415C401.901 29.4233 402.459 29.2642 403.089 29.2642C403.576 29.2642 403.964 29.3454 404.253 29.5078C404.541 29.6669 404.765 29.8509 404.924 30.0597C405.083 30.2685 405.205 30.4441 405.292 30.5866H405.386V26.8182H406.713V37H405.421V35.8168H405.292C405.202 35.9692 405.076 36.1515 404.914 36.3636C404.751 36.5724 404.523 36.7564 404.228 36.9155C403.936 37.0746 403.552 37.1541 403.074 37.1541ZM403.318 35.9957C403.769 35.9957 404.148 35.8781 404.456 35.6428C404.768 35.4041 405.005 35.0743 405.167 34.6534C405.33 34.2292 405.411 33.7386 405.411 33.1818C405.411 32.6316 405.331 32.1494 405.172 31.7351C405.013 31.3208 404.778 30.9993 404.466 30.7706C404.155 30.5386 403.772 30.4226 403.318 30.4226C402.847 30.4226 402.454 30.5452 402.14 30.7905C401.825 31.0324 401.588 31.3622 401.429 31.7798C401.273 32.1941 401.195 32.6615 401.195 33.1818C401.195 33.7088 401.275 34.1861 401.434 34.6136C401.596 35.0379 401.833 35.3743 402.145 35.6229C402.459 35.8714 402.851 35.9957 403.318 35.9957Z" fill="black"/>
<path d="M129.082 95L126.298 84.8182H127.551L129.679 93.1108H129.778L131.946 84.8182H133.338L135.506 93.1108H135.605L137.733 84.8182H138.986L136.202 95H134.929L132.682 86.8864H132.602L130.355 95H129.082ZM140.153 95V87.3636H141.326V95H140.153ZM140.75 86.0909C140.521 86.0909 140.324 86.013 140.158 85.8572C139.995 85.7015 139.914 85.5142 139.914 85.2955C139.914 85.0767 139.995 84.8894 140.158 84.7337C140.324 84.5779 140.521 84.5 140.75 84.5C140.978 84.5 141.174 84.5779 141.336 84.7337C141.502 84.8894 141.585 85.0767 141.585 85.2955C141.585 85.5142 141.502 85.7015 141.336 85.8572C141.174 86.013 140.978 86.0909 140.75 86.0909ZM146.586 87.3636V88.358H142.629V87.3636H146.586ZM143.782 85.5341H144.956V92.8125C144.956 93.1439 145.004 93.3925 145.1 93.5582C145.199 93.7206 145.325 93.83 145.478 93.8864C145.633 93.9394 145.797 93.9659 145.97 93.9659C146.099 93.9659 146.205 93.9593 146.288 93.946C146.371 93.9295 146.437 93.9162 146.487 93.9062L146.725 94.9602C146.646 94.9901 146.535 95.0199 146.392 95.0497C146.25 95.0829 146.069 95.0994 145.85 95.0994C145.519 95.0994 145.194 95.0282 144.876 94.8857C144.561 94.7431 144.299 94.526 144.09 94.2344C143.885 93.9427 143.782 93.5748 143.782 93.1307V85.5341ZM149.478 90.4062V95H148.305V84.8182H149.478V88.5568H149.578C149.757 88.1624 150.025 87.8492 150.383 87.6172C150.745 87.3819 151.225 87.2642 151.825 87.2642C152.345 87.2642 152.801 87.3686 153.192 87.5774C153.583 87.7829 153.887 88.0994 154.102 88.527C154.321 88.9512 154.43 89.4915 154.43 90.1477V95H153.257V90.2273C153.257 89.6207 153.099 89.1518 152.785 88.8203C152.473 88.4856 152.041 88.3182 151.487 88.3182C151.103 88.3182 150.758 88.3994 150.453 88.5618C150.151 88.7242 149.913 88.9612 149.737 89.2727C149.565 89.5843 149.478 89.9621 149.478 90.4062ZM159.469 95.1591C158.78 95.1591 158.175 94.995 157.654 94.6669C157.137 94.3388 156.733 93.8797 156.441 93.2898C156.153 92.6998 156.009 92.0104 156.009 91.2216C156.009 90.4261 156.153 89.7318 156.441 89.1385C156.733 88.5452 157.137 88.0845 157.654 87.7564C158.175 87.4283 158.78 87.2642 159.469 87.2642C160.158 87.2642 160.762 87.4283 161.279 87.7564C161.799 88.0845 162.203 88.5452 162.492 89.1385C162.783 89.7318 162.929 90.4261 162.929 91.2216C162.929 92.0104 162.783 92.6998 162.492 93.2898C162.203 93.8797 161.799 94.3388 161.279 94.6669C160.762 94.995 160.158 95.1591 159.469 95.1591ZM159.469 94.1051C159.993 94.1051 160.423 93.9709 160.762 93.7024C161.1 93.4339 161.35 93.081 161.512 92.6435C161.675 92.206 161.756 91.732 161.756 91.2216C161.756 90.7112 161.675 90.2356 161.512 89.7947C161.35 89.3539 161.1 88.9976 160.762 88.7259C160.423 88.4541 159.993 88.3182 159.469 88.3182C158.945 88.3182 158.514 88.4541 158.176 88.7259C157.838 88.9976 157.588 89.3539 157.426 89.7947C157.263 90.2356 157.182 90.7112 157.182 91.2216C157.182 91.732 157.263 92.206 157.426 92.6435C157.588 93.081 157.838 93.4339 158.176 93.7024C158.514 93.9709 158.945 94.1051 159.469 94.1051ZM169.323 91.8778V87.3636H170.496V95H169.323V93.7074H169.243C169.064 94.0952 168.786 94.425 168.408 94.6967C168.03 94.9652 167.553 95.0994 166.976 95.0994C166.499 95.0994 166.075 94.995 165.703 94.7862C165.332 94.5741 165.04 94.2559 164.828 93.8317C164.616 93.4041 164.51 92.8655 164.51 92.2159V87.3636H165.683V92.1364C165.683 92.6932 165.839 93.1373 166.151 93.4688C166.466 93.8002 166.867 93.9659 167.354 93.9659C167.646 93.9659 167.942 93.8913 168.244 93.7422C168.549 93.593 168.804 93.3643 169.009 93.0561C169.218 92.7479 169.323 92.3551 169.323 91.8778ZM175.756 87.3636V88.358H171.799V87.3636H175.756ZM172.952 85.5341H174.125V92.8125C174.125 93.1439 174.173 93.3925 174.269 93.5582C174.369 93.7206 174.495 93.83 174.647 93.8864C174.803 93.9394 174.967 93.9659 175.14 93.9659C175.269 93.9659 175.375 93.9593 175.458 93.946C175.541 93.9295 175.607 93.9162 175.657 93.9062L175.895 94.9602C175.816 94.9901 175.705 95.0199 175.562 95.0497C175.42 95.0829 175.239 95.0994 175.02 95.0994C174.689 95.0994 174.364 95.0282 174.046 94.8857C173.731 94.7431 173.469 94.526 173.26 94.2344C173.055 93.9427 172.952 93.5748 172.952 93.1307V85.5341ZM184.34 95H181.197V84.8182H184.479C185.466 84.8182 186.312 85.022 187.014 85.4297C187.717 85.834 188.255 86.4157 188.63 87.1747C189.005 87.9304 189.192 88.8352 189.192 89.8892C189.192 90.9498 189.003 91.8629 188.625 92.6286C188.247 93.3909 187.697 93.9775 186.974 94.3885C186.252 94.7962 185.374 95 184.34 95ZM182.43 93.9062H184.26C185.102 93.9062 185.8 93.7438 186.353 93.419C186.907 93.0942 187.319 92.6319 187.591 92.032C187.863 91.4321 187.999 90.7178 187.999 89.8892C187.999 89.0672 187.864 88.3596 187.596 87.7663C187.327 87.1697 186.926 86.7124 186.393 86.3942C185.859 86.0727 185.195 85.9119 184.399 85.9119H182.43V93.9062ZM193.138 95.179C192.654 95.179 192.215 95.0878 191.821 94.9055C191.426 94.7199 191.113 94.4531 190.881 94.1051C190.649 93.7538 190.533 93.3295 190.533 92.8324C190.533 92.3949 190.619 92.0402 190.791 91.7685C190.964 91.4934 191.194 91.2779 191.483 91.1222C191.771 90.9664 192.089 90.8504 192.437 90.7741C192.788 90.6946 193.141 90.6316 193.496 90.5852C193.96 90.5256 194.336 90.4808 194.625 90.451C194.916 90.4179 195.128 90.3632 195.261 90.2869C195.397 90.2107 195.465 90.0781 195.465 89.8892V89.8494C195.465 89.3589 195.331 88.9777 195.062 88.706C194.797 88.4342 194.394 88.2983 193.854 88.2983C193.294 88.2983 192.855 88.4209 192.536 88.6662C192.218 88.9115 191.995 89.1733 191.865 89.4517L190.752 89.054C190.951 88.59 191.216 88.2287 191.547 87.9702C191.882 87.7083 192.246 87.526 192.641 87.4233C193.039 87.3172 193.43 87.2642 193.814 87.2642C194.059 87.2642 194.341 87.294 194.659 87.3537C194.981 87.41 195.291 87.5277 195.589 87.7067C195.891 87.8857 196.141 88.1558 196.34 88.517C196.539 88.8783 196.638 89.3622 196.638 89.9688V95H195.465V93.9659H195.405C195.326 94.1316 195.193 94.3089 195.007 94.4979C194.822 94.6868 194.575 94.8475 194.267 94.9801C193.958 95.1127 193.582 95.179 193.138 95.179ZM193.317 94.125C193.781 94.125 194.172 94.0339 194.49 93.8516C194.812 93.6693 195.054 93.4339 195.216 93.1456C195.382 92.8572 195.465 92.554 195.465 92.2358V91.1619C195.415 91.2216 195.306 91.2763 195.137 91.326C194.971 91.3724 194.779 91.4138 194.56 91.4503C194.344 91.4834 194.134 91.5133 193.929 91.5398C193.726 91.563 193.562 91.5829 193.436 91.5994C193.131 91.6392 192.846 91.7038 192.581 91.7933C192.319 91.8795 192.107 92.0104 191.945 92.1861C191.786 92.3584 191.706 92.5937 191.706 92.892C191.706 93.2997 191.857 93.608 192.159 93.8168C192.464 94.0223 192.85 94.125 193.317 94.125ZM201.891 87.3636V88.358H197.933V87.3636H201.891ZM199.087 85.5341H200.26V92.8125C200.26 93.1439 200.308 93.3925 200.404 93.5582C200.504 93.7206 200.629 93.83 200.782 93.8864C200.938 93.9394 201.102 93.9659 201.274 93.9659C201.403 93.9659 201.509 93.9593 201.592 93.946C201.675 93.9295 201.741 93.9162 201.791 93.9062L202.03 94.9602C201.95 94.9901 201.839 95.0199 201.697 95.0497C201.554 95.0829 201.374 95.0994 201.155 95.0994C200.823 95.0994 200.499 95.0282 200.18 94.8857C199.865 94.7431 199.604 94.526 199.395 94.2344C199.189 93.9427 199.087 93.5748 199.087 93.1307V85.5341ZM205.693 95.179C205.209 95.179 204.77 95.0878 204.375 94.9055C203.981 94.7199 203.668 94.4531 203.436 94.1051C203.204 93.7538 203.088 93.3295 203.088 92.8324C203.088 92.3949 203.174 92.0402 203.346 91.7685C203.518 91.4934 203.749 91.2779 204.037 91.1222C204.325 90.9664 204.644 90.8504 204.992 90.7741C205.343 90.6946 205.696 90.6316 206.051 90.5852C206.515 90.5256 206.891 90.4808 207.179 90.451C207.471 90.4179 207.683 90.3632 207.816 90.2869C207.951 90.2107 208.019 90.0781 208.019 89.8892V89.8494C208.019 89.3589 207.885 88.9777 207.617 88.706C207.352 88.4342 206.949 88.2983 206.409 88.2983C205.848 88.2983 205.409 88.4209 205.091 88.6662C204.773 88.9115 204.549 89.1733 204.42 89.4517L203.306 89.054C203.505 88.59 203.77 88.2287 204.102 87.9702C204.437 87.7083 204.801 87.526 205.196 87.4233C205.593 87.3172 205.984 87.2642 206.369 87.2642C206.614 87.2642 206.896 87.294 207.214 87.3537C207.535 87.41 207.845 87.5277 208.144 87.7067C208.445 87.8857 208.696 88.1558 208.894 88.517C209.093 88.8783 209.193 89.3622 209.193 89.9688V95H208.019V93.9659H207.96C207.88 94.1316 207.748 94.3089 207.562 94.4979C207.376 94.6868 207.129 94.8475 206.821 94.9801C206.513 95.1127 206.137 95.179 205.693 95.179ZM205.872 94.125C206.336 94.125 206.727 94.0339 207.045 93.8516C207.366 93.6693 207.608 93.4339 207.771 93.1456C207.937 92.8572 208.019 92.554 208.019 92.2358V91.1619C207.97 91.2216 207.86 91.2763 207.691 91.326C207.526 91.3724 207.333 91.4138 207.115 91.4503C206.899 91.4834 206.689 91.5133 206.483 91.5398C206.281 91.563 206.117 91.5829 205.991 91.5994C205.686 91.6392 205.401 91.7038 205.136 91.7933C204.874 91.8795 204.662 92.0104 204.499 92.1861C204.34 92.3584 204.261 92.5937 204.261 92.892C204.261 93.2997 204.412 93.608 204.713 93.8168C205.018 94.0223 205.404 94.125 205.872 94.125ZM216.533 89.0739L215.479 89.3722C215.413 89.1965 215.315 89.0258 215.186 88.8601C215.06 88.6911 214.888 88.5518 214.669 88.4425C214.45 88.3331 214.17 88.2784 213.829 88.2784C213.361 88.2784 212.972 88.3861 212.66 88.6016C212.352 88.8137 212.198 89.0838 212.198 89.4119C212.198 89.7036 212.304 89.9339 212.516 90.103C212.728 90.272 213.06 90.4129 213.511 90.5256L214.644 90.804C215.327 90.9697 215.836 91.2232 216.17 91.5646C216.505 91.9027 216.672 92.3385 216.672 92.8722C216.672 93.3097 216.547 93.7008 216.295 94.0455C216.046 94.3902 215.698 94.6619 215.251 94.8608C214.803 95.0597 214.283 95.1591 213.69 95.1591C212.911 95.1591 212.266 94.9901 211.756 94.652C211.245 94.3139 210.922 93.8201 210.786 93.1705L211.9 92.892C212.006 93.303 212.206 93.6113 212.501 93.8168C212.8 94.0223 213.189 94.125 213.67 94.125C214.217 94.125 214.651 94.009 214.972 93.777C215.297 93.5417 215.459 93.2599 215.459 92.9318C215.459 92.6667 215.367 92.4446 215.181 92.2656C214.995 92.0833 214.71 91.9474 214.326 91.858L213.053 91.5597C212.354 91.3939 211.84 91.1371 211.512 90.7891C211.187 90.4377 211.025 89.9986 211.025 89.4716C211.025 89.0407 211.146 88.6596 211.388 88.3281C211.633 87.9967 211.966 87.7365 212.387 87.5476C212.811 87.3587 213.292 87.2642 213.829 87.2642C214.584 87.2642 215.178 87.4299 215.609 87.7614C216.043 88.0928 216.351 88.5303 216.533 89.0739ZM219.402 90.4062V95H218.229V84.8182H219.402V88.5568H219.501C219.68 88.1624 219.949 87.8492 220.307 87.6172C220.668 87.3819 221.149 87.2642 221.749 87.2642C222.269 87.2642 222.725 87.3686 223.116 87.5774C223.507 87.7829 223.81 88.0994 224.026 88.527C224.244 88.9512 224.354 89.4915 224.354 90.1477V95H223.18V90.2273C223.18 89.6207 223.023 89.1518 222.708 88.8203C222.396 88.4856 221.964 88.3182 221.41 88.3182C221.026 88.3182 220.681 88.3994 220.376 88.5618C220.075 88.7242 219.836 88.9612 219.66 89.2727C219.488 89.5843 219.402 89.9621 219.402 90.4062ZM228.537 95.179C228.053 95.179 227.614 95.0878 227.22 94.9055C226.825 94.7199 226.512 94.4531 226.28 94.1051C226.048 93.7538 225.932 93.3295 225.932 92.8324C225.932 92.3949 226.018 92.0402 226.191 91.7685C226.363 91.4934 226.593 91.2779 226.882 91.1222C227.17 90.9664 227.488 90.8504 227.836 90.7741C228.188 90.6946 228.541 90.6316 228.895 90.5852C229.359 90.5256 229.735 90.4808 230.024 90.451C230.315 90.4179 230.528 90.3632 230.66 90.2869C230.796 90.2107 230.864 90.0781 230.864 89.8892V89.8494C230.864 89.3589 230.73 88.9777 230.461 88.706C230.196 88.4342 229.793 88.2983 229.253 88.2983C228.693 88.2983 228.254 88.4209 227.936 88.6662C227.618 88.9115 227.394 89.1733 227.265 89.4517L226.151 89.054C226.35 88.59 226.615 88.2287 226.946 87.9702C227.281 87.7083 227.646 87.526 228.04 87.4233C228.438 87.3172 228.829 87.2642 229.213 87.2642C229.459 87.2642 229.74 87.294 230.059 87.3537C230.38 87.41 230.69 87.5277 230.988 87.7067C231.29 87.8857 231.54 88.1558 231.739 88.517C231.938 88.8783 232.037 89.3622 232.037 89.9688V95H230.864V93.9659H230.804C230.725 94.1316 230.592 94.3089 230.407 94.4979C230.221 94.6868 229.974 94.8475 229.666 94.9801C229.358 95.1127 228.981 95.179 228.537 95.179ZM228.716 94.125C229.18 94.125 229.571 94.0339 229.89 93.8516C230.211 93.6693 230.453 93.4339 230.615 93.1456C230.781 92.8572 230.864 92.554 230.864 92.2358V91.1619C230.814 91.2216 230.705 91.2763 230.536 91.326C230.37 91.3724 230.178 91.4138 229.959 91.4503C229.744 91.4834 229.533 91.5133 229.328 91.5398C229.126 91.563 228.962 91.5829 228.836 91.5994C228.531 91.6392 228.246 91.7038 227.98 91.7933C227.719 91.8795 227.506 92.0104 227.344 92.1861C227.185 92.3584 227.105 92.5937 227.105 92.892C227.105 93.2997 227.256 93.608 227.558 93.8168C227.863 94.0223 228.249 94.125 228.716 94.125ZM235.063 92.2159L235.043 90.7642H235.281L238.622 87.3636H240.074L236.514 90.9631H236.415L235.063 92.2159ZM233.969 95V84.8182H235.142V95H233.969ZM238.821 95L235.838 91.2216L236.673 90.4062L240.313 95H238.821ZM244.261 95.1591C243.525 95.1591 242.891 94.9967 242.357 94.6719C241.827 94.3438 241.418 93.8864 241.129 93.2997C240.844 92.7098 240.702 92.0237 240.702 91.2415C240.702 90.4593 240.844 89.7699 241.129 89.1733C241.418 88.5734 241.819 88.1061 242.332 87.7713C242.849 87.4332 243.453 87.2642 244.142 87.2642C244.54 87.2642 244.932 87.3305 245.32 87.4631C245.708 87.5956 246.061 87.8111 246.379 88.1094C246.697 88.4044 246.951 88.7955 247.14 89.2827C247.329 89.7699 247.423 90.3698 247.423 91.0824V91.5795H241.537V90.5653H246.23C246.23 90.1345 246.144 89.75 245.971 89.4119C245.802 89.0739 245.561 88.8071 245.246 88.6115C244.934 88.416 244.566 88.3182 244.142 88.3182C243.675 88.3182 243.27 88.4342 242.929 88.6662C242.591 88.8949 242.331 89.1932 242.148 89.5611C241.966 89.929 241.875 90.3234 241.875 90.7443V91.4205C241.875 91.9972 241.974 92.486 242.173 92.8871C242.375 93.2848 242.655 93.5881 243.013 93.7969C243.371 94.0024 243.787 94.1051 244.261 94.1051C244.57 94.1051 244.848 94.062 245.096 93.9759C245.348 93.8864 245.565 93.7538 245.748 93.5781C245.93 93.3991 246.071 93.1771 246.17 92.9119L247.304 93.2301C247.185 93.6146 246.984 93.9527 246.702 94.2443C246.421 94.5327 246.073 94.758 245.658 94.9205C245.244 95.0795 244.778 95.1591 244.261 95.1591Z" fill="black" fill-opacity="0.6"/>
<rect y="173" width="315" height="74" fill="#3FE844"/>
<rect y="53" width="105" height="74" fill="#EFEFEF"/>
<rect x="0.25" y="53.25" width="104.5" height="73.5" stroke="black" stroke-opacity="0.15" stroke-width="0.5" stroke-dasharray="6 6"/>
<path d="M353.8 207.848C356.2 207.848 357.672 206.152 357.672 204.168C357.672 202.408 356.456 200.744 353.768 200.744C350.952 200.744 349.16 202.152 348.808 205.448H345.896C346.376 200.808 348.68 198.024 353.832 198.024C358.6 198.024 360.616 201.096 360.616 203.784C360.616 205.768 359.688 208.296 357.8 208.84V209.032C360.296 209.64 361.768 211.624 361.768 214.44C361.768 218.472 358.856 221.576 353.896 221.576C348.392 221.576 345.96 218.184 345.608 213.928H348.584C348.936 217.032 350.792 218.856 353.832 218.856C356.744 218.856 358.824 217.256 358.824 214.184C358.824 211.304 356.52 210.472 353.896 210.472H351.336V207.848H353.8ZM362.564 221.032L368.324 212.552L362.916 204.584H366.052L369.988 210.344L373.86 204.584H377.06L371.652 212.584L377.412 221.032H374.212L369.956 214.824L365.7 221.032H362.564Z" fill="black"/>
<path d="M43.0787 193H38.3855V202.26H43.0787V193Z" fill="#023106"/>
<path d="M52.8746 205.407L51.3482 200.841L43.9684 203.325L45.4947 207.89L52.8746 205.407Z" fill="#023106"/>
<path d="M43.2327 213.261H38.5396V226.193H43.2327V213.261Z" fill="#023106"/>
<path d="M34.4544 210.229L33.5674 205.555L21.0027 207.955L21.8897 212.629L34.4544 210.229Z" fill="#023106"/>
<path d="M38.0016 213.692L34.3447 210.662L24.3261 222.83L27.9829 225.86L38.0016 213.692Z" fill="#023106"/>
<path d="M46.1895 208.593L42.9725 212.061L49.7857 218.423L53.0027 214.956L46.1895 208.593Z" fill="#023106"/>
<path d="M26.5585 194.349L23.9312 198.25L34.6004 205.482L37.2276 201.581L26.5585 194.349Z" fill="#023106"/>
</svg>
