<svg width="1416" height="75" viewBox="0 0 1416 75" fill="none" xmlns="http://www.w3.org/2000/svg">
<g clip-path="url(#clip0_6057_7965)">
<mask id="mask0_6057_7965" style="mask-type:alpha" maskUnits="userSpaceOnUse" x="0" y="0" width="1745" height="123">
<path d="M1744.5 6.10352e-05L1744.5 122.242L-5.34338e-06 122.242L0 -1.52194e-05L1744.5 6.10352e-05Z" fill="#D9D9D9"/>
</mask>
<g mask="url(#mask0_6057_7965)">
<line y1="-0.25" x2="830.557" y2="-0.25" transform="matrix(0.838388 0.545074 -0.984334 0.176314 1414.13 -233.452)" stroke="#D9D9D9" stroke-width="0.5"/>
<line y1="-0.25" x2="830.557" y2="-0.25" transform="matrix(0.838388 0.545074 -0.984334 0.176314 1393.32 -231.114)" stroke="#D9D9D9" stroke-width="0.5"/>
<line y1="-0.25" x2="830.557" y2="-0.25" transform="matrix(0.838388 0.545074 -0.984334 0.176314 1372.52 -228.777)" stroke="#D9D9D9" stroke-width="0.5"/>
<line y1="-0.25" x2="830.557" y2="-0.25" transform="matrix(0.838388 0.545074 -0.984334 0.176314 1351.71 -226.439)" stroke="#D9D9D9" stroke-width="0.5"/>
<line y1="-0.25" x2="830.557" y2="-0.25" transform="matrix(0.838388 0.545074 -0.984334 0.176314 1330.9 -224.101)" stroke="#D9D9D9" stroke-width="0.5"/>
<line y1="-0.25" x2="830.557" y2="-0.25" transform="matrix(0.838388 0.545074 -0.984334 0.176314 1310.1 -221.763)" stroke="#D9D9D9" stroke-width="0.5"/>
<line y1="-0.25" x2="830.557" y2="-0.25" transform="matrix(0.838388 0.545074 -0.984334 0.176314 1289.29 -219.425)" stroke="#D9D9D9" stroke-width="0.5"/>
<line y1="-0.25" x2="830.557" y2="-0.25" transform="matrix(0.838388 0.545074 -0.984334 0.176314 1268.48 -217.088)" stroke="#D9D9D9" stroke-width="0.5"/>
<line y1="-0.25" x2="830.557" y2="-0.25" transform="matrix(0.838388 0.545074 -0.984334 0.176314 1247.67 -214.74)" stroke="#D9D9D9" stroke-width="0.5"/>
<line y1="-0.25" x2="830.557" y2="-0.25" transform="matrix(0.838388 0.545074 -0.984334 0.176314 1226.86 -212.402)" stroke="#D9D9D9" stroke-width="0.5"/>
<line y1="-0.25" x2="830.557" y2="-0.25" transform="matrix(0.838388 0.545074 -0.984334 0.176314 1206.06 -210.064)" stroke="#D9D9D9" stroke-width="0.5"/>
<line y1="-0.25" x2="830.557" y2="-0.25" transform="matrix(0.838388 0.545074 -0.984334 0.176314 1185.25 -207.726)" stroke="#D9D9D9" stroke-width="0.5"/>
<line y1="-0.25" x2="830.557" y2="-0.25" transform="matrix(0.838388 0.545074 -0.984334 0.176314 1164.44 -205.388)" stroke="#D9D9D9" stroke-width="0.5"/>
<line y1="-0.25" x2="830.557" y2="-0.25" transform="matrix(0.838388 0.545074 -0.984334 0.176314 1143.64 -203.051)" stroke="#D9D9D9" stroke-width="0.5"/>
<line y1="-0.25" x2="830.557" y2="-0.25" transform="matrix(0.838388 0.545074 -0.984334 0.176314 1122.82 -200.713)" stroke="#D9D9D9" stroke-width="0.5"/>
<line y1="-0.25" x2="830.557" y2="-0.25" transform="matrix(0.838388 0.545074 -0.984334 0.176314 1102.01 -198.375)" stroke="#D9D9D9" stroke-width="0.5"/>
<line y1="-0.25" x2="830.557" y2="-0.25" transform="matrix(0.838388 0.545074 -0.984334 0.176314 1081.21 -196.027)" stroke="#D9D9D9" stroke-width="0.5"/>
<line y1="-0.25" x2="830.557" y2="-0.25" transform="matrix(0.838388 0.545074 -0.984334 0.176314 1060.4 -193.69)" stroke="#D9D9D9" stroke-width="0.5"/>
<line y1="-0.25" x2="830.557" y2="-0.25" transform="matrix(0.838388 0.545074 -0.984334 0.176314 1039.6 -191.352)" stroke="#D9D9D9" stroke-width="0.5"/>
<line y1="-0.25" x2="830.557" y2="-0.25" transform="matrix(0.838388 0.545074 -0.984334 0.176314 1018.79 -189.014)" stroke="#D9D9D9" stroke-width="0.5"/>
<line y1="-0.25" x2="830.557" y2="-0.25" transform="matrix(0.838388 0.545074 -0.984334 0.176314 997.975 -186.676)" stroke="#D9D9D9" stroke-width="0.5"/>
<line y1="-0.25" x2="830.557" y2="-0.25" transform="matrix(0.838388 0.545074 -0.984334 0.176314 977.172 -184.338)" stroke="#D9D9D9" stroke-width="0.5"/>
<line y1="-0.25" x2="830.557" y2="-0.25" transform="matrix(0.838388 0.545074 -0.984334 0.176314 956.361 -182.001)" stroke="#D9D9D9" stroke-width="0.5"/>
<line y1="-0.25" x2="830.557" y2="-0.25" transform="matrix(0.838388 0.545074 -0.984334 0.176314 935.55 -179.663)" stroke="#D9D9D9" stroke-width="0.5"/>
<line y1="-0.25" x2="830.557" y2="-0.25" transform="matrix(0.838388 0.545074 -0.984334 0.176314 914.748 -177.315)" stroke="#D9D9D9" stroke-width="0.5"/>
<line y1="-0.25" x2="830.557" y2="-0.25" transform="matrix(0.838388 0.545074 -0.984334 0.176314 893.937 -174.977)" stroke="#D9D9D9" stroke-width="0.5"/>
<line y1="-0.25" x2="830.557" y2="-0.25" transform="matrix(0.838388 0.545074 -0.984334 0.176314 873.126 -172.64)" stroke="#D9D9D9" stroke-width="0.5"/>
<line y1="-0.25" x2="830.557" y2="-0.25" transform="matrix(0.838388 0.545074 -0.984334 0.176314 852.325 -170.302)" stroke="#D9D9D9" stroke-width="0.5"/>
<line y1="-0.25" x2="830.557" y2="-0.25" transform="matrix(0.838388 0.545074 -0.984334 0.176314 831.512 -167.964)" stroke="#D9D9D9" stroke-width="0.5"/>
<line y1="-0.25" x2="830.557" y2="-0.25" transform="matrix(0.838388 0.545074 -0.984334 0.176314 810.711 -165.626)" stroke="#D9D9D9" stroke-width="0.5"/>
<line y1="-0.25" x2="830.557" y2="-0.25" transform="matrix(0.838388 0.545074 -0.984334 0.176314 789.9 -163.288)" stroke="#D9D9D9" stroke-width="0.5"/>
<line y1="-0.25" x2="830.557" y2="-0.25" transform="matrix(0.838388 0.545074 -0.984334 0.176314 769.087 -160.95)" stroke="#D9D9D9" stroke-width="0.5"/>
<line y1="-0.25" x2="830.557" y2="-0.25" transform="matrix(0.838388 0.545074 -0.984334 0.176314 748.286 -158.603)" stroke="#D9D9D9" stroke-width="0.5"/>
<line y1="-0.25" x2="830.557" y2="-0.25" transform="matrix(0.838388 0.545074 -0.984334 0.176314 727.476 -156.265)" stroke="#D9D9D9" stroke-width="0.5"/>
<line y1="-0.25" x2="830.557" y2="-0.25" transform="matrix(0.838388 0.545074 -0.984334 0.176314 706.665 -153.927)" stroke="#D9D9D9" stroke-width="0.5"/>
<line y1="-0.25" x2="830.557" y2="-0.25" transform="matrix(0.838388 0.545074 -0.984334 0.176314 685.862 -151.589)" stroke="#D9D9D9" stroke-width="0.5"/>
<line y1="-0.25" x2="830.557" y2="-0.25" transform="matrix(0.838388 0.545074 -0.984334 0.176314 665.051 -149.251)" stroke="#D9D9D9" stroke-width="0.5"/>
<line y1="-0.25" x2="830.557" y2="-0.25" transform="matrix(0.838388 0.545074 -0.984334 0.176314 644.24 -146.914)" stroke="#D9D9D9" stroke-width="0.5"/>
<line y1="-0.25" x2="830.557" y2="-0.25" transform="matrix(0.838388 0.545074 -0.984334 0.176314 623.437 -144.576)" stroke="#D9D9D9" stroke-width="0.5"/>
<line y1="-0.25" x2="830.557" y2="-0.25" transform="matrix(0.838388 0.545074 -0.984334 0.176314 602.626 -142.238)" stroke="#D9D9D9" stroke-width="0.5"/>
<line y1="-0.25" x2="830.557" y2="-0.25" transform="matrix(0.838388 0.545074 -0.984334 0.176314 581.825 -139.89)" stroke="#D9D9D9" stroke-width="0.5"/>
<line y1="-0.25" x2="830.557" y2="-0.25" transform="matrix(0.838388 0.545074 -0.984334 0.176314 561.014 -137.552)" stroke="#D9D9D9" stroke-width="0.5"/>
<line y1="-0.25" x2="830.557" y2="-0.25" transform="matrix(0.838388 0.545074 -0.984334 0.176314 540.202 -135.215)" stroke="#D9D9D9" stroke-width="0.5"/>
<line y1="-0.25" x2="830.557" y2="-0.25" transform="matrix(0.838388 0.545074 -0.984334 0.176314 519.401 -132.877)" stroke="#D9D9D9" stroke-width="0.5"/>
<line y1="-0.25" x2="830.557" y2="-0.25" transform="matrix(0.838388 0.545074 -0.984334 0.176314 498.59 -130.539)" stroke="#D9D9D9" stroke-width="0.5"/>
<line y1="-0.25" x2="830.557" y2="-0.25" transform="matrix(0.838388 0.545074 -0.984334 0.176314 477.777 -128.201)" stroke="#D9D9D9" stroke-width="0.5"/>
<line y1="-0.25" x2="830.557" y2="-0.25" transform="matrix(0.838388 0.545074 -0.984334 0.176314 456.976 -125.863)" stroke="#D9D9D9" stroke-width="0.5"/>
<line y1="-0.25" x2="830.557" y2="-0.25" transform="matrix(0.838388 0.545074 -0.984334 0.176314 436.165 -123.526)" stroke="#D9D9D9" stroke-width="0.5"/>
<line y1="-0.25" x2="830.557" y2="-0.25" transform="matrix(0.838388 0.545074 -0.984334 0.176314 415.354 -121.178)" stroke="#D9D9D9" stroke-width="0.5"/>
<line y1="-0.25" x2="830.557" y2="-0.25" transform="matrix(0.838388 0.545074 -0.984334 0.176314 394.552 -118.84)" stroke="#D9D9D9" stroke-width="0.5"/>
<line y1="-0.25" x2="830.557" y2="-0.25" transform="matrix(0.838388 0.545074 -0.984334 0.176314 373.74 -116.502)" stroke="#D9D9D9" stroke-width="0.5"/>
<line y1="-0.25" x2="830.557" y2="-0.25" transform="matrix(0.838388 0.545074 -0.984334 0.176314 352.94 -114.164)" stroke="#D9D9D9" stroke-width="0.5"/>
<line y1="-0.25" x2="830.557" y2="-0.25" transform="matrix(0.838388 0.545074 -0.984334 0.176314 332.127 -111.827)" stroke="#D9D9D9" stroke-width="0.5"/>
<line y1="-0.25" x2="830.557" y2="-0.25" transform="matrix(0.838388 0.545074 -0.984334 0.176314 311.316 -109.489)" stroke="#D9D9D9" stroke-width="0.5"/>
<line y1="-0.25" x2="830.557" y2="-0.25" transform="matrix(0.838388 0.545074 -0.984334 0.176314 290.515 -107.151)" stroke="#D9D9D9" stroke-width="0.5"/>
<line y1="-0.25" x2="830.557" y2="-0.25" transform="matrix(0.838388 0.545074 -0.984334 0.176314 269.704 -104.813)" stroke="#D9D9D9" stroke-width="0.5"/>
<line y1="-0.25" x2="830.557" y2="-0.25" transform="matrix(0.838388 0.545074 -0.984334 0.176314 248.891 -102.466)" stroke="#D9D9D9" stroke-width="0.5"/>
<line y1="-0.25" x2="830.557" y2="-0.25" transform="matrix(0.838388 0.545074 -0.984334 0.176314 228.09 -100.128)" stroke="#D9D9D9" stroke-width="0.5"/>
<line y1="-0.25" x2="830.557" y2="-0.25" transform="matrix(0.838388 0.545074 -0.984334 0.176314 207.279 -97.7897)" stroke="#D9D9D9" stroke-width="0.5"/>
<line y1="-0.25" x2="830.557" y2="-0.25" transform="matrix(0.838388 0.545074 -0.984334 0.176314 186.467 -95.452)" stroke="#D9D9D9" stroke-width="0.5"/>
<line y1="-0.25" x2="830.557" y2="-0.25" transform="matrix(0.838388 0.545074 -0.984334 0.176314 165.666 -93.1142)" stroke="#D9D9D9" stroke-width="0.5"/>
<line y1="-0.25" x2="830.557" y2="-0.25" transform="matrix(0.838388 0.545074 -0.984334 0.176314 144.855 -90.7764)" stroke="#D9D9D9" stroke-width="0.5"/>
<line y1="-0.25" x2="830.557" y2="-0.25" transform="matrix(0.838388 0.545074 -0.984334 0.176314 124.052 -88.4387)" stroke="#D9D9D9" stroke-width="0.5"/>
<line y1="-0.25" x2="830.557" y2="-0.25" transform="matrix(0.838388 0.545074 -0.984334 0.176314 103.241 -86.101)" stroke="#D9D9D9" stroke-width="0.5"/>
<line y1="-0.25" x2="830.557" y2="-0.25" transform="matrix(0.838388 0.545074 -0.984334 0.176314 82.4302 -83.7531)" stroke="#D9D9D9" stroke-width="0.5"/>
<line y1="-0.25" x2="830.557" y2="-0.25" transform="matrix(0.838388 0.545074 -0.984334 0.176314 61.6293 -81.4153)" stroke="#D9D9D9" stroke-width="0.5"/>
<line y1="-0.25" x2="830.557" y2="-0.25" transform="matrix(0.838388 0.545074 -0.984334 0.176314 40.8164 -79.0773)" stroke="#D9D9D9" stroke-width="0.5"/>
<line y1="-0.25" x2="830.557" y2="-0.25" transform="matrix(0.838388 0.545074 -0.984334 0.176314 20.0055 -76.7396)" stroke="#D9D9D9" stroke-width="0.5"/>
<line y1="-0.25" x2="830.557" y2="-0.25" transform="matrix(0.838388 0.545074 -0.984334 0.176314 -0.795288 -74.4019)" stroke="#D9D9D9" stroke-width="0.5"/>
<line y1="-0.25" x2="830.557" y2="-0.25" transform="matrix(0.838388 0.545074 -0.984334 0.176314 -21.6083 -72.0641)" stroke="#D9D9D9" stroke-width="0.5"/>
<line y1="-0.25" x2="830.557" y2="-0.25" transform="matrix(0.838388 0.545074 -0.984334 0.176314 -42.4131 -69.7263)" stroke="#D9D9D9" stroke-width="0.5"/>
<line y1="-0.25" x2="830.557" y2="-0.25" transform="matrix(0.838388 0.545074 -0.984334 0.176314 -63.22 -67.3885)" stroke="#D9D9D9" stroke-width="0.5"/>
<line y1="-0.25" x2="830.557" y2="-0.25" transform="matrix(0.838388 0.545074 -0.984334 0.176314 -84.0309 -65.0408)" stroke="#D9D9D9" stroke-width="0.5"/>
<line y1="-0.25" x2="830.557" y2="-0.25" transform="matrix(0.838388 0.545074 -0.984334 0.176314 -104.838 -62.703)" stroke="#D9D9D9" stroke-width="0.5"/>
<line y1="-0.25" x2="830.557" y2="-0.25" transform="matrix(0.838388 0.545074 -0.984334 0.176314 -125.645 -60.365)" stroke="#D9D9D9" stroke-width="0.5"/>
<line y1="-0.25" x2="830.557" y2="-0.25" transform="matrix(0.838388 0.545074 -0.984334 0.176314 -146.456 -58.0272)" stroke="#D9D9D9" stroke-width="0.5"/>
<line y1="-0.25" x2="830.557" y2="-0.25" transform="matrix(0.838388 0.545074 -0.984334 0.176314 -167.262 -55.6895)" stroke="#D9D9D9" stroke-width="0.5"/>
<line y1="-0.25" x2="830.557" y2="-0.25" transform="matrix(0.838388 0.545074 -0.984334 0.176314 -188.069 -53.3517)" stroke="#D9D9D9" stroke-width="0.5"/>
<line y1="-0.25" x2="830.557" y2="-0.25" transform="matrix(0.838388 0.545074 -0.984334 0.176314 -208.876 -51.0139)" stroke="#D9D9D9" stroke-width="0.5"/>
<line y1="-0.25" x2="830.557" y2="-0.25" transform="matrix(0.838388 0.545074 -0.984334 0.176314 -229.687 -48.6761)" stroke="#D9D9D9" stroke-width="0.5"/>
<line y1="-0.25" x2="830.557" y2="-0.25" transform="matrix(0.838388 0.545074 -0.984334 0.176314 -250.494 -46.3284)" stroke="#D9D9D9" stroke-width="0.5"/>
<line y1="-0.25" x2="830.557" y2="-0.25" transform="matrix(0.838388 0.545074 -0.984334 0.176314 -271.299 -43.9906)" stroke="#D9D9D9" stroke-width="0.5"/>
<line y1="-0.25" x2="830.557" y2="-0.25" transform="matrix(0.838388 0.545074 -0.984334 0.176314 -292.106 -41.6526)" stroke="#D9D9D9" stroke-width="0.5"/>
<line y1="-0.25" x2="830.557" y2="-0.25" transform="matrix(0.838388 0.545074 -0.984334 0.176314 -312.918 -39.3148)" stroke="#D9D9D9" stroke-width="0.5"/>
<line y1="-0.25" x2="830.557" y2="-0.25" transform="matrix(0.838388 0.545074 -0.984334 0.176314 -333.723 -36.9771)" stroke="#D9D9D9" stroke-width="0.5"/>
<line y1="-0.25" x2="830.557" y2="-0.25" transform="matrix(0.838388 0.545074 -0.984334 0.176314 -354.53 -34.6393)" stroke="#D9D9D9" stroke-width="0.5"/>
<line y1="-0.25" x2="830.557" y2="-0.25" transform="matrix(0.838388 0.545074 -0.984334 0.176314 -375.341 -32.3015)" stroke="#D9D9D9" stroke-width="0.5"/>
<line y1="-0.25" x2="830.557" y2="-0.25" transform="matrix(0.838388 0.545074 -0.984334 0.176314 -396.148 -29.9637)" stroke="#D9D9D9" stroke-width="0.5"/>
</g>
</g>
<defs>
<clipPath id="clip0_6057_7965">
<rect width="1416" height="75" fill="white"/>
</clipPath>
</defs>
</svg>
