<svg width="40" height="40" viewBox="0 0 40 40" fill="none" xmlns="http://www.w3.org/2000/svg">
<mask id="path-1-inside-1_4709_40432" fill="white">
<path d="M0 0H40V40H0V0Z"/>
</mask>
<path d="M0 0H40V40H0V0Z" fill="#ECFDEC"/>
<path d="M0 0V-0.25H-0.25V0H0ZM40 0H40.25V-0.25H40V0ZM40 40V40.25H40.25V40H40ZM0 40H-0.25V40.25H0V40ZM0 0H-0.25V3.33333H0H0.25V0H0ZM0 10H-0.25V16.6667H0H0.25V10H0ZM0 23.3333H-0.25V30H0H0.25V23.3333H0ZM0 36.6667H-0.25V40H0H0.25V36.6667H0ZM0 40V40.25H3.33333V40V39.75H0V40ZM10 40V40.25H16.6667V40V39.75H10V40ZM23.3333 40V40.25H30V40V39.75H23.3333V40ZM36.6667 40V40.25H40V40V39.75H36.6667V40ZM40 40H40.25V36.6667H40H39.75V40H40ZM40 30H40.25V23.3333H40H39.75V30H40ZM40 16.6667H40.25V10H40H39.75V16.6667H40ZM40 3.33333H40.25V0H40H39.75V3.33333H40ZM40 0V-0.25H36.6667V0V0.25H40V0ZM30 0V-0.25H23.3333V0V0.25H30V0ZM16.6667 0V-0.25H10V0V0.25H16.6667V0ZM3.33333 0V-0.25H0V0V0.25H3.33333V0ZM0 0V-0.5H-0.5V0H0ZM40 0H40.5V-0.5H40V0ZM40 40V40.5H40.5V40H40ZM0 40H-0.5V40.5H0V40ZM0 0H-0.5V3.33333H0H0.5V0H0ZM0 10H-0.5V16.6667H0H0.5V10H0ZM0 23.3333H-0.5V30H0H0.5V23.3333H0ZM0 36.6667H-0.5V40H0H0.5V36.6667H0ZM0 40V40.5H3.33333V40V39.5H0V40ZM10 40V40.5H16.6667V40V39.5H10V40ZM23.3333 40V40.5H30V40V39.5H23.3333V40ZM36.6667 40V40.5H40V40V39.5H36.6667V40ZM40 40H40.5V36.6667H40H39.5V40H40ZM40 30H40.5V23.3333H40H39.5V30H40ZM40 16.6667H40.5V10H40H39.5V16.6667H40ZM40 3.33333H40.5V0H40H39.5V3.33333H40ZM40 0V-0.5H36.6667V0V0.5H40V0ZM30 0V-0.5H23.3333V0V0.5H30V0ZM16.6667 0V-0.5H10V0V0.5H16.6667V0ZM3.33333 0V-0.5H0V0V0.5H3.33333V0Z" fill="#3FE844" mask="url(#path-1-inside-1_4709_40432)"/>
<path fill-rule="evenodd" clip-rule="evenodd" d="M11 11H29V26.1952L20 31.1043L11 26.1952V11ZM23.5607 18.25L22.5 17.1893L19 20.6893L17.5 19.1893L16.4393 20.25L19 22.8107L23.5607 18.25Z" fill="#3FE844"/>
</svg>
