<svg width="56" height="56" viewBox="0 0 56 56" fill="none" xmlns="http://www.w3.org/2000/svg">
<path d="M28 0C12.544 0 0 12.544 0 28C0 43.456 12.544 56 28 56C43.456 56 56 43.456 56 28C56 12.544 43.456 0 28 0ZM28 53.76C13.776 53.76 2.24 42.224 2.24 28C2.24 13.776 13.776 2.24 28 2.24C42.224 2.24 53.76 13.776 53.76 28C53.76 42.224 42.224 53.76 28 53.76Z" fill="black"/>
<path d="M28.8401 31.0801H33.8801V41.1601H36.1201V31.0801H41.1601V28.8401H28.8401V31.0801ZM25.8721 28.5601L21.0001 33.4321L16.1281 28.5601L14.5601 30.1281L19.4321 35.0001L14.5601 39.8721L16.1281 41.4401L21.0001 36.5681L25.8721 41.4401L27.4401 39.8721L22.5681 35.0001L27.4401 30.1281L25.8721 28.5601ZM34.8321 27.1601C38.3041 27.1601 41.1041 24.3601 41.1041 20.8881H38.8641C38.8641 23.1281 37.0721 24.9761 34.8321 24.9761C34.2161 24.9761 33.6001 24.8081 33.0401 24.5841L38.4721 19.1521L40.0961 17.5281C38.9761 15.7921 37.0161 14.6721 34.8321 14.6721C31.3601 14.5601 28.5601 17.3601 28.5601 20.8881C28.5601 24.4161 31.3601 27.1601 34.8321 27.1601ZM34.8321 16.8001C35.6161 16.8001 36.3441 17.0241 36.9601 17.4161L31.3601 23.0161C31.0241 22.4001 30.8001 21.6721 30.8001 20.8321C30.8001 18.5921 32.5921 16.8001 34.8321 16.8001ZM21.0001 20.2161L16.2961 14.5601L14.5601 16.0161L19.8801 22.3441V27.1601H22.1201V22.3441L27.4401 16.0161L25.7041 14.5601L21.0001 20.2161Z" fill="black"/>
<path d="M50.4 49.28C48.552 49.28 47.04 50.792 47.04 52.64C47.04 54.488 48.552 56 50.4 56C52.248 56 53.76 54.488 53.76 52.64C53.76 50.792 52.248 49.28 50.4 49.28ZM50.4 55.72C48.72 55.72 47.32 54.32 47.32 52.64C47.32 50.96 48.72 49.56 50.4 49.56C52.08 49.56 53.48 50.96 53.48 52.64C53.48 54.32 52.08 55.72 50.4 55.72Z" fill="black"/>
<path d="M51.744 54.3201H51.408L50.624 52.9761H49.56V54.3201H49.28V50.9601H50.624C51.184 50.9601 51.632 51.4081 51.632 51.9681C51.632 52.4161 51.352 52.8081 50.904 52.9201L51.744 54.3201ZM49.56 52.6961H50.624C51.016 52.6961 51.352 52.3601 51.352 51.9681C51.352 51.5761 51.016 51.2401 50.624 51.2401H49.56V52.6961Z" fill="black"/>
</svg>
