<svg width="114" height="33" viewBox="0 0 114 33" fill="none" xmlns="http://www.w3.org/2000/svg">
<path d="M34.3694 15.4658V20.6325C33.7527 21.6337 32.5591 22.6355 31.264 22.6355C29.8728 22.6355 29.0084 21.7256 29.0084 20.2608C29.0084 18.2185 30.793 17.1306 32.3479 16.4113L34.3694 15.4658ZM37.7081 22.5384C37.0094 22.5384 36.8728 22.0247 36.8728 21.1376V12.2536C36.8728 9.22809 35.1694 7.42181 32.3166 7.42181C28.9093 7.42181 27.3602 10.0497 27.3365 12.6543L27.3354 12.7613H29.6014L29.5999 12.6537C29.5872 11.7251 29.9045 10.8613 30.4708 10.284C30.9335 9.81201 31.5302 9.56262 32.1962 9.56262C33.5571 9.56262 34.3694 10.6304 34.3694 12.4191V13.2477L31.6331 14.5469C28.531 15.9988 26.4976 17.1795 26.4976 20.2421C26.4976 22.9308 28.1888 24.7373 30.7061 24.7373C32.1331 24.7373 33.4949 24.0313 34.5608 22.7438C34.9233 24.0144 35.8672 24.7373 37.179 24.7373C37.6401 24.7373 38.1298 24.6362 38.5948 24.4447L38.6608 24.4174V22.2306L38.5045 22.316C38.2793 22.4388 38.0103 22.5614 37.7081 22.5384Z" fill="black" fill-opacity="0.5"/>
<path d="M50.4605 2.50444H47.9572L47.8696 7.75205H45.6923V10.0181H47.9572V20.9114C47.9572 23.3566 49.0987 24.7035 51.1713 24.7035C51.9855 24.7035 52.7882 24.4748 53.6249 24.0047L53.679 23.974V21.7141L53.5065 21.8551C52.9699 22.2944 52.3595 22.5363 51.7881 22.5363C50.6909 22.5363 50.4605 21.6224 50.4605 20.8555V10.0181H54.0365V7.75205H50.4605V2.50444Z" fill="black" fill-opacity="0.5"/>
<path d="M21.3751 20.466C20.431 21.8359 19.3461 22.5901 18.3176 22.5901C16.9684 22.5901 16.4877 21.2657 16.4877 20.0265V7.75178H13.9846V20.1028C13.9846 22.9837 15.2946 24.6359 17.5791 24.6359C19.4578 24.6359 20.6933 23.6118 21.437 22.6559L21.4793 24.3295H23.8784V7.75178H21.3751V20.466Z" fill="black" fill-opacity="0.5"/>
<path d="M8.26474 11.5828V20.6822C7.57507 21.9301 6.7377 22.5115 5.63148 22.5115C3.58275 22.5115 2.54386 20.3473 2.54386 16.0785C2.54386 11.9751 3.71244 9.62158 5.74969 9.62158C6.8755 9.62158 7.86102 10.3907 8.26474 11.5828ZM8.55474 9.26249C7.92925 8.10141 6.77552 7.44495 5.32774 7.44495C3.93513 7.44495 2.65419 8.13453 1.7209 9.38639C0.578888 10.9181 0 13.1702 0 16.0796C0 22.4462 2.5693 24.7145 4.97402 24.7145C6.33421 24.7145 7.5145 24.154 8.26474 23.165V32.4397H10.7681V7.75201H8.62341L8.55474 9.26249Z" fill="black" fill-opacity="0.5"/>
<path d="M40.6858 24.4492H43.1891V3.05176e-05H40.6858V24.4492Z" fill="black" fill-opacity="0.5"/>
<path d="M65.8351 24.3298H68.3382V7.75212H65.8351V24.3298Z" fill="black" fill-opacity="0.5"/>
<path d="M65.8351 5.36664H68.3382V2.50427H65.8351V5.36664Z" fill="black" fill-opacity="0.5"/>
<path d="M58.9413 9.71688L58.8159 7.75246H56.4211V24.4493H58.9244V12.4412C58.9244 12.4412 61.5171 9.84371 62.9115 9.84348L63.4539 9.89079V7.3945H62.8258C61.0603 7.46658 60.091 8.01874 58.9413 9.71688Z" fill="black" fill-opacity="0.5"/>
<path d="M88.5624 14.5333L88.4989 14.62L88.5486 14.5261L88.5477 14.5254C86.9881 13.72 85.8839 13.0413 85.8839 11.6369C85.8839 10.4206 86.7447 9.6033 88.0256 9.6033C88.7112 9.6033 89.289 9.84142 89.6965 10.2922C90.1957 10.8441 90.4278 11.7015 90.3335 12.6443L90.3218 12.7612H92.6231L92.6281 12.6601C92.7031 11.0971 92.251 9.71841 91.3548 8.77788C90.5323 7.91462 89.3894 7.45821 88.0495 7.45821C85.3674 7.45821 83.494 9.23497 83.494 11.779C83.494 14.5506 85.715 15.7396 87.3359 16.6076C88.9503 17.4846 90.4751 18.3127 90.4751 20.042C90.4751 21.5 89.4151 22.5581 87.9547 22.5581C86.3641 22.5581 85.2206 21.2206 85.1739 19.3055L85.1715 19.2017H82.8528L82.8552 19.3103C82.93 22.6752 84.8842 24.7651 87.9547 24.7651C90.8917 24.7651 92.8645 22.8194 92.8645 19.9237C92.8645 16.8122 90.5789 15.6015 88.5624 14.5333Z" fill="black" fill-opacity="0.5"/>
<path d="M78.8727 19.2015C78.8224 20.3811 78.5016 21.354 77.9551 21.924C77.5658 22.3299 77.0727 22.5356 76.4893 22.5356C74.5899 22.5356 73.5861 20.3214 73.5861 16.1321C73.5861 11.9629 74.6257 9.66688 76.513 9.66688C77.0561 9.66688 77.5161 9.85791 77.8804 10.235C78.3913 10.7638 78.6982 11.6655 78.7529 12.7613H81.0887C81.0612 11.0271 80.5949 9.63804 79.719 8.72544C78.9465 7.9203 77.8995 7.51232 76.6069 7.51232C73.0676 7.51232 71.1184 10.5653 71.1184 16.1087C71.1184 21.6519 73.009 24.7046 76.4425 24.7046C79.2068 24.7046 80.9367 22.6615 81.1549 19.2015H78.8727Z" fill="black" fill-opacity="0.5"/>
<path d="M95.9789 22.969C95.9215 23.0014 95.8362 23.0176 95.7247 23.0176H95.3971V22.5405H95.7247C95.8362 22.5405 95.9215 22.5603 95.9789 22.5988C96.0373 22.6374 96.0661 22.702 96.0661 22.7921C96.0661 22.8784 96.0373 22.9365 95.9789 22.969ZM96.3601 23.071C96.4117 22.9784 96.4374 22.8712 96.4374 22.7486C96.4374 22.572 96.3845 22.4339 96.278 22.3337C96.171 22.2332 96.0156 22.1828 95.811 22.1828H94.9202V23.9717H95.3971V23.3754H95.7612L96.0857 23.9717H96.4993L96.1176 23.2769C96.2282 23.2323 96.3097 23.1636 96.3601 23.071Z" fill="black" fill-opacity="0.5"/>
<path d="M96.8173 23.597C96.7527 23.7535 96.6642 23.8889 96.5518 24.0029C96.4406 24.1169 96.3087 24.2045 96.1565 24.2649C96.0034 24.3262 95.8419 24.3568 95.6717 24.3568C95.4965 24.3568 95.333 24.3262 95.1808 24.2649C95.028 24.2045 94.896 24.1169 94.7848 24.0029C94.6724 23.8889 94.5839 23.7535 94.5193 23.597C94.4538 23.4413 94.4214 23.2667 94.4214 23.0761C94.4214 22.8889 94.4538 22.717 94.5193 22.5605C94.5839 22.4039 94.6724 22.2687 94.7848 22.1547C94.896 22.0405 95.028 21.9538 95.1808 21.8925C95.333 21.8312 95.4965 21.8006 95.6717 21.8006C95.8419 21.8006 96.0034 21.8312 96.1565 21.8925C96.3087 21.9538 96.4406 22.0405 96.5518 22.1547C96.6642 22.2687 96.7527 22.4039 96.8173 22.5605C96.8828 22.717 96.9152 22.8889 96.9152 23.0761C96.9152 23.2667 96.8828 23.4413 96.8173 23.597ZM97.1226 22.4321C97.0411 22.239 96.9297 22.0736 96.7867 21.9351C96.6446 21.7972 96.4771 21.6891 96.2841 21.6116C96.0909 21.5352 95.8827 21.496 95.6589 21.496C95.4353 21.496 95.2277 21.5352 95.0347 21.6116C94.8417 21.6891 94.6733 21.7972 94.5313 21.9351C94.3892 22.0736 94.2777 22.239 94.196 22.4321C94.1145 22.6253 94.0744 22.8396 94.0744 23.0761C94.0744 23.3118 94.1145 23.5271 94.196 23.7222C94.2777 23.9178 94.3892 24.0854 94.5313 24.2259C94.6733 24.3663 94.8417 24.4751 95.0347 24.5517C95.2277 24.6292 95.4353 24.6675 95.6589 24.6675C95.8827 24.6675 96.0909 24.6292 96.2841 24.5517C96.4771 24.4751 96.6446 24.3663 96.7867 24.2259C96.9297 24.0854 97.0411 23.9178 97.1226 23.7222C97.2035 23.5271 97.2442 23.3118 97.2442 23.0761C97.2442 22.8396 97.2035 22.6253 97.1226 22.4321Z" fill="black" fill-opacity="0.5"/>
<path d="M100.696 7.27403L103.388 2.80272V11.6579L100.696 7.27403ZM110.911 2.38529L108.756 10.0181H108.729L106.416 2.38529H103.713H103.464H101.36L99.6088 5.49952L97.7548 2.38529H95.1556L98.179 7.27876L94.8613 12.7611H97.3232L99.4395 9.15262L101.631 12.7611H103.499H104.149H105.534V5.6054H105.561C105.616 5.90479 105.667 6.16138 105.714 6.37472C105.762 6.58806 105.808 6.78563 105.854 6.96698C105.899 7.14877 105.948 7.32111 106 7.48466C106.052 7.64799 106.105 7.82731 106.16 8.0224L107.691 12.7611H109.753L111.265 8.02488C111.376 7.64371 111.479 7.27628 111.575 6.92237C111.67 6.56846 111.754 6.16927 111.825 5.72457H111.852V12.7611H113.997V2.38529H110.911Z" fill="black" fill-opacity="0.5"/>
</svg>
