<svg width="40" height="40" viewBox="0 0 40 40" fill="none" xmlns="http://www.w3.org/2000/svg">
<mask id="path-1-inside-1_6137_26949" fill="white">
<path d="M0 0H40V40H0V0Z"/>
</mask>
<path d="M0 0H40V40H0V0Z" fill="#EBF2FF"/>
<path d="M0 0V-0.25H-0.25V0H0ZM40 0H40.25V-0.25H40V0ZM40 40V40.25H40.25V40H40ZM0 40H-0.25V40.25H0V40ZM0 0H-0.25V3.33333H0H0.25V0H0ZM0 10H-0.25V16.6667H0H0.25V10H0ZM0 23.3333H-0.25V30H0H0.25V23.3333H0ZM0 36.6667H-0.25V40H0H0.25V36.6667H0ZM0 40V40.25H3.33333V40V39.75H0V40ZM10 40V40.25H16.6667V40V39.75H10V40ZM23.3333 40V40.25H30V40V39.75H23.3333V40ZM36.6667 40V40.25H40V40V39.75H36.6667V40ZM40 40H40.25V36.6667H40H39.75V40H40ZM40 30H40.25V23.3333H40H39.75V30H40ZM40 16.6667H40.25V10H40H39.75V16.6667H40ZM40 3.33333H40.25V0H40H39.75V3.33333H40ZM40 0V-0.25H36.6667V0V0.25H40V0ZM30 0V-0.25H23.3333V0V0.25H30V0ZM16.6667 0V-0.25H10V0V0.25H16.6667V0ZM3.33333 0V-0.25H0V0V0.25H3.33333V0ZM0 0V-0.5H-0.5V0H0ZM40 0H40.5V-0.5H40V0ZM40 40V40.5H40.5V40H40ZM0 40H-0.5V40.5H0V40ZM0 0H-0.5V3.33333H0H0.5V0H0ZM0 10H-0.5V16.6667H0H0.5V10H0ZM0 23.3333H-0.5V30H0H0.5V23.3333H0ZM0 36.6667H-0.5V40H0H0.5V36.6667H0ZM0 40V40.5H3.33333V40V39.5H0V40ZM10 40V40.5H16.6667V40V39.5H10V40ZM23.3333 40V40.5H30V40V39.5H23.3333V40ZM36.6667 40V40.5H40V40V39.5H36.6667V40ZM40 40H40.5V36.6667H40H39.5V40H40ZM40 30H40.5V23.3333H40H39.5V30H40ZM40 16.6667H40.5V10H40H39.5V16.6667H40ZM40 3.33333H40.5V0H40H39.5V3.33333H40ZM40 0V-0.5H36.6667V0V0.5H40V0ZM30 0V-0.5H23.3333V0V0.5H30V0ZM16.6667 0V-0.5H10V0V0.5H16.6667V0ZM3.33333 0V-0.5H0V0V0.5H3.33333V0Z" fill="#3981FF" mask="url(#path-1-inside-1_6137_26949)"/>
<path fill-rule="evenodd" clip-rule="evenodd" d="M11.8657 11H28.1339L29.7431 16.1293C30.1554 17.4434 29.8091 18.7698 28.9998 19.7059V29H10.9998V19.7059C10.1906 18.7698 9.84426 17.4434 10.2566 16.1293L11.8657 11ZM18.1667 12.5L17.6536 16.8616C17.4884 18.266 18.5857 19.5 19.9998 19.5C21.4095 19.5 22.5043 18.2738 22.3476 16.8749L21.8329 12.5H18.1667ZM23.8377 16.7032C23.8371 16.6976 23.8364 16.692 23.8358 16.6863L23.3433 12.5H27.0324L28.3119 16.5783C28.7663 18.0267 27.6844 19.5 26.1663 19.5C25.0261 19.5 24.0663 18.6465 23.9331 17.5141L23.8377 16.7032ZM16.6564 12.5L16.0665 17.5141C15.9333 18.6465 14.9735 19.5 13.8333 19.5C12.3152 19.5 11.2334 18.0267 11.6878 16.5783L12.9672 12.5H16.6564Z" fill="#3981FF"/>
</svg>
