<svg width="40" height="40" viewBox="0 0 40 40" fill="none" xmlns="http://www.w3.org/2000/svg">
<mask id="path-1-inside-1_4709_42473" fill="white">
<path d="M0 0H40V40H0V0Z"/>
</mask>
<path d="M0 0H40V40H0V0Z" fill="#F6EAFF"/>
<path d="M0 0V-0.25H-0.25V0H0ZM40 0H40.25V-0.25H40V0ZM40 40V40.25H40.25V40H40ZM0 40H-0.25V40.25H0V40ZM0 0H-0.25V3.33333H0H0.25V0H0ZM0 10H-0.25V16.6667H0H0.25V10H0ZM0 23.3333H-0.25V30H0H0.25V23.3333H0ZM0 36.6667H-0.25V40H0H0.25V36.6667H0ZM0 40V40.25H3.33333V40V39.75H0V40ZM10 40V40.25H16.6667V40V39.75H10V40ZM23.3333 40V40.25H30V40V39.75H23.3333V40ZM36.6667 40V40.25H40V40V39.75H36.6667V40ZM40 40H40.25V36.6667H40H39.75V40H40ZM40 30H40.25V23.3333H40H39.75V30H40ZM40 16.6667H40.25V10H40H39.75V16.6667H40ZM40 3.33333H40.25V0H40H39.75V3.33333H40ZM40 0V-0.25H36.6667V0V0.25H40V0ZM30 0V-0.25H23.3333V0V0.25H30V0ZM16.6667 0V-0.25H10V0V0.25H16.6667V0ZM3.33333 0V-0.25H0V0V0.25H3.33333V0ZM0 0V-0.5H-0.5V0H0ZM40 0H40.5V-0.5H40V0ZM40 40V40.5H40.5V40H40ZM0 40H-0.5V40.5H0V40ZM0 0H-0.5V3.33333H0H0.5V0H0ZM0 10H-0.5V16.6667H0H0.5V10H0ZM0 23.3333H-0.5V30H0H0.5V23.3333H0ZM0 36.6667H-0.5V40H0H0.5V36.6667H0ZM0 40V40.5H3.33333V40V39.5H0V40ZM10 40V40.5H16.6667V40V39.5H10V40ZM23.3333 40V40.5H30V40V39.5H23.3333V40ZM36.6667 40V40.5H40V40V39.5H36.6667V40ZM40 40H40.5V36.6667H40H39.5V40H40ZM40 30H40.5V23.3333H40H39.5V30H40ZM40 16.6667H40.5V10H40H39.5V16.6667H40ZM40 3.33333H40.5V0H40H39.5V3.33333H40ZM40 0V-0.5H36.6667V0V0.5H40V0ZM30 0V-0.5H23.3333V0V0.5H30V0ZM16.6667 0V-0.5H10V0V0.5H16.6667V0ZM3.33333 0V-0.5H0V0V0.5H3.33333V0Z" fill="#A72BFF" mask="url(#path-1-inside-1_4709_42473)"/>
<g clip-path="url(#clip0_4709_42473)">
<path d="M20 20C23.3137 20 26 22.6863 26 26V28H14V26C14 22.6863 16.6863 20 20 20Z" fill="#A72BFF"/>
<path d="M14.4111 21C13.2232 22.327 12.5 24.0788 12.5 26V27H8V26C8 23.2386 10.2386 21 13 21H14.4111Z" fill="#A72BFF"/>
<path d="M27.0009 21C29.7623 21 32.0009 23.2386 32.0009 26V27H27.5009V26C27.5009 24.0788 26.7777 22.327 25.5898 21H27.0009Z" fill="#A72BFF"/>
<path d="M12.5 14.25C14.0188 14.25 15.25 15.4812 15.25 17C15.25 18.5188 14.0188 19.75 12.5 19.75C10.9812 19.75 9.75 18.5188 9.75 17C9.75 15.4812 10.9812 14.25 12.5 14.25Z" fill="#A72BFF"/>
<path d="M27.5 14.25C29.0188 14.25 30.25 15.4812 30.25 17C30.25 18.5188 29.0188 19.75 27.5 19.75C25.9812 19.75 24.75 18.5188 24.75 17C24.75 15.4812 25.9812 14.25 27.5 14.25Z" fill="#A72BFF"/>
<path d="M20 11.5C21.933 11.5 23.5 13.067 23.5 15C23.5 16.933 21.933 18.5 20 18.5C18.067 18.5 16.5 16.933 16.5 15C16.5 13.067 18.067 11.5 20 11.5Z" fill="#A72BFF"/>
</g>
<defs>
<clipPath id="clip0_4709_42473">
<rect width="24" height="24" fill="white" transform="translate(8 8)"/>
</clipPath>
</defs>
</svg>
