<svg width="157" height="38" viewBox="0 0 157 38" fill="none" xmlns="http://www.w3.org/2000/svg">
<path d="M22.5666 2.54519L22.411 2.47986C20.3423 1.34592 17.3387 1.47658 15.049 1.99922C14.7006 2.07803 13.9016 2.36113 12.652 2.84851C12.2123 3.01961 11.4584 3.40589 10.3904 4.00734C9.68728 4.4045 8.80844 4.83951 7.75383 5.31238C7.17001 5.57473 6.57997 5.72924 5.9837 5.77591L8.48335 4.24999C9.55818 4.15511 10.381 3.43803 11.3143 3.03206C11.3942 2.9968 11.8935 2.76451 12.8122 2.3352C13.8762 1.83953 14.9873 1.49784 16.1456 1.31015C18.1511 0.984536 20.0498 1.22304 21.8417 2.02567C22.0522 2.12003 22.2939 2.29321 22.5666 2.54519Z" fill="#F7AF72"/>
<path d="M22.411 2.47981C21.205 2.12931 19.8606 1.9608 18.3777 1.97428C16.606 1.99139 15.1625 2.13294 13.6304 2.73802C12.749 3.08644 12.2253 3.30888 12.0594 3.40532C10.5869 4.25875 9.20612 4.98412 7.91715 5.58142C7.22652 5.90081 6.61262 6.24716 6.07547 6.62048C5.23862 7.20015 4.6714 7.62272 4.37378 7.88819C3.34302 8.80591 2.35167 9.50069 1.39972 9.97252C2.5321 8.21328 4.21979 6.86002 5.9837 5.77586C6.57996 5.72919 7.17 5.57468 7.75382 5.31232C8.80843 4.83946 9.68727 4.40445 10.3903 4.00728C11.4584 3.40583 12.2123 3.01956 12.652 2.84846C13.9016 2.36107 14.7006 2.07798 15.049 1.99917C17.3386 1.47653 20.3423 1.34587 22.411 2.47981Z" fill="#F2AE88"/>
<path d="M22.4111 2.47979L22.5666 2.54512L22.8699 2.81888C21.3673 2.44868 19.9425 2.31646 18.5955 2.42224C17.012 2.54771 15.9076 2.65296 15.2823 2.738C14.2267 2.88214 13.1099 3.2596 11.9319 3.87038C9.7713 4.99188 7.96851 5.95316 6.26371 7.21776C4.96956 8.178 4.09901 8.88833 3.65207 9.34875C1.69062 11.3724 1.02488 14.0229 0.999993 16.8104L0.482021 17.0515C-0.113725 14.6311 0.0931526 12.0848 1.39975 9.9725C2.3517 9.50067 3.34305 8.80589 4.37381 7.88816C4.67143 7.6227 5.23865 7.20013 6.0755 6.62045C6.61266 6.24714 7.22655 5.90079 7.91718 5.5814C9.20615 4.9841 10.5869 4.25873 12.0594 3.40529C12.2253 3.30885 12.749 3.08642 13.6304 2.738C15.1626 2.13292 16.606 1.99137 18.3777 1.97426C19.8606 1.96078 21.2051 2.12929 22.4111 2.47979Z" fill="#EAAA98"/>
<path d="M22.8699 2.81887C23.2598 3.16522 23.5564 3.57897 23.7597 4.06013L23.489 3.71793C22.8959 3.25855 22.1124 3.00086 21.1387 2.94486C19.4463 2.84842 18.0967 2.88575 17.0898 3.05685C15.8112 3.27462 14.5248 3.56394 13.2307 3.92481C11.9179 4.29034 10.8586 4.96231 9.59709 5.64205C7.65172 6.68836 5.89196 7.94778 4.31782 9.42029C3.13722 10.5247 2.2506 11.8095 1.76374 13.225C1.03474 15.3487 1.01089 17.4922 1.69219 19.6553C1.31472 18.7614 1.084 17.8131 1 16.8103C1.02489 14.0229 1.69063 11.3724 3.65208 9.34874C4.09902 8.88832 4.96957 8.17799 6.26372 7.21774C7.96852 5.95314 9.77131 4.99186 11.9319 3.87036C13.1099 3.25958 14.2267 2.88212 15.2823 2.73798C15.9076 2.65295 17.012 2.5477 18.5955 2.42222C19.9425 2.31645 21.3674 2.44866 22.8699 2.81887Z" fill="#E1AAA7"/>
<path d="M23.839 2.33521L24.2994 2.4892C25.5313 3.54692 26.4911 4.57457 27.1786 5.57214C28.3623 7.29405 29.2598 8.7142 30.4031 10.1826C31.0678 11.037 31.5474 11.6219 31.8419 11.9371C33.4829 13.6964 34.1984 14.4103 35.2437 15.9098C34.4525 15.0584 33.8707 14.4783 33.4985 14.1692C32.6803 13.4911 31.789 12.8004 31.0922 12.06C29.9266 10.8208 28.9715 9.56089 28.227 8.28022C27.2647 6.62312 26.5383 5.47 26.0478 4.82085C25.6433 4.28473 24.9071 3.45618 23.839 2.33521Z" fill="#FAB968"/>
<path d="M25.018 2.67735C26.924 4.20793 28.4167 5.76652 29.4962 7.3531C30.6379 9.03197 31.8465 10.6595 33.122 12.2357C34.1414 13.4957 34.9642 14.865 35.5905 16.3437L35.2437 15.9097C34.1984 14.4103 33.4829 13.6963 31.8419 11.9371C31.5474 11.6218 31.0678 11.037 30.4031 10.1825C29.2598 8.71414 28.3623 7.29399 27.1786 5.57208C26.491 4.57451 25.5313 3.54686 24.2994 2.48914L25.018 2.67735Z" fill="#F7AF72"/>
<path d="M26.2826 2.88113C28.5023 4.13485 30.1448 5.93764 31.6661 8.02041C31.8963 8.33566 32.1027 8.68408 32.2852 9.06569C32.8809 10.3132 33.7209 11.5778 34.2622 12.5562C34.8128 13.5496 35.3033 14.6867 35.7337 15.9673C35.7596 16.3012 35.8555 16.6103 36.0214 16.8944L35.9965 17.109C35.7767 16.9089 35.6414 16.6538 35.5905 16.3437C34.9642 14.865 34.1414 13.4957 33.122 12.2357C31.8465 10.6595 30.6379 9.03199 29.4962 7.35312C28.4167 5.76654 26.924 4.20795 25.018 2.67737L26.2826 2.88113Z" fill="#F3A080"/>
<path d="M23.489 3.71791L20.8183 3.60903C19.7325 3.48667 18.7484 3.48407 17.866 3.60125C16.4349 3.79258 15.3928 3.86257 14.2759 4.169C12.8522 4.55994 11.8323 4.89437 11.2163 5.17228C8.92357 6.20615 6.68058 7.77251 4.48736 9.87136C3.76251 10.5661 3.22535 11.2469 2.87589 11.9137C2.42066 12.7858 2.07119 13.6175 1.8275 14.4087C1.28309 16.1695 1.44486 18.1714 1.94727 19.9695C1.98253 20.095 2.04371 20.2396 2.13082 20.4035C2.20444 20.5435 2.27237 20.686 2.33459 20.8312L1.69218 19.6553C1.01088 17.4921 1.03473 15.3487 1.76373 13.225C2.25059 11.8095 3.13721 10.5247 4.31781 9.42027C5.89195 7.94776 7.65171 6.68835 9.59709 5.64203C10.8586 4.96229 11.9179 4.29033 13.2307 3.92479C14.5248 3.56392 15.8112 3.2746 17.0898 3.05684C18.0967 2.88574 19.4463 2.84841 21.1387 2.94484C22.1124 3.00084 22.8959 3.25853 23.489 3.71791Z" fill="#D6ABB7"/>
<path d="M27.2284 2.94332C29.1961 4.27792 30.834 5.57051 32.1297 7.54908C33.8267 10.1389 35.1022 12.8175 35.7337 15.9673C35.3034 14.6866 34.8129 13.5496 34.2622 12.5561C33.7209 11.5777 32.881 10.3131 32.2852 9.06566C32.1027 8.68405 31.8964 8.33563 31.6661 8.02038C30.1449 5.93761 28.5023 4.13481 26.2827 2.8811L27.2284 2.94332Z" fill="#EF9189"/>
<path d="M31.4172 4.01975C31.8942 4.63468 32.5206 5.50678 33.2962 6.63605C34.3923 8.23093 35.1369 9.93106 35.5299 11.7364C35.7373 12.6894 35.9504 14.2319 36.1692 16.364L36.0214 16.8944C35.8555 16.6103 35.7596 16.3012 35.7337 15.9673C35.1021 12.8175 33.8266 10.139 32.1296 7.54911C30.8339 5.57055 29.196 4.27795 27.2283 2.94336C28.7071 3.0678 30.1034 3.42659 31.4172 4.01975Z" fill="#EC8290"/>
<path d="M20.8183 3.60914L20.2334 4.03534L19.1866 4.22666C18.0931 4.31377 16.9405 4.5222 15.931 4.62642C14.8712 4.73427 13.7653 4.96188 12.6132 5.30927C11.2863 5.70747 10.0513 6.34988 8.91581 6.97985C7.13635 7.96602 5.35067 9.44061 4.21828 11.2154C3.75475 11.9434 3.38714 12.5661 3.11545 13.0835C1.88352 15.437 1.50554 18.4126 2.38749 20.9324C2.36468 20.9055 2.34705 20.8718 2.33461 20.8313C2.27239 20.6861 2.20446 20.5436 2.13084 20.4036C2.04373 20.2397 1.98255 20.0951 1.94729 19.9696C1.44488 18.1715 1.28311 16.1696 1.82752 14.4088C2.07121 13.6176 2.42068 12.7859 2.87591 11.9138C3.22537 11.247 3.76253 10.5662 4.48738 9.87147C6.68059 7.77262 8.92358 6.20626 11.2164 5.17239C11.8323 4.89448 12.8522 4.56005 14.276 4.16911C15.3928 3.86268 16.435 3.79269 17.866 3.60136C18.7485 3.48418 19.7326 3.48678 20.8183 3.60914Z" fill="#C5B4C7"/>
<path d="M23.489 3.71801L23.7597 4.06022L24.6027 5.73391L21.7438 5.99367L18.9486 5.61569C19.5319 5.2486 20.1945 4.79129 20.2334 4.03533L20.8183 3.60913L23.489 3.71801Z" fill="#AB93BA"/>
<path d="M20.2334 4.03528C20.1945 4.79124 19.5319 5.24855 18.9486 5.61564L15.1688 6.08384L16.1409 5.43054L19.1865 4.2266L20.2334 4.03528Z" fill="#A7A1C8"/>
<path d="M36.1692 16.364C35.9504 14.232 35.7373 12.6895 35.5299 11.7365C35.1369 9.93109 34.3923 8.23096 33.2962 6.63608C32.5206 5.50681 31.8942 4.63471 31.4172 4.01978C33.9133 5.18534 35.5123 7.09909 36.2143 9.76102C36.2828 10.0223 36.3465 10.2857 36.4056 10.5512C36.4658 10.8219 36.5078 11.0899 36.5316 11.3554C36.682 13.0394 36.5612 14.709 36.1692 16.364Z" fill="#EB6D91"/>
<path d="M19.1866 4.22656L16.141 5.4305C15.2388 5.61715 14.3309 5.74315 13.4173 5.80848C12.8294 5.85099 12.4063 5.91321 12.1481 5.99513C9.26734 6.91597 6.82059 8.585 5.00068 10.9664C4.64604 11.432 4.15295 12.2092 3.52143 13.2981C3.15538 13.9286 2.89302 14.5959 2.73436 15.3C2.4046 16.7559 2.23143 17.9852 2.21483 18.988C2.20239 19.7782 2.36986 20.6 2.71725 21.4534L2.38749 20.9323C1.50554 18.4125 1.88352 15.4369 3.11545 13.0834C3.38714 12.566 3.75475 11.9433 4.21828 11.2153C5.35067 9.44051 7.13635 7.96592 8.91581 6.97975C10.0513 6.34978 11.2863 5.70737 12.6132 5.30917C13.7653 4.96178 14.8712 4.73416 15.931 4.62632C16.9405 4.5221 18.0931 4.31367 19.1866 4.22656Z" fill="#B2BCD6"/>
<path d="M18.9486 5.6156L21.7438 5.99358C20.7493 6.19579 19.7709 6.44519 18.8086 6.74176C18.6064 6.80398 18.4332 6.89109 18.2891 7.00308C18.2644 7.02248 18.2451 7.04784 18.233 7.07674C18.2209 7.10564 18.2163 7.13711 18.2197 7.16816C18.2231 7.1992 18.2345 7.22878 18.2526 7.25407C18.2707 7.27936 18.2951 7.29952 18.3233 7.31262L19.0559 7.65482L17.9235 7.83993L13.8451 8.23502C13.4531 8.05251 13.0124 7.96229 12.5229 7.96436C12.445 7.96452 12.3696 7.93596 12.3111 7.88408C12.2527 7.8322 12.2151 7.7606 12.2056 7.68282C12.1932 7.5812 12.2404 7.45313 12.3472 7.29862L15.1688 6.0838L18.9486 5.6156Z" fill="#8398C7"/>
<path d="M24.6028 5.73389L25.4614 7.64401L19.0559 7.65489L18.3233 7.31269C18.2951 7.29959 18.2708 7.27943 18.2526 7.25414C18.2345 7.22885 18.2232 7.19927 18.2197 7.16823C18.2163 7.13718 18.2209 7.10571 18.233 7.07681C18.2452 7.04791 18.2645 7.02255 18.2891 7.00315C18.4332 6.89116 18.6064 6.80405 18.8086 6.74183C19.7709 6.44526 20.7493 6.19586 21.7438 5.99365L24.6028 5.73389Z" fill="#7D7EB4"/>
<path d="M25.4613 7.64392C25.9331 8.77216 26.5019 9.8755 27.1677 10.954C24.1075 9.9035 20.9779 9.47886 17.7788 9.68003C16.5428 9.75781 15.3134 9.89728 14.0908 10.0985C15.1874 9.5136 16.4582 9.41094 17.7026 9.17606C17.8634 9.14599 18.0174 9.08895 18.1646 9.00496C18.1694 9.00265 18.1732 8.99881 18.1753 8.99404C18.1774 8.98928 18.1778 8.98386 18.1764 8.97867C18.175 8.97347 18.1718 8.96879 18.1674 8.96538C18.163 8.96197 18.1576 8.96002 18.1522 8.95985L16.8409 8.95363C16.9622 8.40299 17.4304 8.09345 17.9235 7.83991L19.0559 7.65481L25.4613 7.64392Z" fill="#4A6BA7"/>
<path d="M14.0908 10.0986L11.7156 10.6756C12.3544 10.0047 13.1617 9.58111 14.1375 9.40482C15.3539 9.18498 16.255 9.03462 16.8409 8.95374L18.1522 8.95996C18.1577 8.96013 18.163 8.96208 18.1674 8.96549C18.1718 8.9689 18.175 8.97358 18.1764 8.97877C18.1778 8.98397 18.1775 8.98938 18.1753 8.99415C18.1732 8.99892 18.1694 9.00276 18.1646 9.00507C18.0174 9.08906 17.8634 9.1461 17.7027 9.17617C16.4583 9.41104 15.1875 9.51371 14.0908 10.0986Z" fill="#477BB8"/>
<path d="M23.8389 2.33521C24.907 3.45618 25.6433 4.28473 26.0477 4.82085C26.5382 5.47 27.2646 6.62312 28.2269 8.28022C28.9715 9.56089 29.9265 10.8208 31.0921 12.06C31.7889 12.8004 32.6802 13.4911 33.4984 14.1692C33.8707 14.4783 34.4524 15.0584 35.2436 15.9098" stroke="#FBBE64" stroke-width="2"/>
<path d="M35.2437 15.9098L35.5905 16.3438" stroke="#FAB969" stroke-width="2"/>
<path d="M35.5905 16.3438C35.6413 16.6538 35.7767 16.9089 35.9965 17.109" stroke="#F8B270" stroke-width="2"/>
<path d="M35.3914 26.5025C35.3603 26.1386 35.3168 25.7233 35.3541 25.3717C35.5097 23.8639 35.5631 22.3541 35.5143 20.8422C35.4848 19.8856 35.5314 18.3985 35.3883 17.1775" stroke="#FAB969" stroke-width="2"/>
<path d="M35.3883 17.1775L35.127 16.5133" stroke="#DF8F78" stroke-width="2"/>
<path d="M35.127 16.5133C34.903 16.1877 34.6158 15.9071 34.2653 15.6718" stroke="#D08976" stroke-width="2"/>
<path d="M34.2652 15.6717L32.5247 14.698" stroke="#A47F70" stroke-width="2"/>
<path d="M27.1677 10.954C26.5019 9.8755 25.9331 8.77216 25.4613 7.64392" stroke="#A39783" stroke-width="2"/>
<path d="M25.4613 7.64401L24.6027 5.73389" stroke="#BDA18A" stroke-width="2"/>
<path d="M24.6026 5.73387L23.7596 4.06018" stroke="#D4AB8D" stroke-width="2"/>
<path d="M23.7596 4.06011C23.5564 3.57895 23.2598 3.1652 22.8699 2.81885" stroke="#EFB783" stroke-width="2"/>
<path d="M22.8698 2.81893L22.5665 2.54517" stroke="#F3B77C" stroke-width="2"/>
<path d="M22.5665 2.54519C22.2938 2.29321 22.0522 2.12003 21.8417 2.02567C20.0498 1.22304 18.1511 0.984536 16.1455 1.31015C14.9872 1.49784 13.8761 1.83953 12.8122 2.3352C11.8934 2.76451 11.3941 2.9968 11.3142 3.03206C10.381 3.43803 9.55811 4.15511 8.48328 4.24999" stroke="#FAB969" stroke-width="2"/>
<path d="M22.8699 2.81887C21.3673 2.44866 19.9425 2.31645 18.5954 2.42222C17.012 2.5477 15.9076 2.65295 15.2823 2.73798C14.2266 2.88212 13.1098 3.25958 11.9318 3.87036C9.77125 4.99186 7.96845 5.95314 6.26366 7.21774C4.9695 8.17799 4.09896 8.88832 3.65202 9.34874C1.69057 11.3724 1.02483 14.0229 0.999939 16.8103" stroke="#E6AAA0" stroke-width="2"/>
<path d="M0.999906 16.8103L0.481934 17.0514" stroke="#EB9AA0" stroke-width="2"/>
<path d="M33.1998 31.0258C33.1982 28.6211 33.8935 26.6176 34.4021 24.4151C34.904 22.2436 35.2162 20.0478 35.3385 17.8276" stroke="#F5AF7D" stroke-width="2"/>
<path d="M35.3883 17.1775L35.3385 17.8277" stroke="#DD8581" stroke-width="2"/>
<path d="M35.3385 17.8276C35.324 17.837 35.311 17.8494 35.2996 17.865" stroke="#DA858C" stroke-width="2"/>
<path d="M35.2996 17.865L35.0648 18.5245" stroke="#D76F90" stroke-width="2"/>
<path d="M35.0648 18.5245C34.4529 19.66 34.0366 20.5238 33.8157 21.116C33.178 22.8322 32.3619 24.468 31.3674 26.0235C31.1787 26.319 30.8131 26.7794 30.2708 27.4047C29.6626 28.1078 29.1057 29.0737 28.3996 29.7457C27.8562 30.2632 27.2527 30.7168 26.589 31.1068" stroke="#D76491" stroke-width="2"/>
<path d="M26.589 31.1068C26.5382 31.0974 26.4931 31.0642 26.4537 31.0072" stroke="#B777A5" stroke-width="2"/>
<path d="M26.4537 31.0072L26.9639 30.5483" stroke="#A06DA2" stroke-width="2"/>
<path d="M14.0908 10.0986C15.1874 9.51371 16.4582 9.41104 17.7026 9.17617C17.8633 9.1461 18.0173 9.08906 18.1645 9.00507C18.1693 9.00276 18.1731 8.99892 18.1752 8.99415C18.1774 8.98938 18.1778 8.98397 18.1763 8.97877C18.1749 8.97358 18.1717 8.9689 18.1673 8.96549C18.1629 8.96208 18.1576 8.96013 18.1521 8.95996L16.8408 8.95374" stroke="#4973B0" stroke-width="2"/>
<path d="M16.8409 8.95368C16.9622 8.40305 17.4304 8.09351 17.9235 7.83997" stroke="#467EB9" stroke-width="2"/>
<path d="M34.2653 15.6718C34.368 17.3874 34.0569 18.8574 33.3304 20.4128C33.0328 21.0485 32.7715 21.5603 32.5465 21.9481C31.5365 23.6902 30.8619 24.8407 30.5228 25.3997C30.2843 25.7937 29.6072 26.7581 28.4914 28.2929C27.9501 29.0364 27.4383 29.4843 26.673 30.1485C26.1442 30.6058 25.5925 30.934 25.018 31.1331" stroke="#774587" stroke-width="2"/>
<path d="M23.7596 4.06022L23.489 3.71802" stroke="#C69FB1" stroke-width="2"/>
<path d="M23.4889 3.71791C22.8958 3.25853 22.1124 3.00084 21.1386 2.94484C19.4463 2.84841 18.0966 2.88574 17.0897 3.05684C15.8111 3.2746 14.5248 3.56392 13.2306 3.92479C11.9178 4.29033 10.8585 4.96229 9.59703 5.64203C7.65165 6.68835 5.89189 7.94776 4.31775 9.42027C3.13715 10.5247 2.25053 11.8095 1.76367 13.225C1.03467 15.3487 1.01082 17.4921 1.69211 19.6553" stroke="#DCABAF" stroke-width="2"/>
<path d="M1.69212 19.6553C1.31466 18.7614 1.08393 17.8131 0.999939 16.8103" stroke="#E69AA7" stroke-width="2"/>
<path d="M22.5666 2.54519L22.411 2.47986" stroke="#F1AD85" stroke-width="2"/>
<path d="M22.411 2.47981C20.3422 1.34587 17.3386 1.47653 15.0489 1.99917C14.7005 2.07798 13.9015 2.36107 12.652 2.84846C12.2123 3.01956 11.4584 3.40583 10.3903 4.00728C9.68722 4.40445 8.80838 4.83946 7.75377 5.31232C7.16995 5.57468 6.57991 5.72919 5.98364 5.77586" stroke="#F5AF7D" stroke-width="2"/>
<path d="M26.2826 2.8811C28.5023 4.13481 30.1448 5.93761 31.6661 8.02038C31.8963 8.33563 32.1027 8.68405 32.2852 9.06566C32.8809 10.3131 33.7209 11.5777 34.2622 12.5561C34.8128 13.5496 35.3033 14.6866 35.7336 15.9673" stroke="#F19985" stroke-width="2"/>
<path d="M35.7336 15.9673C35.7596 16.3012 35.8555 16.6102 36.0214 16.8943" stroke="#F09188" stroke-width="2"/>
<path d="M24.6027 5.73389L21.7437 5.99365" stroke="#9489B7" stroke-width="2"/>
<path d="M21.7437 5.99358L18.9485 5.6156" stroke="#9796C1" stroke-width="2"/>
<path d="M18.9485 5.61564C19.5318 5.24855 20.1945 4.79124 20.2334 4.03528" stroke="#A99AC1" stroke-width="2"/>
<path d="M25.4613 7.64392L19.0558 7.65481" stroke="#6475AE" stroke-width="2"/>
<path d="M35.127 16.5133C35.043 17.1822 34.9377 17.6825 34.8112 18.0143C33.9205 20.3517 32.8109 22.6859 31.4825 25.0171C30.7639 26.2786 29.7933 27.4669 28.8647 28.7984C28.4633 29.375 27.8297 29.9583 26.9639 30.5483" stroke="#B3558E" stroke-width="2"/>
<path d="M26.9639 30.5483C26.3002 30.9165 25.5992 31.1394 24.8609 31.2172" stroke="#9067A0" stroke-width="2"/>
<path d="M24.2994 2.48914C25.5313 3.54686 26.491 4.57451 27.1786 5.57208C28.3623 7.29399 29.2598 8.71414 30.4031 10.1825C31.0678 11.037 31.5474 11.6218 31.8419 11.9371C33.4829 13.6963 34.1984 14.4103 35.2437 15.9097" stroke="#F9B46D" stroke-width="2"/>
<path d="M25.018 2.67737C26.924 4.20795 28.4167 5.76654 29.4962 7.35312C30.6379 9.03199 31.8465 10.6595 33.122 12.2357C34.1414 13.4957 34.9642 14.865 35.5905 16.3437" stroke="#F5A879" stroke-width="2"/>
<path d="M22.411 2.47979C21.205 2.12929 19.8606 1.96078 18.3777 1.97426C16.606 1.99137 15.1625 2.13292 13.6304 2.738C12.749 3.08642 12.2253 3.30885 12.0594 3.40529C10.5869 4.25873 9.20612 4.9841 7.91715 5.5814C7.22652 5.90079 6.61262 6.24714 6.07547 6.62045C5.23862 7.20013 4.6714 7.6227 4.37378 7.88816C3.34302 8.80589 2.35167 9.50067 1.39972 9.9725" stroke="#EEAC90" stroke-width="2"/>
<path d="M4.60083 24.2113C4.7709 24.4311 4.94148 24.6494 5.11258 24.8662C6.18171 26.2236 7.30839 27.5317 8.49262 28.7906C8.63365 28.9399 8.78712 29.1136 8.95304 29.3117" stroke="#B791B7" stroke-width="2"/>
<path d="M8.95306 29.3118L11.0421 31.5252" stroke="#C996B8" stroke-width="2"/>
<path d="M11.0421 31.5251C11.5289 32.0167 12.008 32.5175 12.5431 32.9235C14.0104 34.0393 15.5389 34.9778 17.1286 35.7389C17.4719 35.9038 17.8431 36.0573 18.2423 36.1993C18.2754 36.2107 18.3099 36.218 18.345 36.2211L22.8543 36.6769" stroke="#E19BAF" stroke-width="2"/>
<path d="M22.8543 36.6769C24.1008 36.849 25.4042 36.9066 26.7648 36.8495" stroke="#EB9AA0" stroke-width="2"/>
<path d="M13.8202 34.5117C12.1154 33.2943 10.5029 31.9825 8.98264 30.5763C8.55644 30.1813 8.18831 29.8012 7.87825 29.4362C7.0103 28.4158 6.25901 27.6738 5.40972 26.5663C5.10277 26.1661 4.66206 25.6092 4.08757 24.8958C3.35131 23.9832 2.48543 22.5662 1.48993 20.6447" stroke="#E395B2" stroke-width="2"/>
<path d="M32.338 32.2438C31.2508 32.0556 31.6863 30.7677 31.9523 30.0335C32.8156 27.6474 33.6742 25.5662 34.2793 22.8488" stroke="#EEAC90" stroke-width="2"/>
<path d="M34.2792 22.8487C34.3166 22.2099 34.3845 21.7329 34.483 21.4177C34.8449 20.2532 35.1171 19.0689 35.2996 17.865" stroke="#EF988C" stroke-width="2"/>
<path d="M28.7698 30.5032C28.1579 30.7085 27.584 31.03 27.0479 31.4676" stroke="#EB7C9C" stroke-width="2"/>
<path d="M27.0479 31.4676C27.1671 31.1534 27.3662 30.8926 27.6452 30.6852C27.6493 30.6824 27.6529 30.6787 27.6556 30.6745C27.6583 30.6703 27.6602 30.6656 27.661 30.6607C27.6619 30.6558 27.6618 30.6507 27.6607 30.6458C27.6595 30.6409 27.6574 30.6363 27.6545 30.6323V30.6307C27.6492 30.6229 27.6408 30.6175 27.6308 30.6155C27.6208 30.6135 27.6099 30.615 27.6 30.6198L26.589 31.1067" stroke="#CB80A6" stroke-width="2"/>
<path d="M34.2793 22.8488C33.2169 25.8664 31.9927 28.5231 29.6875 30.7723" stroke="#EB9694" stroke-width="2"/>
<path d="M29.6875 30.7723L28.7698 30.5032" stroke="#EC869C" stroke-width="2"/>
<path d="M28.7698 30.5032C29.3007 29.9868 29.8477 29.3128 30.4108 28.4811C31.1636 27.3715 31.692 26.5513 31.9958 26.0204C32.4811 25.1752 33.318 23.3434 34.5064 20.5249C34.75 19.9462 34.9362 19.2795 35.0648 18.5245" stroke="#EC7891" stroke-width="2"/>
<path d="M25.6713 32.4087C23.6295 33.0972 21.54 33.4674 19.4027 33.5193C18.1853 33.5494 16.9679 33.5323 15.7505 33.468" stroke="#C19FB9" stroke-width="2"/>
<path d="M26.4537 31.0072C25.2414 31.4749 23.9862 31.6911 22.6879 31.6558C21.6893 31.6278 20.9955 31.3105 20.154 30.9139C20.049 30.8645 19.9359 30.8334 19.8196 30.8221L17.8083 30.6323" stroke="#9489B7" stroke-width="2"/>
<path d="M21.7437 5.99365C20.7493 6.19586 19.7709 6.44526 18.8086 6.74183C18.6063 6.80405 18.4332 6.89116 18.289 7.00315C18.2644 7.02256 18.2451 7.04792 18.233 7.07681C18.2208 7.10571 18.2162 7.13718 18.2197 7.16823C18.2231 7.19927 18.2344 7.22885 18.2526 7.25414C18.2707 7.27943 18.295 7.29959 18.3233 7.31269L19.0559 7.6549" stroke="#808BBE" stroke-width="2"/>
<path d="M19.0558 7.65491L17.9235 7.84001" stroke="#6782B7" stroke-width="2"/>
<path d="M17.9235 7.83997L13.845 8.23506" stroke="#6294C9" stroke-width="2"/>
<path d="M13.845 8.2351C13.453 8.05259 13.0123 7.96237 12.5229 7.96445C12.4449 7.9646 12.3695 7.93604 12.3111 7.88416C12.2526 7.83228 12.2151 7.76069 12.2056 7.68291C12.1931 7.58128 12.2403 7.45322 12.3471 7.29871" stroke="#6D9ED0" stroke-width="2"/>
<path d="M16.8409 8.95374C16.255 9.03462 15.3538 9.18498 14.1374 9.40482C13.1616 9.58111 12.3544 10.0047 11.7156 10.6756" stroke="#4486C1" stroke-width="2"/>
<path d="M10.6439 23.3263L12.0687 24.3996C12.1099 24.4305 12.1461 24.4678 12.176 24.51C12.484 24.9533 12.6738 25.4386 13.0766 25.8244C13.4634 26.1977 13.8964 26.5249 14.3754 26.8059" stroke="#4486C1" stroke-width="2"/>
<path d="M14.3754 26.8058L13.5292 27.1122" stroke="#5F87BF" stroke-width="2"/>
<path d="M13.5293 27.1122L12.1838 27.0298" stroke="#6294C9" stroke-width="2"/>
<path d="M23.4889 3.71789L20.8182 3.60901" stroke="#C19FB9" stroke-width="2"/>
<path d="M20.8182 3.60914C19.7325 3.48678 18.7484 3.48418 17.8659 3.60136C16.4349 3.79269 15.3927 3.86268 14.2759 4.16911C12.8521 4.56005 11.8323 4.89448 11.2163 5.17239C8.92352 6.20626 6.68053 7.77262 4.48732 9.87147C3.76247 10.5662 3.22531 11.247 2.87585 11.9138C2.42061 12.7859 2.07115 13.6176 1.82746 14.4088C1.28305 16.1696 1.44481 18.1715 1.94723 19.9696C1.98249 20.0951 2.04367 20.2397 2.13078 20.4036C2.2044 20.5436 2.27233 20.6862 2.33454 20.8313" stroke="#CEB0BF" stroke-width="2"/>
<path d="M2.33455 20.8312L1.69214 19.6553" stroke="#E19BAF" stroke-width="2"/>
<path d="M23.1747 31.1052C22.0625 30.9357 21.3346 30.553 20.3951 29.9137C19.805 29.5134 19.3711 29.2288 19.0932 29.0598C17.8923 28.3318 17.2064 27.8589 16.34 26.8588" stroke="#6475AE" stroke-width="2"/>
<path d="M19.0854 26.1945L17.4132 25.8041C17.3113 25.7805 17.2043 25.7951 17.1123 25.8453C17.0203 25.8954 16.9497 25.9776 16.9139 26.0763C16.8133 26.3553 16.622 26.6161 16.34 26.8587" stroke="#4973B0" stroke-width="2"/>
<path d="M16.34 26.8587L14.3754 26.8058" stroke="#627DB6" stroke-width="2"/>
<path d="M27.2283 2.94336C29.1959 4.27795 30.8339 5.57055 32.1296 7.54911C33.8266 10.139 35.1021 12.8175 35.7336 15.9673" stroke="#EE8A8D" stroke-width="2"/>
<path d="M31.4172 4.01978C31.8942 4.63471 32.5205 5.50681 33.2962 6.63608C34.3923 8.23096 35.1368 9.93109 35.5298 11.7365C35.7372 12.6895 35.9503 14.232 36.1691 16.364" stroke="#EC7891" stroke-width="2"/>
<path d="M18.9486 5.6156L15.1688 6.0838" stroke="#959DC8" stroke-width="2"/>
<path d="M15.1688 6.08384L16.1409 5.43054" stroke="#A6B3D5" stroke-width="2"/>
<path d="M16.1409 5.4305L19.1865 4.22656" stroke="#ADAFCF" stroke-width="2"/>
<path d="M20.8182 3.60901L20.2333 4.03521" stroke="#B8A4C1" stroke-width="2"/>
<path d="M20.2334 4.03528L19.1865 4.2266" stroke="#B6ABC8" stroke-width="2"/>
<path d="M19.1865 4.22656C18.093 4.31367 16.9404 4.5221 15.9309 4.62632C14.8711 4.73416 13.7652 4.96178 12.6131 5.30917C11.2863 5.70737 10.0512 6.34978 8.91575 6.97975C7.13629 7.96592 5.3506 9.44051 4.21822 11.2153C3.75469 11.9433 3.38708 12.566 3.11539 13.0834C1.88346 15.4369 1.50548 18.4125 2.38743 20.9323" stroke="#BCB8CF" stroke-width="2"/>
<path d="M2.38742 20.9324C2.36461 20.9054 2.34698 20.8717 2.33453 20.8313" stroke="#D89FB7" stroke-width="2"/>
<path d="M15.1687 6.08386L12.3471 7.29869" stroke="#94AED4" stroke-width="2"/>
<path d="M12.3471 7.29871L9.30927 8.5182" stroke="#7EB4DD" stroke-width="2"/>
<path d="M9.30927 8.51819C8.54864 8.78573 8.00889 9.35192 7.49714 9.71901C6.79873 10.2199 6.26054 10.5279 5.71146 11.3211C5.19919 12.0605 4.83106 12.6775 4.60707 13.1722C4.49923 13.4107 4.25917 13.9805 3.88689 14.8816C3.43891 15.9689 3.25848 17.0764 3.03138 18.4079C2.84576 19.4946 2.87428 20.5653 3.11693 21.6199C3.21182 22.029 3.39692 22.4272 3.5758 22.8223" stroke="#8FC3E8" stroke-width="2"/>
<path d="M3.57578 22.8223L2.71716 21.4535" stroke="#C8A7C4" stroke-width="2"/>
<path d="M13.5292 27.1123C14.4501 27.6215 15.1355 28.1394 15.5856 28.6662C16.3488 29.5601 17.0897 30.2155 17.8083 30.6323" stroke="#808BBE" stroke-width="2"/>
<path d="M17.8083 30.6323L18.5488 31.9171" stroke="#9796C1" stroke-width="2"/>
<path d="M18.5488 31.9172C16.9228 31.3645 15.752 31.0124 15.0365 30.861C14.6456 30.7781 13.6848 30.6396 12.1542 30.4457C11.1318 30.3161 10.0647 29.9381 8.95306 29.3118" stroke="#959DC8" stroke-width="2"/>
<path d="M18.5488 31.9171L15.7505 33.4679" stroke="#A99AC1" stroke-width="2"/>
<path d="M15.7505 33.4679L13.2275 33.2206C13.1768 33.2165 13.1285 33.197 13.0891 33.1646L11.0421 31.5251" stroke="#BFA6C0" stroke-width="2"/>
<path d="M22.8543 36.6769C24.2962 35.9536 25.4597 34.8896 26.4817 33.6266" stroke="#E0ABA8" stroke-width="2"/>
<path d="M26.4817 33.6265C27.6379 32.77 28.7065 31.8185 29.6875 30.7722" stroke="#EB9AA0" stroke-width="2"/>
<path d="M4.25555 23.11C4.15444 23.4802 4.43287 23.8971 4.60086 24.2113" stroke="#7EADDB" stroke-width="2"/>
<path d="M4.60086 24.2113L3.57581 22.8223" stroke="#B2A6CB" stroke-width="2"/>
<path d="M16.1409 5.43054C15.2387 5.6172 14.3308 5.74319 13.4173 5.80852C12.8293 5.85104 12.4062 5.91326 12.148 5.99518C9.26727 6.91602 6.82051 8.58504 5.00061 10.9665C4.64596 11.4321 4.15288 12.2093 3.52135 13.2981C3.1553 13.9286 2.89294 14.5959 2.73428 15.3C2.40452 16.7559 2.23135 17.9853 2.21476 18.988C2.20231 19.7782 2.36979 20.6 2.71717 21.4535" stroke="#ABC0DC" stroke-width="2"/>
<path d="M2.71715 21.4535L2.38739 20.9324" stroke="#CFA3BF" stroke-width="2"/>
<path d="M12.4202 34.045C11.4485 33.3264 10.4733 32.6212 9.49435 31.9296C7.2778 30.3663 5.85299 28.6724 4.2493 26.4279C3.512 25.3981 2.79804 24.0215 2.03741 22.8285" stroke="#D0AAC2" stroke-width="2"/>
<path d="M26.4817 33.6266C26.1529 33.6059 25.8662 33.5483 25.6215 33.454C25.116 33.258 25.4551 32.7291 25.6713 32.4087" stroke="#E19BAF" stroke-width="2"/>
<path d="M25.6713 32.4086L27.0479 31.4675" stroke="#CB8FB1" stroke-width="2"/>
<path d="M13.845 8.23511L12.9553 8.56176C12.9016 8.58137 12.8504 8.60803 12.8029 8.64109C12.3487 8.9584 12.0298 9.21505 11.5538 9.42349C10.8041 9.75014 10.2991 9.99538 10.0388 10.1592C9.4975 10.4983 8.55022 11.1869 7.19695 12.2249C6.42648 12.816 5.7794 13.5963 5.25573 14.5659C4.75072 15.4992 4.45829 16.1488 4.37844 16.5149C4.08497 17.864 3.99579 19.1509 4.1109 20.3756C4.22134 21.5391 4.63043 22.2701 5.21528 23.2501C5.99613 24.5598 7.04452 24.8615 8.38689 25.2411C8.75554 25.3453 9.26884 25.6471 9.54572 25.8119C10.1072 26.1464 11.0312 26.3937 11.5352 26.6223C11.6575 26.6783 11.8737 26.8142 12.1838 27.0299" stroke="#4C9AD1" stroke-width="2"/>
<path d="M12.1838 27.0298C11.3179 27.1241 10.3914 27.0334 9.40417 26.7576C7.21821 26.1478 5.50201 24.932 4.25555 23.11" stroke="#6D9ED0" stroke-width="2"/>
<path d="M4.2555 23.1101C3.69553 21.8346 3.68931 20.6182 3.76086 19.125C3.83864 17.5104 4.05174 15.6811 4.90102 14.2843C5.58543 13.1602 6.40931 12.1424 7.37267 11.2309C7.57903 11.037 7.63503 10.8483 7.54066 10.6647C7.52925 10.644 7.52562 10.63 7.52977 10.6227C7.54222 10.6041 7.54896 10.5854 7.54999 10.5667C7.55052 10.5552 7.54671 10.5438 7.53929 10.5346C7.53186 10.5255 7.5213 10.5192 7.50955 10.517C7.43489 10.5035 7.36489 10.5144 7.29956 10.5496C7.23112 10.5859 7.20675 10.5631 7.22646 10.4812C7.25964 10.3474 7.34882 10.2297 7.494 10.1281C8.16389 9.65939 8.76897 9.12275 9.30923 8.51819" stroke="#68B3E3" stroke-width="2"/>
<path d="M8.22976 32.8364C7.72682 32.1001 7.15752 31.4287 6.52185 30.822C5.86544 30.1936 5.5279 29.6243 4.99282 29.0286C4.68795 28.6884 4.36856 28.241 4.03465 27.6862C3.57423 26.9199 3.10189 26.1577 2.61761 25.3997" stroke="#B5BCD4" stroke-width="2"/>
<path d="M23.839 2.33514C24.907 3.45612 25.6433 4.28467 26.0477 4.82079C26.5382 5.46994 27.2646 6.62306 28.2269 8.28016C28.9715 9.56083 29.9266 10.8208 31.0921 12.06C31.789 12.8004 32.6803 13.491 33.4984 14.1692C33.8707 14.4782 34.4525 15.0584 35.2437 15.9097L35.5905 16.3437C35.6414 16.6538 35.7767 16.9089 35.9965 17.109C36.1054 17.4056 36.1847 17.6866 36.2345 17.9521C36.4336 19.0337 36.5021 20.1204 36.4398 21.2124C36.3372 23.0271 35.9877 24.7905 35.3914 26.5025C35.3603 26.1385 35.3168 25.7232 35.3541 25.3717C35.5097 23.8639 35.5631 22.3541 35.5143 20.8422C35.4848 19.8855 35.5314 18.3985 35.3883 17.1775L35.127 16.5133C34.903 16.1877 34.6158 15.9072 34.2653 15.6718L32.5247 14.698C31.4566 14.2272 30.613 13.8322 29.994 13.5128C28.8398 12.9175 27.8977 12.0646 27.1677 10.954C26.5019 9.87556 25.9331 8.77221 25.4613 7.64397L24.6027 5.73385L23.7596 4.06016C23.5564 3.579 23.2598 3.16525 22.8699 2.8189L22.5666 2.54513C22.2939 2.29315 22.0522 2.11997 21.8417 2.02561C20.0498 1.22298 18.1511 0.984476 16.1456 1.31009C14.9873 1.49778 13.8762 1.83947 12.8122 2.33514C11.8935 2.76445 11.3941 2.99674 11.3143 3.032C10.381 3.43797 9.55817 4.15505 8.48334 4.24993C9.57943 3.56241 10.6745 2.87334 11.7685 2.18271C14.6694 0.353473 17.8908 -0.936014 21.2133 0.866778C21.7033 1.13121 22.3519 1.65851 22.9943 1.96183C23.2754 2.09456 23.5569 2.219 23.839 2.33514Z" fill="#FCC35F"/>
<path d="M16.141 5.43054L15.1688 6.08384L12.3472 7.29866L9.30933 8.51815C8.5487 8.7857 8.00895 9.35189 7.4972 9.71898C6.79879 10.2198 6.2606 10.5278 5.71152 11.3211C5.19925 12.0605 4.83112 12.6775 4.60713 13.1721C4.49929 13.4106 4.25923 13.9805 3.88695 14.8816C3.43897 15.9689 3.25854 17.0764 3.03144 18.4078C2.84582 19.4946 2.87434 20.5653 3.11699 21.6199C3.21188 22.029 3.39698 22.4272 3.57586 22.8223L2.71724 21.4535C2.36985 20.6 2.20237 19.7782 2.21482 18.988C2.23141 17.9853 2.40459 16.7559 2.73435 15.3C2.893 14.5959 3.15536 13.9286 3.52141 13.2981C4.15294 12.2093 4.64602 11.4321 5.00067 10.9665C6.82057 8.58504 9.26733 6.91602 12.1481 5.99518C12.4063 5.91326 12.8294 5.85104 13.4173 5.80852C14.3309 5.74319 15.2388 5.6172 16.141 5.43054Z" fill="#A4C4E1"/>
<path d="M12.3471 7.29871C12.2403 7.45322 12.1931 7.58128 12.2056 7.68291C12.2151 7.76069 12.2526 7.83228 12.3111 7.88416C12.3696 7.93604 12.4449 7.9646 12.5229 7.96445C13.0124 7.96237 13.4531 8.05259 13.8451 8.2351L12.9553 8.56175C12.9016 8.58136 12.8504 8.60803 12.8029 8.64108C12.3487 8.9584 12.0298 9.21505 11.5538 9.42348C10.8041 9.75013 10.2991 9.99538 10.0388 10.1592C9.49751 10.4983 8.55022 11.1869 7.19696 12.2249C6.42649 12.816 5.77941 13.5963 5.25573 14.5659C4.75072 15.4992 4.45829 16.1488 4.37845 16.5149C4.08498 17.864 3.9958 19.1509 4.11091 20.3756C4.22134 21.5391 4.63043 22.2701 5.21529 23.2501C5.99614 24.5598 7.04453 24.8615 8.3869 25.2411C8.75555 25.3453 9.26885 25.6471 9.54573 25.8119C10.1073 26.1464 11.0312 26.3937 11.5352 26.6223C11.6575 26.6783 11.8737 26.8142 12.1838 27.0299C11.3179 27.1242 10.3914 27.0335 9.40418 26.7577C7.21822 26.1479 5.50202 24.9321 4.25556 23.1101C3.69559 21.8346 3.68937 20.6182 3.76092 19.125C3.8387 17.5104 4.0518 15.6811 4.90109 14.2843C5.58549 13.1602 6.40937 12.1424 7.37273 11.2309C7.57909 11.037 7.63509 10.8483 7.54072 10.6647C7.52931 10.644 7.52569 10.63 7.52983 10.6228C7.54228 10.6041 7.54902 10.5854 7.55005 10.5668C7.55058 10.5552 7.54678 10.5438 7.53935 10.5346C7.53192 10.5255 7.52136 10.5192 7.50961 10.517C7.43495 10.5035 7.36495 10.5144 7.29962 10.5496C7.23118 10.5859 7.20681 10.5631 7.22652 10.4812C7.2597 10.3474 7.34888 10.2297 7.49406 10.1281C8.16395 9.65939 8.76903 9.12276 9.30929 8.5182L12.3471 7.29871Z" fill="#57A3D8"/>
<path d="M17.9235 7.83997C17.4304 8.09351 16.9622 8.40305 16.8409 8.95368C16.255 9.03457 15.3539 9.18493 14.1375 9.40477C13.1617 9.58106 12.3544 10.0047 11.7156 10.6756C9.60483 11.3756 7.49716 12.3431 6.11279 14.1287C5.02085 15.537 4.53502 17.1946 4.65531 19.1016C4.72842 20.2573 5.17173 21.3897 6.06924 21.9979C6.64373 22.3867 7.1954 22.6527 7.72426 22.7958C8.57562 23.025 9.54883 23.2018 10.6439 23.3262L12.0687 24.3995C12.1099 24.4305 12.1461 24.4677 12.176 24.51C12.484 24.9533 12.6738 25.4386 13.0766 25.8243C13.4634 26.1976 13.8964 26.5248 14.3755 26.8058L13.5293 27.1123L12.1838 27.0298C11.8737 26.8141 11.6575 26.6783 11.5352 26.6223C11.0312 26.3936 10.1072 26.1463 9.54572 25.8119C9.26884 25.647 8.75554 25.3453 8.38689 25.241C7.04452 24.8615 5.99613 24.5597 5.21528 23.25C4.63043 22.2701 4.22134 21.539 4.1109 20.3755C3.99579 19.1508 4.08497 17.8639 4.37844 16.5148C4.45829 16.1488 4.75072 15.4991 5.25573 14.5658C5.7794 13.5963 6.42648 12.8159 7.19695 12.2248C8.55022 11.1868 9.4975 10.4983 10.0388 10.1592C10.2991 9.99533 10.8041 9.75009 11.5538 9.42344C12.0298 9.215 12.3487 8.95835 12.8029 8.64103C12.8504 8.60798 12.9016 8.58132 12.9553 8.56171L13.845 8.23506L17.9235 7.83997Z" fill="#4190CA"/>
<path d="M9.30933 8.51819C8.76906 9.12275 8.16398 9.65939 7.49409 10.1281C7.34891 10.2297 7.25973 10.3474 7.22655 10.4812C7.20685 10.5631 7.23122 10.5859 7.29966 10.5496C7.36499 10.5144 7.43498 10.5035 7.50965 10.517C7.5214 10.5192 7.53196 10.5255 7.53938 10.5346C7.54681 10.5438 7.55061 10.5552 7.55009 10.5667C7.54905 10.5854 7.54231 10.6041 7.52987 10.6227C7.52572 10.63 7.52935 10.644 7.54076 10.6647C7.63512 10.8483 7.57912 11.037 7.37276 11.2309C6.40941 12.1424 5.58553 13.1602 4.90112 14.2843C4.05183 15.6811 3.83873 17.5104 3.76096 19.125C3.68941 20.6182 3.69563 21.8346 4.2556 23.1101C4.15449 23.4803 4.43292 23.8971 4.60091 24.2113L3.57586 22.8223C3.39698 22.4272 3.21188 22.029 3.11699 21.6199C2.87434 20.5653 2.84582 19.4946 3.03144 18.4079C3.25854 17.0764 3.43898 15.9689 3.88695 14.8816C4.25923 13.9805 4.49929 13.4107 4.60714 13.1722C4.83112 12.6775 5.19925 12.0605 5.71152 11.3211C6.2606 10.5279 6.7988 10.2199 7.4972 9.71901C8.00895 9.35192 8.5487 8.78573 9.30933 8.51819Z" fill="#79C2EE"/>
<path d="M119.007 26.1199V9.07506C119.007 9.06628 119.009 9.05758 119.013 9.04947C119.016 9.04135 119.021 9.03398 119.027 9.02777C119.033 9.02156 119.041 9.01663 119.049 9.01327C119.057 9.00991 119.066 9.00818 119.074 9.00818H121.607C121.624 9.00818 121.641 9.01523 121.654 9.02777C121.666 9.04031 121.674 9.05732 121.674 9.07506V23.4756C121.674 23.4934 121.681 23.5104 121.693 23.5229C121.706 23.5355 121.723 23.5425 121.74 23.5425H123.212C123.23 23.5425 123.247 23.5496 123.259 23.5621C123.272 23.5746 123.279 23.5917 123.279 23.6094V26.1199C123.279 26.1377 123.272 26.1547 123.259 26.1672C123.247 26.1798 123.23 26.1868 123.212 26.1868H119.074C119.066 26.1868 119.057 26.1851 119.049 26.1817C119.041 26.1784 119.033 26.1734 119.027 26.1672C119.021 26.161 119.016 26.1536 119.013 26.1455C119.009 26.1374 119.007 26.1287 119.007 26.1199Z" fill="#1A3079"/>
<path d="M52.0132 9.04392C56.5604 9.03459 58.8604 9.03096 58.9133 9.03304C58.9293 9.03384 58.9443 9.04074 58.9553 9.05232C58.9663 9.06391 58.9724 9.07928 58.9724 9.09526L58.9786 11.7147C58.9786 11.7312 58.9721 11.747 58.9604 11.7587C58.9487 11.7703 58.9329 11.7769 58.9164 11.7769H53.5018C53.4926 11.7769 53.4835 11.7787 53.475 11.7821C53.4665 11.7855 53.4588 11.7906 53.4523 11.7969C53.4458 11.8033 53.4407 11.8108 53.4371 11.8191C53.4336 11.8274 53.4318 11.8363 53.4318 11.8453V26.1448C53.4318 26.1563 53.4272 26.1674 53.4191 26.1756C53.4109 26.1837 53.3998 26.1883 53.3883 26.1883C53.3074 26.1894 52.8604 26.1909 52.0474 26.193C51.2345 26.1951 50.787 26.1956 50.7051 26.1946C50.6938 26.1942 50.6831 26.1894 50.6753 26.1813C50.6674 26.1731 50.6631 26.1623 50.6631 26.151L50.604 11.8516C50.604 11.8426 50.6022 11.8337 50.5986 11.8254C50.5951 11.8171 50.59 11.8095 50.5835 11.8032C50.577 11.7968 50.5693 11.7918 50.5608 11.7883C50.5523 11.7849 50.5432 11.7831 50.534 11.7831L45.1194 11.8049C45.1029 11.8049 45.087 11.7983 45.0754 11.7867C45.0637 11.775 45.0572 11.7592 45.0572 11.7427L45.0525 9.12325C45.0525 9.10702 45.0588 9.09142 45.0702 9.0798C45.0815 9.06817 45.0969 9.06144 45.1132 9.06103C45.165 9.05896 47.465 9.05326 52.0132 9.04392Z" fill="#1A3079"/>
<path d="M73.4943 26.0966C73.4943 26.1234 73.4837 26.1491 73.4647 26.168C73.4458 26.187 73.4201 26.1977 73.3932 26.1977L69.3163 26.1992C69.2923 26.1992 69.2692 26.1898 69.252 26.1729C69.2348 26.156 69.225 26.1331 69.2246 26.109L69.2137 9.09058C69.2137 9.07779 69.2188 9.06552 69.2278 9.05648C69.2368 9.04744 69.2491 9.04236 69.2619 9.04236H71.7818C71.8073 9.04236 71.8319 9.05252 71.85 9.0706C71.868 9.08869 71.8782 9.11322 71.8782 9.1388L71.8844 23.4585C71.8848 23.4854 71.8958 23.5111 71.915 23.5301C71.9342 23.549 71.9601 23.5596 71.9871 23.5596L73.3995 23.5534C73.4242 23.5534 73.4479 23.5632 73.4655 23.5807C73.483 23.5982 73.4928 23.6219 73.4928 23.6467L73.4943 26.0966Z" fill="#1A3079"/>
<path d="M83.3576 26.1354L78.9711 20.5855C78.9671 20.5801 78.9619 20.5756 78.956 20.5723C78.9501 20.569 78.9435 20.567 78.9368 20.5664C78.93 20.5658 78.9232 20.5667 78.9168 20.5689C78.9104 20.5711 78.9045 20.5747 78.8996 20.5793L77.6412 21.7817C77.6365 21.7861 77.6326 21.7913 77.63 21.7972C77.6273 21.8031 77.6258 21.8094 77.6257 21.8159V26.1448C77.6257 26.1576 77.6206 26.1698 77.6115 26.1789C77.6025 26.1879 77.5902 26.193 77.5774 26.193H75.0311C75.0183 26.193 75.0061 26.1879 74.997 26.1789C74.988 26.1698 74.9829 26.1576 74.9829 26.1448V9.0968C74.9829 9.09047 74.9842 9.0842 74.9866 9.07835C74.989 9.0725 74.9926 9.06718 74.997 9.06271C75.0015 9.05823 75.0068 9.05468 75.0127 9.05225C75.0185 9.04983 75.0248 9.04858 75.0311 9.04858H77.5774C77.5838 9.04858 77.59 9.04983 77.5959 9.05225C77.6017 9.05468 77.6071 9.05823 77.6115 9.06271C77.616 9.06718 77.6196 9.0725 77.622 9.07835C77.6244 9.0842 77.6257 9.09047 77.6257 9.0968V18.1885C77.6259 18.1978 77.6288 18.2068 77.634 18.2145C77.6392 18.2221 77.6465 18.2281 77.6551 18.2317C77.6636 18.2353 77.673 18.2364 77.6821 18.2348C77.6913 18.2332 77.6997 18.229 77.7065 18.2228L82.5487 13.6077C82.5574 13.599 82.5691 13.594 82.5814 13.5937H88.5077C88.5177 13.5938 88.5274 13.597 88.5355 13.6028C88.5436 13.6087 88.5496 13.6169 88.5528 13.6263L91.3418 21.8299C91.3453 21.8391 91.3514 21.847 91.3595 21.8525C91.3676 21.8581 91.3771 21.8611 91.3869 21.8611C91.3967 21.8611 91.4063 21.8581 91.4143 21.8525C91.4224 21.847 91.4286 21.8391 91.432 21.8299L94.4325 13.6248C94.436 13.6156 94.4422 13.6078 94.4502 13.6022C94.4583 13.5966 94.4679 13.5937 94.4776 13.5937H96.8668C96.8766 13.5937 96.8862 13.5966 96.8942 13.6022C96.9023 13.6078 96.9085 13.6156 96.912 13.6248L99.9094 21.8672C99.913 21.8763 99.9193 21.8841 99.9274 21.8896C99.9356 21.895 99.9452 21.8978 99.955 21.8976C99.9648 21.8975 99.9743 21.8943 99.9823 21.8886C99.9902 21.8829 99.9963 21.8749 99.9996 21.8657L102.796 13.6263C102.8 13.6169 102.806 13.6087 102.814 13.6028C102.822 13.597 102.831 13.5938 102.841 13.5937H105.84C105.848 13.5937 105.856 13.5956 105.863 13.5992C105.87 13.6028 105.876 13.6081 105.88 13.6145C105.885 13.6209 105.887 13.6283 105.888 13.6361C105.889 13.6438 105.888 13.6517 105.885 13.659L101.315 26.1619C101.312 26.171 101.306 26.1789 101.298 26.1845C101.29 26.19 101.28 26.193 101.27 26.193H98.7163C98.7065 26.193 98.697 26.19 98.6889 26.1845C98.6808 26.1789 98.6747 26.171 98.6712 26.1619L95.7127 18.0299C95.7092 18.0207 95.7031 18.0128 95.695 18.0073C95.6869 18.0017 95.6774 17.9987 95.6676 17.9987C95.6578 17.9987 95.6482 18.0017 95.6402 18.0073C95.6321 18.0128 95.6259 18.0207 95.6225 18.0299L92.664 26.123C92.6605 26.1322 92.6543 26.14 92.6463 26.1456C92.6382 26.1511 92.6286 26.1541 92.6189 26.1541H90.1145C90.1048 26.1541 90.0952 26.1511 90.0871 26.1456C90.0791 26.14 90.0729 26.1322 90.0694 26.123L85.7266 14.1863C85.7238 14.1789 85.7193 14.1723 85.7133 14.1671C85.7074 14.1618 85.7003 14.1581 85.6926 14.1563C85.685 14.1544 85.6769 14.1545 85.6693 14.1565C85.6616 14.1585 85.6546 14.1623 85.6488 14.1676L80.9217 18.6754C80.9135 18.6838 80.9087 18.695 80.9081 18.7067C80.9075 18.7184 80.9112 18.73 80.9186 18.7392L86.7158 26.0763C86.7213 26.0834 86.7247 26.0919 86.7257 26.1008C86.7266 26.1097 86.7251 26.1187 86.7212 26.1268C86.7173 26.1348 86.7113 26.1417 86.7037 26.1465C86.6962 26.1513 86.6875 26.154 86.6785 26.1541H83.3949C83.3877 26.154 83.3806 26.1523 83.3741 26.149C83.3677 26.1458 83.362 26.1412 83.3576 26.1354Z" fill="#1A3079"/>
<path d="M132.352 13.5937H135.88C135.89 13.5938 135.899 13.5968 135.907 13.6023C135.915 13.6079 135.922 13.6158 135.925 13.625C135.929 13.6341 135.93 13.6442 135.928 13.6539C135.926 13.6635 135.921 13.6724 135.914 13.6792L130.67 18.6785C130.661 18.6871 130.656 18.6987 130.655 18.7111C130.654 18.7234 130.658 18.7357 130.666 18.7454L136.488 26.1121C136.494 26.1194 136.497 26.1283 136.498 26.1376C136.5 26.1469 136.498 26.1563 136.494 26.1648C136.49 26.1732 136.483 26.1804 136.475 26.1854C136.468 26.1904 136.458 26.193 136.449 26.193H133.184C133.177 26.193 133.169 26.1913 133.162 26.1881C133.156 26.1849 133.15 26.1802 133.145 26.1743L128.745 20.6042C128.74 20.5987 128.735 20.5942 128.729 20.5909C128.723 20.5876 128.716 20.5856 128.71 20.585C128.703 20.5844 128.696 20.5853 128.689 20.5875C128.683 20.5897 128.677 20.5933 128.672 20.598L127.416 21.7941C127.411 21.7987 127.408 21.8043 127.405 21.8104C127.402 21.8166 127.401 21.8232 127.401 21.8299V26.1432C127.401 26.1564 127.396 26.1691 127.386 26.1784C127.377 26.1878 127.364 26.193 127.351 26.193H124.809C124.796 26.193 124.783 26.1878 124.774 26.1784C124.765 26.1691 124.76 26.1564 124.76 26.1432V9.09836C124.76 9.08516 124.765 9.0725 124.774 9.06316C124.783 9.05383 124.796 9.04858 124.809 9.04858H127.351C127.364 9.04858 127.377 9.05383 127.386 9.06316C127.396 9.0725 127.401 9.08516 127.401 9.09836V18.1777C127.401 18.1873 127.404 18.1968 127.409 18.2049C127.415 18.213 127.422 18.2193 127.431 18.2231C127.44 18.2269 127.45 18.228 127.459 18.2263C127.469 18.2246 127.478 18.2201 127.485 18.2134L132.318 13.6077C132.327 13.5988 132.339 13.5938 132.352 13.5937Z" fill="#1A3079"/>
<path d="M151.755 14.7276C152.983 13.6191 154.426 13.1395 156.085 13.2888C156.11 13.2908 156.134 13.3021 156.151 13.3206C156.168 13.339 156.177 13.3632 156.177 13.3883V15.9502C156.177 15.963 156.172 15.9753 156.163 15.9843C156.155 15.9933 156.143 15.9984 156.13 15.9984C155.699 16.0026 155.39 16.0026 155.203 15.9984C153.315 15.9518 151.82 17.389 151.724 19.2571C151.7 19.7051 151.687 19.9701 151.685 20.052C151.657 20.8733 151.653 22.885 151.672 26.0872C151.672 26.1153 151.661 26.1422 151.641 26.162C151.621 26.1819 151.595 26.193 151.567 26.193H149.118C149.093 26.193 149.068 26.1828 149.05 26.1647C149.032 26.1467 149.022 26.1221 149.022 26.0966V13.575C149.022 13.549 149.032 13.5241 149.05 13.5057C149.069 13.4873 149.094 13.477 149.12 13.477H151.573C151.597 13.477 151.62 13.4867 151.638 13.5039C151.655 13.5211 151.665 13.5444 151.665 13.5688V14.6872C151.665 14.6976 151.668 14.7077 151.673 14.7164C151.679 14.7251 151.687 14.732 151.697 14.7363C151.706 14.7405 151.717 14.742 151.727 14.7404C151.737 14.7389 151.747 14.7344 151.755 14.7276Z" fill="#1A3079"/>
<path d="M114.133 25.2472C113.203 25.9835 112.224 26.4039 111.193 26.5087C109.882 26.644 107.872 26.4869 106.831 25.5567C105.672 24.5198 105.267 23.1929 105.618 21.5763C106.032 19.6771 107.53 18.7951 109.452 18.4622C110.995 18.1968 112.522 18.2377 114.033 18.5851C114.044 18.5879 114.056 18.588 114.068 18.5856C114.079 18.5832 114.09 18.5782 114.099 18.5711C114.108 18.564 114.116 18.5548 114.122 18.5444C114.127 18.5339 114.13 18.5223 114.131 18.5104C114.156 18.0531 114.178 17.5849 113.963 17.137C113.61 16.4017 113.033 15.9854 112.232 15.8879C110.422 15.6691 109.071 16.3317 108.178 17.8758C108.172 17.8862 108.164 17.8951 108.154 17.902C108.144 17.9089 108.132 17.9136 108.121 17.9159C108.109 17.9181 108.096 17.9177 108.085 17.9148C108.073 17.9119 108.062 17.9066 108.052 17.8991L106.094 16.3701C106.081 16.3605 106.073 16.3468 106.07 16.3313C106.067 16.3159 106.069 16.2998 106.077 16.2861C106.91 14.8198 108.162 13.8865 109.833 13.4863C112.305 12.8921 115.761 13.5454 116.679 16.2643C116.831 16.7144 116.907 17.3822 116.904 18.2678C116.894 23.2474 116.891 25.8741 116.897 26.1478C116.897 26.1598 116.892 26.1713 116.883 26.1797C116.875 26.1882 116.864 26.1929 116.852 26.1929H114.31C114.286 26.1929 114.263 26.1836 114.246 26.167C114.229 26.1503 114.22 26.1278 114.22 26.1043V25.2892C114.219 25.279 114.216 25.269 114.211 25.2603C114.205 25.2517 114.198 25.2448 114.189 25.2404C114.179 25.236 114.169 25.2343 114.159 25.2355C114.15 25.2367 114.14 25.2408 114.133 25.2472ZM114.176 21.3227C114.184 21.2902 114.178 21.2559 114.161 21.2272C114.144 21.1985 114.117 21.1775 114.084 21.1687C112.941 20.8618 111.793 20.7472 110.642 20.825C109.771 20.8841 108.477 21.1594 108.368 22.186C108.274 23.0675 108.684 23.5911 109.598 23.7571C110.399 23.9033 111.566 23.9795 112.311 23.6482C113.294 23.2095 113.916 22.4344 114.176 21.3227Z" fill="#1A3079"/>
<path d="M145.581 21.8859L147.532 23.6498C147.548 23.6646 147.558 23.685 147.56 23.7068C147.562 23.7286 147.556 23.7504 147.543 23.768C146.208 25.4925 144.4 26.4144 142.119 26.5336C139.701 26.6591 137.794 25.7476 136.398 23.7991C134.998 21.8485 134.702 19.3613 135.788 17.1479C135.975 16.7684 136.097 16.465 136.335 16.0979C137.357 14.5207 138.835 13.6035 140.77 13.3463C143.663 12.9637 146.141 14.2469 147.34 16.8757C147.859 18.0122 148.029 19.2488 147.851 20.5855C147.848 20.6088 147.836 20.6302 147.819 20.6457C147.801 20.6612 147.779 20.6696 147.756 20.6695H138.155C138.14 20.6696 138.125 20.6731 138.112 20.6797C138.098 20.6862 138.086 20.6958 138.077 20.7075C138.068 20.7193 138.061 20.7331 138.058 20.7477C138.054 20.7624 138.054 20.7777 138.057 20.7924C138.801 24.0169 142.509 24.8428 144.828 22.6418C145.038 22.4427 145.242 22.1316 145.45 21.8936C145.459 21.8844 145.468 21.8768 145.479 21.8713C145.49 21.8659 145.502 21.8627 145.515 21.862C145.527 21.8613 145.539 21.863 145.55 21.8671C145.562 21.8712 145.572 21.8776 145.581 21.8859ZM141.657 17.9878C143.539 17.9858 144.621 17.9827 144.905 17.9785C144.913 17.9782 144.921 17.9756 144.929 17.9712C144.936 17.9668 144.942 17.9605 144.947 17.9531C144.951 17.9457 144.953 17.9373 144.954 17.9286C144.954 17.92 144.952 17.9115 144.948 17.9039C144.278 16.6501 143.111 15.8833 141.655 15.8864C140.199 15.888 139.034 16.6579 138.367 17.9132C138.363 17.9208 138.361 17.9294 138.361 17.938C138.361 17.9466 138.364 17.955 138.368 17.9624C138.373 17.9699 138.379 17.9761 138.386 17.9805C138.393 17.985 138.402 17.9875 138.41 17.9878C138.694 17.991 139.776 17.991 141.657 17.9878Z" fill="#1A3079"/>
<path d="M64.443 25.2301C64.4429 25.224 64.4411 25.2181 64.4378 25.2131C64.4344 25.208 64.4298 25.2039 64.4243 25.2013C64.4188 25.1987 64.4127 25.1977 64.4067 25.1984C64.4006 25.1991 64.3949 25.2015 64.3902 25.2052C63.3127 26.069 62.129 26.5212 60.839 26.5616C59.5542 26.602 58.4809 26.3988 57.6192 25.9519C56.1182 25.1726 55.5566 23.4258 55.8179 21.7972C55.9704 20.8515 56.4142 20.0742 57.1494 19.4655C57.727 18.9864 58.566 18.6541 59.6662 18.4685C61.2445 18.202 62.7834 18.2403 64.2828 18.5836C64.3031 18.588 64.3241 18.5879 64.3442 18.5832C64.3644 18.5786 64.3832 18.5695 64.3994 18.5566C64.4155 18.5438 64.4285 18.5275 64.4374 18.509C64.4463 18.4906 64.4509 18.4703 64.4508 18.4498C64.4446 15.6111 61.1626 15.1615 59.4204 16.6968C58.8698 17.1821 58.4763 17.5471 58.2398 17.7918C58.2283 17.804 58.2126 17.8114 58.1959 17.8125C58.1792 17.8137 58.1627 17.8085 58.1496 17.7981L56.3297 16.3764C56.3063 16.358 56.2906 16.3317 56.2857 16.3026C56.2808 16.2735 56.2871 16.2437 56.3033 16.2193C57.4253 14.4688 58.9631 13.5096 60.9168 13.3416C61.5701 13.2856 62.3556 13.3328 63.2733 13.4832C65.1819 13.7974 66.5834 14.9251 66.9474 16.8072C67.0656 17.417 67.1236 18.2642 67.1216 19.3489C67.1195 20.8722 67.12 23.1354 67.1231 26.1385C67.1231 26.1633 67.1135 26.187 67.0962 26.2045C67.079 26.222 67.0557 26.2318 67.0314 26.2318H64.5286C64.5059 26.2318 64.4841 26.2227 64.4681 26.2063C64.4521 26.19 64.443 26.1678 64.443 26.1447V25.2301ZM64.3357 21.3803C64.3439 21.3478 64.339 21.3133 64.3221 21.2843C64.3053 21.2552 64.2778 21.2339 64.2455 21.2248C63.1048 20.9106 61.959 20.7877 60.8079 20.8561C59.9384 20.909 58.6427 21.175 58.526 22.2001C58.4254 23.0805 58.8314 23.6067 59.744 23.7789C60.5435 23.9313 61.7085 24.0153 62.4551 23.6902C63.4413 23.2588 64.0682 22.4889 64.3357 21.3803Z" fill="#1A3079"/>
<path d="M34.2653 15.6717C34.368 17.3874 34.0569 18.8573 33.3304 20.4128C33.0328 21.0485 32.7715 21.5602 32.5465 21.9481C31.5365 23.6902 30.8619 24.8407 30.5228 25.3996C30.2843 25.7937 29.6072 26.7581 28.4914 28.2928C27.9501 29.0363 27.4383 29.4843 26.673 30.1485C26.1442 30.6058 25.5925 30.934 25.018 31.1331C25.7833 30.6291 26.4879 29.9873 27.1319 29.2074C28.5816 27.4529 29.7295 25.7201 30.9537 23.7773C32.1654 21.8578 32.9836 20.5481 33.3133 18.7002C33.5601 17.3138 33.2973 15.9797 32.5247 14.698L34.2653 15.6717Z" fill="#4B3A81"/>
<path d="M35.127 16.5133C35.043 17.1821 34.9378 17.6825 34.8113 18.0143C33.9205 20.3516 32.8109 22.6859 31.4825 25.017C30.7639 26.2785 29.7933 27.4669 28.8647 28.7984C28.4634 29.3749 27.8298 29.9582 26.9639 30.5483C26.3002 30.9164 25.5992 31.1394 24.8609 31.2171C24.8879 31.1705 24.9402 31.1425 25.018 31.1331C25.5925 30.934 26.1442 30.6058 26.673 30.1485C27.4383 29.4843 27.9501 29.0364 28.4914 28.2929C29.6072 26.7581 30.2843 25.7937 30.5228 25.3997C30.8619 24.8407 31.5365 23.6902 32.5465 21.9481C32.7715 21.5603 33.0328 21.0485 33.3304 20.4128C34.0569 18.8574 34.3679 17.3874 34.2653 15.6718C34.6158 15.9071 34.903 16.1877 35.127 16.5133Z" fill="#A34F8C"/>
<path d="M35.3884 17.1775L35.3386 17.8277C35.3241 17.837 35.3111 17.8495 35.2997 17.865L35.0648 18.5245C34.453 19.66 34.0367 20.5238 33.8158 21.1159C33.178 22.8322 32.3619 24.468 31.3675 26.0235C31.1787 26.319 30.8132 26.7794 30.2709 27.4047C29.6627 28.1078 29.1058 29.0737 28.3996 29.7457C27.8563 30.2632 27.2527 30.7168 26.5891 31.1067C26.5382 31.0974 26.4931 31.0642 26.4537 31.0072L26.9639 30.5483C27.8298 29.9583 28.4634 29.375 28.8647 28.7984C29.7933 27.4669 30.7639 26.2786 31.4826 25.0171C32.811 22.6859 33.9205 20.3517 34.8113 18.0143C34.9378 17.6825 35.0431 17.1822 35.127 16.5133L35.3884 17.1775Z" fill="#C25B90"/>
<path d="M0.999967 16.8104C1.08396 17.8132 1.31469 18.7615 1.69215 19.6554L2.33456 20.8313C2.34701 20.8718 2.36463 20.9055 2.38745 20.9324L2.71721 21.4535L3.57583 22.8223L4.60088 24.2114C4.77095 24.4312 4.94153 24.6495 5.11264 24.8662C6.18176 26.2236 7.30844 27.5318 8.49268 28.7907C8.63371 28.94 8.78718 29.1137 8.9531 29.3118L11.0421 31.5252C11.529 32.0167 12.008 32.5176 12.5431 32.9236C14.0105 34.0394 15.539 34.9778 17.1287 35.739C17.4719 35.9038 17.8431 36.0573 18.2424 36.1994C18.2754 36.2108 18.3099 36.2181 18.345 36.2212L22.8544 36.6769C24.1008 36.8491 25.4043 36.9066 26.7648 36.8496C23.0161 38.4828 19.1492 37.7051 15.8189 35.6565C15.2818 35.3257 14.6155 34.9441 13.8202 34.5117C12.1154 33.2943 10.5029 31.9825 8.98265 30.5764C8.55645 30.1813 8.18832 29.8012 7.87826 29.4362C7.01031 28.4158 6.25902 27.6738 5.40973 26.5663C5.10278 26.1661 4.66207 25.6092 4.08758 24.8958C3.35132 23.9832 2.48544 22.5662 1.48994 20.6447L0.481995 17.0515L0.999967 16.8104Z" fill="#EB8AA7"/>
<path d="M35.3915 26.5025C34.8492 28.1016 34.1186 29.6093 33.1998 31.0259C33.1983 28.6211 33.8936 26.6177 34.4022 24.4151C34.9041 22.2437 35.2162 20.0479 35.3386 17.8277L35.3884 17.1775C35.5315 18.3985 35.4848 19.8856 35.5144 20.8422C35.5631 22.3541 35.5097 23.8639 35.3542 25.3717C35.3168 25.7233 35.3604 26.1386 35.3915 26.5025Z" fill="#F7AF72"/>
<path d="M35.3386 17.8276C35.2162 20.0478 34.9041 22.2436 34.4022 24.4151C33.8936 26.6176 33.1983 28.6211 33.1998 31.0258L32.3381 32.2438C31.2508 32.0555 31.6864 30.7676 31.9523 30.0334C32.8156 27.6473 33.6742 25.5661 34.2793 22.8487C34.3167 22.2099 34.3846 21.7329 34.4831 21.4177C34.845 20.2531 35.1172 19.0689 35.2997 17.865C35.3111 17.8494 35.3241 17.837 35.3386 17.8276Z" fill="#F2AE88"/>
<path d="M35.2997 17.865C35.1172 19.0689 34.845 20.2532 34.4831 21.4177C34.3846 21.7329 34.3166 22.2099 34.2793 22.8487C33.2169 25.8663 31.9928 28.5231 29.6876 30.7723L28.7698 30.5032C29.3008 29.9868 29.8478 29.3127 30.4109 28.4811C31.1637 27.3715 31.692 26.5513 31.9959 26.0203C32.4812 25.1752 33.318 23.3434 34.5064 20.5248C34.7501 19.9462 34.9362 19.2794 35.0648 18.5245L35.2997 17.865Z" fill="#EC8290"/>
<path d="M35.0648 18.5245C34.9362 19.2795 34.7501 19.9462 34.5064 20.5249C33.318 23.3434 32.4812 25.1752 31.9959 26.0204C31.692 26.5513 31.1637 27.3715 30.4108 28.4811C29.8478 29.3128 29.3008 29.9868 28.7698 30.5032C28.158 30.7086 27.584 31.03 27.0479 31.4676C27.1672 31.1534 27.3663 30.8926 27.6452 30.6852C27.6494 30.6824 27.6529 30.6788 27.6556 30.6746C27.6584 30.6704 27.6602 30.6657 27.6611 30.6608C27.662 30.6558 27.6618 30.6508 27.6607 30.6459C27.6596 30.641 27.6575 30.6364 27.6545 30.6323V30.6308C27.6493 30.623 27.6409 30.6175 27.6308 30.6155C27.6208 30.6135 27.6099 30.6151 27.6001 30.6199L26.5891 31.1068C27.2527 30.7168 27.8562 30.2632 28.3996 29.7457C29.1058 29.0737 29.6627 28.1078 30.2709 27.4047C30.8132 26.7794 31.1787 26.319 31.3675 26.0235C32.3619 24.468 33.178 22.8322 33.8158 21.116C34.0367 20.5238 34.453 19.66 35.0648 18.5245Z" fill="#EB6D91"/>
<path d="M13.8202 34.5117L12.4203 34.045C11.4486 33.3264 10.4734 32.6213 9.49445 31.9296C7.2779 30.3664 5.85309 28.6724 4.2494 26.4279C3.5121 25.3982 2.79814 24.0216 2.03752 22.8285L1.48999 20.6447C2.48549 22.5662 3.35137 23.9832 4.08763 24.8958C4.66212 25.6092 5.10283 26.1661 5.40978 26.5663C6.25907 27.6738 7.01036 28.4158 7.87831 29.4362C8.18837 29.8012 8.5565 30.1813 8.9827 30.5763C10.5029 31.9825 12.1154 33.2943 13.8202 34.5117Z" fill="#DBA0BC"/>
<path d="M32.3381 32.2438C30.8303 34.2929 28.9726 35.8281 26.7648 36.8496C25.4043 36.9066 24.1008 36.849 22.8544 36.6769C24.2963 35.9536 25.4598 34.8897 26.4817 33.6266C27.638 32.7701 28.7066 31.8186 29.6876 30.7723C31.9928 28.5231 33.2169 25.8664 34.2793 22.8488C33.6742 25.5662 32.8156 27.6474 31.9523 30.0335C31.6863 30.7677 31.2508 32.0556 32.3381 32.2438Z" fill="#EAAA98"/>
<path d="M12.4203 34.045C10.9332 33.8459 9.53641 33.443 8.22981 32.8364C7.72687 32.1001 7.15757 31.4287 6.5219 30.8221C5.86549 30.1937 5.52796 29.6243 4.99287 29.0286C4.688 28.6885 4.36861 28.241 4.0347 27.6862C3.57428 26.9199 3.10194 26.1577 2.61767 25.3997L2.03748 22.8285C2.7981 24.0215 3.51206 25.3981 4.24936 26.4279C5.85305 28.6724 7.27786 30.3663 9.49441 31.9296C10.4733 32.6212 11.4486 33.3264 12.4203 34.045Z" fill="#C5B4C7"/>
<path d="M4.25561 23.11C5.50206 24.932 7.21827 26.1478 9.40422 26.7576C10.3914 27.0334 11.318 27.1241 12.1839 27.0298L13.5293 27.1122C14.4502 27.6214 15.1356 28.1393 15.5857 28.6661C16.3489 29.56 17.0898 30.2154 17.8084 30.6322L18.5488 31.9171C16.9229 31.3644 15.7521 31.0123 15.0366 30.8609C14.6456 30.7779 13.6849 30.6395 12.1543 30.4456C11.1318 30.316 10.0648 29.938 8.95314 29.3117C8.78722 29.1136 8.63375 28.9399 8.49272 28.7906C7.30848 27.5317 6.1818 26.2235 5.11267 24.8661C4.94157 24.6494 4.77099 24.4311 4.60092 24.2113C4.43293 23.8971 4.1545 23.4802 4.25561 23.11Z" fill="#8398C7"/>
<path d="M19.0855 26.1946L17.4133 25.8042C17.3114 25.7805 17.2044 25.7952 17.1124 25.8453C17.0204 25.8955 16.9498 25.9777 16.914 26.0764C16.8134 26.3553 16.6221 26.6161 16.3401 26.8588L14.3755 26.8059C13.8964 26.5249 13.4635 26.1977 13.0767 25.8244C12.6738 25.4386 12.484 24.9533 12.1761 24.51C12.1462 24.4678 12.11 24.4305 12.0687 24.3996L10.6439 23.3263C11.7898 23.429 12.9196 23.5741 14.0333 23.7618C15.903 24.0791 17.7882 24.7573 19.0855 26.1946Z" fill="#477BB8"/>
<path d="M19.0854 26.1945C19.3073 26.4248 19.4473 26.5876 19.5054 26.683C19.9212 27.357 20.334 28.0321 20.7436 28.7082C21.3502 29.7084 22.0968 30.6961 23.1748 31.1052C22.0626 30.9356 21.3346 30.553 20.3951 29.9137C19.8051 29.5134 19.3711 29.2288 19.0932 29.0597C17.8924 28.3318 17.2064 27.8589 16.34 26.8587C16.6221 26.6161 16.8134 26.3553 16.914 26.0763C16.9498 25.9776 17.0203 25.8954 17.1123 25.8453C17.2043 25.7951 17.3114 25.7805 17.4133 25.8041L19.0854 26.1945Z" fill="#4A6BA7"/>
<path d="M8.22982 32.8364C5.1251 31.4287 3.21031 28.7081 2.61768 25.3997C3.10195 26.1577 3.57429 26.9199 4.03471 27.6862C4.36862 28.241 4.68801 28.6884 4.99288 29.0286C5.52796 29.6243 5.8655 30.1936 6.52191 30.822C7.15758 31.4287 7.72688 32.1001 8.22982 32.8364Z" fill="#A4C4E1"/>
<path d="M16.34 26.8587C17.2064 27.8588 17.8924 28.3317 19.0932 29.0597C19.3711 29.2287 19.8051 29.5133 20.3952 29.9136C21.3347 30.5529 22.0626 30.9356 23.1748 31.1051C23.7503 31.3415 24.3123 31.3789 24.8609 31.2171C25.5992 31.1393 26.3002 30.9164 26.9639 30.5483L26.4537 31.0071C25.2415 31.4748 23.9862 31.691 22.6879 31.6557C21.6893 31.6277 20.9956 31.3104 20.1541 30.9138C20.0491 30.8644 19.9359 30.8333 19.8196 30.822L17.8084 30.6322C17.0898 30.2154 16.3488 29.56 15.5856 28.6661C15.1356 28.1393 14.4501 27.6214 13.5293 27.1122L14.3755 26.8058L16.34 26.8587Z" fill="#7D7EB4"/>
<path d="M18.5488 31.9172L15.7505 33.468L13.2276 33.2207C13.1769 33.2166 13.1286 33.1971 13.0891 33.1647L11.0421 31.5252L8.95312 29.3118C10.0648 29.9381 11.1318 30.3161 12.1543 30.4457C13.6849 30.6396 14.6456 30.7781 15.0366 30.861C15.7521 31.0124 16.9228 31.3645 18.5488 31.9172Z" fill="#A7A1C8"/>
<path d="M29.6876 30.7723C28.7066 31.8186 27.638 32.77 26.4817 33.6266C26.153 33.6058 25.8663 33.5483 25.6216 33.4539C25.116 33.2579 25.4551 32.7291 25.6713 32.4086L27.0479 31.4676C27.584 31.03 28.158 30.7085 28.7698 30.5032L29.6876 30.7723Z" fill="#EB8AA7"/>
<path d="M26.4538 31.0071C26.4932 31.0642 26.5383 31.0974 26.5891 31.1067L27.6001 30.6198C27.6099 30.615 27.6209 30.6135 27.6309 30.6155C27.6409 30.6175 27.6493 30.6229 27.6546 30.6307V30.6323C27.6575 30.6363 27.6596 30.6409 27.6607 30.6458C27.6619 30.6507 27.662 30.6558 27.6611 30.6607C27.6603 30.6656 27.6584 30.6703 27.6557 30.6745C27.6529 30.6787 27.6494 30.6824 27.6452 30.6852C27.3663 30.8926 27.1672 31.1534 27.0479 31.4676L25.6714 32.4086C23.6295 33.0972 21.54 33.4674 19.4028 33.5192C18.1854 33.5493 16.968 33.5322 15.7505 33.4679L18.5488 31.9171L17.8084 30.6323L19.8197 30.822C19.936 30.8333 20.0491 30.8644 20.1541 30.9138C20.9956 31.3105 21.6893 31.6278 22.688 31.6558C23.9863 31.691 25.2415 31.4748 26.4538 31.0071Z" fill="#AB93BA"/>
<path d="M15.7505 33.4679C16.9679 33.5322 18.1854 33.5493 19.4028 33.5193C21.54 33.4674 23.6295 33.0972 25.6713 32.4087C25.4551 32.7291 25.116 33.2579 25.6216 33.4539C25.8663 33.5483 26.153 33.6058 26.4817 33.6266C25.4598 34.8896 24.2963 35.9536 22.8544 36.6769L18.3451 36.2211C18.3099 36.218 18.2755 36.2107 18.2424 36.1993C17.8432 36.0573 17.4719 35.9038 17.1287 35.7389C15.539 34.9778 14.0105 34.0393 12.5431 32.9235C12.0081 32.5175 11.529 32.0167 11.0421 31.5251L13.0891 33.1646C13.1286 33.197 13.1769 33.2165 13.2276 33.2206L15.7505 33.4679Z" fill="#D6ABB7"/>
</svg>
