<svg width="56" height="56" viewBox="0 0 56 56" fill="none" xmlns="http://www.w3.org/2000/svg">
<g clip-path="url(#clip0_4709_66477)">
<path d="M28 0C12.544 0 0 12.544 0 28C0 43.456 12.544 56 28 56C43.456 56 56 43.456 56 28C56 12.544 43.456 0 28 0ZM28 53.76C13.776 53.76 2.24 42.224 2.24 28C2.24 13.776 13.776 2.24 28 2.24C42.224 2.24 53.76 13.776 53.76 28C53.76 42.224 42.224 53.76 28 53.76Z" fill="black" fill-opacity="0.5"/>
<path d="M28.84 31.08H33.88V41.16H36.12V31.08H41.16V28.84H28.84V31.08ZM25.872 28.56L21 33.432L16.128 28.56L14.56 30.128L19.432 35L14.56 39.872L16.128 41.44L21 36.568L25.872 41.44L27.44 39.872L22.568 35L27.44 30.128L25.872 28.56ZM34.832 27.16C38.304 27.16 41.104 24.36 41.104 20.888H38.864C38.864 23.128 37.072 24.976 34.832 24.976C34.216 24.976 33.6 24.808 33.04 24.584L38.472 19.152L40.096 17.528C38.976 15.792 37.016 14.672 34.832 14.672C31.36 14.56 28.56 17.36 28.56 20.888C28.56 24.416 31.36 27.16 34.832 27.16ZM34.832 16.8C35.616 16.8 36.344 17.024 36.96 17.416L31.36 23.016C31.024 22.4 30.8 21.672 30.8 20.832C30.8 18.592 32.592 16.8 34.832 16.8ZM21 20.216L16.296 14.56L14.56 16.016L19.88 22.344V27.16H22.12V22.344L27.44 16.016L25.704 14.56L21 20.216Z" fill="black" fill-opacity="0.5"/>
<path d="M50.4012 49.28C48.5532 49.28 47.0412 50.792 47.0412 52.64C47.0412 54.488 48.5532 56 50.4012 56C52.2492 56 53.7612 54.488 53.7612 52.64C53.7612 50.792 52.2492 49.28 50.4012 49.28ZM50.4012 55.72C48.7212 55.72 47.3212 54.32 47.3212 52.64C47.3212 50.96 48.7212 49.56 50.4012 49.56C52.0812 49.56 53.4812 50.96 53.4812 52.64C53.4812 54.32 52.0812 55.72 50.4012 55.72Z" fill="black" fill-opacity="0.5"/>
<path d="M51.7457 54.32H51.4097L50.6257 52.976H49.5617V54.32H49.2817V50.96H50.6257C51.1857 50.96 51.6337 51.408 51.6337 51.968C51.6337 52.416 51.3537 52.808 50.9057 52.92L51.7457 54.32ZM49.5617 52.696H50.6257C51.0177 52.696 51.3537 52.36 51.3537 51.968C51.3537 51.576 51.0177 51.24 50.6257 51.24H49.5617V52.696Z" fill="black" fill-opacity="0.5"/>
</g>
<defs>
<clipPath id="clip0_4709_66477">
<rect width="56" height="56" fill="white"/>
</clipPath>
</defs>
</svg>
