<svg width="156" height="38" viewBox="0 0 156 38" fill="none" xmlns="http://www.w3.org/2000/svg">
<path d="M23.6749 2.33508C24.7429 3.45598 25.4791 4.28447 25.8835 4.82055C26.374 5.46965 27.1003 6.62269 28.0626 8.27967C28.8071 9.56025 29.7621 10.8201 30.9276 12.0592C31.6244 12.7996 32.5156 13.4901 33.3337 14.1683C33.706 14.4773 34.2877 15.0574 35.0788 15.9087" fill="black" fill-opacity="0.5"/>
<path d="M35.0776 15.9086L35.4245 16.3426L35.0776 15.9086Z" fill="black" fill-opacity="0.5"/>
<path d="M35.4254 16.3426C35.4762 16.6526 35.6115 16.9077 35.8314 17.1078L35.4254 16.3426Z" fill="black" fill-opacity="0.5"/>
<path d="M35.2275 26.5008C35.1964 26.1368 35.1528 25.7215 35.1902 25.37C35.3457 23.8624 35.3991 22.3526 35.3504 20.8408C35.3208 19.8843 35.3675 18.3973 35.2244 17.1764" fill="black" fill-opacity="0.5"/>
<path d="M35.2231 17.1765L34.9618 16.5124L35.2231 17.1765Z" fill="black" fill-opacity="0.5"/>
<path d="M34.9614 16.5127C34.7374 16.1871 34.4502 15.9066 34.0997 15.6712L34.9614 16.5127Z" fill="black" fill-opacity="0.5"/>
<path d="M34.0982 15.6709L32.3578 14.6973L34.0982 15.6709Z" fill="black" fill-opacity="0.5"/>
<path d="M27.0012 10.9532C26.3355 9.8748 25.7667 8.77153 25.2949 7.64337L27.0012 10.9532Z" fill="black" fill-opacity="0.5"/>
<path d="M25.2974 7.64344L24.4388 5.73346L25.2974 7.64344Z" fill="black" fill-opacity="0.5"/>
<path d="M24.4376 5.73387L23.5946 4.0603L24.4376 5.73387Z" fill="black" fill-opacity="0.5"/>
<path d="M23.5955 4.06009C23.3922 3.57896 23.0957 3.16524 22.7058 2.81891L23.5955 4.06009Z" fill="black" fill-opacity="0.5"/>
<path d="M22.7059 2.81915L22.4026 2.54541L22.7059 2.81915Z" fill="black" fill-opacity="0.5"/>
<path d="M22.4008 2.5454C22.1281 2.29343 21.8865 2.12027 21.676 2.02591C19.8843 1.22334 17.9857 0.984855 15.9803 1.31044C14.8221 1.49812 13.711 1.83978 12.6472 2.33543C11.7285 2.76471 11.2292 2.99697 11.1494 3.03223C10.2161 3.43818 9.39336 4.1552 8.3186 4.25008" fill="black" fill-opacity="0.5"/>
<path d="M24.1327 2.48932C25.3645 3.54696 26.3242 4.57454 27.0117 5.57204C28.1953 7.29383 29.0927 8.71387 30.2359 10.1821C30.9006 11.0365 31.3802 11.6214 31.6746 11.9366C33.3155 13.6957 34.031 14.4096 35.0762 15.909" fill="black" fill-opacity="0.5"/>
<path d="M22.4014 2.54526L22.2451 2.47961L22.4014 2.54526Z" fill="black" fill-opacity="0.5"/>
<path d="M22.2477 2.47981C20.1791 1.34595 17.1757 1.4766 14.8862 1.9992C14.5378 2.07801 13.7388 2.36108 12.4894 2.84843C12.0497 3.01952 11.2959 3.40577 10.2279 4.00717C9.52485 4.40431 8.64607 4.83929 7.59153 5.31212C7.00776 5.57446 6.41775 5.72896 5.82153 5.77562" fill="black" fill-opacity="0.5"/>
<path d="M26.1183 2.88129C28.3378 4.13491 29.9802 5.93757 31.5014 8.0202C31.7316 8.33542 31.9379 8.68382 32.1204 9.0654C32.7161 10.3128 33.556 11.5773 34.0973 12.5556C34.6479 13.549 35.1383 14.686 35.5687 15.9665" fill="black" fill-opacity="0.5"/>
<path d="M35.5681 15.9666C35.594 16.3004 35.69 16.6094 35.8559 16.8935L35.5681 15.9666Z" fill="black" fill-opacity="0.5"/>
<path d="M13.9248 10.0979C15.0213 9.51312 16.2921 9.41046 17.5364 9.1756C17.6971 9.14553 17.8511 9.0885 17.9983 9.00451C18.0031 9.00221 18.0069 8.99836 18.009 8.9936C18.0111 8.98883 18.0115 8.98342 18.0101 8.97822C18.0086 8.97303 18.0055 8.96835 18.0011 8.96494C17.9967 8.96153 17.9913 8.95958 17.9859 8.95941L16.6747 8.95319" fill="black" fill-opacity="0.5"/>
<path d="M16.6775 8.95354C16.7988 8.40295 17.267 8.09343 17.76 7.8399L16.6775 8.95354Z" fill="black" fill-opacity="0.5"/>
<path d="M33.0326 31.0239C33.031 28.6193 33.7263 26.616 34.2349 24.4136C34.7368 22.2423 35.0489 20.0467 35.1712 17.8267" fill="black" fill-opacity="0.5"/>
<path d="M24.855 2.67767C26.7608 4.20815 28.2534 5.76662 29.3329 7.35309C30.4745 9.03184 31.683 10.6593 32.9584 12.2354C33.9777 13.4952 34.8005 14.8644 35.4268 16.3431" fill="black" fill-opacity="0.5"/>
<path d="M24.438 5.73346L21.5792 5.9932L24.438 5.73346Z" fill="black" fill-opacity="0.5"/>
<path d="M21.577 5.99331L18.782 5.61536L21.577 5.99331Z" fill="black" fill-opacity="0.5"/>
<path d="M18.782 5.61565C19.3652 5.24858 20.0278 4.79131 20.0667 4.0354L18.782 5.61565Z" fill="black" fill-opacity="0.5"/>
<path d="M25.2969 7.64337L18.892 7.65426L25.2969 7.64337Z" fill="black" fill-opacity="0.5"/>
<path d="M23.5947 4.06026L23.3241 3.71808L23.5947 4.06026Z" fill="black" fill-opacity="0.5"/>
<path d="M23.3247 3.71798C22.7316 3.25863 21.9482 3.00096 20.9745 2.94496C19.2823 2.84853 17.9328 2.88586 16.9259 3.05695C15.6474 3.2747 14.3611 3.564 13.0671 3.92484C11.7544 4.29035 10.6952 4.96227 9.43376 5.64196C7.48853 6.6882 5.72889 7.94752 4.15487 9.41993C2.97435 10.5242 2.0878 11.809 1.60097 13.2243C0.872022 15.3479 0.848173 17.4912 1.52942 19.6542" fill="black" fill-opacity="0.5"/>
<path d="M1.52868 19.6541C1.15125 18.7603 0.920537 17.812 0.836548 16.8093L1.52868 19.6541Z" fill="black" fill-opacity="0.5"/>
<path d="M35.2226 17.1764L35.1729 17.8265L35.2226 17.1764Z" fill="black" fill-opacity="0.5"/>
<path d="M35.1741 17.8267C35.1592 17.8362 35.1459 17.849 35.1342 17.865L35.1741 17.8267Z" fill="black" fill-opacity="0.5"/>
<path d="M35.1342 17.8638L34.8993 18.5233L35.1342 17.8638Z" fill="black" fill-opacity="0.5"/>
<path d="M34.8997 18.5234C34.2879 19.6588 33.8716 20.5225 33.6508 21.1146C33.0131 22.8307 32.197 24.4664 31.2026 26.0218C31.0139 26.3173 30.6484 26.7777 30.1061 27.4029C29.498 28.106 28.9411 29.0718 28.235 29.7437C27.6917 30.2612 27.0882 30.7148 26.4246 31.1047" fill="black" fill-opacity="0.5"/>
<path d="M26.4237 31.1052C26.3726 31.0958 26.3273 31.0625 26.2877 31.0052L26.4237 31.1052Z" fill="black" fill-opacity="0.5"/>
<path d="M26.2877 31.0052L26.7979 30.5463L26.2877 31.0052Z" fill="black" fill-opacity="0.5"/>
<path d="M34.9616 16.5124C34.8776 17.1812 34.7724 17.6815 34.6459 18.0133C33.7552 20.3505 32.6457 22.6846 31.3174 25.0155C30.5988 26.2769 29.6283 27.4652 28.6997 28.7966C28.2984 29.3731 27.6649 29.9564 26.7991 30.5464" fill="black" fill-opacity="0.5"/>
<path d="M26.8002 30.5463C26.1366 30.9144 25.4357 31.1374 24.6974 31.2151L26.8002 30.5463Z" fill="black" fill-opacity="0.5"/>
<path d="M22.7049 2.81896C21.2024 2.44878 19.7777 2.31658 18.4308 2.42234C16.8474 2.54781 15.7431 2.65305 15.1179 2.73808C14.0623 2.88221 12.9455 3.25964 11.7676 3.87038C9.60723 4.9918 7.80456 5.95301 6.09989 7.21752C4.80583 8.17769 3.93534 8.88797 3.48844 9.34836C1.52713 11.3719 0.861434 14.0222 0.836548 16.8094" fill="black" fill-opacity="0.5"/>
<path d="M0.837271 16.8093L0.319336 17.0504L0.837271 16.8093Z" fill="black" fill-opacity="0.5"/>
<path d="M34.1016 15.6712C34.2043 17.3868 33.8932 18.8566 33.1668 20.4119C32.8692 21.0476 32.6079 21.5593 32.3829 21.9471C31.373 23.6891 30.6985 24.8395 30.3594 25.3984C30.1209 25.7925 29.4438 26.7568 28.3281 28.2914C27.7868 29.0349 27.2751 29.4828 26.5099 30.1469C25.9811 30.6042 25.4294 30.9324 24.855 31.1315" fill="black" fill-opacity="0.5"/>
<path d="M22.2447 2.48018C21.0388 2.1297 19.6944 1.96121 18.2116 1.97469C16.4401 1.9918 14.9967 2.13333 13.4647 2.73837C12.5833 3.08677 12.0597 3.30919 11.8938 3.40562C10.4213 4.25899 9.0407 4.98431 7.75182 5.58157C7.06124 5.90094 6.44739 6.24726 5.91028 6.62055C5.07349 7.20018 4.50631 7.62272 4.20871 7.88817C3.17803 8.80583 2.18674 9.50056 1.23486 9.97235" fill="black" fill-opacity="0.5"/>
<path d="M27.0636 2.94336C29.0311 4.27786 30.6689 5.57036 31.9645 7.54878C33.6614 10.1385 34.9368 12.8168 35.5683 15.9664" fill="black" fill-opacity="0.5"/>
<path d="M31.252 4.01978C31.7289 4.63466 32.3552 5.5067 33.1308 6.63589C34.2268 8.23066 34.9713 9.93066 35.3643 11.7359C35.5717 12.6888 35.7848 14.2312 36.0036 16.3631" fill="black" fill-opacity="0.5"/>
<path d="M16.6776 8.95319C16.0918 9.03406 15.1907 9.18442 13.9744 9.40424C12.9987 9.58052 12.1915 10.0041 11.5527 10.675" fill="black" fill-opacity="0.5"/>
<path d="M10.4796 23.3248L11.9043 24.398C11.9456 24.429 11.9818 24.4662 12.0116 24.5085C12.3196 24.9517 12.5094 25.437 12.9122 25.8227C13.299 26.196 13.7319 26.5232 14.2109 26.8042" fill="black" fill-opacity="0.5"/>
<path d="M14.2121 26.8042L13.366 27.1106L14.2121 26.8042Z" fill="black" fill-opacity="0.5"/>
<path d="M13.3648 27.1107L12.0194 27.0283L13.3648 27.1107Z" fill="black" fill-opacity="0.5"/>
<path d="M21.5786 5.99359C20.5842 6.19579 19.6059 6.44516 18.6437 6.74172C18.4415 6.80393 18.2683 6.89103 18.1242 7.00302C18.0995 7.02242 18.0802 7.04778 18.0681 7.07668C18.056 7.10557 18.0514 7.13704 18.0548 7.16808C18.0583 7.19912 18.0696 7.2287 18.0877 7.25399C18.1058 7.27928 18.1302 7.29943 18.1584 7.31254L18.891 7.65472" fill="black" fill-opacity="0.5"/>
<path d="M18.8917 7.65454L17.7594 7.83963L18.8917 7.65454Z" fill="black" fill-opacity="0.5"/>
<path d="M17.7592 7.8399L13.681 8.23497L17.7592 7.8399Z" fill="black" fill-opacity="0.5"/>
<path d="M13.6815 8.23448C13.2895 8.05199 12.8488 7.96178 12.3594 7.96385C12.2814 7.96401 12.2061 7.93545 12.1476 7.88357C12.0892 7.8317 12.0516 7.7601 12.0421 7.68233C12.0297 7.58071 12.0768 7.45266 12.1836 7.29816" fill="black" fill-opacity="0.5"/>
<path d="M32.1724 32.2417C31.0852 32.0535 31.5207 30.7657 31.7867 30.0316C32.6499 27.6456 33.5085 25.5646 34.1135 22.8474" fill="black" fill-opacity="0.5"/>
<path d="M34.1145 22.8472C34.1518 22.2085 34.2197 21.7315 34.3183 21.4163C34.6801 20.2518 34.9523 19.0677 35.1348 17.8638" fill="black" fill-opacity="0.5"/>
<path d="M18.9203 26.1931L17.2482 25.8027C17.1464 25.7791 17.0393 25.7937 16.9473 25.8439C16.8553 25.894 16.7847 25.9762 16.749 26.0749C16.6484 26.3538 16.4571 26.6146 16.175 26.8573" fill="black" fill-opacity="0.5"/>
<path d="M16.1746 26.8571L14.2102 26.8042L16.1746 26.8571Z" fill="black" fill-opacity="0.5"/>
<path d="M26.2882 31.0052C25.0761 31.4728 23.8209 31.689 22.5227 31.6537C21.5242 31.6257 20.8305 31.3084 19.989 30.9118C19.8841 30.8624 19.7709 30.8314 19.6546 30.8201L17.6436 30.6303" fill="black" fill-opacity="0.5"/>
<path d="M23.0093 31.1031C21.8972 30.9336 21.1693 30.551 20.2299 29.9117C19.6399 29.5115 19.2059 29.2268 18.928 29.0578C17.7273 28.3299 17.0414 27.8571 16.175 26.857" fill="black" fill-opacity="0.5"/>
<path d="M20.6539 3.60919L20.0691 4.03536L20.6539 3.60919Z" fill="black" fill-opacity="0.5"/>
<path d="M20.0696 4.0354L19.0228 4.22671L20.0696 4.0354Z" fill="black" fill-opacity="0.5"/>
<path d="M19.0231 4.22675C17.9297 4.31385 16.7772 4.52226 15.7678 4.62647C14.708 4.73431 13.6022 4.96191 12.4502 5.30928C11.1234 5.70745 9.88849 6.34981 8.75307 6.97973C6.97374 7.96583 5.18819 9.44032 4.05588 11.215C3.59239 11.9429 3.2248 12.5656 2.95313 13.083C1.72129 15.4362 1.34334 18.4116 2.22522 20.9313" fill="black" fill-opacity="0.5"/>
<path d="M2.2244 20.9317C2.20148 20.9046 2.18377 20.8707 2.17126 20.8301L2.2244 20.9317Z" fill="black" fill-opacity="0.5"/>
<path d="M23.3253 3.71807L20.6548 3.60919L23.3253 3.71807Z" fill="black" fill-opacity="0.5"/>
<path d="M20.6531 3.60932C19.5675 3.48696 18.5835 3.48437 17.7011 3.60154C16.2701 3.79285 15.228 3.86284 14.1113 4.16925C12.6876 4.56016 11.6678 4.89456 11.0519 5.17245C8.7593 6.20625 6.51647 7.7725 4.32341 9.8712C3.59861 10.5659 3.06149 11.2467 2.71205 11.9134C2.25685 12.7854 1.90741 13.617 1.66374 14.4082C1.11936 16.1689 1.28112 18.1706 1.7835 19.9686C1.81876 20.0941 1.87994 20.2387 1.96704 20.4025C2.04066 20.5425 2.10857 20.6851 2.17079 20.8303" fill="black" fill-opacity="0.5"/>
<path d="M2.17154 20.8303L1.52917 19.6544L2.17154 20.8303Z" fill="black" fill-opacity="0.5"/>
<path d="M18.7834 5.61536L15.0039 6.08352L18.7834 5.61536Z" fill="black" fill-opacity="0.5"/>
<path d="M15.0039 6.08355L15.976 5.4303L15.0039 6.08355Z" fill="black" fill-opacity="0.5"/>
<path d="M15.976 5.43059L19.0213 4.22675L15.976 5.43059Z" fill="black" fill-opacity="0.5"/>
<path d="M4.4364 24.2099C4.60645 24.4297 4.77703 24.648 4.94811 24.8647C6.01717 26.222 7.14377 27.5301 8.32791 28.7889C8.46893 28.9382 8.62239 29.1119 8.7883 29.3099" fill="black" fill-opacity="0.5"/>
<path d="M8.78821 29.3098L10.8771 31.523L8.78821 29.3098Z" fill="black" fill-opacity="0.5"/>
<path d="M10.8779 31.5232C11.3648 32.0147 11.8438 32.5155 12.3789 32.9215C13.8461 34.0372 15.3745 34.9756 16.9641 35.7367C17.3073 35.9015 17.6785 36.055 18.0777 36.1971C18.1108 36.2084 18.1452 36.2157 18.1803 36.2188L22.6893 36.6745" fill="black" fill-opacity="0.5"/>
<path d="M22.6909 36.6747C23.9373 36.8468 25.2407 36.9044 26.6011 36.8473L22.6909 36.6747Z" fill="black" fill-opacity="0.5"/>
<path d="M13.6564 34.5092C11.9517 33.2919 10.3393 31.9802 8.8192 30.5742C8.39303 30.1791 8.02493 29.7991 7.71489 29.4341C6.847 28.4138 6.09576 27.6719 5.24654 26.5644C4.93961 26.1642 4.49893 25.6074 3.92448 24.894C3.18827 23.9815 2.32246 22.5646 1.32703 20.6432" fill="black" fill-opacity="0.5"/>
<path d="M25.5066 32.4068C23.465 33.0953 21.3756 33.4655 19.2385 33.5173C18.0212 33.5474 16.8039 33.5303 15.5865 33.466" fill="black" fill-opacity="0.5"/>
<path d="M28.6041 30.5013C27.9923 30.7067 27.4184 31.0281 26.8823 31.4657L28.6041 30.5013Z" fill="black" fill-opacity="0.5"/>
<path d="M26.8834 31.4657C27.0026 31.1515 27.2017 30.8908 27.4806 30.6834C27.4848 30.6806 27.4884 30.677 27.4911 30.6728C27.4938 30.6686 27.4957 30.6639 27.4965 30.6589C27.4974 30.654 27.4973 30.6489 27.4962 30.644C27.495 30.6392 27.4929 30.6345 27.49 30.6305V30.6289C27.4847 30.6211 27.4763 30.6157 27.4663 30.6137C27.4563 30.6117 27.4454 30.6133 27.4355 30.6181L26.4246 31.1049" fill="black" fill-opacity="0.5"/>
<path d="M34.1134 22.8474C33.0511 25.8648 31.827 28.5213 29.522 30.7704L34.1134 22.8474Z" fill="black" fill-opacity="0.5"/>
<path d="M29.524 30.7704L28.6063 30.5013L29.524 30.7704Z" fill="black" fill-opacity="0.5"/>
<path d="M28.6063 30.5012C29.1372 29.9848 29.6842 29.3108 30.2472 28.4792C31 27.3698 31.5283 26.5496 31.8321 26.0187C32.3174 25.1736 33.1542 23.3419 34.3425 20.5236C34.5862 19.945 34.7723 19.2782 34.9009 18.5234" fill="black" fill-opacity="0.5"/>
<path d="M13.366 27.1104C14.2867 27.6195 14.9721 28.1375 15.4222 28.6642C16.1853 29.558 16.9262 30.2134 17.6448 30.6302" fill="black" fill-opacity="0.5"/>
<path d="M17.6436 30.6303L18.3839 31.915L17.6436 30.6303Z" fill="black" fill-opacity="0.5"/>
<path d="M18.3832 31.915C16.7574 31.3623 15.5867 31.0103 14.8712 30.8589C14.4803 30.7759 13.5196 30.6375 11.9891 30.4436C10.9667 30.314 9.89977 29.936 8.78821 29.3098" fill="black" fill-opacity="0.5"/>
<path d="M13.6804 8.23456L12.7907 8.56118C12.737 8.5808 12.6858 8.60746 12.6383 8.64051C12.1841 8.9578 11.8653 9.21444 11.3894 9.42285C10.6397 9.74948 10.1347 9.99471 9.87443 10.1585C9.33317 10.4976 8.38595 11.1861 7.03279 12.2241C6.26237 12.8151 5.61534 13.5954 5.0917 14.5649C4.58673 15.4981 4.29432 16.1477 4.21448 16.5137C3.92103 17.8628 3.83186 19.1496 3.94695 20.3742C4.05738 21.5376 4.46644 22.2686 5.05126 23.2485C5.83205 24.5581 6.88036 24.8598 8.22264 25.2393C8.59126 25.3435 9.10453 25.6453 9.38138 25.8101C9.94287 26.1445 10.8668 26.3918 11.3707 26.6205C11.493 26.6765 11.7092 26.8123 12.0193 27.028" fill="black" fill-opacity="0.5"/>
<path d="M12.0192 27.0281C11.1534 27.1225 10.2269 27.0317 9.2398 26.7559C7.054 26.1462 5.33792 24.9304 4.09155 23.1086" fill="black" fill-opacity="0.5"/>
<path d="M4.09171 23.1085C3.53178 21.8331 3.52556 20.6169 3.5971 19.1237C3.67487 17.5092 3.88796 15.6801 4.73718 14.2834C5.42154 13.1594 6.24536 12.1417 7.20865 11.2302C7.415 11.0363 7.47099 10.8476 7.37663 10.6641C7.36522 10.6434 7.3616 10.6294 7.36574 10.6221C7.37819 10.6034 7.38493 10.5848 7.38596 10.5661C7.38648 10.5545 7.38268 10.5431 7.37526 10.534C7.36783 10.5248 7.35727 10.5186 7.34552 10.5163C7.27087 10.5029 7.20087 10.5137 7.13555 10.549C7.06711 10.5853 7.04275 10.5625 7.06245 10.4806C7.09563 10.3468 7.1848 10.2291 7.32997 10.1275C7.99981 9.65882 8.60485 9.12222 9.14508 8.5177" fill="black" fill-opacity="0.5"/>
<path d="M15.0043 6.0835L12.1829 7.29823L15.0043 6.0835Z" fill="black" fill-opacity="0.5"/>
<path d="M12.1825 7.29816L9.1449 8.51756L12.1825 7.29816Z" fill="black" fill-opacity="0.5"/>
<path d="M9.14603 8.5177C8.38546 8.78522 7.84575 9.35137 7.33403 9.71844C6.63568 10.2193 6.09752 10.5272 5.54848 11.3205C5.03625 12.0598 4.66814 12.6767 4.44417 13.1713C4.33633 13.4098 4.09629 13.9796 3.72404 14.8807C3.2761 15.9679 3.09567 17.0753 2.86859 18.4067C2.68299 19.4934 2.7115 20.564 2.95414 21.6185C3.04901 22.0276 3.2341 22.4257 3.41297 22.8208" fill="black" fill-opacity="0.5"/>
<path d="M3.41325 22.8208L2.55469 21.4521L3.41325 22.8208Z" fill="black" fill-opacity="0.5"/>
<path d="M22.6909 36.6745C24.1327 35.9512 25.2961 34.8873 26.318 33.6244L22.6909 36.6745Z" fill="black" fill-opacity="0.5"/>
<path d="M26.3175 33.6245C27.4737 32.768 28.5422 31.8166 29.5231 30.7704L26.3175 33.6245Z" fill="black" fill-opacity="0.5"/>
<path d="M15.9752 5.4303C15.0731 5.61694 14.1653 5.74293 13.2518 5.80825C12.6639 5.85076 12.2408 5.91298 11.9826 5.99489C9.10209 6.91567 6.65551 8.58457 4.83574 10.9658C4.48111 11.4314 3.98806 12.2086 3.35659 13.2973C2.99056 13.9278 2.72822 14.595 2.56957 15.2991C2.23984 16.7549 2.06667 17.9841 2.05008 18.9868C2.03764 19.7769 2.2051 20.5987 2.55247 21.4521" fill="black" fill-opacity="0.5"/>
<path d="M2.55447 21.4522L2.22473 20.9312L2.55447 21.4522Z" fill="black" fill-opacity="0.5"/>
<path d="M4.09222 23.1086C3.99112 23.4788 4.26953 23.8956 4.43751 24.2098L4.09222 23.1086Z" fill="black" fill-opacity="0.5"/>
<path d="M4.4388 24.2099L3.41382 22.821L4.4388 24.2099Z" fill="black" fill-opacity="0.5"/>
<path d="M12.2561 34.0426C11.2845 33.324 10.3093 32.6189 9.33042 31.9273C7.11403 30.3642 5.68932 28.6704 4.08575 26.426C3.34851 25.3964 2.63459 24.0199 1.87402 22.8269" fill="black" fill-opacity="0.5"/>
<path d="M18.3846 31.9152L15.5865 33.4659L18.3846 31.9152Z" fill="black" fill-opacity="0.5"/>
<path d="M15.586 33.4658L13.0632 33.2185C13.0125 33.2145 12.9642 33.1949 12.9248 33.1625L10.8779 31.5232" fill="black" fill-opacity="0.5"/>
<path d="M26.3175 33.6246C25.9888 33.6039 25.7021 33.5464 25.4573 33.452C24.9519 33.256 25.2909 32.7272 25.5071 32.4068" fill="black" fill-opacity="0.5"/>
<path d="M25.506 32.4066L26.8825 31.4656L25.506 32.4066Z" fill="black" fill-opacity="0.5"/>
<path d="M8.06535 32.8344C7.56246 32.0982 6.99319 31.4268 6.35757 30.8202C5.70121 30.1918 5.36369 29.6226 4.82865 29.0269C4.5238 28.6867 4.20443 28.2393 3.87055 27.6846C3.41016 26.9183 2.93785 26.1562 2.45361 25.3982" fill="black" fill-opacity="0.5"/>
<path d="M23.6719 2.33498C24.7399 3.45587 25.4761 4.28436 25.8805 4.82044C26.371 5.46955 27.0973 6.62259 28.0596 8.27956C28.8041 9.56015 29.7591 10.82 30.9245 12.0591C31.6214 12.7994 32.5126 13.49 33.3307 14.1682C33.7029 14.4772 34.2846 15.0573 35.0758 15.9086L35.4227 16.3426C35.4735 16.6526 35.6088 16.9077 35.8286 17.1078C35.9375 17.4043 36.0168 17.6854 36.0666 17.9508C36.2657 19.0323 36.3341 20.119 36.2719 21.2108C36.1692 23.0254 35.8198 24.7887 35.2236 26.5006C35.1925 26.1367 35.1489 25.7214 35.1862 25.3699C35.3418 23.8622 35.3952 22.3525 35.3464 20.8407C35.3169 19.8841 35.3636 18.3972 35.2205 17.1762L34.9592 16.5121C34.7352 16.1865 34.448 15.906 34.0975 15.6706L32.357 14.697C31.289 14.2262 30.4455 13.8312 29.8265 13.5118C28.6724 12.9166 27.7304 12.0638 27.0004 10.9532C26.3347 9.87485 25.7659 8.77158 25.2941 7.64342L24.4356 5.73344L23.5926 4.05987C23.3893 3.57875 23.0928 3.16502 22.7029 2.81869L22.3996 2.54495C22.1269 2.29298 21.8853 2.11982 21.6748 2.02546C19.883 1.22289 17.9845 0.984405 15.9791 1.30999C14.8209 1.49767 13.7098 1.83934 12.646 2.33498C11.7273 2.76426 11.228 2.99652 11.1481 3.03178C10.2149 3.43773 9.39214 4.15475 8.31738 4.24963C9.41339 3.56216 10.5084 2.87313 11.6023 2.18255C14.5031 0.353447 17.7242 -0.935947 21.0465 0.866716C21.5364 1.13113 22.185 1.6584 22.8273 1.96169C23.1083 2.09441 23.3899 2.21884 23.6719 2.33498Z" fill="black" fill-opacity="0.5"/>
<path d="M22.402 2.54528L22.2465 2.47995C20.1778 1.34609 17.1744 1.47675 14.885 1.99935C14.5366 2.07815 13.7376 2.36123 12.4881 2.84857C12.0485 3.01966 11.2947 3.40591 10.2266 4.00732C9.52363 4.40445 8.64485 4.83943 7.59031 5.31226C7.00653 5.5746 6.41653 5.7291 5.82031 5.77576L8.31978 4.24995C9.39453 4.15508 10.2173 3.43805 11.1505 3.03211C11.2304 2.99685 11.7296 2.76458 12.6483 2.3353C13.7122 1.83966 14.8233 1.498 15.9815 1.31032C17.9869 0.984733 19.8854 1.22322 21.6772 2.02579C21.8877 2.12015 22.1293 2.29331 22.402 2.54528Z" fill="black" fill-opacity="0.5"/>
<path d="M22.2435 2.47969C21.0375 2.12921 19.6932 1.96071 18.2104 1.97419C16.4388 1.9913 14.9955 2.13284 13.4634 2.73788C12.5821 3.08628 12.0584 3.30869 11.8925 3.40513C10.4201 4.2585 9.03948 4.98382 7.7506 5.58108C7.06002 5.90044 6.44617 6.24677 5.90906 6.62006C5.07227 7.19969 4.50508 7.62223 4.20749 7.88767C3.17681 8.80534 2.18552 9.50006 1.23364 9.97186C2.36595 8.21274 4.05351 6.85958 5.81729 5.7755C6.41351 5.72883 7.00351 5.57433 7.58729 5.312C8.64183 4.83917 9.5206 4.40419 10.2236 4.00705C11.2916 3.40564 12.0455 3.0194 12.4851 2.84831C13.7346 2.36096 14.5335 2.07788 14.8819 1.99908C17.1714 1.47648 20.1748 1.34583 22.2435 2.47969Z" fill="black" fill-opacity="0.5"/>
<path d="M22.2453 2.47969L22.4008 2.54502L22.7041 2.81876C21.2016 2.44858 19.7769 2.31638 18.43 2.42214C16.8466 2.54761 15.7423 2.65285 15.1171 2.73788C14.0615 2.88201 12.9447 3.25944 11.7668 3.87018C9.60643 4.9916 7.80376 5.95281 6.09909 7.21732C4.80503 8.1775 3.93455 8.88778 3.48764 9.34816C1.52633 11.3717 0.860634 14.022 0.835748 16.8092L0.317813 17.0503C-0.27789 14.6302 -0.0710268 12.084 1.23548 9.97186C2.18736 9.50007 3.17864 8.80534 4.20933 7.88768C4.50692 7.62223 5.07411 7.19969 5.91089 6.62006C6.44801 6.24677 7.06186 5.90045 7.75244 5.58108C9.04131 4.98382 10.422 4.25851 11.8944 3.40513C12.0603 3.3087 12.5839 3.08628 13.4653 2.73788C14.9973 2.13285 16.4407 1.99131 18.2122 1.9742C19.695 1.96072 21.0394 2.12922 22.2453 2.47969Z" fill="black" fill-opacity="0.5"/>
<path d="M22.7037 2.81883C23.0936 3.16516 23.3901 3.57889 23.5934 4.06001L23.3227 3.71783C22.7296 3.25848 21.9462 3.00081 20.9726 2.94482C19.2803 2.84839 17.9308 2.88572 16.924 3.05681C15.6455 3.27456 14.3592 3.56385 13.0651 3.9247C11.7524 4.29021 10.6932 4.96212 9.43181 5.64181C7.48657 6.68805 5.72694 7.94738 4.15291 9.41979C2.97239 10.5241 2.08584 11.8088 1.59901 13.2242C0.870064 15.3478 0.846215 17.4911 1.52746 19.6541C1.15003 18.7602 0.919317 17.812 0.835327 16.8093C0.860213 14.0221 1.52591 11.3718 3.48722 9.34824C3.93412 8.88785 4.80461 8.17757 6.09867 7.21739C7.80334 5.95289 9.60601 4.99167 11.7664 3.87026C12.9443 3.25952 14.0611 2.88209 15.1166 2.73796C15.7419 2.65293 16.8462 2.54768 18.4296 2.42222C19.7765 2.31645 21.2012 2.44866 22.7037 2.81883Z" fill="black" fill-opacity="0.5"/>
<path d="M23.6737 2.33496L24.1341 2.48894C25.3659 3.54659 26.3256 4.57416 27.0131 5.57167C28.1967 7.29345 29.0941 8.7135 30.2373 10.1818C30.902 11.0362 31.3816 11.621 31.676 11.9362C33.3169 13.6953 34.0324 14.4092 35.0776 15.9086C34.2864 15.0573 33.7047 14.4771 33.3325 14.1681C32.5144 13.49 31.6232 12.7994 30.9264 12.0591C29.7609 10.82 28.8059 9.56013 28.0614 8.27955C27.0991 6.62257 26.3728 5.46953 25.8823 4.82043C25.4779 4.28435 24.7417 3.45586 23.6737 2.33496Z" fill="black" fill-opacity="0.5"/>
<path d="M24.85 2.6774C26.7559 4.20787 28.2485 5.76634 29.3279 7.35281C30.4696 9.03156 31.6781 10.659 32.9535 12.2351C33.9728 13.4949 34.7955 14.8642 35.4218 16.3428L35.075 15.9088C34.0298 14.4095 33.3143 13.6956 31.6734 11.9365C31.3789 11.6212 30.8994 11.0364 30.2347 10.182C29.0915 8.71375 28.1941 7.29371 27.0104 5.57192C26.323 4.57442 25.3633 3.54684 24.1315 2.4892L24.85 2.6774Z" fill="black" fill-opacity="0.5"/>
<path d="M26.1183 2.8813C28.3378 4.13492 29.9802 5.93759 31.5014 8.02022C31.7316 8.33543 31.9379 8.68384 32.1204 9.06542C32.7161 10.3128 33.556 11.5773 34.0973 12.5556C34.6479 13.549 35.1383 14.686 35.5686 15.9666C35.5946 16.3004 35.6905 16.6094 35.8564 16.8935L35.8315 17.1082C35.6117 16.9081 35.4764 16.653 35.4255 16.343C34.7993 14.8643 33.9765 13.4951 32.9572 12.2352C31.6818 10.6591 30.4733 9.03172 29.3316 7.35297C28.2522 5.7665 26.7596 4.20803 24.8538 2.67755L26.1183 2.8813Z" fill="black" fill-opacity="0.5"/>
<path d="M23.3235 3.71786L20.6529 3.60898C19.5673 3.48662 18.5832 3.48403 17.7008 3.6012C16.2699 3.79251 15.2278 3.8625 14.1111 4.16891C12.6874 4.55982 11.6676 4.89423 11.0517 5.17212C8.75907 6.20591 6.51624 7.77216 4.32318 9.87086C3.59838 10.5656 3.06127 11.2463 2.71183 11.913C2.25663 12.7851 1.90719 13.6167 1.66352 14.4078C1.11914 16.1685 1.2809 18.1703 1.78328 19.9683C1.81853 20.0937 1.87971 20.2384 1.96681 20.4022C2.04043 20.5422 2.10835 20.6848 2.17056 20.8299L1.5282 19.6541C0.846952 17.4911 0.870801 15.3478 1.59975 13.2242C2.08657 11.8088 2.97313 10.5241 4.15365 9.41981C5.72767 7.9474 7.48731 6.68808 9.43254 5.64184C10.6939 4.96214 11.7531 4.29023 13.0659 3.92472C14.3599 3.56387 15.6462 3.27458 16.9247 3.05683C17.9316 2.88574 19.2811 2.84841 20.9733 2.94484C21.947 3.00083 22.7304 3.25851 23.3235 3.71786Z" fill="black" fill-opacity="0.5"/>
<path d="M27.0627 2.94301C29.0303 4.27751 30.6681 5.57002 31.9637 7.54844C33.6606 10.1381 34.936 12.8164 35.5674 15.966C35.1371 14.6855 34.6467 13.5485 34.0961 12.5551C33.5548 11.5768 32.7149 10.3123 32.1192 9.06491C31.9367 8.68333 31.7304 8.33493 31.5002 8.01971C29.979 5.93708 28.3366 4.13442 26.1171 2.8808L27.0627 2.94301Z" fill="black" fill-opacity="0.5"/>
<path d="M31.251 4.01955C31.7279 4.63443 32.3542 5.50647 33.1298 6.63566C34.2259 8.23043 34.9703 9.93044 35.3633 11.7357C35.5707 12.6886 35.7838 14.231 36.0026 16.3629L35.8548 16.8933C35.6889 16.6092 35.593 16.3002 35.5671 15.9663C34.9356 12.8167 33.6602 10.1383 31.9633 7.54866C30.6677 5.57024 29.0299 4.27774 27.0624 2.94324C28.541 3.06767 29.9372 3.42644 31.251 4.01955Z" fill="black" fill-opacity="0.5"/>
<path d="M20.6519 3.60883L20.0671 4.035L19.0203 4.22631C17.9269 4.31341 16.7744 4.52183 15.765 4.62603C14.7053 4.73387 13.5994 4.96147 12.4474 5.30884C11.1207 5.70701 9.88571 6.34937 8.7503 6.97929C6.97097 7.96539 5.18541 9.43988 4.05311 11.2145C3.58961 11.9425 3.22203 12.5651 2.95036 13.0825C1.71851 15.4358 1.34056 18.4112 2.22245 20.9309C2.19964 20.9039 2.18201 20.8702 2.16957 20.8298C2.10735 20.6846 2.03944 20.542 1.96581 20.4021C1.87871 20.2382 1.81754 20.0936 1.78228 19.9681C1.2799 18.1701 1.11814 16.1684 1.66252 14.4077C1.90619 13.6165 2.25563 12.7849 2.71083 11.9129C3.06027 11.2462 3.59739 10.5654 4.32219 9.87071C6.51525 7.77201 8.75808 6.20576 11.0507 5.17197C11.6666 4.89407 12.6864 4.55967 14.1101 4.16876C15.2268 3.86235 16.2689 3.79236 17.6998 3.60105C18.5823 3.48388 19.5663 3.48647 20.6519 3.60883Z" fill="black" fill-opacity="0.5"/>
<path d="M23.3209 3.71795L23.5915 4.06012L24.4345 5.73369L21.5757 5.99344L18.7808 5.61549C19.364 5.24842 20.0266 4.79114 20.0655 4.03524L20.6503 3.60907L23.3209 3.71795Z" fill="black" fill-opacity="0.5"/>
<path d="M20.0669 4.03528C20.0281 4.79118 19.3655 5.24846 18.7822 5.61552L15.0027 6.08369L15.9748 5.43044L19.0202 4.22659L20.0669 4.03528Z" fill="black" fill-opacity="0.5"/>
<path d="M36.0024 16.363C35.7836 14.2311 35.5705 12.6887 35.3631 11.7358C34.9701 9.93054 34.2256 8.23053 33.1296 6.63577C32.354 5.50658 31.7277 4.63454 31.2507 4.01965C33.7466 5.18514 35.3455 7.09875 36.0475 9.76049C36.1159 10.0218 36.1797 10.2852 36.2388 10.5506C36.2989 10.8212 36.3409 11.0893 36.3648 11.3547C36.5151 13.0387 36.3943 14.7081 36.0024 16.363Z" fill="black" fill-opacity="0.5"/>
<path d="M19.0219 4.22662L15.9765 5.43047C15.0744 5.61712 14.1666 5.7431 13.2531 5.80843C12.6651 5.85094 12.2421 5.91315 11.9839 5.99507C9.10337 6.91584 6.65678 8.58474 4.83701 10.966C4.48239 11.4316 3.98934 12.2087 3.35786 13.2975C2.99183 13.9279 2.7295 14.5952 2.57085 15.2992C2.24111 16.7551 2.06795 17.9843 2.05136 18.987C2.03892 19.7771 2.20638 20.5989 2.55374 21.4522L2.224 20.9312C1.34211 18.4115 1.72007 15.4361 2.95191 13.0828C3.22358 12.5654 3.59117 11.9428 4.05466 11.2149C5.18697 9.44019 6.97252 7.96571 8.75185 6.97961C9.88727 6.34969 11.1222 5.70733 12.4489 5.30915C13.601 4.96179 14.7068 4.73419 15.7665 4.62635C16.776 4.52214 17.9285 4.31372 19.0219 4.22662Z" fill="black" fill-opacity="0.5"/>
<path d="M15.974 5.43018L15.0019 6.08343L12.1805 7.29816L9.14286 8.51757C8.38229 8.78509 7.84258 9.35124 7.33087 9.71831C6.63251 10.2191 6.09436 10.5271 5.54531 11.3203C5.03308 12.0596 4.66498 12.6766 4.44101 13.1712C4.33317 13.4097 4.09313 13.9795 3.72088 14.8805C3.27293 15.9677 3.09251 17.0752 2.86543 18.4065C2.67982 19.4932 2.70834 20.5638 2.95097 21.6184C3.04585 22.0274 3.23094 22.4256 3.4098 22.8207L2.55124 21.4519C2.20388 20.5986 2.03642 19.7768 2.04886 18.9867C2.06545 17.984 2.23862 16.7548 2.56835 15.2989C2.727 14.5949 2.98934 13.9276 3.35537 13.2972C3.98684 12.2084 4.47989 11.4313 4.83451 10.9657C6.65429 8.58445 9.10087 6.91555 11.9814 5.99477C12.2396 5.91286 12.6626 5.85064 13.2506 5.80813C14.1641 5.7428 15.0719 5.61682 15.974 5.43018Z" fill="black" fill-opacity="0.5"/>
<path d="M18.7834 5.61523L21.5784 5.99319C20.584 6.19538 19.6056 6.44476 18.6434 6.74132C18.4412 6.80353 18.268 6.89063 18.1239 7.00262C18.0993 7.02202 18.08 7.04738 18.0678 7.07627C18.0557 7.10517 18.0511 7.13664 18.0546 7.16768C18.058 7.19872 18.0693 7.22829 18.0874 7.25358C18.1056 7.27887 18.1299 7.29903 18.1581 7.31213L18.8907 7.65431L17.7584 7.8394L13.6802 8.23446C13.2883 8.05197 12.8476 7.96176 12.3582 7.96383C12.2802 7.96398 12.2049 7.93542 12.1464 7.88355C12.0879 7.83167 12.0504 7.76008 12.0409 7.68231C12.0284 7.58069 12.0756 7.45263 12.1824 7.29813L15.0039 6.0834L18.7834 5.61523Z" fill="black" fill-opacity="0.5"/>
<path d="M24.4362 5.73334L25.2947 7.64332L18.8897 7.65421L18.1572 7.31203C18.1289 7.29892 18.1046 7.27877 18.0865 7.25348C18.0684 7.22819 18.057 7.19861 18.0536 7.16757C18.0502 7.13653 18.0547 7.10506 18.0669 7.07617C18.079 7.04727 18.0983 7.02191 18.1229 7.00251C18.2671 6.89053 18.4402 6.80343 18.6424 6.74121C19.6047 6.44466 20.583 6.19528 21.5774 5.99308L24.4362 5.73334Z" fill="black" fill-opacity="0.5"/>
<path d="M12.1815 7.29803C12.0747 7.45253 12.0275 7.58059 12.0399 7.68221C12.0494 7.75998 12.087 7.83157 12.1454 7.88345C12.2039 7.93532 12.2793 7.96388 12.3572 7.96373C12.8466 7.96166 13.2873 8.05187 13.6793 8.23436L12.7896 8.56099C12.7359 8.5806 12.6847 8.60726 12.6372 8.64031C12.183 8.9576 11.8642 9.21424 11.3882 9.42266C10.6386 9.74928 10.1336 9.99451 9.87332 10.1583C9.33205 10.4974 8.38484 11.1859 7.03167 12.2239C6.26125 12.8149 5.61422 13.5952 5.09058 14.5647C4.58561 15.4979 4.2932 16.1475 4.21336 16.5135C3.91992 17.8626 3.83074 19.1494 3.94584 20.374C4.05627 21.5374 4.46533 22.2684 5.05015 23.2483C5.83094 24.5579 6.87925 24.8596 8.22153 25.2391C8.59015 25.3433 9.10342 25.6451 9.38027 25.8099C9.94175 26.1443 10.8656 26.3916 11.3696 26.6203C11.4919 26.6763 11.7081 26.8121 12.0182 27.0278C11.1523 27.1221 10.2259 27.0314 9.23873 26.7556C7.05293 26.1459 5.33685 24.9301 4.09049 23.1083C3.53056 21.8329 3.52434 20.6166 3.59588 19.1234C3.67365 17.509 3.88674 15.6799 4.73596 14.2832C5.42032 13.1592 6.24414 12.1414 7.20743 11.23C7.41377 11.0361 7.46977 10.8474 7.37541 10.6638C7.364 10.6431 7.36037 10.6291 7.36452 10.6218C7.37696 10.6032 7.3837 10.5845 7.38474 10.5658C7.38526 10.5543 7.38146 10.5429 7.37404 10.5337C7.36661 10.5246 7.35605 10.5183 7.3443 10.5161C7.26964 10.5026 7.19965 10.5135 7.13433 10.5487C7.06589 10.585 7.04153 10.5622 7.06123 10.4803C7.09441 10.3465 7.18358 10.2289 7.32875 10.1272C7.99859 9.65855 8.60363 9.12195 9.14385 8.51744L12.1815 7.29803Z" fill="black" fill-opacity="0.5"/>
<path d="M25.2933 7.64325C25.7651 8.7714 26.3338 9.87467 26.9995 10.9531C23.9396 9.90267 20.8102 9.47806 17.6113 9.67922C16.3754 9.75698 15.1461 9.89645 13.9236 10.0976C15.0201 9.51279 16.2908 9.41014 17.5351 9.17528C17.6959 9.14521 17.8498 9.08818 17.9971 9.00419C18.0019 9.00188 18.0056 8.99804 18.0078 8.99327C18.0099 8.98851 18.0103 8.98309 18.0089 8.9779C18.0074 8.9727 18.0043 8.96803 17.9999 8.96461C17.9955 8.9612 17.9901 8.95926 17.9846 8.95908L16.6735 8.95286C16.7948 8.40227 17.2629 8.09275 17.756 7.83922L18.8883 7.65414L25.2933 7.64325Z" fill="black" fill-opacity="0.5"/>
<path d="M17.7573 7.83942C17.2643 8.09294 16.7961 8.40246 16.6748 8.95305C16.089 9.03393 15.1879 9.18429 13.9716 9.40411C12.9959 9.58038 12.1886 10.004 11.5499 10.6748C9.43927 11.3748 7.33175 12.3422 5.94748 14.1277C4.85562 15.5359 4.36983 17.1934 4.49011 19.1002C4.56321 20.2559 5.00649 21.3882 5.90393 21.9963C6.47838 22.3852 7.03001 22.6511 7.55884 22.7942C8.41014 23.0234 9.38327 23.2002 10.4782 23.3246L11.903 24.3978C11.9442 24.4287 11.9804 24.466 12.0103 24.5082C12.3182 24.9515 12.508 25.4368 12.9108 25.8225C13.2976 26.1958 13.7305 26.5229 14.2096 26.8039L13.3634 27.1103L12.0181 27.0279C11.708 26.8122 11.4918 26.6764 11.3695 26.6204C10.8655 26.3918 9.94165 26.1445 9.38016 25.8101C9.10331 25.6452 8.59004 25.3434 8.22142 25.2392C6.87914 24.8597 5.83083 24.558 5.05004 23.2484C4.46522 22.2685 4.05616 21.5375 3.94573 20.3741C3.83064 19.1495 3.91981 17.8627 4.21326 16.5137C4.2931 16.1476 4.58551 15.498 5.09048 14.5648C5.61412 13.5953 6.26115 12.815 7.03157 12.224C8.38473 11.186 9.33195 10.4975 9.87321 10.1585C10.1335 9.99463 10.6385 9.7494 11.3881 9.42277C11.8641 9.21436 12.1829 8.95772 12.6371 8.64043C12.6846 8.60738 12.7358 8.58072 12.7895 8.5611L13.6792 8.23448L17.7573 7.83942Z" fill="black" fill-opacity="0.5"/>
<path d="M9.14481 8.51758C8.60458 9.12209 7.99954 9.65869 7.3297 10.1274C7.18453 10.229 7.09536 10.3467 7.06218 10.4804C7.04248 10.5624 7.06685 10.5852 7.13528 10.5489C7.20061 10.5136 7.2706 10.5027 7.34525 10.5162C7.35701 10.5185 7.36756 10.5247 7.37499 10.5339C7.38242 10.543 7.38622 10.5544 7.38569 10.566C7.38466 10.5847 7.37792 10.6033 7.36547 10.622C7.36133 10.6292 7.36496 10.6432 7.37636 10.664C7.47072 10.8475 7.41473 11.0362 7.20838 11.2301C6.2451 12.1416 5.42127 13.1593 4.73691 14.2833C3.88769 15.68 3.6746 17.5091 3.59683 19.1236C3.52529 20.6167 3.53151 21.833 4.09144 23.1084C3.99034 23.4786 4.26875 23.8954 4.43673 24.2096L3.41175 22.8207C3.23288 22.4256 3.04779 22.0274 2.95292 21.6184C2.71028 20.5638 2.68176 19.4932 2.86737 18.4066C3.09445 17.0752 3.27488 15.9678 3.72282 14.8806C4.09507 13.9795 4.33511 13.4097 4.44295 13.1712C4.66692 12.6766 5.03503 12.0597 5.54726 11.3203C6.0963 10.5271 6.63445 10.2191 7.33281 9.71832C7.84453 9.35125 8.38424 8.7851 9.14481 8.51758Z" fill="black" fill-opacity="0.5"/>
<path d="M13.9265 10.0978L11.5515 10.6748C12.1902 10.004 12.9975 9.58039 13.9732 9.40412C15.1895 9.18429 16.0906 9.03394 16.6764 8.95306L17.9876 8.95929C17.9931 8.95946 17.9984 8.96141 18.0028 8.96482C18.0072 8.96823 18.0104 8.9729 18.0118 8.9781C18.0133 8.98329 18.0129 8.98871 18.0107 8.99348C18.0086 8.99824 18.0048 9.00209 18 9.00439C17.8528 9.08838 17.6988 9.14541 17.5381 9.17548C16.2938 9.41034 15.0231 9.51299 13.9265 10.0978Z" fill="black" fill-opacity="0.5"/>
<path d="M118.835 26.1178V9.07414C118.835 9.06536 118.836 9.05666 118.84 9.04855C118.843 9.04044 118.848 9.03306 118.854 9.02685C118.861 9.02064 118.868 9.01571 118.876 9.01235C118.884 9.00899 118.893 9.00726 118.902 9.00726H121.434C121.451 9.00726 121.468 9.01431 121.481 9.02685C121.494 9.03939 121.501 9.05641 121.501 9.07414V23.4737C121.501 23.4914 121.508 23.5084 121.52 23.521C121.533 23.5335 121.55 23.5406 121.567 23.5406H123.039C123.057 23.5406 123.074 23.5476 123.086 23.5601C123.099 23.5727 123.106 23.5897 123.106 23.6074V26.1178C123.106 26.1355 123.099 26.1525 123.086 26.1651C123.074 26.1776 123.057 26.1847 123.039 26.1847H118.902C118.893 26.1847 118.884 26.1829 118.876 26.1796C118.868 26.1762 118.861 26.1713 118.854 26.1651C118.848 26.1589 118.843 26.1515 118.84 26.1434C118.836 26.1353 118.835 26.1266 118.835 26.1178Z" fill="black" fill-opacity="0.5"/>
<path d="M51.8462 9.04325C56.3931 9.03392 58.6929 9.03029 58.7458 9.03236C58.7618 9.03316 58.7768 9.04007 58.7878 9.05165C58.7988 9.06323 58.8049 9.0786 58.8049 9.09458L58.8111 11.7138C58.8111 11.7303 58.8046 11.7461 58.7929 11.7578C58.7812 11.7695 58.7654 11.776 58.7489 11.776H53.3347C53.3255 11.776 53.3164 11.7778 53.3079 11.7812C53.2994 11.7847 53.2917 11.7897 53.2852 11.7961C53.2787 11.8024 53.2736 11.81 53.27 11.8183C53.2665 11.8266 53.2647 11.8355 53.2647 11.8445V26.1429C53.2647 26.1544 53.2601 26.1655 53.252 26.1737C53.2438 26.1819 53.2327 26.1864 53.2212 26.1864C53.1403 26.1875 52.6934 26.189 51.8804 26.1911C51.0675 26.1932 50.6201 26.1937 50.5382 26.1927C50.5269 26.1923 50.5162 26.1875 50.5084 26.1794C50.5005 26.1712 50.4962 26.1604 50.4962 26.1491L50.4371 11.8507C50.4371 11.8417 50.4353 11.8328 50.4317 11.8245C50.4282 11.8162 50.4231 11.8086 50.4166 11.8023C50.4101 11.7959 50.4024 11.7909 50.3939 11.7874C50.3854 11.784 50.3763 11.7822 50.3671 11.7822L44.9529 11.804C44.9364 11.804 44.9205 11.7975 44.9089 11.7858C44.8972 11.7741 44.8907 11.7583 44.8907 11.7418L44.886 9.12258C44.886 9.10634 44.8923 9.09075 44.9037 9.07912C44.915 9.0675 44.9304 9.06077 44.9466 9.06036C44.9985 9.05829 47.2984 9.05258 51.8462 9.04325Z" fill="black" fill-opacity="0.5"/>
<path d="M73.3244 26.0948C73.3244 26.1217 73.3138 26.1474 73.2948 26.1663C73.2758 26.1853 73.2501 26.1959 73.2233 26.1959L69.1467 26.1975C69.1226 26.1975 69.0995 26.188 69.0824 26.1712C69.0652 26.1543 69.0554 26.1314 69.055 26.1073L69.0441 9.09009C69.0441 9.0773 69.0491 9.06503 69.0582 9.05599C69.0672 9.04695 69.0795 9.04187 69.0923 9.04187H71.612C71.6375 9.04187 71.6621 9.05203 71.6802 9.07011C71.6982 9.0882 71.7084 9.11273 71.7084 9.1383L71.7146 23.457C71.715 23.4839 71.726 23.5096 71.7452 23.5285C71.7644 23.5475 71.7903 23.5581 71.8173 23.5581L73.2295 23.5518C73.2543 23.5518 73.278 23.5617 73.2955 23.5792C73.313 23.5967 73.3229 23.6204 73.3229 23.6452L73.3244 26.0948Z" fill="black" fill-opacity="0.5"/>
<path d="M83.185 26.1338L78.7989 20.5843C78.7948 20.5788 78.7896 20.5743 78.7837 20.5711C78.7778 20.5678 78.7712 20.5658 78.7645 20.5652C78.7577 20.5646 78.7509 20.5654 78.7445 20.5677C78.7381 20.5699 78.7323 20.5734 78.7273 20.578L77.469 21.7803C77.4643 21.7847 77.4604 21.79 77.4578 21.7959C77.4551 21.8017 77.4536 21.8081 77.4535 21.8146V26.1431C77.4535 26.1559 77.4484 26.1682 77.4393 26.1772C77.4303 26.1863 77.418 26.1913 77.4053 26.1913H74.8591C74.8463 26.1913 74.8341 26.1863 74.825 26.1772C74.816 26.1682 74.8109 26.1559 74.8109 26.1431V9.09637C74.8109 9.09004 74.8122 9.08377 74.8146 9.07792C74.817 9.07207 74.8206 9.06676 74.825 9.06228C74.8295 9.0578 74.8348 9.05425 74.8407 9.05183C74.8465 9.0494 74.8528 9.04816 74.8591 9.04816H77.4053C77.4116 9.04816 77.4179 9.0494 77.4237 9.05183C77.4296 9.05425 77.4349 9.0578 77.4393 9.06228C77.4438 9.06676 77.4474 9.07207 77.4498 9.07792C77.4522 9.08377 77.4535 9.09004 77.4535 9.09637V18.1875C77.4537 18.1967 77.4566 18.2057 77.4618 18.2134C77.467 18.221 77.4744 18.227 77.4829 18.2306C77.4914 18.2342 77.5008 18.2353 77.5099 18.2337C77.5191 18.2321 77.5275 18.228 77.5343 18.2217L82.3762 13.6069C82.3849 13.5983 82.3966 13.5933 82.4088 13.5929H88.3348C88.3447 13.593 88.3544 13.5962 88.3625 13.6021C88.3706 13.6079 88.3767 13.6161 88.3799 13.6256L91.1686 21.8286C91.1721 21.8377 91.1783 21.8456 91.1863 21.8512C91.1944 21.8567 91.2039 21.8597 91.2137 21.8597C91.2235 21.8597 91.2331 21.8567 91.2412 21.8512C91.2492 21.8456 91.2554 21.8377 91.2589 21.8286L94.2591 13.624C94.2626 13.6149 94.2688 13.607 94.2768 13.6014C94.2849 13.5959 94.2945 13.5929 94.3043 13.5929H96.6933C96.7031 13.5929 96.7126 13.5959 96.7207 13.6014C96.7287 13.607 96.7349 13.6149 96.7384 13.624L99.7356 21.8659C99.7392 21.875 99.7455 21.8828 99.7536 21.8882C99.7618 21.8936 99.7714 21.8965 99.7812 21.8963C99.791 21.8961 99.8005 21.893 99.8085 21.8873C99.8164 21.8816 99.8225 21.8736 99.8258 21.8643L102.622 13.6256C102.626 13.6161 102.632 13.6079 102.64 13.6021C102.648 13.5962 102.657 13.593 102.667 13.5929H105.666C105.674 13.5929 105.682 13.5948 105.689 13.5984C105.695 13.6021 105.701 13.6073 105.706 13.6137C105.71 13.6202 105.713 13.6276 105.714 13.6353C105.715 13.6431 105.714 13.6509 105.711 13.6582L101.142 26.1602C101.138 26.1694 101.132 26.1773 101.124 26.1828C101.116 26.1884 101.106 26.1913 101.097 26.1913H98.5426C98.5328 26.1913 98.5233 26.1884 98.5152 26.1828C98.5071 26.1773 98.501 26.1694 98.4975 26.1602L95.5392 18.0288C95.5357 18.0196 95.5296 18.0118 95.5215 18.0062C95.5135 18.0006 95.5039 17.9976 95.4941 17.9976C95.4843 17.9976 95.4747 18.0006 95.4667 18.0062C95.4586 18.0118 95.4525 18.0196 95.449 18.0288L92.4907 26.1214C92.4872 26.1305 92.481 26.1384 92.473 26.1439C92.4649 26.1495 92.4554 26.1525 92.4456 26.1525H89.9415C89.9317 26.1525 89.9221 26.1495 89.9141 26.1439C89.906 26.1384 89.8998 26.1305 89.8964 26.1214L85.5538 14.1855C85.551 14.1781 85.5465 14.1715 85.5406 14.1663C85.5347 14.161 85.5276 14.1573 85.5199 14.1555C85.5122 14.1536 85.5042 14.1537 85.4965 14.1557C85.4889 14.1577 85.4818 14.1615 85.476 14.1668L80.7493 18.6743C80.7411 18.6827 80.7362 18.6938 80.7357 18.7056C80.7351 18.7173 80.7388 18.7289 80.7462 18.7381L86.543 26.0747C86.5485 26.0818 86.5519 26.0902 86.5529 26.0991C86.5538 26.108 86.5522 26.117 86.5484 26.1251C86.5445 26.1332 86.5384 26.14 86.5309 26.1449C86.5234 26.1497 86.5146 26.1523 86.5057 26.1525H83.2223C83.2151 26.1523 83.208 26.1506 83.2015 26.1474C83.1951 26.1441 83.1894 26.1395 83.185 26.1338Z" fill="black" fill-opacity="0.5"/>
<path d="M132.178 13.5929H135.706C135.716 13.593 135.725 13.596 135.734 13.6016C135.742 13.6072 135.748 13.615 135.752 13.6242C135.755 13.6334 135.756 13.6434 135.754 13.6531C135.752 13.6628 135.747 13.6716 135.74 13.6785L130.497 18.6774C130.488 18.686 130.483 18.6976 130.482 18.7099C130.481 18.7223 130.485 18.7346 130.492 18.7443L136.314 26.1105C136.32 26.1178 136.324 26.1266 136.325 26.1359C136.326 26.1453 136.324 26.1547 136.32 26.1631C136.316 26.1716 136.31 26.1787 136.302 26.1837C136.294 26.1887 136.285 26.1913 136.275 26.1913H133.01C133.003 26.1913 132.996 26.1897 132.989 26.1864C132.982 26.1832 132.976 26.1785 132.972 26.1727L128.572 20.6029C128.567 20.5975 128.562 20.5929 128.556 20.5896C128.55 20.5863 128.543 20.5843 128.536 20.5837C128.529 20.5832 128.523 20.584 128.516 20.5862C128.509 20.5885 128.503 20.592 128.498 20.5967L127.243 21.7928C127.238 21.7974 127.234 21.8029 127.232 21.8091C127.229 21.8152 127.228 21.8219 127.228 21.8286V26.1416C127.228 26.1548 127.222 26.1674 127.213 26.1768C127.204 26.1861 127.191 26.1913 127.178 26.1913H124.636C124.623 26.1913 124.611 26.1861 124.601 26.1768C124.592 26.1674 124.587 26.1548 124.587 26.1416V9.09793C124.587 9.08473 124.592 9.07207 124.601 9.06273C124.611 9.0534 124.623 9.04816 124.636 9.04816H127.178C127.191 9.04816 127.204 9.0534 127.213 9.06273C127.222 9.07207 127.228 9.08473 127.228 9.09793V18.1766C127.228 18.1863 127.231 18.1957 127.236 18.2038C127.241 18.2119 127.249 18.2182 127.258 18.222C127.267 18.2258 127.277 18.2269 127.286 18.2252C127.296 18.2235 127.305 18.219 127.312 18.2123L132.144 13.6069C132.153 13.598 132.166 13.593 132.178 13.5929Z" fill="black" fill-opacity="0.5"/>
<path d="M151.579 14.7267C152.806 13.6183 154.25 13.1387 155.909 13.288C155.934 13.29 155.957 13.3013 155.974 13.3198C155.991 13.3382 156.001 13.3624 156 13.3875V15.9492C156 15.962 155.996 15.9743 155.987 15.9833C155.978 15.9924 155.966 15.9974 155.954 15.9974C155.522 16.0016 155.213 16.0016 155.027 15.9974C153.139 15.9508 151.644 17.3879 151.547 19.2559C151.524 19.7039 151.511 19.9688 151.509 20.0507C151.481 20.8719 151.476 22.8835 151.496 26.0855C151.496 26.1136 151.485 26.1405 151.465 26.1603C151.445 26.1801 151.418 26.1913 151.39 26.1913H148.942C148.917 26.1913 148.892 26.1811 148.874 26.163C148.856 26.1449 148.846 26.1204 148.846 26.0948V13.5742C148.846 13.5482 148.856 13.5233 148.875 13.5049C148.893 13.4865 148.918 13.4762 148.944 13.4762H151.397C151.421 13.4762 151.444 13.4859 151.462 13.5031C151.479 13.5203 151.488 13.5436 151.488 13.568V14.6863C151.488 14.6967 151.492 14.7068 151.497 14.7155C151.503 14.7242 151.511 14.7311 151.521 14.7354C151.53 14.7396 151.541 14.7411 151.551 14.7395C151.561 14.738 151.571 14.7335 151.579 14.7267Z" fill="black" fill-opacity="0.5"/>
<path d="M113.96 25.2454C113.031 25.9816 112.051 26.402 111.021 26.5068C109.71 26.6421 107.7 26.485 106.66 25.5549C105.5 24.518 105.096 23.1913 105.446 21.5747C105.86 19.6756 107.358 18.7937 109.28 18.4609C110.823 18.1954 112.35 18.2364 113.861 18.5838C113.872 18.5865 113.884 18.5867 113.895 18.5842C113.907 18.5818 113.918 18.5769 113.927 18.5697C113.936 18.5626 113.944 18.5535 113.95 18.543C113.955 18.5325 113.958 18.5209 113.959 18.5091C113.984 18.0518 114.006 17.5837 113.791 17.1357C113.438 16.4005 112.861 15.9842 112.06 15.8868C110.25 15.668 108.899 16.3306 108.006 17.8745C108 17.8849 107.992 17.8938 107.982 17.9007C107.972 17.9076 107.961 17.9123 107.949 17.9145C107.937 17.9168 107.925 17.9164 107.913 17.9135C107.901 17.9106 107.89 17.9053 107.881 17.8978L105.922 16.3689C105.91 16.3593 105.901 16.3456 105.898 16.3301C105.895 16.3147 105.897 16.2986 105.905 16.2849C106.738 14.8187 107.99 13.8855 109.661 13.4853C112.133 12.8911 115.589 13.5444 116.507 16.2632C116.659 16.7132 116.734 17.3809 116.732 18.2665C116.722 23.2457 116.719 25.8722 116.724 26.1459C116.724 26.1579 116.72 26.1694 116.711 26.1778C116.703 26.1863 116.691 26.191 116.679 26.191H114.138C114.114 26.191 114.091 26.1817 114.074 26.1651C114.057 26.1484 114.048 26.1259 114.048 26.1024V25.2874C114.047 25.2771 114.044 25.2671 114.039 25.2585C114.033 25.2499 114.025 25.243 114.016 25.2386C114.007 25.2342 113.997 25.2325 113.987 25.2337C113.977 25.2349 113.968 25.2389 113.96 25.2454ZM114.004 21.3212C114.012 21.2886 114.006 21.2544 113.989 21.2257C113.972 21.197 113.944 21.176 113.912 21.1672C112.768 20.8603 111.621 20.7457 110.47 20.8235C109.599 20.8826 108.305 21.1579 108.196 22.1844C108.102 23.0658 108.512 23.5894 109.427 23.7553C110.228 23.9015 111.394 23.9777 112.139 23.6465C113.122 23.2078 113.744 22.4328 114.004 21.3212Z" fill="black" fill-opacity="0.5"/>
<path d="M145.408 21.8842L147.359 23.648C147.375 23.6629 147.385 23.6832 147.387 23.705C147.389 23.7268 147.383 23.7486 147.37 23.7662C146.035 25.4906 144.227 26.4124 141.946 26.5316C139.529 26.6571 137.622 25.7456 136.226 23.7973C134.826 21.8469 134.53 19.3599 135.616 17.1466C135.803 16.7671 135.925 16.4638 136.163 16.0967C137.185 14.5196 138.663 13.6024 140.598 13.3453C143.491 12.9627 145.968 14.2458 147.168 16.8744C147.686 18.0108 147.856 19.2474 147.678 20.5839C147.675 20.6073 147.663 20.6287 147.646 20.6441C147.628 20.6596 147.606 20.6681 147.583 20.6679H137.983C137.968 20.668 137.953 20.6715 137.94 20.6781C137.926 20.6847 137.914 20.6942 137.905 20.706C137.895 20.7178 137.889 20.7315 137.885 20.7462C137.882 20.7608 137.882 20.7761 137.885 20.7908C138.629 24.015 142.337 24.8409 144.656 22.6401C144.866 22.441 145.069 22.13 145.278 21.892C145.286 21.8827 145.296 21.8751 145.307 21.8697C145.318 21.8642 145.33 21.8611 145.342 21.8603C145.354 21.8596 145.366 21.8614 145.378 21.8655C145.389 21.8696 145.4 21.8759 145.408 21.8842ZM141.484 17.9865C143.366 17.9844 144.449 17.9813 144.732 17.9771C144.74 17.9768 144.749 17.9743 144.756 17.9698C144.764 17.9654 144.77 17.9592 144.774 17.9517C144.778 17.9443 144.781 17.9359 144.781 17.9273C144.781 17.9187 144.779 17.9101 144.775 17.9025C144.105 16.6489 142.939 15.8821 141.483 15.8852C140.027 15.8867 138.862 16.6566 138.195 17.9118C138.191 17.9195 138.189 17.928 138.189 17.9366C138.189 17.9452 138.192 17.9536 138.196 17.9611C138.2 17.9685 138.207 17.9747 138.214 17.9792C138.221 17.9836 138.23 17.9861 138.238 17.9865C138.521 17.9896 139.603 17.9896 141.484 17.9865Z" fill="black" fill-opacity="0.5"/>
<path d="M64.2734 25.2283C64.2733 25.2222 64.2714 25.2163 64.2681 25.2112C64.2648 25.2061 64.2602 25.2021 64.2547 25.1995C64.2492 25.1969 64.2431 25.1959 64.237 25.1966C64.231 25.1973 64.2253 25.1996 64.2205 25.2034C63.1432 26.0671 61.9596 26.5192 60.6696 26.5597C59.3849 26.6001 58.3117 26.3969 57.45 25.95C55.9491 25.1707 55.3876 23.4241 55.6489 21.7956C55.8014 20.8499 56.2452 20.0728 56.9803 19.4641C57.5579 18.9851 58.3967 18.6527 59.4969 18.4671C61.0751 18.2006 62.6138 18.239 64.1132 18.5822C64.1335 18.5867 64.1544 18.5865 64.1746 18.5819C64.1948 18.5772 64.2136 18.5681 64.2297 18.5553C64.2459 18.5424 64.2589 18.5262 64.2678 18.5077C64.2767 18.4892 64.2813 18.469 64.2812 18.4485C64.275 15.6099 60.9932 15.1604 59.2512 16.6956C58.7006 17.1808 58.307 17.5458 58.0706 17.7905C58.0591 17.8027 58.0434 17.8101 58.0267 17.8112C58.01 17.8124 57.9935 17.8072 57.9804 17.7968L56.1607 16.3752C56.1373 16.3568 56.1216 16.3305 56.1167 16.3014C56.1118 16.2723 56.118 16.2425 56.1342 16.2181C57.2561 14.4678 58.7939 13.5086 60.7474 13.3407C61.4007 13.2847 62.1861 13.3318 63.1038 13.4822C65.0122 13.7964 66.4136 14.924 66.7775 16.806C66.8958 17.4157 66.9538 18.2629 66.9517 19.3475C66.9497 20.8707 66.9502 23.1337 66.9533 26.1366C66.9533 26.1614 66.9436 26.1851 66.9264 26.2026C66.9092 26.2201 66.8859 26.2299 66.8615 26.2299H64.359C64.3363 26.2299 64.3145 26.2208 64.2985 26.2044C64.2824 26.1881 64.2734 26.1659 64.2734 26.1428V25.2283ZM64.1661 21.3788C64.1742 21.3462 64.1694 21.3117 64.1525 21.2827C64.1357 21.2537 64.1082 21.2323 64.0759 21.2232C62.9353 20.909 61.7895 20.7862 60.6385 20.8546C59.7691 20.9075 58.4735 21.1735 58.3568 22.1984C58.2562 23.0788 58.6622 23.605 59.5747 23.7771C60.3741 23.9296 61.5391 24.0135 62.2857 23.6885C63.2718 23.2571 63.8986 22.4872 64.1661 21.3788Z" fill="black" fill-opacity="0.5"/>
<path d="M34.1004 15.6708C34.203 17.3864 33.892 18.8562 33.1656 20.4115C32.868 21.0472 32.6067 21.5589 32.3817 21.9467C31.3718 23.6887 30.6972 24.8391 30.3582 25.398C30.1197 25.792 29.4426 26.7564 28.3269 28.291C27.7856 29.0345 27.2739 29.4824 26.5087 30.1465C25.9798 30.6038 25.4282 30.932 24.8538 31.1311C25.619 30.6271 26.3236 29.9853 26.9675 29.2055C28.4171 27.4511 29.5649 25.7184 30.789 23.7758C32.0006 21.8565 32.8188 20.5469 33.1485 18.6991C33.3953 17.3127 33.1324 15.9788 32.3599 14.6971L34.1004 15.6708Z" fill="black" fill-opacity="0.5"/>
<path d="M34.9615 16.5122C34.8776 17.181 34.7723 17.6813 34.6458 18.0131C33.7551 20.3503 32.6456 22.6844 31.3173 25.0153C30.5988 26.2767 29.6282 27.465 28.6997 28.7964C28.2984 29.3729 27.6648 29.9562 26.799 30.5462C26.1354 30.9143 25.4344 31.1372 24.6962 31.215C24.7231 31.1683 24.7755 31.1403 24.8533 31.131C25.4277 30.9319 25.9793 30.6037 26.5082 30.1465C27.2734 29.4823 27.7851 29.0344 28.3264 28.2909C29.4421 26.7563 30.1192 25.792 30.3577 25.3979C30.6967 24.839 31.3713 23.6886 32.3812 21.9466C32.6062 21.5588 32.8675 21.0471 33.1651 20.4115C33.8915 18.8561 34.2025 17.3863 34.0999 15.6707C34.4504 15.9061 34.7376 16.1866 34.9615 16.5122Z" fill="black" fill-opacity="0.5"/>
<path d="M35.2205 17.1764L35.1707 17.8265C35.1562 17.8359 35.1432 17.8483 35.1318 17.8639L34.897 18.5233C34.2852 19.6588 33.8689 20.5225 33.648 21.1146C33.0103 22.8307 32.1943 24.4664 31.1999 26.0217C31.0112 26.3173 30.6457 26.7776 30.1034 27.4029C29.4952 28.1059 28.9384 29.0718 28.2323 29.7437C27.6889 30.2611 27.0854 30.7148 26.4218 31.1047C26.371 31.0953 26.3259 31.0621 26.2865 31.0051L26.7967 30.5463C27.6625 29.9563 28.296 29.373 28.6973 28.7965C29.6259 27.4651 30.5964 26.2768 31.315 25.0154C32.6433 22.6845 33.7527 20.3504 34.6435 18.0132C34.77 17.6814 34.8752 17.1811 34.9592 16.5123L35.2205 17.1764Z" fill="black" fill-opacity="0.5"/>
<path d="M0.83605 16.8092C0.92004 17.8119 1.15075 18.7601 1.52819 19.654L2.17055 20.8298C2.18299 20.8703 2.20062 20.9039 2.22343 20.9309L2.55317 21.452L3.41173 22.8207L4.43671 24.2096C4.60676 24.4294 4.77733 24.6477 4.94842 24.8644C6.01748 26.2217 7.14407 27.5298 8.32822 28.7886C8.46924 28.9379 8.6227 29.1116 8.78861 29.3096L10.8775 31.5229C11.3643 32.0144 11.8433 32.5152 12.3784 32.9212C13.8456 34.0369 15.374 34.9753 16.9636 35.7364C17.3068 35.9013 17.678 36.0547 18.0772 36.1968C18.1103 36.2081 18.1448 36.2155 18.1799 36.2185L22.6889 36.6743C23.9352 36.8464 25.2386 36.9039 26.599 36.8469C22.8506 38.48 18.984 37.7024 15.654 35.654C15.1169 35.3232 14.4506 34.9416 13.6553 34.5092C11.9507 33.2919 10.3383 31.9802 8.81816 30.5741C8.39199 30.1791 8.02389 29.7991 7.71386 29.4341C6.84596 28.4138 6.09473 27.6718 5.2455 26.5644C4.93857 26.1642 4.49789 25.6074 3.92344 24.894C3.18724 23.9815 2.32142 22.5646 1.32599 20.6432L0.318115 17.0503L0.83605 16.8092Z" fill="black" fill-opacity="0.5"/>
<path d="M35.2229 26.5007C34.6806 28.0996 33.9501 29.6072 33.0314 31.0236C33.0298 28.6191 33.7251 26.6158 34.2337 24.4134C34.7355 22.2421 35.0476 20.0464 35.17 17.8264L35.2198 17.1763C35.3629 18.3972 35.3162 19.8842 35.3458 20.8407C35.3945 22.3525 35.3411 23.8622 35.1855 25.3699C35.1482 25.7214 35.1918 26.1367 35.2229 26.5007Z" fill="black" fill-opacity="0.5"/>
<path d="M35.1715 17.8265C35.0491 20.0466 34.737 22.2422 34.2351 24.4135C33.7265 26.6159 33.0313 28.6192 33.0328 31.0238L32.1712 32.2416C31.084 32.0534 31.5195 30.7656 31.7854 30.0315C32.6487 27.6455 33.5072 25.5645 34.1123 22.8472C34.1496 22.2085 34.2175 21.7315 34.316 21.4163C34.6779 20.2519 34.9501 19.0677 35.1326 17.8639C35.144 17.8483 35.1569 17.8359 35.1715 17.8265Z" fill="black" fill-opacity="0.5"/>
<path d="M35.1345 17.8637C34.952 19.0676 34.6798 20.2517 34.3179 21.4162C34.2194 21.7314 34.1515 22.2083 34.1142 22.8471C33.0519 25.8645 31.8278 28.521 29.5228 30.7701L28.6051 30.501C29.136 29.9846 29.683 29.3106 30.246 28.479C30.9988 27.3696 31.5271 26.5494 31.8309 26.0185C32.3162 25.1734 33.153 23.3417 34.3413 20.5234C34.5849 19.9448 34.7711 19.278 34.8996 18.5232L35.1345 17.8637Z" fill="black" fill-opacity="0.5"/>
<path d="M34.8985 18.5233C34.7699 19.2781 34.5838 19.9449 34.3401 20.5234C33.1518 23.3418 32.315 25.1735 31.8298 26.0185C31.526 26.5494 30.9977 27.3696 30.2449 28.4791C29.6818 29.3107 29.1349 29.9847 28.604 30.5011C27.9922 30.7064 27.4183 31.0278 26.8822 31.4654C27.0014 31.1512 27.2005 30.8904 27.4794 30.6831C27.4836 30.6803 27.4871 30.6767 27.4899 30.6725C27.4926 30.6682 27.4944 30.6635 27.4953 30.6586C27.4962 30.6537 27.4961 30.6486 27.4949 30.6437C27.4938 30.6388 27.4917 30.6342 27.4888 30.6302V30.6286C27.4835 30.6208 27.4751 30.6154 27.4651 30.6134C27.4551 30.6114 27.4441 30.6129 27.4343 30.6177L26.4233 31.1046C27.087 30.7147 27.6904 30.261 28.2338 29.7436C28.9399 29.0717 29.4967 28.1058 30.1049 27.4028C30.6472 26.7776 31.0127 26.3172 31.2014 26.0216C32.1958 24.4663 33.0118 22.8306 33.6495 21.1145C33.8704 20.5224 34.2867 19.6587 34.8985 18.5233Z" fill="black" fill-opacity="0.5"/>
<path d="M13.6552 34.5091L12.2553 34.0425C11.2837 33.3239 10.3085 32.6188 9.32969 31.9272C7.1133 30.3641 5.68859 28.6703 4.08502 26.4259C3.34777 25.3962 2.63386 24.0198 1.87329 22.8268L1.32581 20.6431C2.32124 22.5645 3.18705 23.9814 3.92326 24.8939C4.4977 25.6073 4.93839 26.1641 5.24532 26.5643C6.09454 27.6717 6.84578 28.4136 7.71367 29.434C8.02371 29.799 8.39181 30.179 8.81798 30.574C10.3381 31.9801 11.9505 33.2918 13.6552 34.5091Z" fill="black" fill-opacity="0.5"/>
<path d="M32.1727 32.2416C30.6651 34.2905 28.8074 35.8257 26.5999 36.847C25.2395 36.9041 23.9361 36.8465 22.6897 36.6744C24.1315 35.9511 25.2949 34.8873 26.3168 33.6243C27.4729 32.7678 28.5415 31.8165 29.5224 30.7702C31.8274 28.5212 33.0515 25.8646 34.1138 22.8472C33.5088 25.5644 32.6502 27.6455 31.787 30.0314C31.521 30.7656 31.0855 32.0534 32.1727 32.2416Z" fill="black" fill-opacity="0.5"/>
<path d="M12.2548 34.0425C10.7679 33.8434 9.3712 33.4406 8.06469 32.834C7.56179 32.0978 6.99253 31.4264 6.35691 30.8198C5.70055 30.1914 5.36303 29.6222 4.82799 29.0265C4.52314 28.6863 4.20377 28.2389 3.86989 27.6842C3.4095 26.9179 2.93719 26.1558 2.45295 25.3978L1.8728 22.8268C2.63337 24.0197 3.34728 25.3962 4.08453 26.4259C5.6881 28.6703 7.11281 30.3641 9.3292 31.9272C10.308 32.6188 11.2833 33.3239 12.2548 34.0425Z" fill="black" fill-opacity="0.5"/>
<path d="M4.091 23.1085C5.33736 24.9303 7.05344 26.1461 9.23924 26.7558C10.2264 27.0316 11.1529 27.1223 12.0187 27.028L13.3641 27.1104C14.2848 27.6195 14.9702 28.1375 15.4202 28.6642C16.1834 29.558 16.9243 30.2133 17.6429 30.6302L18.3832 31.9149C16.7573 31.3622 15.5867 31.0102 14.8712 30.8588C14.4803 30.7759 13.5196 30.6374 11.9891 30.4435C10.9667 30.3139 9.89975 29.936 8.78819 29.3097C8.62228 29.1116 8.46882 28.938 8.3278 28.7886C7.14365 27.5298 6.01705 26.2218 4.948 24.8645C4.77691 24.6477 4.60634 24.4295 4.43629 24.2097C4.26831 23.8955 3.9899 23.4786 4.091 23.1085Z" fill="black" fill-opacity="0.5"/>
<path d="M18.9193 26.1928L17.2473 25.8024C17.1454 25.7788 17.0384 25.7934 16.9464 25.8435C16.8544 25.8937 16.7838 25.9759 16.7481 26.0746C16.6475 26.3535 16.4562 26.6143 16.1741 26.8569L14.2097 26.804C13.7307 26.523 13.2977 26.1959 12.911 25.8226C12.5081 25.4369 12.3184 24.9516 12.0104 24.5083C11.9805 24.4661 11.9443 24.4288 11.9031 24.3979L10.4784 23.3247C11.6242 23.4274 12.7539 23.5725 13.8675 23.7602C15.7371 24.0775 17.6222 24.7556 18.9193 26.1928Z" fill="black" fill-opacity="0.5"/>
<path d="M18.919 26.193C19.1409 26.4232 19.2809 26.586 19.339 26.6814C19.7548 27.3554 20.1675 28.0304 20.5771 28.7065C21.1836 29.7066 21.9302 30.6942 23.0081 31.1033C21.896 30.9337 21.1681 30.5511 20.2287 29.9119C19.6387 29.5116 19.2047 29.227 18.9268 29.058C17.7261 28.3301 17.0402 27.8572 16.1738 26.8571C16.4559 26.6145 16.6472 26.3537 16.7478 26.0748C16.7835 25.9761 16.8541 25.8939 16.9461 25.8438C17.0381 25.7936 17.1451 25.779 17.247 25.8026L18.919 26.193Z" fill="black" fill-opacity="0.5"/>
<path d="M8.06413 32.8343C4.95963 31.4267 3.04498 28.7063 2.45239 25.3981C2.93663 26.1561 3.40894 26.9182 3.86933 27.6845C4.20321 28.2392 4.52258 28.6866 4.82743 29.0267C5.36247 29.6224 5.69999 30.1917 6.35635 30.8201C6.99197 31.4266 7.56123 32.098 8.06413 32.8343Z" fill="black" fill-opacity="0.5"/>
<path d="M16.1753 26.857C17.0416 27.8571 17.7275 28.3299 18.9283 29.0578C19.2062 29.2268 19.6401 29.5114 20.2301 29.9117C21.1695 30.5509 21.8975 30.9336 23.0095 31.1031C23.585 31.3395 24.147 31.3768 24.6955 31.2151C25.4338 31.1373 26.1348 30.9144 26.7984 30.5463L26.2882 31.0051C25.0761 31.4728 23.8209 31.6889 22.5227 31.6537C21.5242 31.6257 20.8305 31.3084 19.989 30.9118C19.8841 30.8624 19.7709 30.8313 19.6546 30.82L17.6435 30.6303C16.925 30.2134 16.1841 29.5581 15.4209 28.6643C14.9709 28.1375 14.2855 27.6196 13.3647 27.1105L14.2109 26.8041L16.1753 26.857Z" fill="black" fill-opacity="0.5"/>
<path d="M18.382 31.9149L15.5839 33.4656L13.0611 33.2183C13.0104 33.2142 12.9621 33.1946 12.9227 33.1623L10.8758 31.5229L8.78699 29.3096C9.89855 29.9359 10.9655 30.3139 11.9879 30.4435C13.5184 30.6374 14.4791 30.7758 14.87 30.8588C15.5855 31.0102 16.7561 31.3622 18.382 31.9149Z" fill="black" fill-opacity="0.5"/>
<path d="M29.5218 30.7699C28.5409 31.8162 27.4724 32.7675 26.3162 33.624C25.9875 33.6033 25.7008 33.5457 25.4561 33.4514C24.9506 33.2554 25.2897 32.7266 25.5059 32.4062L26.8824 31.4652C27.4185 31.0276 27.9924 30.7062 28.6042 30.5009L29.5218 30.7699Z" fill="black" fill-opacity="0.5"/>
<path d="M26.2878 31.0052C26.3272 31.0622 26.3723 31.0954 26.4231 31.1048L27.4341 30.6179C27.4439 30.6131 27.4548 30.6116 27.4648 30.6136C27.4748 30.6156 27.4832 30.621 27.4885 30.6288V30.6304C27.4914 30.6344 27.4935 30.639 27.4947 30.6439C27.4958 30.6488 27.4959 30.6539 27.4951 30.6588C27.4942 30.6637 27.4923 30.6684 27.4896 30.6726C27.4869 30.6768 27.4833 30.6805 27.4792 30.6833C27.2002 30.8906 27.0012 31.1514 26.8819 31.4656L25.5054 32.4066C23.4637 33.0951 21.3744 33.4653 19.2373 33.5171C18.02 33.5472 16.8027 33.5301 15.5853 33.4658L18.3834 31.9151L17.6431 30.6304L19.6542 30.8201C19.7705 30.8314 19.8836 30.8625 19.9886 30.9119C20.83 31.3085 21.5237 31.6258 22.5222 31.6538C23.8204 31.6891 25.0756 31.4729 26.2878 31.0052Z" fill="black" fill-opacity="0.5"/>
<path d="M15.5848 33.4657C16.8021 33.53 18.0194 33.5471 19.2368 33.517C21.3738 33.4652 23.4632 33.095 25.5049 32.4065C25.2887 32.7269 24.9496 33.2557 25.4551 33.4517C25.6998 33.5461 25.9865 33.6036 26.3152 33.6244C25.2933 34.8873 24.1299 35.9512 22.6881 36.6744L18.1791 36.2187C18.144 36.2156 18.1095 36.2083 18.0765 36.1969C17.6773 36.0549 17.3061 35.9014 16.9628 35.7365C15.3733 34.9755 13.8449 34.0371 12.3776 32.9213C11.8426 32.5154 11.3635 32.0146 10.8767 31.5231L12.9236 33.1624C12.963 33.1948 13.0113 33.2143 13.062 33.2184L15.5848 33.4657Z" fill="black" fill-opacity="0.5"/>
</svg>
