<svg width="145" height="19" viewBox="0 0 145 19" fill="none" xmlns="http://www.w3.org/2000/svg">
<g clip-path="url(#clip0_5102_33380)">
<path d="M111.575 13.6211C111.575 13.7549 111.549 13.8887 111.522 14.0225C111.469 14.1563 111.389 14.2634 111.309 14.3704C111.202 14.4775 111.096 14.531 110.962 14.5845C110.829 14.638 110.696 14.6648 110.562 14.638H98.4347C98.1682 14.638 97.9283 14.5042 97.7417 14.3169C97.5551 14.1296 97.4485 13.862 97.4485 13.5944V5.37887C97.4485 5.24507 97.4752 5.11127 97.5285 5.00423C97.5818 4.89718 97.6618 4.76338 97.7417 4.6831C97.8217 4.60282 97.955 4.52254 98.0616 4.46901C98.1682 4.41549 98.3015 4.38873 98.4347 4.38873H110.562C110.696 4.38873 110.829 4.41549 110.962 4.44225C111.096 4.49577 111.202 4.5493 111.309 4.65634C111.415 4.73662 111.469 4.87042 111.522 4.97746C111.575 5.11127 111.602 5.24507 111.602 5.37887V13.6211H111.575ZM140.789 13.3C143.267 12.9254 144.494 11.2127 144.494 8.64366V4.70986C144.494 1.68592 142.761 0 139.802 0H121.304V19H125.942V4.38873H138.816C138.949 4.38873 139.083 4.41549 139.189 4.44225C139.323 4.49577 139.429 4.5493 139.509 4.65634C139.589 4.73662 139.669 4.87042 139.722 4.97746C139.776 5.11127 139.802 5.24507 139.776 5.35211V7.94789C139.776 8.08169 139.749 8.21549 139.722 8.32254C139.669 8.45634 139.589 8.56338 139.509 8.64366C139.403 8.72394 139.296 8.80422 139.189 8.85775C139.056 8.91127 138.923 8.93803 138.816 8.91127H127.861V13.3H135.378L139.323 19H145L140.789 13.3ZM97.4752 0C94.4632 0 92.784 1.73944 92.784 4.70986V14.2366C92.784 17.2606 94.5165 18.9465 97.4752 18.9465H111.522C114.481 18.9465 116.213 17.207 116.213 14.2366V4.70986C116.213 1.68592 114.481 0 111.522 0H97.4752ZM66.9292 14.2366C66.9292 17.2606 68.6618 18.9465 71.6204 18.9465H87.9596V14.6113H72.6066C72.4733 14.6113 72.3401 14.5845 72.2068 14.531C72.0735 14.4775 71.9669 14.3972 71.8869 14.3169C71.807 14.2099 71.727 14.1028 71.6737 13.969C71.6204 13.8352 71.5938 13.7014 71.6204 13.5676V5.37887C71.6204 5.11127 71.727 4.87042 71.9136 4.6831C72.1002 4.49577 72.3401 4.38873 72.6066 4.38873H88.0129V0H71.6204C68.6085 0 66.9292 1.73944 66.9292 4.70986V14.2366ZM61.8382 0H57.1471V19H61.8382V0ZM29.0533 0V19H33.7445V4.38873H46.5119C46.6452 4.36197 46.7785 4.38873 46.9118 4.44225C47.045 4.49577 47.1517 4.5493 47.2583 4.65634C47.3649 4.76338 47.4449 4.87042 47.4715 5.00423C47.5248 5.13803 47.5515 5.27183 47.5248 5.40563V8.00141C47.5248 8.13521 47.4982 8.26901 47.4715 8.40282C47.4182 8.53662 47.3382 8.64366 47.2583 8.7507C47.1517 8.85775 47.045 8.91127 46.9118 8.96479C46.7785 9.01831 46.6452 9.01831 46.5119 9.01831H35.9835V13.407H47.5248C50.5368 13.407 52.216 11.6676 52.216 8.69718V4.70986C52.216 1.68592 50.4835 0 47.5248 0H29.0533ZM4.69118 0C1.67923 0 0 1.73944 0 4.70986V14.2366C0 17.2606 1.73254 18.9465 4.69118 18.9465H22.9228V14.9324H5.65074C5.51746 14.9324 5.38419 14.9056 5.27757 14.8521C5.17096 14.7986 5.03768 14.7183 4.95772 14.638C4.87776 14.5577 4.79779 14.4239 4.74448 14.3169C4.69118 14.2099 4.66452 14.0761 4.66452 13.9423V5.00423C4.66452 4.87042 4.69118 4.73662 4.71783 4.60282C4.77114 4.46901 4.82445 4.36197 4.93107 4.25493C5.01103 4.14789 5.1443 4.06761 5.25092 4.04084C5.38419 3.98732 5.51746 3.96056 5.65074 3.96056H17.7785C17.9118 3.96056 18.045 3.98732 18.1783 4.01408C18.3116 4.06761 18.4182 4.14789 18.5248 4.22817C18.6314 4.33521 18.6847 4.44225 18.7381 4.57606C18.7914 4.70986 18.818 4.84366 18.7914 4.97746V6.7169C18.7914 6.8507 18.7647 6.98451 18.7114 7.09155C18.6581 7.22535 18.5781 7.33239 18.4715 7.41268C18.3649 7.49296 18.2583 7.57324 18.125 7.6C17.9917 7.65352 17.8585 7.65352 17.7252 7.65352H6.58364V11.6676H18.7381C21.75 11.6676 23.4292 9.87465 23.4292 6.95775V4.6831C23.4292 1.68592 21.6967 0 18.7381 0H4.69118Z" fill="black" fill-opacity="0.5"/>
</g>
<defs>
<clipPath id="clip0_5102_33380">
<rect width="145" height="19" fill="white"/>
</clipPath>
</defs>
</svg>
