<svg width="215" height="40" viewBox="0 0 215 40" fill="none" xmlns="http://www.w3.org/2000/svg">
<g clip-path="url(#clip0_5102_33279)">
<path d="M76.6401 0C78.1734 0.3 79.1467 0.88 79.5601 1.74C82.2201 7.32 74.0901 9.43 72.9701 4.5C72.4501 2.21333 73.5201 0.713333 76.1801 0H76.6401Z" fill="#0FD03B"/>
<path d="M37.29 29.67V0.65001C37.29 0.546575 37.3311 0.447377 37.4043 0.374238C37.4774 0.301099 37.5766 0.26001 37.68 0.26001H42.78C42.8702 0.26001 42.9567 0.296885 43.0205 0.362522C43.0842 0.42816 43.12 0.517184 43.12 0.61001V12.22C43.1214 12.2553 43.1325 12.2896 43.1523 12.3189C43.172 12.3482 43.1995 12.3714 43.2317 12.386C43.2639 12.4005 43.2995 12.4058 43.3346 12.4012C43.3696 12.3966 43.4027 12.3824 43.43 12.36C48.76 7.79001 55.78 10.55 57.85 16.88C59.98 23.4 55.76 30.94 48.29 30.51C46.1034 30.3833 44.5934 29.7233 43.76 28.53C43.7246 28.4784 43.6759 28.4373 43.6192 28.4109C43.5624 28.3845 43.4996 28.3738 43.4373 28.3799C43.375 28.386 43.3155 28.4088 43.265 28.4457C43.2145 28.4827 43.1748 28.5325 43.15 28.59C43.05 28.8233 43.0067 29.15 43.02 29.57C43.0227 29.6505 43.0092 29.7306 42.9802 29.8058C42.9513 29.8809 42.9075 29.9494 42.8515 30.0073C42.7955 30.0651 42.7285 30.1111 42.6544 30.1425C42.5802 30.1739 42.5005 30.1901 42.42 30.19H37.81C37.6721 30.19 37.5399 30.1352 37.4423 30.0377C37.3448 29.9402 37.29 29.8079 37.29 29.67ZM52.61 20.33C52.61 19.0384 52.0969 17.7997 51.1836 16.8864C50.2703 15.9731 49.0316 15.46 47.74 15.46C47.1005 15.46 46.4672 15.586 45.8764 15.8307C45.2855 16.0755 44.7487 16.4342 44.2964 16.8864C43.8442 17.3386 43.4855 17.8755 43.2407 18.4663C42.996 19.0572 42.87 19.6905 42.87 20.33C42.87 20.9695 42.996 21.6028 43.2407 22.1937C43.4855 22.7845 43.8442 23.3214 44.2964 23.7736C44.7487 24.2258 45.2855 24.5846 45.8764 24.8293C46.4672 25.074 47.1005 25.2 47.74 25.2C49.0316 25.2 50.2703 24.6869 51.1836 23.7736C52.0969 22.8603 52.61 21.6216 52.61 20.33Z" fill="#0FD03B"/>
<path d="M110.17 12.3L111.24 11.26C111.398 11.1148 111.585 11.0026 111.79 10.93C117.41 9.01001 120.907 10.8467 122.28 16.44C122.34 16.7059 122.37 16.9775 122.37 17.25V29.73C122.37 29.8494 122.323 29.9638 122.238 30.0482C122.154 30.1326 122.039 30.18 121.92 30.18H117.04C116.929 30.18 116.822 30.1358 116.743 30.057C116.664 29.9782 116.62 29.8714 116.62 29.76V18.82C116.62 17.966 116.281 17.147 115.677 16.5431C115.073 15.9393 114.254 15.6 113.4 15.6H112.87C112.064 15.6 111.29 15.9213 110.72 16.4933C110.15 17.0653 109.83 17.8411 109.83 18.65V29.82C109.83 29.8996 109.797 29.9759 109.739 30.0321C109.681 30.0884 109.602 30.12 109.52 30.12H104.25C104.176 30.12 104.104 30.0916 104.052 30.0409C103.999 29.9903 103.97 29.9216 103.97 29.85V0.72001C103.97 0.59801 104.019 0.481007 104.108 0.394741C104.196 0.308474 104.315 0.26001 104.44 0.26001H109.41C109.519 0.26001 109.623 0.303206 109.7 0.380096C109.777 0.456986 109.82 0.561271 109.82 0.67001V12.16C109.819 12.1995 109.83 12.2379 109.852 12.2705C109.874 12.3031 109.906 12.3284 109.943 12.3433C109.98 12.3582 110.022 12.3621 110.062 12.3544C110.102 12.3467 110.14 12.3278 110.17 12.3Z" fill="#0FD03B"/>
<path d="M144.7 0.199951H139.62C139.416 0.199951 139.25 0.365606 139.25 0.569951V29.77C139.25 29.9743 139.416 30.1399 139.62 30.1399H144.7C144.904 30.1399 145.07 29.9743 145.07 29.77V0.569951C145.07 0.365606 144.904 0.199951 144.7 0.199951Z" fill="#0FD03B"/>
<path d="M215 0.219971V30.03L209.72 30.07C209.577 30.07 209.439 30.0131 209.338 29.9118C209.237 29.8105 209.18 29.6732 209.18 29.53V0.769971C209.18 0.62847 209.235 0.492613 209.335 0.391626C209.434 0.290638 209.568 0.232591 209.71 0.229971L215 0.219971Z" fill="#0FD03B"/>
<path d="M0 14.7101V11.7901C1.28 4.20011 9.2 2.09011 14.78 7.32011C14.894 7.42928 15.0471 7.4884 15.2062 7.48465C15.3653 7.48091 15.5176 7.41461 15.63 7.30011C22.09 0.770108 32.51 6.47011 29.84 15.3701C29.46 16.6434 28.2967 18.1834 26.35 19.9901C21.41 24.5768 17.8433 27.8334 15.65 29.7601C15.5023 29.8913 15.313 29.9663 15.1155 29.9718C14.9179 29.9773 14.7248 29.9129 14.57 29.7901C8.81 25.1568 3.95333 20.1301 0 14.7101ZM14.36 26.3001C14.1 21.9934 13.8867 17.8101 13.72 13.7501C13.6733 12.5768 13.78 11.3168 14.04 9.97011C14.0685 9.82189 14.0664 9.6692 14.0337 9.52135C14.001 9.37349 13.9385 9.23357 13.85 9.11011C10.07 3.99011 2.5 5.95011 1.82 12.0901C1.46 15.3501 3.78 17.4301 6.53 19.9801C8.99 22.2601 11.3967 24.4668 13.75 26.6001C13.8025 26.6505 13.8689 26.6833 13.9406 26.6942C14.0122 26.7051 14.0858 26.6936 14.1517 26.6612C14.2176 26.6288 14.2727 26.577 14.3099 26.5126C14.347 26.4481 14.3645 26.3741 14.36 26.3001ZM24.92 12.6301C24.92 12.2427 24.8437 11.8591 24.6954 11.5012C24.5472 11.1433 24.3299 10.8181 24.056 10.5441C23.782 10.2702 23.4568 10.0529 23.0989 9.90466C22.741 9.75641 22.3574 9.68011 21.97 9.68011C21.1876 9.68011 20.4373 9.99091 19.884 10.5441C19.3308 11.0974 19.02 11.8477 19.02 12.6301C19.02 13.4125 19.3308 14.1628 19.884 14.7161C20.4373 15.2693 21.1876 15.5801 21.97 15.5801C22.3574 15.5801 22.741 15.5038 23.0989 15.3556C23.4568 15.2073 23.782 14.99 24.056 14.7161C24.3299 14.4421 24.5472 14.1169 24.6954 13.759C24.8437 13.4011 24.92 13.0175 24.92 12.6301Z" fill="#0FD03B"/>
<path d="M136.38 25.2799C136.501 25.244 136.629 25.237 136.753 25.2593C136.878 25.2816 136.995 25.3328 137.096 25.4085C137.197 25.4843 137.279 25.5827 137.335 25.6958C137.392 25.8089 137.421 25.9336 137.42 26.0599V29.0599C137.419 29.3327 137.322 29.5961 137.146 29.8031C136.97 30.0101 136.727 30.1472 136.46 30.1899C131.687 30.9632 128.557 29.4065 127.07 25.5199C126.911 25.1035 126.83 24.6629 126.83 24.2199V16.1799C126.83 16.0101 126.763 15.8474 126.643 15.7273C126.523 15.6073 126.36 15.5399 126.19 15.5399H123.99C123.81 15.5399 123.637 15.4682 123.509 15.3407C123.382 15.2132 123.31 15.0402 123.31 14.8599V11.1199C123.31 10.9687 123.37 10.8237 123.477 10.7168C123.584 10.6099 123.729 10.5499 123.88 10.5499H126.37C126.505 10.5499 126.635 10.4962 126.731 10.4005C126.826 10.3049 126.88 10.1751 126.88 10.0399V4.68988C126.88 4.64917 126.888 4.60886 126.904 4.57125C126.919 4.53364 126.942 4.49947 126.971 4.47068C127 4.44189 127.034 4.41906 127.071 4.40348C127.109 4.3879 127.149 4.37988 127.19 4.37988H132.24C132.341 4.37988 132.437 4.41886 132.509 4.48825C132.58 4.55764 132.62 4.65175 132.62 4.74988V10.0599C132.62 10.1898 132.672 10.3145 132.764 10.4064C132.855 10.4983 132.98 10.5499 133.11 10.5499H137.14C137.233 10.5499 137.322 10.5868 137.388 10.6524C137.453 10.718 137.49 10.8071 137.49 10.8999V15.1199C137.49 15.1764 137.479 15.2323 137.458 15.2844C137.437 15.3366 137.406 15.384 137.367 15.4239C137.328 15.4639 137.282 15.4955 137.231 15.5172C137.18 15.5388 137.125 15.5499 137.07 15.5499H133.08C132.947 15.5499 132.82 15.6036 132.727 15.6993C132.633 15.7949 132.58 15.9246 132.58 16.0599V23.4199C132.58 23.6925 132.656 23.9591 132.8 24.1891C132.943 24.4191 133.147 24.603 133.39 24.7199C134.637 25.3132 135.633 25.4999 136.38 25.2799Z" fill="#0FD03B"/>
<path d="M12.18 12.6801C12.18 13.1831 12.081 13.6811 11.8885 14.1458C11.696 14.6105 11.4139 15.0327 11.0582 15.3883C10.7026 15.744 10.2804 16.0261 9.8157 16.2186C9.35102 16.411 8.85298 16.5101 8.35002 16.5101C7.33424 16.5101 6.36006 16.1066 5.6418 15.3883C4.92354 14.6701 4.52002 13.6959 4.52002 12.6801C4.52002 11.6643 4.92354 10.6901 5.6418 9.97188C6.36006 9.25361 7.33424 8.8501 8.35002 8.8501C9.3658 8.8501 10.34 9.25361 11.0582 9.97188C11.7765 10.6901 12.18 11.6643 12.18 12.6801ZM10.39 12.6901C10.39 12.1438 10.173 11.6198 9.78666 11.2335C9.40033 10.8471 8.87637 10.6301 8.33002 10.6301C7.78367 10.6301 7.2597 10.8471 6.87338 11.2335C6.48705 11.6198 6.27002 12.1438 6.27002 12.6901C6.27002 13.2364 6.48705 13.7604 6.87338 14.1467C7.2597 14.5331 7.78367 14.7501 8.33002 14.7501C8.87637 14.7501 9.40033 14.5331 9.78666 14.1467C10.173 13.7604 10.39 13.2364 10.39 12.6901Z" fill="#0FD03B"/>
<path d="M168.18 19.71C168.347 22.4446 167.371 25.1366 165.465 27.194C163.56 29.2514 160.882 30.5056 158.021 30.6806C155.159 30.8556 152.348 29.9371 150.206 28.1273C148.065 26.3174 146.767 23.7644 146.6 21.0298C146.433 18.2952 147.409 15.6031 149.315 13.5458C151.22 11.4884 153.898 10.2342 156.759 10.0592C159.621 9.88419 162.432 10.8026 164.574 12.6125C166.715 14.4224 168.013 16.9754 168.18 19.71ZM157.412 15.3002C156.145 15.2869 154.924 15.8009 154.017 16.7292C153.111 17.6574 152.594 18.9238 152.58 20.2498C152.566 21.5758 153.057 22.8528 153.943 23.7998C154.83 24.7468 156.04 25.2863 157.308 25.2996C158.575 25.3129 159.797 24.7989 160.703 23.8706C161.609 22.9424 162.126 21.676 162.14 20.35C162.154 19.024 161.663 17.747 160.777 16.8C159.89 15.853 158.68 15.3135 157.412 15.3002Z" fill="#0FD03B"/>
<path d="M174.87 20.42C174.91 25.72 181.21 27.11 183.62 22.63C183.663 22.5565 183.73 22.5008 183.809 22.4732C183.888 22.4456 183.974 22.448 184.05 22.48L188.59 24.34C188.661 24.3697 188.719 24.4246 188.75 24.4935C188.782 24.5624 188.785 24.6399 188.76 24.71C186.79 30.06 180.8 31.72 175.72 30.03C171.38 28.58 169.07 25.08 169.04 20.47C169 15.85 171.26 12.31 175.57 10.8C180.62 9.03003 186.64 10.59 188.69 15.91C188.716 15.9789 188.714 16.0555 188.684 16.1242C188.655 16.1929 188.599 16.2486 188.53 16.28L184.02 18.22C183.943 18.2549 183.855 18.2588 183.774 18.231C183.692 18.2033 183.623 18.1459 183.58 18.07C181.1 13.63 174.82 15.12 174.87 20.42Z" fill="#0FD03B"/>
<path d="M201.27 28.4999C197.99 32.6299 189.42 30.6099 189.52 24.5099C189.61 18.9599 195.37 18.4399 200.12 18.5299C200.487 18.5334 200.844 18.413 201.134 18.188C201.424 17.9631 201.63 17.6469 201.718 17.2905C201.806 16.9342 201.771 16.5586 201.619 16.2245C201.467 15.8905 201.206 15.6176 200.88 15.4499C198.42 14.2033 196.333 14.6599 194.62 16.8199C194.504 16.9698 194.337 17.0725 194.15 17.1093C193.962 17.146 193.767 17.1143 193.6 17.0199L190.35 15.1399C190.259 15.0869 190.181 15.0155 190.12 14.9304C190.059 14.8452 190.016 14.7484 189.996 14.6463C189.975 14.5441 189.976 14.439 189.999 14.3379C190.022 14.2368 190.067 14.1421 190.13 14.0599C192.597 10.8466 196.14 9.57327 200.76 10.2399C206.2 11.0199 207.59 14.9199 207.4 20.0999C207.36 21.3133 207.36 24.4299 207.4 29.4499C207.401 29.5466 207.383 29.6426 207.347 29.7324C207.311 29.8221 207.258 29.9038 207.19 29.9726C207.122 30.0415 207.041 30.0961 206.952 30.1334C206.862 30.1707 206.767 30.1899 206.67 30.1899H202.51C202.427 30.1895 202.345 30.1712 202.269 30.1363C202.194 30.1014 202.127 30.0507 202.074 29.9877C202.02 29.9248 201.982 29.8513 201.96 29.7722C201.939 29.6931 201.935 29.6104 201.95 29.5299C202.017 29.1233 202.003 28.8099 201.91 28.5899C201.886 28.5285 201.846 28.4745 201.795 28.4335C201.743 28.3926 201.682 28.3662 201.616 28.357C201.551 28.3478 201.485 28.3562 201.424 28.3814C201.363 28.4065 201.31 28.4474 201.27 28.4999ZM201.02 22.0999C199.45 22.0099 196.52 21.7299 195.55 23.5499C195.435 23.7627 195.363 23.9957 195.338 24.2334C195.314 24.4711 195.336 24.7079 195.406 24.9277C195.475 25.1476 195.589 25.3455 195.74 25.508C195.89 25.6706 196.075 25.794 196.28 25.8699C198.893 26.8299 200.713 25.9433 201.74 23.2099C201.786 23.0895 201.802 22.9599 201.789 22.8318C201.775 22.7036 201.731 22.5805 201.661 22.4724C201.591 22.3643 201.497 22.2742 201.385 22.2095C201.274 22.1448 201.149 22.1072 201.02 22.0999Z" fill="#0FD03B"/>
<path d="M65.9799 12.5701C67.2932 10.9634 69.1299 10.1934 71.4899 10.2601C71.6534 10.2653 71.8085 10.3329 71.9224 10.4486C72.0362 10.5643 72.0999 10.7191 72.0999 10.8801V15.6001C72.1004 15.6728 72.0853 15.7448 72.0557 15.8114C72.0261 15.878 71.9825 15.9377 71.9278 15.9867C71.8732 16.0357 71.8086 16.0729 71.7384 16.0959C71.6681 16.1188 71.5937 16.1271 71.5199 16.1201C67.3332 15.6601 65.2732 17.9668 65.3399 23.0401C65.3732 25.4534 65.4166 27.7101 65.4699 29.8101C65.4712 29.8516 65.4642 29.893 65.4492 29.9318C65.4343 29.9706 65.4116 30.0059 65.3827 30.0358C65.3538 30.0656 65.3192 30.0894 65.2809 30.1056C65.2426 30.1218 65.2015 30.1301 65.1599 30.1301H59.9499C59.8703 30.1301 59.794 30.0985 59.7378 30.0422C59.6815 29.986 59.6499 29.9097 59.6499 29.8301V11.0701C59.6499 10.9295 59.7057 10.7947 59.8051 10.6953C59.9045 10.5959 60.0393 10.5401 60.1799 10.5401H64.9799C65.039 10.5401 65.0975 10.5517 65.1521 10.5743C65.2067 10.597 65.2563 10.6301 65.2981 10.6719C65.3399 10.7137 65.373 10.7633 65.3956 10.8179C65.4183 10.8725 65.4299 10.931 65.4299 10.9901V12.3701C65.4291 12.4344 65.4483 12.4973 65.4849 12.5502C65.5214 12.6031 65.5735 12.6433 65.6339 12.6652C65.6943 12.6872 65.7601 12.6899 65.8221 12.6728C65.8841 12.6558 65.9392 12.6199 65.9799 12.5701Z" fill="#0FD03B"/>
<path d="M93.0801 39.9999H89.8201C86.2067 39.6732 83.4234 37.8699 81.4701 34.5899C81.4495 34.5556 81.4357 34.5177 81.4296 34.4784C81.4235 34.439 81.4251 34.3991 81.4344 34.3609C81.4438 34.3227 81.4606 34.287 81.4838 34.2559C81.5071 34.2248 81.5364 34.199 81.5701 34.1799L85.8501 31.7099C85.916 31.6714 85.995 31.6614 86.0699 31.682C86.1447 31.7026 86.2095 31.7521 86.2501 31.8199C87.7301 34.3932 89.9801 35.3499 93.0001 34.6899C96.1301 33.9999 96.3801 30.9699 96.2401 28.1099C96.2385 28.0479 96.2184 27.9878 96.1824 27.9374C96.1463 27.8869 96.096 27.8485 96.0378 27.8269C95.9797 27.8054 95.9164 27.8018 95.8562 27.8166C95.796 27.8314 95.7416 27.8639 95.7001 27.9099C94.0667 29.6366 91.8267 30.3032 88.9801 29.9099C80.5101 28.7199 78.5401 17.6299 84.2501 12.5499C87.6767 9.50323 91.4801 9.34989 95.6601 12.0899C95.7192 12.1303 95.7884 12.1537 95.8599 12.1574C95.9315 12.1611 96.0027 12.145 96.0657 12.1109C96.1287 12.0769 96.1811 12.0261 96.2172 11.9641C96.2532 11.9022 96.2715 11.8315 96.2701 11.7599V10.9399C96.2701 10.8312 96.3132 10.7269 96.3901 10.65C96.467 10.5731 96.5713 10.5299 96.6801 10.5299H101.36C101.501 10.5299 101.635 10.5868 101.735 10.6881C101.834 10.7893 101.89 10.9267 101.89 11.0699C101.85 17.6366 101.863 23.3166 101.93 28.1099C102.03 34.7999 99.8701 38.8899 93.0801 39.9999ZM96.4001 20.1899C96.4001 18.9222 95.8964 17.7063 95 16.8099C94.1036 15.9135 92.8878 15.4099 91.6201 15.4099C90.9923 15.4099 90.3708 15.5335 89.7908 15.7737C89.2109 16.014 88.6839 16.3661 88.2401 16.8099C87.7962 17.2538 87.4441 17.7807 87.2039 18.3607C86.9637 18.9406 86.8401 19.5622 86.8401 20.1899C86.8401 20.8176 86.9637 21.4392 87.2039 22.0191C87.4441 22.5991 87.7962 23.126 88.2401 23.5699C88.6839 24.0137 89.2109 24.3658 89.7908 24.606C90.3708 24.8463 90.9923 24.9699 91.6201 24.9699C92.8878 24.9699 94.1036 24.4663 95 23.5699C95.8964 22.6734 96.4001 21.4576 96.4001 20.1899Z" fill="#0FD03B"/>
<path d="M79.0101 10.54H73.9701C73.7658 10.54 73.6001 10.7057 73.6001 10.91V29.81C73.6001 30.0144 73.7658 30.18 73.9701 30.18H79.0101C79.2144 30.18 79.3801 30.0144 79.3801 29.81V10.91C79.3801 10.7057 79.2144 10.54 79.0101 10.54Z" fill="#0FD03B"/>
</g>
<defs>
<clipPath id="clip0_5102_33279">
<rect width="215" height="40" fill="white"/>
</clipPath>
</defs>
</svg>
